<svg height="100" viewBox="0 0 100 100" width="100" xmlns="http://www.w3.org/2000/svg"><path d="m42.58 61.82-39.7-39.7c-.56-.56-.88-1.32-.88-2.12s.32-1.56.88-2.12 1.32-.88 2.12-.88 1.56.32 2.12.88l39.7 39.7c.56.56.88 1.32.88 2.12 0 .79-.32 1.56-.88 2.12s-1.33.88-2.12.88c-.8 0-1.56-.32-2.12-.88zm55.39-41.54v.08c0 .02-.01.05-.01.07 0 .03 0 .05-.01.08 0 .02 0 .05-.01.07v.01.01.01l-10.6 53.01c-.16.78-.62 1.47-1.28 1.91-.66.45-1.47.61-2.26.45-.78-.16-1.46-.62-1.9-1.28-.45-.66-.61-1.47-.45-2.26l8.67-43.31-32.7 32.69c-.56.56-1.32.88-2.12.88-.79 0-1.56-.32-2.12-.88s-.88-1.33-.88-2.12c0-.8.32-1.56.88-2.12l32.69-32.7-43.31 8.67c-.79.16-1.6 0-2.26-.45-.66-.44-1.12-1.12-1.28-1.9-.16-.79 0-1.6.45-2.26.44-.66 1.13-1.12 1.91-1.28l53.03-10.6h.01c.03-.01.06-.01.09-.02.03 0 .06 0 .09-.01h.1c.03-.01.06-.01.09-.01.07 0 .13-.02.2-.02h.02c.08 0 .17.02.26.03h.08c.02 0 .05 0 .07.01.03 0 .06 0 .08.01.03 0 .06 0 .08.01h.01c.09.02.18.05.27.08.02.01.04.01.07.02.02.01.05.01.07.02.03.01.05.02.07.02.03.01.05.02.07.03h.02c.09.04.17.1.26.14.08.04.16.08.24.13l.01.01c.02.02.04.03.06.05.02.01.04.03.06.05.02.01.04.03.06.05.02.01.04.03.06.05.07.05.14.1.21.17.06.06.11.14.17.2.02.02.03.04.05.06s.04.04.05.06c.02.02.04.04.05.07.02.02.03.04.05.06l.01.01c.05.08.08.16.12.23v.01c.02.02.03.04.04.06s.03.04.04.07c.01.02.02.04.03.06s.03.05.04.07v.02c.04.09.06.18.09.27.03.1.06.18.08.28v.01c.01.02.01.05.01.07.01.03.01.05.01.08 0 .02.01.05.01.07v.08c.01.09.03.18.03.27v.02c0 .09-.02.18-.03.27zm-47.97 56.72c.39 0 .78.08 1.15.23.36.15.69.37.97.65s.5.61.65.97c.15.37.23.76.23 1.15v7.5c0 .8-.32 1.56-.88 2.12s-1.32.88-2.12.88-1.56-.32-2.12-.88-.88-1.32-.88-2.12v-7.5c0-.39.08-.78.23-1.15.15-.36.37-.69.65-.97s.61-.5.97-.65c.37-.15.76-.23 1.15-.23zm-12.23-10.85c-.15.36-.37.69-.65.97s-.61.5-.97.65c-.37.15-.76.23-1.15.23h-7.5c-.8 0-1.56-.32-2.12-.88s-.88-1.32-.88-2.12.32-1.56.88-2.12 1.32-.88 2.12-.88h7.5c.39 0 .78.08 1.15.23.36.15.69.37.97.65s.5.61.65.97c.15.37.23.76.23 1.15s-.08.78-.23 1.15zm36.85-3.27c.56.56.88 1.32.88 2.12s-.32 1.56-.88 2.12-1.32.88-2.12.88h-7.5c-.8 0-1.56-.32-2.12-.88s-.88-1.32-.88-2.12.32-1.56.88-2.12 1.32-.88 2.12-.88h7.5c.8 0 1.56.32 2.12.88zm-27.22 6.35c.15.36.22.75.22 1.15 0 .39-.07.78-.22 1.14-.15.37-.38.7-.65.98l-10.54 10.53c-.56.56-1.32.88-2.12.88-.79 0-1.56-.32-2.12-.88s-.88-1.33-.88-2.12c0-.8.32-1.56.88-2.12l10.53-10.54c.28-.27.61-.5.98-.65.36-.15.75-.22 1.14-.22.4 0 .79.07 1.15.22.37.15.7.38.98.65.27.28.5.61.65.98zm20.63 9.56c.56.56.88 1.32.88 2.12s-.32 1.56-.88 2.12-1.32.88-2.12.88-1.56-.32-2.12-.88l-10.61-10.61c-.56-.56-.88-1.32-.88-2.12 0-.79.32-1.56.88-2.12s1.33-.88 2.12-.88c.8 0 1.56.32 2.12.88z" fill-rule="evenodd"/></svg>