<svg height="100" viewBox="0 0 100 100" width="100" xmlns="http://www.w3.org/2000/svg"><path d="m94 67c0 .26-.05.52-.15.77-.1.24-.25.46-.44.64-.18.19-.4.34-.64.44-.25.1-.51.15-.77.15h-9c-.54.01-1.05-.2-1.43-.58-.38-.37-.6-.88-.6-1.42s.22-1.05.6-1.42c.38-.38.89-.59 1.43-.58h6.81c-.47-9.53-4.26-18.15-10.22-24.78l-3.18 3.19c-.38.38-.89.6-1.43.6s-1.05-.21-1.43-.59-.59-.9-.58-1.44.23-1.05.62-1.42l3.19-3.18c-6.6-6.03-15.23-9.85-24.78-10.32v6.94c.01.54-.2 1.05-.58 1.43-.37.38-.88.6-1.42.6s-1.05-.22-1.42-.6c-.38-.38-.59-.89-.58-1.43v-6.94c-9.55.47-18.18 4.29-24.78 10.32l3.19 3.18c.39.37.61.88.62 1.42s-.2 1.06-.58 1.44-.89.59-1.43.59-1.05-.22-1.43-.6l-3.18-3.19c-5.96 6.63-9.75 15.25-10.22 24.78h6.81c.54-.01 1.05.2 1.43.58.38.37.6.88.6 1.42s-.22 1.05-.6 1.42c-.38.38-.89.59-1.43.58h-9c-.26 0-.52-.05-.77-.15-.24-.1-.46-.25-.64-.44-.19-.18-.34-.4-.44-.64-.1-.25-.15-.51-.15-.77 0-24.28 19.72-44 44-44s44 19.72 44 44zm-26.9-18.12c.33.14.61.37.81.66.21.29.34.63.37.99.03.35-.03.71-.19 1.03 0 0-2.11 4.59-4.59 9.57-1.24 2.48-2.59 5.07-3.81 7.25-1.23 2.17-2.18 3.83-3.31 4.96-3.5 3.5-9.26 3.5-12.75 0-3.5-3.49-3.5-9.22 0-12.71 1.13-1.14 2.82-2.12 5-3.35 2.17-1.22 4.76-2.54 7.25-3.78 4.97-2.48 9.56-4.59 9.56-4.59.05-.03.1-.05.15-.07s.1-.04.15-.05c.05-.02.11-.03.16-.04.05-.02.11-.02.16-.03.36-.04.71.01 1.04.16zm-9.44 8.18c-2.45 1.22-4.99 2.55-7.07 3.72-2.07 1.17-3.79 2.32-4.12 2.66-1.97 1.97-1.97 5.12 0 7.09s5.09 1.97 7.06 0c.33-.33 1.52-2.05 2.69-4.12 1.17-2.08 2.46-4.62 3.69-7.07 1.13-2.26 1.28-2.67 2.09-4.37-1.7.8-2.09.97-4.34 2.09z" fill-rule="evenodd"/><path d="m3.22 111.64v.52q-.25-.24-.53-.35-.28-.12-.6-.12-.63 0-.96.39-.33.38-.33 1.1 0 .72.33 1.1.33.39.96.39.32 0 .6-.12.28-.11.53-.35v.52q-.26.18-.55.26-.29.09-.61.09-.83 0-1.3-.5-.48-.51-.48-1.39 0-.88.48-1.38.47-.51 1.3-.51.33 0 .62.09.29.08.54.26zm2.32.58.01.47q-.08-.05-.17-.07-.09-.02-.19-.02-.39 0-.59.25-.2.25-.2.71v1.44h-.45v-2.73h.45v.42q.14-.25.37-.37.22-.12.55-.12.04 0 .1.01.06 0 .12.01zm2.71 1.3v.22h-2.07q.03.46.28.71.25.24.7.24.26 0 .5-.06.24-.07.48-.19v.42q-.24.1-.49.16-.26.05-.52.05-.65 0-1.04-.38-.38-.38-.38-1.03 0-.67.36-1.06.37-.4.98-.4.55 0 .87.36.33.35.33.96zm-2.05-.13h1.6q-.01-.37-.21-.59-.2-.22-.53-.22-.38 0-.6.21-.23.22-.26.6zm4.47.24h-.44q-.55 0-.76.12-.21.12-.21.42 0 .24.16.39.16.13.43.13.37 0 .6-.26.22-.26.22-.7zm.45-.19v1.56h-.45v-.42q-.15.25-.38.37-.23.12-.56.12-.42 0-.67-.23-.25-.24-.25-.64 0-.46.31-.69.31-.24.92-.24h.63v-.04q0-.31-.2-.48-.2-.17-.57-.17-.24 0-.46.06-.22.05-.43.17v-.42q.25-.1.48-.14.23-.05.45-.05.6 0 .89.31.29.3.29.93zm.92-1.95h.45v.78h.93v.34h-.93v1.49q0 .33.09.43.1.09.38.09h.46v.38h-.46q-.52 0-.72-.19-.2-.2-.2-.71v-1.49h-.33v-.34h.33zm4.31 2.03v.22h-2.07q.03.46.28.71.25.24.7.24.26 0 .5-.06.24-.07.48-.19v.42q-.24.1-.49.16-.26.05-.52.05-.65 0-1.04-.38-.38-.38-.38-1.03 0-.67.36-1.06.37-.4.98-.4.56 0 .88.36.32.35.32.96zm-2.05-.13h1.6q-.01-.37-.21-.59-.2-.22-.53-.22-.38 0-.6.21-.23.22-.26.6zm4.58-.71v-1.48h.45v3.8h-.45v-.41q-.14.24-.35.36-.22.12-.52.12-.5 0-.81-.39-.31-.4-.31-1.04 0-.65.31-1.04.31-.4.81-.4.3 0 .52.12.21.12.35.36zm-1.53.96q0 .49.21.77.2.28.56.28.35 0 .56-.28.2-.28.2-.77 0-.5-.2-.78-.21-.28-.56-.28-.36 0-.56.28-.21.28-.21.78zm6.46 0q0-.5-.2-.78-.21-.28-.56-.28-.36 0-.56.28-.21.28-.21.78 0 .49.21.77.2.28.56.28.35 0 .56-.28.2-.28.2-.77zm-1.53-2.44v1.48q.14-.24.36-.36.22-.12.52-.12.49 0 .8.4.32.39.32 1.04 0 .64-.32 1.04-.31.39-.8.39-.3 0-.52-.12-.22-.12-.36-.36v.41h-.45v-3.8zm5.08 1.07-1.2 2.98q-.19.49-.37.64-.18.15-.48.15h-.36v-.38h.26q.19 0 .29-.08.1-.09.23-.42l.08-.2-1.11-2.69h.48l.85 2.13.85-2.13zm2.23 2.73v-3.65h.49v3.65zm3.42-2.63v.42q-.19-.1-.38-.16-.19-.05-.39-.05-.43 0-.68.28-.24.27-.24.78 0 .5.24.77.25.28.68.28.2 0 .39-.05.19-.06.38-.16v.42q-.19.08-.39.13-.2.04-.43.04-.61 0-.98-.39-.36-.39-.36-1.04 0-.67.37-1.06.36-.38 1-.38.21 0 .41.04.2.05.38.13zm1.84.21q-.36 0-.57.28-.21.28-.21.78 0 .49.21.77.21.28.57.28.36 0 .57-.28.21-.29.21-.77 0-.49-.21-.77-.21-.29-.57-.29zm0-.38q.59 0 .92.38.34.38.34 1.06 0 .67-.34 1.05-.33.38-.92.38-.58 0-.92-.38-.33-.38-.33-1.05 0-.68.33-1.06.34-.38.92-.38zm4.28 1.15v1.65h-.45v-1.64q0-.38-.15-.58-.16-.19-.46-.19-.36 0-.57.23-.21.23-.21.63v1.55h-.45v-2.73h.45v.42q.16-.25.38-.37.22-.12.5-.12.47 0 .71.29.25.29.25.86zm2.64-1v.42q-.2-.1-.4-.15-.21-.04-.43-.04-.33 0-.5.1-.16.1-.16.31 0 .15.12.24.12.09.48.17l.15.04q.48.1.68.29.2.18.2.52 0 .38-.3.6-.3.22-.83.22-.22 0-.46-.04-.23-.04-.5-.13v-.46q.25.13.49.19.24.06.48.06.32 0 .49-.1.17-.11.17-.31 0-.18-.12-.28-.13-.1-.54-.19l-.16-.04q-.42-.08-.6-.26-.19-.19-.19-.5 0-.39.27-.6.28-.21.78-.21.25 0 .47.04.22.03.41.11zm3.75.91h-.79v1.33h.79q.4 0 .59-.16.19-.16.19-.5 0-.35-.19-.51-.19-.16-.59-.16zm-.06-1.5h-.73v1.1h.73q.36 0 .54-.14.17-.13.17-.41 0-.28-.17-.41-.18-.14-.54-.14zm-1.22 3.24v-3.65h1.26q.56 0 .86.24.31.23.31.67 0 .33-.16.53-.15.2-.46.24.37.08.57.33.2.25.2.62 0 .49-.33.75-.33.27-.95.27zm5.1-1.37h-.45q-.55 0-.76.12-.21.12-.21.42 0 .24.16.39.16.13.43.13.37 0 .6-.26.23-.26.23-.7zm.45-.19v1.56h-.45v-.42q-.16.25-.39.37-.23.12-.56.12-.42 0-.67-.23-.24-.24-.24-.64 0-.46.3-.69.31-.24.93-.24h.63v-.04q0-.31-.21-.48-.2-.17-.57-.17-.23 0-.46.06-.22.05-.42.17v-.42q.24-.1.47-.14.24-.05.46-.05.59 0 .88.31.3.3.3.93zm.73-.82v-.35h2.13v.41l-1.69 1.96h1.69v.36h-2.2v-.41l1.69-1.97zm4.5 1.01h-.44q-.55 0-.76.12-.21.12-.21.42 0 .24.16.39.16.13.43.13.37 0 .6-.26.22-.26.22-.7zm.45-.19v1.56h-.45v-.42q-.15.25-.38.37-.23.12-.56.12-.42 0-.67-.23-.25-.24-.25-.64 0-.46.31-.69.31-.24.92-.24h.63v-.04q0-.31-.2-.48-.2-.17-.57-.17-.24 0-.46.06-.22.05-.43.17v-.42q.25-.1.48-.14.23-.05.45-.05.6 0 .89.31.29.3.29.93zm2.62.19h-.45q-.54 0-.75.12-.21.12-.21.42 0 .24.15.39.16.13.43.13.38 0 .6-.26.23-.26.23-.7zm.45-.19v1.56h-.45v-.42q-.16.25-.38.37-.23.12-.57.12-.42 0-.67-.23-.24-.24-.24-.64 0-.46.31-.69.31-.24.92-.24h.63v-.04q0-.31-.21-.48-.2-.17-.57-.17-.23 0-.45.06-.23.05-.43.17v-.42q.24-.1.48-.14.23-.05.45-.05.59 0 .88.31.3.3.3.93zm2.5-1.22.01.47q-.08-.05-.17-.07-.09-.02-.19-.02-.38 0-.59.25-.2.25-.2.71v1.44h-.45v-2.73h.45v.42q.14-.25.37-.37.22-.12.55-.12.04 0 .1.01.06 0 .12.01z"/><path d="m1.43 116.2h.43v.37h-.43q-.25 0-.34.1-.09.1-.09.35v.25h.74v.34h-.74v2.39h-.46v-2.39h-.43v-.34h.43v-.19q0-.46.22-.67.21-.21.67-.21zm2.38 1.02.01.47q-.08-.05-.17-.07-.09-.02-.2-.02-.38 0-.58.25-.2.25-.2.71v1.44h-.46v-2.73h.46v.42q.14-.25.36-.37.23-.12.56-.12.04 0 .1.01.06 0 .12.01zm1.43.36q-.36 0-.57.28-.21.28-.21.78 0 .49.2.77.21.28.58.28.36 0 .57-.28.21-.29.21-.77 0-.49-.21-.77-.21-.29-.57-.29zm0-.38q.58 0 .92.38.33.38.33 1.06 0 .67-.33 1.05-.34.38-.92.38-.59 0-.93-.38-.33-.38-.33-1.05 0-.68.33-1.06.34-.38.93-.38zm4.13.59q.16-.3.4-.45.23-.14.55-.14.43 0 .66.3.23.3.23.85v1.65h-.45v-1.64q0-.39-.14-.58-.14-.19-.42-.19-.35 0-.56.23-.2.23-.2.63v1.55h-.45v-1.64q0-.39-.14-.58-.14-.19-.43-.19-.34 0-.55.23-.2.24-.2.63v1.55h-.45v-2.73h.45v.42q.15-.25.37-.37.21-.12.51-.12.3 0 .51.15.21.15.31.44zm4.32-1.3h.45v.78h.93v.34h-.93v1.49q0 .33.09.43.09.09.37.09h.47v.38h-.47q-.52 0-.71-.19-.2-.2-.2-.71v-1.49h-.33v-.34h.33zm4.24 1.86v1.65h-.45v-1.64q0-.38-.15-.58-.15-.19-.45-.19-.37 0-.58.23-.21.23-.21.63v1.55h-.45v-3.8h.45v1.49q.16-.25.38-.37.22-.12.51-.12.47 0 .71.29.24.29.24.86zm3.23.17v.22h-2.06q.03.46.28.71.25.24.7.24.25 0 .5-.06.24-.07.48-.19v.42q-.24.1-.5.16-.25.05-.51.05-.66 0-1.04-.38-.38-.38-.38-1.03 0-.67.36-1.06.37-.4.98-.4.55 0 .87.36.32.35.32.96zm-2.05-.13h1.61q-.01-.37-.21-.59-.2-.22-.53-.22-.38 0-.61.21-.22.22-.26.6zm4.4 1.61v-3.65h.66l1.62 3.05v-3.05h.48v3.65h-.66l-1.62-3.05v3.05zm4.78-2.42q-.36 0-.57.28-.21.28-.21.78 0 .49.21.77.21.28.57.28.36 0 .57-.28.21-.29.21-.77 0-.49-.21-.77-.21-.29-.57-.29zm0-.38q.59 0 .92.38.34.38.34 1.06 0 .67-.34 1.05-.33.38-.92.38-.59 0-.92-.38-.33-.38-.33-1.05 0-.68.33-1.06.33-.38.92-.38zm1.95 1.72v-1.65h.45v1.63q0 .39.15.59.16.19.46.19.36 0 .57-.23.21-.23.21-.63v-1.55h.45v2.73h-.45v-.42q-.16.25-.38.37-.21.12-.5.12-.47 0-.71-.29-.25-.3-.25-.86zm5.49-.57v1.65h-.45v-1.64q0-.38-.15-.58-.15-.19-.45-.19-.37 0-.58.23-.21.23-.21.63v1.55h-.45v-2.73h.45v.42q.17-.25.38-.37.22-.12.51-.12.47 0 .71.29.24.29.24.86zm3.62-1.59h-.62v1.37h.62q.34 0 .53-.18.19-.18.19-.51 0-.32-.19-.5-.19-.18-.53-.18zm-1.11 3.24v-3.65h1.11q.61 0 .93.28.31.28.31.81 0 .54-.31.82-.32.28-.93.28h-.62v1.46zm4.49-2.78v.47q-.08-.05-.17-.07-.08-.02-.19-.02-.38 0-.59.25-.2.25-.2.71v1.44h-.45v-2.73h.45v.42q.14-.25.37-.37.23-.12.55-.12.05 0 .1.01.06 0 .13.01zm1.42.36q-.36 0-.57.28-.21.28-.21.78 0 .49.21.77.21.28.57.28.36 0 .57-.28.21-.29.21-.77 0-.49-.21-.77-.21-.29-.57-.29zm0-.38q.59 0 .92.38.34.38.34 1.06 0 .67-.34 1.05-.33.38-.92.38-.59 0-.92-.38-.33-.38-.33-1.05 0-.68.33-1.06.33-.38.92-.38zm2 2.85v-2.78h.45v2.78q0 .52-.2.76-.2.23-.64.23h-.17v-.38h.12q.25 0 .35-.12.09-.12.09-.49zm0-3.28v-.57h.45v.57zm3.73 1.75v.22h-2.07q.03.46.28.71.25.24.7.24.26 0 .5-.06.24-.07.48-.19v.42q-.24.1-.49.16-.26.05-.52.05-.65 0-1.04-.38-.38-.38-.38-1.03 0-.67.37-1.06.36-.4.97-.4.56 0 .88.36.32.35.32.96zm-2.05-.13h1.6q-.01-.37-.21-.59-.2-.22-.53-.22-.38 0-.6.21-.23.22-.26.6zm4.75-1.02v.42q-.19-.1-.38-.16-.19-.05-.39-.05-.43 0-.67.28-.25.27-.25.78 0 .5.25.77.24.28.67.28.2 0 .39-.05.19-.06.38-.16v.42q-.18.08-.39.13-.2.04-.42.04-.62 0-.99-.39-.36-.39-.36-1.04 0-.67.37-1.06.36-.38 1-.38.21 0 .41.04.2.05.38.13zm.78-.88h.45v.78h.92v.34h-.92v1.49q0 .33.09.43.09.09.37.09h.46v.38h-.46q-.52 0-.72-.19-.19-.2-.19-.71v-1.49h-.33v-.34h.33z"/></svg>