<svg xmlns="http://www.w3.org/2000/svg" viewBox="0 0 100 100" width="100" height="100">
	<style>
		tspan { white-space:pre }
		.shp0 { fill: #000000 } 
	</style>
	<g id="Layer">
		<path id="Layer" fill-rule="evenodd" class="shp0" d="M94 67C94 67.26 93.95 67.52 93.85 67.77C93.75 68.01 93.6 68.23 93.41 68.41C93.23 68.6 93.01 68.75 92.77 68.85C92.52 68.95 92.26 69 92 69L83 69C82.46 69.01 81.95 68.8 81.57 68.42C81.19 68.05 80.97 67.54 80.97 67C80.97 66.46 81.19 65.95 81.57 65.58C81.95 65.2 82.46 64.99 83 65L89.81 65C89.34 55.47 85.55 46.85 79.59 40.22L76.41 43.41C76.03 43.79 75.52 44.01 74.98 44.01C74.44 44.01 73.93 43.8 73.55 43.42C73.17 43.04 72.96 42.52 72.97 41.98C72.98 41.44 73.2 40.93 73.59 40.56L76.78 37.38C70.18 31.35 61.55 27.53 52 27.06L52 34C52.01 34.54 51.8 35.05 51.42 35.43C51.05 35.81 50.54 36.03 50 36.03C49.46 36.03 48.95 35.81 48.58 35.43C48.2 35.05 47.99 34.54 48 34L48 27.06C38.45 27.53 29.82 31.35 23.22 37.38L26.41 40.56C26.8 40.93 27.02 41.44 27.03 41.98C27.04 42.52 26.83 43.04 26.45 43.42C26.07 43.8 25.56 44.01 25.02 44.01C24.48 44.01 23.97 43.79 23.59 43.41L20.41 40.22C14.45 46.85 10.66 55.47 10.19 65L17 65C17.54 64.99 18.05 65.2 18.43 65.58C18.81 65.95 19.03 66.46 19.03 67C19.03 67.54 18.81 68.05 18.43 68.42C18.05 68.8 17.54 69.01 17 69L8 69C7.74 69 7.48 68.95 7.23 68.85C6.99 68.75 6.77 68.6 6.59 68.41C6.4 68.23 6.25 68.01 6.15 67.77C6.05 67.52 6 67.26 6 67C6 42.72 25.72 23 50 23C74.28 23 94 42.72 94 67ZM67.1 48.88C67.43 49.02 67.71 49.25 67.91 49.54C68.12 49.83 68.25 50.17 68.28 50.53C68.31 50.88 68.25 51.24 68.09 51.56C68.09 51.56 65.98 56.15 63.5 61.13C62.26 63.61 60.91 66.2 59.69 68.38C58.46 70.55 57.51 72.21 56.38 73.34C52.88 76.84 47.12 76.84 43.63 73.34C40.13 69.85 40.13 64.12 43.63 60.63C44.76 59.49 46.45 58.51 48.63 57.28C50.8 56.06 53.39 54.74 55.88 53.5C60.85 51.02 65.44 48.91 65.44 48.91C65.49 48.88 65.54 48.86 65.59 48.84C65.64 48.82 65.69 48.8 65.74 48.79C65.79 48.77 65.85 48.76 65.9 48.75C65.95 48.73 66.01 48.73 66.06 48.72C66.42 48.68 66.77 48.73 67.1 48.88ZM57.66 57.06C55.21 58.28 52.67 59.61 50.59 60.78C48.52 61.95 46.8 63.1 46.47 63.44C44.5 65.41 44.5 68.56 46.47 70.53C48.44 72.5 51.56 72.5 53.53 70.53C53.86 70.2 55.05 68.48 56.22 66.41C57.39 64.33 58.68 61.79 59.91 59.34C61.04 57.08 61.19 56.67 62 54.97C60.3 55.77 59.91 55.94 57.66 57.06Z" />
	</g>
	<path id="Created by Icons Bazaar" fill="#000000" d="M3.22 111.64L3.22 112.16Q2.97 111.92 2.69 111.81Q2.41 111.69 2.09 111.69Q1.46 111.69 1.13 112.08Q0.8 112.46 0.8 113.18Q0.8 113.9 1.13 114.28Q1.46 114.67 2.09 114.67Q2.41 114.67 2.69 114.55Q2.97 114.44 3.22 114.2L3.22 114.72Q2.96 114.9 2.67 114.98Q2.38 115.07 2.06 115.07Q1.23 115.07 0.76 114.57Q0.28 114.06 0.28 113.18Q0.28 112.3 0.76 111.8Q1.23 111.29 2.06 111.29Q2.39 111.29 2.68 111.38Q2.97 111.46 3.22 111.64ZM5.54 112.22L5.55 112.69Q5.47 112.64 5.38 112.62Q5.29 112.6 5.19 112.6Q4.8 112.6 4.6 112.85Q4.4 113.1 4.4 113.56L4.4 115L3.95 115L3.95 112.27L4.4 112.27L4.4 112.69Q4.54 112.44 4.77 112.32Q4.99 112.2 5.32 112.2Q5.36 112.2 5.42 112.21Q5.48 112.21 5.54 112.22ZM8.25 113.52L8.25 113.74L6.18 113.74Q6.21 114.2 6.46 114.45Q6.71 114.69 7.16 114.69Q7.42 114.69 7.66 114.63Q7.9 114.56 8.14 114.44L8.14 114.86Q7.9 114.96 7.65 115.02Q7.39 115.07 7.13 115.07Q6.48 115.07 6.09 114.69Q5.71 114.31 5.71 113.66Q5.71 112.99 6.07 112.6Q6.44 112.2 7.05 112.2Q7.6 112.2 7.92 112.56Q8.25 112.91 8.25 113.52ZM6.2 113.39L7.8 113.39Q7.79 113.02 7.59 112.8Q7.39 112.58 7.06 112.58Q6.68 112.58 6.46 112.79Q6.23 113.01 6.2 113.39ZM10.67 113.63L10.23 113.63Q9.68 113.63 9.47 113.75Q9.26 113.87 9.26 114.17Q9.26 114.41 9.42 114.56Q9.58 114.69 9.85 114.69Q10.22 114.69 10.45 114.43Q10.67 114.17 10.67 113.73L10.67 113.63ZM11.12 113.44L11.12 115L10.67 115L10.67 114.58Q10.52 114.83 10.29 114.95Q10.06 115.07 9.73 115.07Q9.31 115.07 9.06 114.84Q8.81 114.6 8.81 114.2Q8.81 113.74 9.12 113.51Q9.43 113.27 10.04 113.27L10.67 113.27L10.67 113.23Q10.67 112.92 10.47 112.75Q10.27 112.58 9.9 112.58Q9.66 112.58 9.44 112.64Q9.22 112.69 9.01 112.81L9.01 112.39Q9.26 112.29 9.49 112.25Q9.72 112.2 9.94 112.2Q10.54 112.2 10.83 112.51Q11.12 112.81 11.12 113.44ZM12.04 111.49L12.49 111.49L12.49 112.27L13.42 112.27L13.42 112.61L12.49 112.61L12.49 114.1Q12.49 114.43 12.58 114.53Q12.68 114.62 12.96 114.62L13.42 114.62L13.42 115L12.96 115Q12.44 115 12.24 114.81Q12.04 114.61 12.04 114.1L12.04 112.61L11.71 112.61L11.71 112.27L12.04 112.27L12.04 111.49ZM16.35 113.52L16.35 113.74L14.28 113.74Q14.31 114.2 14.56 114.45Q14.81 114.69 15.26 114.69Q15.52 114.69 15.76 114.63Q16 114.56 16.24 114.44L16.24 114.86Q16 114.96 15.75 115.02Q15.49 115.07 15.23 115.07Q14.58 115.07 14.19 114.69Q13.81 114.31 13.81 113.66Q13.81 112.99 14.17 112.6Q14.54 112.2 15.15 112.2Q15.71 112.2 16.03 112.56Q16.35 112.91 16.35 113.52ZM14.3 113.39L15.9 113.39Q15.89 113.02 15.69 112.8Q15.49 112.58 15.16 112.58Q14.78 112.58 14.56 112.79Q14.33 113.01 14.3 113.39ZM18.88 112.68L18.88 111.2L19.33 111.2L19.33 115L18.88 115L18.88 114.59Q18.74 114.83 18.53 114.95Q18.31 115.07 18.01 115.07Q17.51 115.07 17.2 114.68Q16.89 114.28 16.89 113.64Q16.89 112.99 17.2 112.6Q17.51 112.2 18.01 112.2Q18.31 112.2 18.53 112.32Q18.74 112.44 18.88 112.68ZM17.35 113.64Q17.35 114.13 17.56 114.41Q17.76 114.69 18.12 114.69Q18.47 114.69 18.68 114.41Q18.88 114.13 18.88 113.64Q18.88 113.14 18.68 112.86Q18.47 112.58 18.12 112.58Q17.76 112.58 17.56 112.86Q17.35 113.14 17.35 113.64ZM23.81 113.64Q23.81 113.14 23.61 112.86Q23.4 112.58 23.05 112.58Q22.69 112.58 22.49 112.86Q22.28 113.14 22.28 113.64Q22.28 114.13 22.49 114.41Q22.69 114.69 23.05 114.69Q23.4 114.69 23.61 114.41Q23.81 114.13 23.81 113.64ZM22.28 111.2L22.28 112.68Q22.42 112.44 22.64 112.32Q22.86 112.2 23.16 112.2Q23.65 112.2 23.96 112.6Q24.28 112.99 24.28 113.64Q24.28 114.28 23.96 114.68Q23.65 115.07 23.16 115.07Q22.86 115.07 22.64 114.95Q22.42 114.83 22.28 114.59L22.28 115L21.83 115L21.83 111.2L22.28 111.2ZM27.36 112.27L26.16 115.25Q25.97 115.74 25.79 115.89Q25.61 116.04 25.31 116.04L24.95 116.04L24.95 115.66L25.21 115.66Q25.4 115.66 25.5 115.58Q25.6 115.49 25.73 115.16L25.81 114.96L24.7 112.27L25.18 112.27L26.03 114.4L26.88 112.27L27.36 112.27ZM29.59 115L29.59 111.35L30.08 111.35L30.08 115L29.59 115ZM33.01 112.37L33.01 112.79Q32.82 112.69 32.63 112.63Q32.44 112.58 32.24 112.58Q31.81 112.58 31.56 112.86Q31.32 113.13 31.32 113.64Q31.32 114.14 31.56 114.41Q31.81 114.69 32.24 114.69Q32.44 114.69 32.63 114.64Q32.82 114.58 33.01 114.48L33.01 114.9Q32.82 114.98 32.62 115.03Q32.42 115.07 32.19 115.07Q31.58 115.07 31.21 114.68Q30.85 114.29 30.85 113.64Q30.85 112.97 31.22 112.58Q31.58 112.2 32.22 112.2Q32.43 112.2 32.63 112.24Q32.83 112.29 33.01 112.37ZM34.85 112.58Q34.49 112.58 34.28 112.86Q34.07 113.14 34.07 113.64Q34.07 114.13 34.28 114.41Q34.49 114.69 34.85 114.69Q35.21 114.69 35.42 114.41Q35.63 114.12 35.63 113.64Q35.63 113.15 35.42 112.87Q35.21 112.58 34.85 112.58ZM34.85 112.2Q35.44 112.2 35.77 112.58Q36.11 112.96 36.11 113.64Q36.11 114.31 35.77 114.69Q35.44 115.07 34.85 115.07Q34.27 115.07 33.93 114.69Q33.6 114.31 33.6 113.64Q33.6 112.96 33.93 112.58Q34.27 112.2 34.85 112.2ZM39.13 113.35L39.13 115L38.68 115L38.68 113.36Q38.68 112.98 38.53 112.78Q38.37 112.59 38.07 112.59Q37.71 112.59 37.5 112.82Q37.29 113.05 37.29 113.45L37.29 115L36.84 115L36.84 112.27L37.29 112.27L37.29 112.69Q37.45 112.44 37.67 112.32Q37.89 112.2 38.17 112.2Q38.64 112.2 38.88 112.49Q39.13 112.78 39.13 113.35ZM41.77 112.35L41.77 112.77Q41.57 112.67 41.37 112.62Q41.16 112.58 40.94 112.58Q40.61 112.58 40.44 112.68Q40.28 112.78 40.28 112.99Q40.28 113.14 40.4 113.23Q40.52 113.32 40.88 113.4L41.03 113.44Q41.51 113.54 41.71 113.73Q41.91 113.91 41.91 114.25Q41.91 114.63 41.61 114.85Q41.31 115.07 40.78 115.07Q40.56 115.07 40.32 115.03Q40.09 114.99 39.82 114.9L39.82 114.44Q40.07 114.57 40.31 114.63Q40.55 114.69 40.79 114.69Q41.11 114.69 41.28 114.59Q41.45 114.48 41.45 114.28Q41.45 114.1 41.33 114Q41.2 113.9 40.79 113.81L40.63 113.77Q40.21 113.69 40.03 113.51Q39.84 113.32 39.84 113.01Q39.84 112.62 40.11 112.41Q40.39 112.2 40.89 112.2Q41.14 112.2 41.36 112.24Q41.58 112.27 41.77 112.35ZM45.52 113.26L44.73 113.26L44.73 114.59L45.52 114.59Q45.92 114.59 46.11 114.43Q46.3 114.27 46.3 113.93Q46.3 113.58 46.11 113.42Q45.92 113.26 45.52 113.26ZM45.46 111.76L44.73 111.76L44.73 112.86L45.46 112.86Q45.82 112.86 46 112.72Q46.17 112.59 46.17 112.31Q46.17 112.03 46 111.9Q45.82 111.76 45.46 111.76ZM44.24 115L44.24 111.35L45.5 111.35Q46.06 111.35 46.36 111.59Q46.67 111.82 46.67 112.26Q46.67 112.59 46.51 112.79Q46.36 112.99 46.05 113.03Q46.42 113.11 46.62 113.36Q46.82 113.61 46.82 113.98Q46.82 114.47 46.49 114.73Q46.16 115 45.54 115L44.24 115ZM49.34 113.63L48.89 113.63Q48.34 113.63 48.13 113.75Q47.92 113.87 47.92 114.17Q47.92 114.41 48.08 114.56Q48.24 114.69 48.51 114.69Q48.88 114.69 49.11 114.43Q49.34 114.17 49.34 113.73L49.34 113.63ZM49.79 113.44L49.79 115L49.34 115L49.34 114.58Q49.18 114.83 48.95 114.95Q48.72 115.07 48.39 115.07Q47.97 115.07 47.72 114.84Q47.48 114.6 47.48 114.2Q47.48 113.74 47.78 113.51Q48.09 113.27 48.71 113.27L49.34 113.27L49.34 113.23Q49.34 112.92 49.13 112.75Q48.93 112.58 48.56 112.58Q48.33 112.58 48.1 112.64Q47.88 112.69 47.68 112.81L47.68 112.39Q47.92 112.29 48.15 112.25Q48.39 112.2 48.61 112.2Q49.2 112.2 49.49 112.51Q49.79 112.81 49.79 113.44ZM50.52 112.62L50.52 112.27L52.65 112.27L52.65 112.68L50.96 114.64L52.65 114.64L52.65 115L50.45 115L50.45 114.59L52.14 112.62L50.52 112.62ZM55.02 113.63L54.58 113.63Q54.03 113.63 53.82 113.75Q53.61 113.87 53.61 114.17Q53.61 114.41 53.77 114.56Q53.93 114.69 54.2 114.69Q54.57 114.69 54.8 114.43Q55.02 114.17 55.02 113.73L55.02 113.63ZM55.47 113.44L55.47 115L55.02 115L55.02 114.58Q54.87 114.83 54.64 114.95Q54.41 115.07 54.08 115.07Q53.66 115.07 53.41 114.84Q53.16 114.6 53.16 114.2Q53.16 113.74 53.47 113.51Q53.78 113.27 54.39 113.27L55.02 113.27L55.02 113.23Q55.02 112.92 54.82 112.75Q54.62 112.58 54.25 112.58Q54.01 112.58 53.79 112.64Q53.57 112.69 53.36 112.81L53.36 112.39Q53.61 112.29 53.84 112.25Q54.07 112.2 54.29 112.2Q54.89 112.2 55.18 112.51Q55.47 112.81 55.47 113.44ZM58.09 113.63L57.64 113.63Q57.1 113.63 56.89 113.75Q56.68 113.87 56.68 114.17Q56.68 114.41 56.83 114.56Q56.99 114.69 57.26 114.69Q57.64 114.69 57.86 114.43Q58.09 114.17 58.09 113.73L58.09 113.63ZM58.54 113.44L58.54 115L58.09 115L58.09 114.58Q57.93 114.83 57.71 114.95Q57.48 115.07 57.14 115.07Q56.72 115.07 56.47 114.84Q56.23 114.6 56.23 114.2Q56.23 113.74 56.54 113.51Q56.85 113.27 57.46 113.27L58.09 113.27L58.09 113.23Q58.09 112.92 57.88 112.75Q57.68 112.58 57.31 112.58Q57.08 112.58 56.86 112.64Q56.63 112.69 56.43 112.81L56.43 112.39Q56.67 112.29 56.91 112.25Q57.14 112.2 57.36 112.2Q57.95 112.2 58.24 112.51Q58.54 112.81 58.54 113.44ZM61.04 112.22L61.05 112.69Q60.97 112.64 60.88 112.62Q60.79 112.6 60.69 112.6Q60.31 112.6 60.1 112.85Q59.9 113.1 59.9 113.56L59.9 115L59.45 115L59.45 112.27L59.9 112.27L59.9 112.69Q60.04 112.44 60.27 112.32Q60.49 112.2 60.82 112.2Q60.86 112.2 60.92 112.21Q60.98 112.21 61.04 112.22Z" />
	<path id="from the Noun Project" fill="#000000" d="M1.43 116.2L1.86 116.2L1.86 116.57L1.43 116.57Q1.18 116.57 1.09 116.67Q1 116.77 1 117.02L1 117.27L1.74 117.27L1.74 117.61L1 117.61L1 120L0.54 120L0.54 117.61L0.11 117.61L0.11 117.27L0.54 117.27L0.54 117.08Q0.54 116.62 0.76 116.41Q0.97 116.2 1.43 116.2ZM3.81 117.22L3.82 117.69Q3.74 117.64 3.65 117.62Q3.56 117.6 3.45 117.6Q3.07 117.6 2.87 117.85Q2.67 118.1 2.67 118.56L2.67 120L2.21 120L2.21 117.27L2.67 117.27L2.67 117.69Q2.81 117.44 3.03 117.32Q3.26 117.2 3.59 117.2Q3.63 117.2 3.69 117.21Q3.75 117.21 3.81 117.22ZM5.24 117.58Q4.88 117.58 4.67 117.86Q4.46 118.14 4.46 118.64Q4.46 119.13 4.66 119.41Q4.87 119.69 5.24 119.69Q5.6 119.69 5.81 119.41Q6.02 119.12 6.02 118.64Q6.02 118.15 5.81 117.87Q5.6 117.58 5.24 117.58ZM5.24 117.2Q5.82 117.2 6.16 117.58Q6.49 117.96 6.49 118.64Q6.49 119.31 6.16 119.69Q5.82 120.07 5.24 120.07Q4.65 120.07 4.31 119.69Q3.98 119.31 3.98 118.64Q3.98 117.96 4.31 117.58Q4.65 117.2 5.24 117.2ZM9.37 117.79Q9.53 117.49 9.77 117.34Q10 117.2 10.32 117.2Q10.75 117.2 10.98 117.5Q11.21 117.8 11.21 118.35L11.21 120L10.76 120L10.76 118.36Q10.76 117.97 10.62 117.78Q10.48 117.59 10.2 117.59Q9.85 117.59 9.64 117.82Q9.44 118.05 9.44 118.45L9.44 120L8.99 120L8.99 118.36Q8.99 117.97 8.85 117.78Q8.71 117.59 8.42 117.59Q8.08 117.59 7.87 117.82Q7.67 118.06 7.67 118.45L7.67 120L7.22 120L7.22 117.27L7.67 117.27L7.67 117.69Q7.82 117.44 8.04 117.32Q8.25 117.2 8.55 117.2Q8.85 117.2 9.06 117.35Q9.27 117.5 9.37 117.79ZM13.69 116.49L14.14 116.49L14.14 117.27L15.07 117.27L15.07 117.61L14.14 117.61L14.14 119.1Q14.14 119.43 14.23 119.53Q14.32 119.62 14.6 119.62L15.07 119.62L15.07 120L14.6 120Q14.08 120 13.89 119.81Q13.69 119.61 13.69 119.1L13.69 117.61L13.36 117.61L13.36 117.27L13.69 117.27L13.69 116.49ZM17.93 118.35L17.93 120L17.48 120L17.48 118.36Q17.48 117.98 17.33 117.78Q17.18 117.59 16.88 117.59Q16.51 117.59 16.3 117.82Q16.09 118.05 16.09 118.45L16.09 120L15.64 120L15.64 116.2L16.09 116.2L16.09 117.69Q16.25 117.44 16.47 117.32Q16.69 117.2 16.98 117.2Q17.45 117.2 17.69 117.49Q17.93 117.78 17.93 118.35ZM21.16 118.52L21.16 118.74L19.1 118.74Q19.13 119.2 19.38 119.45Q19.63 119.69 20.08 119.69Q20.33 119.69 20.58 119.63Q20.82 119.56 21.06 119.44L21.06 119.86Q20.82 119.96 20.56 120.02Q20.31 120.07 20.05 120.07Q19.39 120.07 19.01 119.69Q18.63 119.31 18.63 118.66Q18.63 117.99 18.99 117.6Q19.36 117.2 19.97 117.2Q20.52 117.2 20.84 117.56Q21.16 117.91 21.16 118.52ZM19.11 118.39L20.72 118.39Q20.71 118.02 20.51 117.8Q20.31 117.58 19.98 117.58Q19.6 117.58 19.37 117.79Q19.15 118.01 19.11 118.39ZM23.51 120L23.51 116.35L24.17 116.35L25.79 119.4L25.79 116.35L26.27 116.35L26.27 120L25.61 120L23.99 116.95L23.99 120L23.51 120ZM28.29 117.58Q27.93 117.58 27.72 117.86Q27.51 118.14 27.51 118.64Q27.51 119.13 27.72 119.41Q27.93 119.69 28.29 119.69Q28.65 119.69 28.86 119.41Q29.07 119.12 29.07 118.64Q29.07 118.15 28.86 117.87Q28.65 117.58 28.29 117.58ZM28.29 117.2Q28.88 117.2 29.21 117.58Q29.55 117.96 29.55 118.64Q29.55 119.31 29.21 119.69Q28.88 120.07 28.29 120.07Q27.7 120.07 27.37 119.69Q27.04 119.31 27.04 118.64Q27.04 117.96 27.37 117.58Q27.7 117.2 28.29 117.2ZM30.24 118.92L30.24 117.27L30.69 117.27L30.69 118.9Q30.69 119.29 30.84 119.49Q31 119.68 31.3 119.68Q31.66 119.68 31.87 119.45Q32.08 119.22 32.08 118.82L32.08 117.27L32.53 117.27L32.53 120L32.08 120L32.08 119.58Q31.92 119.83 31.7 119.95Q31.49 120.07 31.2 120.07Q30.73 120.07 30.49 119.78Q30.24 119.48 30.24 118.92ZM31.37 117.2L31.37 117.2ZM35.73 118.35L35.73 120L35.28 120L35.28 118.36Q35.28 117.98 35.13 117.78Q34.98 117.59 34.68 117.59Q34.31 117.59 34.1 117.82Q33.89 118.05 33.89 118.45L33.89 120L33.44 120L33.44 117.27L33.89 117.27L33.89 117.69Q34.06 117.44 34.27 117.32Q34.49 117.2 34.78 117.2Q35.25 117.2 35.49 117.49Q35.73 117.78 35.73 118.35ZM39.35 116.76L38.73 116.76L38.73 118.13L39.35 118.13Q39.69 118.13 39.88 117.95Q40.07 117.77 40.07 117.44Q40.07 117.12 39.88 116.94Q39.69 116.76 39.35 116.76ZM38.24 120L38.24 116.35L39.35 116.35Q39.96 116.35 40.28 116.63Q40.59 116.91 40.59 117.44Q40.59 117.98 40.28 118.26Q39.96 118.54 39.35 118.54L38.73 118.54L38.73 120L38.24 120ZM42.73 117.22L42.73 117.69Q42.65 117.64 42.56 117.62Q42.48 117.6 42.37 117.6Q41.99 117.6 41.78 117.85Q41.58 118.1 41.58 118.56L41.58 120L41.13 120L41.13 117.27L41.58 117.27L41.58 117.69Q41.72 117.44 41.95 117.32Q42.18 117.2 42.5 117.2Q42.55 117.2 42.6 117.21Q42.66 117.21 42.73 117.22ZM44.15 117.58Q43.79 117.58 43.58 117.86Q43.37 118.14 43.37 118.64Q43.37 119.13 43.58 119.41Q43.79 119.69 44.15 119.69Q44.51 119.69 44.72 119.41Q44.93 119.12 44.93 118.64Q44.93 118.15 44.72 117.87Q44.51 117.58 44.15 117.58ZM44.15 117.2Q44.74 117.2 45.07 117.58Q45.41 117.96 45.41 118.64Q45.41 119.31 45.07 119.69Q44.74 120.07 44.15 120.07Q43.56 120.07 43.23 119.69Q42.9 119.31 42.9 118.64Q42.9 117.96 43.23 117.58Q43.56 117.2 44.15 117.2ZM46.15 120.05L46.15 117.27L46.6 117.27L46.6 120.05Q46.6 120.57 46.4 120.81Q46.2 121.04 45.76 121.04L45.59 121.04L45.59 120.66L45.71 120.66Q45.96 120.66 46.06 120.54Q46.15 120.42 46.15 120.05ZM46.15 116.77L46.15 116.2L46.6 116.2L46.6 116.77L46.15 116.77ZM49.88 118.52L49.88 118.74L47.81 118.74Q47.84 119.2 48.09 119.45Q48.34 119.69 48.79 119.69Q49.05 119.69 49.29 119.63Q49.53 119.56 49.77 119.44L49.77 119.86Q49.53 119.96 49.28 120.02Q49.02 120.07 48.76 120.07Q48.11 120.07 47.72 119.69Q47.34 119.31 47.34 118.66Q47.34 117.99 47.71 117.6Q48.07 117.2 48.68 117.2Q49.24 117.2 49.56 117.56Q49.88 117.91 49.88 118.52ZM47.83 118.39L49.43 118.39Q49.42 118.02 49.22 117.8Q49.02 117.58 48.69 117.58Q48.31 117.58 48.09 117.79Q47.86 118.01 47.83 118.39ZM52.58 117.37L52.58 117.79Q52.39 117.69 52.2 117.63Q52.01 117.58 51.81 117.58Q51.38 117.58 51.14 117.86Q50.89 118.13 50.89 118.64Q50.89 119.14 51.14 119.41Q51.38 119.69 51.81 119.69Q52.01 119.69 52.2 119.64Q52.39 119.58 52.58 119.48L52.58 119.9Q52.4 119.98 52.19 120.03Q51.99 120.07 51.77 120.07Q51.15 120.07 50.78 119.68Q50.42 119.29 50.42 118.64Q50.42 117.97 50.79 117.58Q51.15 117.2 51.79 117.2Q52 117.2 52.2 117.24Q52.4 117.29 52.58 117.37ZM53.36 116.49L53.81 116.49L53.81 117.27L54.73 117.27L54.73 117.61L53.81 117.61L53.81 119.1Q53.81 119.43 53.9 119.53Q53.99 119.62 54.27 119.62L54.73 119.62L54.73 120L54.27 120Q53.75 120 53.55 119.81Q53.36 119.61 53.36 119.1L53.36 117.61L53.03 117.61L53.03 117.27L53.36 117.27L53.36 116.49Z" />
</svg>