<svg fill="none" height="882" viewBox="0 0 1000 882" width="1000" xmlns="http://www.w3.org/2000/svg" xmlns:xlink="http://www.w3.org/1999/xlink"><clipPath id="a"><path d="m0 0h1000v882h-1000z"/></clipPath><g clip-path="url(#a)"><path d="m652.6 204h122.1v-114.9998h-122.1z" fill="#28204a"/><path d="m174.5 404.3v40.7h1.1v150.2h19.5v16.2h65.5v-16.2h71.3v6.1h-30.1v11.1 19.3 50.7h101.8 9.2 72.7v-16.1h6.8v128h11.1v18.1h-14.1v41.8h40.1v-41.9-20.1-17.3h34.6v53h192.6v-133.1h-.5v-9.2h82v-32.7-64.7l-.5-3.1h26.8v-35.8h-31.2v-1.8h-.2v-6.5h99v-120.6h-93.8v-108.1h-.9v-25.1h.9v-34.8h-56.4v-46.9h-32.7v30.4h-6.2v-24h-14.9v.9h-75.2v23.1h-6.7v-64.7h51.5v-76.1998h3.7v-14.2h20v16.9h13.7v-16.9h32.2v-53.6h-103.8v53.6h23.4v7.1h-40.7-22.7v147.8998 28.7 2.2h-9.7v-27.6-37.5-29.4-12.3h-97.5v6h-7.8v-9.9h-21-21.4-8v28.5h-27.1v-28.5h-51.6v98.8h-97.9-107v39.4 22.6h-119.4v87.5zm545.4 248.7h-.4v32.7h.4v9.2h-92.5v-10.6h-13.4v-6h8.9v-36.5h7.3v4.7 11.6h46.3l13.7-11.6h21.5v-9.3h8.2zm78 0h-42.8v-39.6h-35.2v11.3h-8.2v-22.8h.5v-13.7h85.7zm-91.5-250.6h20.9v-70.6h-18.3v-7h29v-37.7h11.2 2 26.2 4.5 3.5v36.8h15.6v22.3h-19.3v81.1h.1v47.8h-6.5v-54.7h-2-30.4-26.5v.6h-.4v-11.1h-5.4-4.3v-7.5zm-2.1 58 6.3-5.8 6.9-4.8h14.5l10.9 10v55.3h32.4v-10.7h6.5v36.6h17.8v6.5h-117.8v26.8h-.4v27h-4.9-46.3v16.6h-7.3v-56.4h-55.3v14.9h-12.2v-56-.9-25.6h.1v-27.7h2.4v-24.3h8.1v41h52v-28.4h37.3v34.8h49zm-216.9-169.6h.9v-28.7h20.1v-75.5h7.8v14.9h52.6v37.5h-13.1v75.3h58v-19.2h9.7v12.9h29.4v16.8h27.2v7h-17.1-18.5v49.4l9.2 11.7 9.2 9.5h13.1v7.5h-20.7-37.3v-34.6h-53v39.8h-7.1v-39.8h-2.4-4.3-61v-6.7h18.3v-36.8-9.7-19.3h-21zm36.7 229.6v38.2h-27.8v50h27.8 22.2 9.1v-13.4h12.2v83h14.9v6h-20.1v21.1h.7v39.1h-33.7v-70.7h21v-48.7h-57v16h-8v-12.3h-.1v-14.9h-56.6v14.9h-16v-16.4h-51.7v-11.1-80.8zm-263.5 46.2v-106.4h26.8v-71.1h-6v-72.3-22.6h97.9 51.6 24.9v-3.3h10.2v31.3h-4.6-21.9v46.5h21.9v6.7h-27.8v69.2l-20.5 18.6h-52.1v-1h-29.2v1h-5.4-8.9v106h-56.9z" fill="#28204a"/><g stroke="#60558f" stroke-miterlimit="10"><path d="m801 347.7v49.2" stroke-dasharray="3 3"/><path d="m652.6 87.9001v84.1999" stroke-dasharray="3 3"/><path d="m753.9 87.9001h-84.3" stroke-dasharray="3 3"/><path d="m591.4 810.1h-27.3" stroke-dasharray="3 3"/><path d="m629.6 779.4h-19.2" stroke-dasharray="3 3"/><path d="m629.6 740.3h-19.2" stroke-dasharray="3 3"/><path d="m635.3 409.9v44.7" stroke-dasharray="3 3"/><path d="m637.916 812.687v13h13v-13z" stroke-width="2"/><path d="m677.478 714.093v13h13v-13z" stroke-width="2"/><path d="m664.542 714.029v13h13v-13z" stroke-width="2"/><path d="m651.705 714.066v13h13v-13z" stroke-width="2"/><path d="m467.489 669.33v13h13v-13z" stroke-width="2"/><path d="m348.14 521.244v13h13v-13z" stroke-width="2"/><path d="m348.1 463.105v13h13v-13z" stroke-width="2"/><path d="m541.494 500.508v13h13v-13z" stroke-width="2"/><path d="m716.465 575.262v13h14v-13z" stroke-width="2"/><path d="m698.325 619.505v26.9h14v-26.9z" stroke-width="2"/><path d="m375.947 669.272v13h13v-13z" stroke-width="2"/><path d="m376.526 661.997v6.5h7.8v-6.5z" stroke-width="2"/><path d="m496.652 577.408v6.5h7.8v-6.5z" stroke-width="2"/><path d="m496.183 584.129v12.1h15.2v-12.1z" stroke-width="2"/><path d="m703.986 813.717v13h13v-13z" stroke-width="2"/><path d="m724.546 813.757v13h13v-13z" stroke-width="2"/><path d="m709.026 803.861v7.9h7.9v-7.9z" stroke-width="2"/><path d="m666.258 782.499v13.1h15.2v-13.1z" stroke-width="2"/><path d="m671.152 768.383v13.1h12.8v-13.1z" stroke-width="2"/><path d="m838.1 685.6h-81.5v142.4h-192.5v-51.9h-34.7v78.1h-40.1v-41.9h13.9v-18.4h-10.6v-127.1h-5.6v15.5h-185.3v-81h30.2v-6.1h-70.9v16.2h-65.9v-16.2h-19.5v-190.9h-120.6001v-87.5h119.5001v-62h204.8v-98.8h51.9v27.9h26.8v-27.9h51.5v9.1h6v-5.2h98.2v106.8h9.7v-178.7998h64v-7.3h-24v-53.6h103.8v53.6h-31.8v8.4h39.1v115.4998h7.2v47.5h56.4v167.2h93.8v122.4h-98.3v6.7h30.7v36.9h-26.8z" stroke-width="2"/><path d="m582.5 684.5h-20.1v59.9h-32.8v-70.7h20.9v-48.7h-57.1v16h-8v-28.7h-56.6v15.7h-14.9v-15.7h-52.8v-91.9h163v36.9h-27.9v51.3h58.7v-14.1h12.7v83.7h14.9z" stroke-width="2"/><path d="m461.4 376.1h-28.5v68.4l-19.7 18.6h-95.7v106.1h-56.9v-109.1h26.8v-71.8h-6v-94.1h175.3v-3.4h9.3v30.6h-26.4v47.2h21.8z" stroke-width="2"/><path d="m799.6 540.2v7.3h-117.8v53.8h-52.2v16.5h-6.7v-56.3h-54.1v15.3h-13.4v-110.5h3.1v-24.3h7.5v41h53v-27.6h36.3v34.1h49.7v-29.1l12.5-10.6h14.6l10.8 10.1v55.2h31.8v-10.3h8.1v35.5z" stroke-width="2"/><path d="m781.8 475.2h-6.5v-54.7h-60.3v-10.9h-8.6v-7.2h20.9v-71.2h-18.1v-6.4h28.7v-37.7h47.5v36.9h15.6v22h-19.3z" stroke-width="2"/><path d="m675.5 403.6v6.3h-58.4v-34.6h-52.5v39.8h-6.7v-39.8h-67v-6.3h17.5v-66.2h-20.1v-40.6h20.1v-75.5h7.8v14.8h53.2v38h-13.7v74.8h58.8v-19h8.5v13.4h30.5v16.4h26.5v6.7h-36.5v49.4l19.4 22.3z" stroke-width="2"/><path d="m719.5 694.8v-57.7h-7v10.3h-22.9l-12.1 10.6h-47.3v-17.3h-8.1v36.8h-8.1v6.7h13.4v10.6z" stroke-width="2"/><path d="m797.9 653v-64.8h-85.7v36.9h7.3v-11.7h35.6v39.6z" stroke-width="2"/><path d="m749.1 205.4v30.4h-6.4v-24h-90.5v24h-6.1v-63.7h6.7v33.3z" stroke-width="2"/><path d="m701.9 88.2002h18.8v-7.8h-18.8z" stroke-width="2"/><path d="m361.1 463.1v30h98.6v-30" stroke-dasharray="3 3"/><path d="m643.5 372.3h18.2v-40.5" stroke-dasharray="3 3"/><path d="m716.4 311.1v-15h-46.3v29" stroke-dasharray="3 3"/><path d="m555.4 493.1c-2.5 1.1-67.1 0-67.1 0v-30" stroke-dasharray="3 3"/><path d="m635.3 639.3h26.4v-27.9h-32.1" stroke-dasharray="3 3"/><path d="m564.1 792.2h27.3v35.8" stroke-dasharray="3 3"/><path d="m716.9 828v-133.2" stroke-dasharray="3 3"/><path d="m629.6 828v-133.2" stroke-dasharray="3 3"/><path d="m690.2 647.4h10v-8.1h-10z" stroke-width="2"/><path d="m702.2 619.5h8.1v-8.1h-8.1z" stroke-width="2"/><path d="m655.3 489.5h14.8v-11.3h-14.8z" stroke-width="2"/><path d="m670.1 489.5h7.4v-7.4h-7.4z" stroke-width="2"/><path d="m564.6 389h14.2v-13.7h-14.2z" stroke-width="2"/><path d="m564.6 394.6h8.4v-5.6h-8.4z" stroke-width="2"/><path d="m600.9 314.3h12.6v-12.6h-12.6z" stroke-width="2"/><path d="m674.3 235.8h48.8v-11.2h-48.8z" stroke-width="2"/><path d="m595 195.9h18.5v-14h-18.5z" stroke-width="2"/><path d="m600.5 195.9h13v-14h-13z" stroke-width="2"/><path d="m652.7 201.9h14v-14h-14z" stroke-width="2"/><path d="m667.9 201.9h8.1v-9.7h-8.1z" stroke-width="2"/><path d="m760.8 169.9h13.7v-15.6h-13.7z" stroke-width="2"/><path d="m687.4 152.3h12.6v-14.8h-12.6z" stroke-width="2"/><path d="m701.9 148.1h14.1v-14.1h-14.1z" stroke-width="2"/><path d="m692.315 144.393 10.345 9.581 9.581-10.345-10.345-9.581z" stroke-width="2"/><path d="m472.9 417.3c-5.689 0-10.3 4.611-10.3 10.3 0 5.688 4.611 10.3 10.3 10.3 5.688 0 10.3-4.612 10.3-10.3 0-5.689-4.612-10.3-10.3-10.3z" stroke-width="2"/><path d="m472.9 422.8c-2.651 0-4.8 2.149-4.8 4.8s2.149 4.8 4.8 4.8 4.8-2.149 4.8-4.8-2.149-4.8-4.8-4.8z" stroke-width="2"/><path d="m633.5 130h6.1v-3.6h-6.1z" stroke-width="2"/><path d="m633.5 137.5h6.1v-3.5h-6.1z" stroke-width="2"/><path d="m633.5 144.9h6.1v-4.5h-6.1z" stroke-width="2"/></g><path d="m634.463 826.544h4.856v-1h9.711v1h4.856v-1h9.711v1h4.855v-1h9.711v1h4.856v-1h9.711v1h4.856v-1h9.711v1h4.855v-1h3.856v-3.878h1v-4.878h-1v-9.755h1v-4.878h-1v-9.755h1v-4.878h-1v-9.756h1v-4.878h-1v-9.755h1v-4.878h-1v-9.755h1v-4.878h-1v-9.756h1v-4.878h-1v-9.755h1v-4.878h-1v-9.755h1v-4.878h-1v-3.878h-3.856v-1h-4.855v1h-9.711v-1h-4.856v1h-9.711v-1h-4.856v1h-9.711v-1h-4.855v1h-9.711v-1h-4.856v1h-9.711v-1h-4.856v1h-3.855v3.878h-1v4.878h1v9.755h-1v4.878h1v9.755h-1v4.878h1v9.756h-1v4.878h1v9.755h-1v4.878h1v9.755h-1v4.878h1v9.756h-1v4.877h1v9.756h-1v4.878h1v9.755h-1v4.878h1v3.878h3.855z" fill="#535895" opacity=".6" stroke="#fff" stroke-dasharray="10 5" stroke-width="2"/><path d="m657.739 205.349h5.088v-1h10.175v1h5.087v-1h10.175v1h5.088v-1h10.175v1h5.087v-1h10.175v1h5.088v-1h10.175v1h5.087v-1h10.175v1h5.088v-1h10.175v1h5.087v-1h4.088v-3.88h1v-4.879h-1v-9.758h1v-4.879h-1v-9.759h1v-4.879h-1v-9.758h1v-4.879h-1v-9.759h1v-4.879h-1v-9.758h1v-4.879h-1v-9.759h1v-4.879h-1v-9.758h1v-4.8792h-1v-3.8791h-4.088v-1h-5.087v1h-10.175v-1h-5.088v1l-10.175-.0001v-1h-5.087v1h-10.175v-1h-5.088v1h-10.175v-1h-5.087v1h-10.175v-1h-5.088v1h-10.175v-1h-5.087v1h-10.175v-1h-5.088v1h-4.087v3.8792h-1v4.8792h1v9.758h-1v4.879h1v9.759h-1v4.879h1v9.758h-1v4.879h1v9.759h-1v4.879h1v9.758h-1v4.879h1v9.759h-1v4.879h1v9.758h-1v4.879h1v3.88h4.087z" fill="#535895" opacity=".6" stroke="#fff" stroke-dasharray="10 5" stroke-width="2"/><path d="m677.839 752.409h-10.799l-2.259 6.491h-5.036l10.531-27.879h4.346l10.551 27.879h-5.055zm-9.439-3.906h8.08l-4.04-11.565z" fill="#fff"/><path d="m725.234 159.9v-27.879h9.555c3.153 0 5.552.632 7.199 1.896s2.47 3.147 2.47 5.649c0 1.276-.344 2.425-1.034 3.446-.689 1.021-1.698 1.813-3.025 2.375 1.506.408 2.668 1.18 3.485 2.316.829 1.124 1.244 2.477 1.244 4.06 0 2.616-.842 4.627-2.527 6.031-1.672 1.404-4.072 2.106-7.2 2.106zm4.844-12.58v8.713h5.381c1.519 0 2.706-.377 3.561-1.13.856-.753 1.283-1.8 1.283-3.14 0-2.898-1.481-4.379-4.442-4.443zm0-3.561h4.749c1.506 0 2.681-.338 3.523-1.015.855-.689 1.283-1.659 1.283-2.91 0-1.379-.396-2.375-1.187-2.987-.779-.613-1.998-.919-3.657-.919h-4.711z" fill="#fff"/></g></svg>