<svg fill="none" height="708" viewBox="0 0 708 708" width="708" xmlns="http://www.w3.org/2000/svg" xmlns:xlink="http://www.w3.org/1999/xlink"><linearGradient id="a" gradientUnits="userSpaceOnUse" x1="18" x2="674.398" y1="579.576" y2="579.576"><stop offset="0" stop-color="#343f57"/><stop offset=".628501" stop-color="#343f57" stop-opacity=".5"/><stop offset="1" stop-color="#343f57"/></linearGradient><linearGradient id="b" gradientUnits="userSpaceOnUse" x1="306.042" x2="306.042" y1="83.3145" y2="320.818"><stop offset=".283288" stop-color="#24e8ad" stop-opacity="0"/><stop offset="1" stop-color="#24e8ad"/></linearGradient><linearGradient id="c" gradientUnits="userSpaceOnUse" x1="304.122" x2="304.122" y1="261.643" y2="589.569"><stop offset="0" stop-color="#ff5859"/><stop offset="1" stop-color="#ff5859" stop-opacity="0"/></linearGradient><mask id="d" height="75" maskUnits="userSpaceOnUse" width="85" x="465" y="171"><rect fill="#c4c4c4" height="74.3653" rx="4.1083" width="84.2807" x="465.183" y="171.561"/></mask><mask id="e" height="61" maskUnits="userSpaceOnUse" width="72" x="118" y="144"><rect fill="#c4c4c4" height="59.4922" rx="4.1083" width="71.3907" x="118.145" y="144.79"/></mask><g fill="#202b43"><path d="m84.433 90.2553h127.908 1.983v3.9661h1.983v28.7546h-131.874z"/><path d="m287.698 83.3145v12.89 26.7715l36.687-39.6615z"/><path d="m216.307 90.2553h71.3907v32.7207h-71.3907z"/><path d="m296.622 15.3942-7.436 39.1657-1.488 28.7546h102.129v-33.7122l-3.967-11.8985-7.436-20.8223-28.755-4.9577-9.419-8.9238h-32.721z"/><path d="m387.844 124.463-29.747-41.1485h31.73v10.9069h98.162 10.411 12.394 56.518v33.7126h-50.569-14.873v-9.42h-6.94v5.949z"/><path d="m191.519 290.546h26.7715v16.8561h-26.7715z"/><path d="m263.901 290.546h-45.61v16.36l-7.933 13.386v37.678h-25.78v43.628h79.323z"/><path d="m263.901 288.563h3.96615v23.7969h-3.96615z"/><path d="m228.206 277.656v12.89h35.695v-12.89z"/><path d="m153.841 299.47h37.6784v40.653h-37.6784z"/><path d="m163.756 280.63h27.763v18.8392h-27.763z"/><path d="m213.333 399.615h37.6784v35.6953h-37.6784z"/><path d="m251.011 413.496h99.1537v21.8138h-99.1537z"/><path d="m324.385 413.496v-64.449h50.568v34.703h-13.881l-10.907 12.89v16.856z"/><path d="m403.708 132.891h21.8138v44.6192h-21.8138z"/><path d="m425.522 159.663h8.92383v17.8477h-8.92383z"/><path d="m403.708 122.976h21.8138v9.91537h-21.8138z"/><path d="m534.207 138.632v-10.698h19.608v10.698l18.454 16.073h-56.517z"/><path d="m453.285 360.945h45.6107v48.5853h-45.6107z"/><path d="m384.869 293.52h51.5599v38.67h-51.5599z"/><path d="m406.683 323.267h29.7461v49.5769h-29.7461z"/><path d="m469.149 351.03h29.7461v9.91537h-29.7461z"/><path d="m436.429 360.945h29.7461v22.8054h-29.7461z"/><path d="m480.056 419.446h52.5515v107.086h-52.5515z"/><path d="m274.808 435.31h19.8307v28.7546h-19.8307z"/><path d="m55.6783 307.402h34.7038v92.213h-34.7038z"/><path d="m55.6783 443.243v-35.696h100.1457v31.729h10.907v53.543h-61.476z"/><path d="m66.5853 407.547v-29.746h118.4887v23.797h-29.25v5.949z"/><path d="m532.608 419.446h74.3653v40.653h-74.3653z"/></g><path d="m609.948 463.073v-44.619h35.771l12.814 11.383v19.909l-12.814 13.327z" fill="#182338"/><path clip-rule="evenodd" d="m636.918 441.259 6.544-6.544-3.186-3.173-6.531 6.545-6.743-6.743-3.173 3.173 6.743 6.742-6.743 6.743 3.173 3.173 6.743-6.743 6.742 6.743 3.173-3.173z" fill="#343f57" fill-rule="evenodd"/><path d="m581.193 346.072h47.5938v69.4076h-47.5938z" fill="#202b43"/><path d="m553.43 387.716h53.543v31.7292h-53.543z" fill="#202b43"/><path d="m522.693 274.681h90.2299v21.8138h-90.2299z" fill="#202b43"/><path d="m612.922 274.681h23.7969v37.6784h-23.7969z" fill="#202b43"/><path d="m581.193 294.512h31.7292v45.6107h-31.7292z" fill="#202b43"/><path d="m589.125 340.123h12.89v5.94922h-12.89z" fill="#202b43"/><path d="m84.433 145.781v-22.805h16.856l.496 51.56h-43.1319v4.958h5.9492v15.864h41.6447v-67.424h96.179v26.771h12.89v37.679h-20.822v43.627h-46.603l-16.085 20.823h-51.3391v-41.645h-46.6023v-35.695h7.9323v-4.958h-7.9323v-28.755z" fill="#202b43"/><path d="m103.272 256.834h23.7969v6.94076h-23.7969z" fill="#202b43"/><path d="m140.951 263.774v37.679l-9.916 10.907h-29.746l-8.9236-19.831v21.814h-63.4584v-43.628h60.4838v4.958h2.9746v-11.899z" fill="#202b43"/><path d="m181.604 122.976h17.8477v4.95769h-17.8477z" fill="#202b43"/><path d="m161.773 236.011h18.8392v2.97461h-18.8392z" fill="#202b43"/><path d="m153.841 238.986h37.6784v41.6446h-37.6784z" fill="#202b43"/><path d="m530.625 266.749h15.8646v7.9323h-15.8646z" fill="#202b43"/><path d="m274.808 280.63h4.95769v19.8307h-4.95769z" fill="#202b43"/><path d="m267.867 322.275v-44.619h37.679l13.881 9.915v25.78l-12.89 8.924z" fill="#182338"/><path d="m606.973 433.327h2.97461v17.8477h-2.97461z" fill="#202b43"/><path d="m374.953 356.483h5.94922v12.89h-5.94922z" fill="#202b43"/><path d="m380.903 348.055h55.5261v35.6953h-55.5261z" fill="#202b43"/><path d="m469.149 359.953h29.7461v.991537h-29.7461z" fill="#182338"/><path d="m453.285 409.53h28.7546v9.91537h-28.7546z" fill="#202b43"/><path d="m453.285 419.446h43.6276v40.653h-43.6276z" fill="#202b43"/><path d="m553.43 387.716h8.92383v8.92383h-8.92383z" fill="#273552"/><path d="m553.43 396.64h3.96615v3.96615h-3.96615z" fill="#273552"/><path clip-rule="evenodd" d="m434.446 158.671 21.814-21.813h40.653v17.847h81.306v47.594h-18.839v21.814h18.839v42.636h-52.552v-13.882h-32.72v33.713h-38.67l-18.344 6.445-34.704-.496.496-17.848v-20.822h-22.805v-65.442h37.678v13.882h9.915v-13.882h21.814v-6.94h-13.881zm7.932 41.645h8.924v23.797h-54.535v-5.454h45.611z" fill="#202b43" fill-rule="evenodd"/><path d="m474.107 207.257h13.8815v10.9069h-13.8815z" fill="#273552"/><path d="m509.802 198.333h11.8984v19.8307h-11.8984z" fill="#273552"/><path d="m521.701 198.333h9.91537v10.9069h-9.91537z" fill="#273552"/><path d="m570.286 230.062h7.9323v7.9323h-7.9323z" fill="#273552"/><path d="m570.286 237.994h7.9323v7.9323h-7.9323z" fill="#273552"/><path d="m515.752 154.705h56.5176v.991537h-56.5176z" fill="#131c2e"/><path d="m569.295 257.825h8.92383v8.92383h-8.92383z" fill="#273552"/><path d="m560.371 257.825h8.92383v8.92383h-8.92383z" fill="#273552"/><path d="m484.023 252.867h8.92383v8.92383h-8.92383z" fill="#273552"/><path d="m106.247 181.477h12.89v11.8984h-12.89z" fill="#273552"/><path d="m80.4669 222.13h9.91537v25.78h-9.91537z" fill="#273552"/><path d="m184.578 224.113h9.91537v11.8984h-9.91537z" fill="#273552"/><path clip-rule="evenodd" d="m123.103 446.217c3.286 0 5.949-2.663 5.949-5.949s-2.663-5.949-5.949-5.949-5.949 2.663-5.949 5.949 2.663 5.949 5.949 5.949zm0 9.916c8.762 0 15.865-7.103 15.865-15.865s-7.103-15.865-15.865-15.865-15.865 7.103-15.865 15.865 7.103 15.865 15.865 15.865z" fill="#273552" fill-rule="evenodd"/><path d="m128.061 164.621h45.6107v16.8561h-45.6107z" fill="#273552"/><path d="m139.959 181.477h24.7884v10.9069h-24.7884z" fill="#273552"/><path d="m128.061 163.629h14.8731v18.8392h-14.8731z" fill="#273552"/><path d="m164.747 154.705h8.92383v8.92383h-8.92383z" fill="#273552"/><path clip-rule="evenodd" d="m296.82 299.47 6.544-6.544-3.185-3.173-6.532 6.544-6.742-6.743-3.173 3.173 6.742 6.743-6.742 6.742 3.173 3.173 6.742-6.742 6.743 6.742 3.173-3.173z" fill="#343f57" fill-rule="evenodd"/><path d="m394.784 272.215c.829 0 1.5-.671 1.5-1.5 0-.828-.671-1.5-1.5-1.5zm-35.695-1.5v-1.5c-.829 0-1.5.672-1.5 1.5zm0 31.234v1.5c.828 0 1.5-.672 1.5-1.5zm-36.26-1.061c-.586.586-.586 1.535 0 2.121l9.546 9.546c.585.586 1.535.586 2.121 0s.586-1.535 0-2.121l-8.485-8.485 8.485-8.486c.586-.586.586-1.535 0-2.121s-1.536-.586-2.121 0zm71.955-31.673h-35.695v3h35.695zm-37.195 1.5v31.234h3v-31.234zm1.5 29.734h-35.2v3h35.2z" fill="#343f57"/><path d="m18 292.529v-1.5c-.8284 0-1.5.671-1.5 1.5zm0 257.8h-1.5c0 .828.6716 1.5 1.5 1.5zm671.271 0v1.5c.828 0 1.5-.672 1.5-1.5zm-20.396-106.66c-.586.586-.586 1.536 0 2.122l9.546 9.545c.586.586 1.536.586 2.121 0 .586-.585.586-1.535 0-2.121l-8.485-8.485 8.485-8.485c.586-.586.586-1.536 0-2.122-.585-.586-1.535-.586-2.121 0zm-400.512 108.16c.829 0 1.5-.672 1.5-1.5 0-.829-.671-1.5-1.5-1.5zm272.177-3c-.828 0-1.5.671-1.5 1.5 0 .828.672 1.5 1.5 1.5zm148.731-104.099h1.5c0-.829-.672-1.5-1.5-1.5zm-672.771-152.201v257.8h3v-257.8zm1.5 1.5h5.9492v-3h-5.9492zm0 257.8h250.363v-3h-250.363zm522.54 0h148.731v-3h-148.731zm150.231-1.5v-105.599h-3v105.599zm-1.5-107.099h-19.335v3h19.335z" fill="url(#a)"/><path clip-rule="evenodd" d="m166.731 464.065h142.781v-11.899h25.78v53.048l13.881 6.445 10.907 1.983 6.941 5.453 12.394.496 8.924 7.436 9.42.992 17.847-7.437 3.471 2.975 17.352-10.411 1.487-4.462 14.377-3.47h30.738 49.577v48.089l-43.132 41.149-21.318 26.276-14.377 10.907-19.335 37.678-1.488 25.78-6.445 1.487-4.462 9.42h-33.216l-25.78-22.31-13.882-29.746 4.958-14.377-28.259-28.259-22.805-43.627-21.814-42.141-2.479-32.721h-112.043zm148.234 56.517 14.873.992 48.09 24.293 6.445-4.958 26.772 2.975 9.419-3.967 8.924-.991 17.352-12.394 16.856-2.975 10.907 4.462 8.428 14.873-1.983 4.462-7.437 13.882-15.864 20.326-19.831 20.327-.496 7.436-19.335 19.831-5.949 9.419-8.924 3.967-31.233-17.848-11.403-22.805-39.661-44.124z" fill="#202b43" fill-rule="evenodd"/><path d="m232.172 460.099h33.7123v3.96615h-33.7123z" fill="#202b43"/><path d="m451.302 206.265h22.8054v13.8815h-22.8054z" fill="#343f57"/><path d="m426.513 224.113h9.91537v17.8477h-9.91537z" fill="#343f57"/><path clip-rule="evenodd" d="m289.186 54.5599 7.436-39.1657 10.907-12.3942h32.721l9.419 8.9238 28.755 4.9577 7.436 20.8223 3.967 11.8985v33.7122 10.9069h98.162 10.411 12.394 56.518v33.7126h-13.497v10.698l18.454 16.073h5.95v47.594h-18.839v21.814h18.839v42.636h-31.73v7.932h-15.864v-7.932h-4.958v-13.882h-32.72v33.713h-38.67l-18.344 6.445-34.704-.496.496-17.848v-20.822h-22.805v-65.442h37.678v13.882h9.915v-13.882h21.814v-6.94h-13.881v-22.806l21.814-21.813h40.653v17.847h18.839l18.455-16.073v-10.698h-17.464-14.873v-9.42h-6.94v5.949h-69.408v8.428 44.62h-21.814v-44.62-8.428h-15.864l-29.747-41.1485h-33.712l-36.687 39.6615v-26.7715-12.89zm-204.7531 35.6954h129.8911v3.9661h1.983v28.7546h-16.856v4.958h2.975v26.771h12.89v37.679h-20.822v43.627h-13.882v2.975h10.907v41.644 9.916h7.932v16.856h-7.932v32.721h-37.678v-40.653h9.915v-18.84h-9.915v-41.644h7.932v-2.975h-13.882l-16.085 20.823h-4.737v2.974h-23.797v-2.974h-22.8051v-41.645h-46.6023v-35.695h7.9323v-4.958h-7.9323v-28.755h50.5684v-22.805h-.0001zm16.8561 32.7207h80.315v4.958h-75.357v67.424h-41.6447v-15.864h-5.9492v-4.958h43.1319zm186.409-32.7207h-71.391v32.7207h71.391zm146.748 69.4077h-8.924v17.848h8.924zm7.932 40.653h8.924v23.797h-54.535v-5.454h45.611z" fill="url(#b)" fill-opacity=".15" fill-rule="evenodd"/><path clip-rule="evenodd" d="m324.385 413.496v-64.449h50.568v7.436h3.967v12.89h-3.967v14.377h-13.881l-10.907 12.89v16.856 21.814h-55.526v28.755h14.873v-11.899h25.78v53.048l13.881 6.445 10.907 1.983 6.941 5.453 12.394.496 8.924 7.436 9.42.992 17.847-7.437 3.471 2.975 17.352-10.411 1.487-4.462 14.377-3.47h27.763v-45.115h-26.771v-40.653-9.916h28.754v9.916h14.874 35.695v85.768 48.089l-43.132 41.149-21.318 26.276-14.377 10.907-19.335 37.678-1.488 25.78-6.445 1.487-4.462 9.42h-33.216l-25.78-22.31-13.882-29.746 4.958-14.377-28.259-28.259-22.805-43.628-21.814-42.14-2.479-32.721h-112.043v-28.754h108.077v-28.755h-23.797-37.678v-35.695h37.678v13.881zm208.223 5.95h7.932v40.653h-7.932zm-202.769 102.128-14.874-.992 5.95 37.183 39.661 44.124 11.403 22.805 31.233 17.848 8.924-3.967 5.949-9.419 19.335-19.831.496-7.436 19.831-20.327 15.864-20.326 7.437-13.882 1.983-4.462-8.428-14.873-10.907-4.462-16.856 2.975-17.352 12.394-8.924.991-9.419 3.967-26.772-2.975-6.445 4.958z" fill="url(#c)" fill-rule="evenodd" opacity=".15"/><path d="m528.642 271.211h18.839" stroke="#24e8ad" stroke-linecap="round" stroke-width="3"/><path d="m402.221 293.025h33.712" stroke="#24e8ad" stroke-linecap="round" stroke-width="3"/><path d="m103.272 259.808h23.797" stroke="#24e8ad" stroke-linecap="round" stroke-width="3"/><path d="m400.733 252.867v39.662" stroke="#24e8ad" stroke-linecap="round" stroke-width="3"/><path d="m199.451 289.554v19.831" stroke="#24e8ad" stroke-linecap="round" stroke-width="3"/><path d="m540.54 415.48v47.593" stroke="#ff5859" stroke-linecap="round" stroke-width="3"/><path d="m377.432 354.996v15.864" stroke="#ff5859" stroke-linecap="round" stroke-width="3"/><path d="m483.031 413.496h-31.729" stroke="#ff5859" stroke-linecap="round" stroke-width="3"/><path d="m169.705 460.099v35.695" stroke="#ff5859" stroke-linecap="round" stroke-width="3"/><path d="m213.333 402.59h37.678" stroke="#ff5859" stroke-linecap="round" stroke-width="3"/><rect height="74.3653" rx="4.1083" style="opacity:.5;fill:#4d5f83;fill-opacity:.15;stroke:#4d5f83;stroke-width:1.64332;stroke-miterlimit:16" width="84.2807" x="465.183" y="171.561"/><g fill="#4d5f83" mask="url(#d)" opacity=".15"><path d="m0 0h182.241v3.70032h-182.241z" transform="matrix(.703677 -.703134 .703677 .703134 499.301 322.814)"/><path d="m0 0h182.241v3.70032h-182.241z" transform="matrix(.703676 -.703134 .703676 .703134 494.094 317.611)"/><path d="m0 0h182.241v3.70032h-182.241z" transform="matrix(.703676 -.703134 .703676 .703134 488.886 312.406)"/><path d="m0 0h182.241v3.70032h-182.241z" transform="matrix(.703676 -.703134 .703676 .703134 483.678 307.203)"/><path d="m0 0h182.241v3.70032h-182.241z" transform="matrix(.703676 -.703134 .703676 .703134 478.471 301.999)"/><path d="m0 0h182.241v3.70032h-182.241z" transform="matrix(.703676 -.703134 .703676 .703134 473.264 296.796)"/><path d="m0 0h182.241v3.70032h-182.241z" transform="matrix(.703676 -.703134 .703676 .703134 468.055 291.592)"/><path d="m0 0h182.241v3.70032h-182.241z" transform="matrix(.703676 -.703134 .703676 .703134 462.848 286.389)"/><path d="m0 0h182.241v3.70032h-182.241z" transform="matrix(.703676 -.703134 .703676 .703134 457.64 281.185)"/><path d="m0 0h182.241v3.70032h-182.241z" transform="matrix(.703676 -.703134 .703676 .703134 452.433 275.982)"/><path d="m0 0h182.241v3.70032h-182.241z" transform="matrix(.703676 -.703134 .703676 .703134 447.225 270.778)"/><path d="m0 0h182.241v3.70032h-182.241z" transform="matrix(.703676 -.703134 .703676 .703134 442.017 265.575)"/><path d="m0 0h182.241v3.70032h-182.241z" transform="matrix(.703676 -.703134 .703676 .703134 436.809 260.371)"/><path d="m0 0h182.241v3.70032h-182.241z" transform="matrix(.703677 -.703134 .703677 .703134 431.602 255.167)"/><path d="m0 0h182.241v3.70032h-182.241z" transform="matrix(.703677 -.703134 .703677 .703134 426.395 249.963)"/><path d="m0 0h182.241v3.70032h-182.241z" transform="matrix(.703676 -.703134 .703676 .703134 421.186 244.759)"/><path d="m0 0h182.241v3.70032h-182.241z" transform="matrix(.703676 -.703134 .703676 .703134 415.979 239.556)"/><path d="m0 0h182.241v3.70032h-182.241z" transform="matrix(.703676 -.703134 .703676 .703134 410.771 234.353)"/><path d="m0 0h182.241v3.70032h-182.241z" transform="matrix(.703676 -.703134 .703676 .703134 405.564 229.149)"/><path d="m0 0h182.241v3.70032h-182.241z" transform="matrix(.703676 -.703134 .703676 .703134 400.356 223.945)"/><path d="m0 0h182.241v3.70032h-182.241z" transform="matrix(.703676 -.703134 .703676 .703134 395.148 218.742)"/></g><rect height="59.4922" rx="4.1083" style="opacity:.5;fill:#4d5f83;fill-opacity:.15;stroke:#4d5f83;stroke-width:1.64332;stroke-miterlimit:16" width="71.3907" x="118.145" y="144.79"/><g fill="#4d5f83" mask="url(#e)" opacity=".15"><path d="m0 0h182.241v3.70032h-182.241z" transform="matrix(.703677 -.703134 .703677 .703134 150.28 304.967)"/><path d="m0 0h182.241v3.70032h-182.241z" transform="matrix(.703676 -.703134 .703676 .703134 145.073 299.763)"/><path d="m0 0h182.241v3.70032h-182.241z" transform="matrix(.703676 -.703134 .703676 .703134 139.865 294.559)"/><path d="m0 0h182.241v3.70032h-182.241z" transform="matrix(.703676 -.703134 .703676 .703134 134.657 289.356)"/><path d="m0 0h182.241v3.70032h-182.241z" transform="matrix(.703676 -.703134 .703676 .703134 129.45 284.152)"/><path d="m0 0h182.241v3.70032h-182.241z" transform="matrix(.703676 -.703134 .703676 .703134 124.242 278.948)"/><path d="m0 0h182.241v3.70032h-182.241z" transform="matrix(.703676 -.703134 .703676 .703134 119.034 273.745)"/><path d="m0 0h182.241v3.70032h-182.241z" transform="matrix(.703676 -.703134 .703676 .703134 113.827 268.541)"/><path d="m0 0h182.241v3.70032h-182.241z" transform="matrix(.703676 -.703134 .703676 .703134 108.619 263.338)"/><path d="m0 0h182.241v3.70032h-182.241z" transform="matrix(.703676 -.703134 .703676 .703134 103.412 258.134)"/><path d="m0 0h182.241v3.70032h-182.241z" transform="matrix(.703676 -.703134 .703676 .703134 98.2039 252.93)"/><path d="m0 0h182.241v3.70032h-182.241z" transform="matrix(.703676 -.703134 .703676 .703134 92.9962 247.727)"/><path d="m0 0h182.241v3.70032h-182.241z" transform="matrix(.703676 -.703134 .703676 .703134 87.7883 242.523)"/><path d="m0 0h182.241v3.70032h-182.241z" transform="matrix(.703676 -.703134 .703676 .703134 82.5807 237.319)"/><path d="m0 0h182.241v3.70032h-182.241z" transform="matrix(.703676 -.703134 .703676 .703134 77.3734 232.115)"/><path d="m0 0h182.241v3.70032h-182.241z" transform="matrix(.703676 -.703134 .703676 .703134 72.1653 226.912)"/><path d="m0 0h182.241v3.70032h-182.241z" transform="matrix(.703676 -.703134 .703676 .703134 66.9581 221.708)"/><path d="m0 0h182.241v3.70032h-182.241z" transform="matrix(.703676 -.703134 .703676 .703134 61.7498 216.505)"/><path d="m0 0h182.241v3.70032h-182.241z" transform="matrix(.703676 -.703134 .703676 .703134 56.5432 211.301)"/><path d="m0 0h182.241v3.70032h-182.241z" transform="matrix(.703676 -.703134 .703676 .703134 51.3353 206.097)"/><path d="m0 0h182.241v3.70032h-182.241z" transform="matrix(.703676 -.703134 .703676 .703134 46.1268 200.894)"/></g><path d="m560.819 286.693 1.4-.306c.085.539.224.93.414 1.173.197.237.516.355.957.355.374 0 .673-.065.897-.197.223-.138.335-.338.335-.601 0-.276-.108-.487-.325-.631-.211-.151-.697-.345-1.46-.582-.716-.224-1.226-.493-1.528-.809-.296-.322-.444-.716-.444-1.183 0-.539.207-.999.622-1.38.42-.388.989-.582 1.705-.582.651 0 1.21.158 1.677.473.473.316.769.786.887 1.41l-1.292.326c-.203-.651-.627-.976-1.272-.976-.341 0-.598.065-.769.197-.164.131-.246.306-.246.522 0 .204.095.362.286.474.19.105.68.292 1.469.562.762.263 1.285.549 1.568.858.282.302.424.713.424 1.232 0 .611-.231 1.117-.691 1.518s-1.074.602-1.843.602c-.783 0-1.417-.204-1.903-.611-.48-.415-.769-1.029-.868-1.844zm6.238 2.307v-7.198h1.282v2.475h.019c.106-.171.28-.322.523-.453.243-.132.493-.198.749-.198.559 0 1.003.171 1.331.513.329.342.493.802.493 1.38v3.481h-1.281v-3.195c0-.289-.079-.525-.237-.71-.151-.19-.381-.285-.69-.285-.296 0-.523.085-.681.256-.151.164-.226.381-.226.651v3.283zm6.962-1.42c.21.276.499.414.867.414s.658-.138.868-.414c.21-.282.315-.68.315-1.193s-.108-.907-.325-1.183c-.21-.283-.496-.424-.858-.424-.361 0-.651.138-.867.414-.211.276-.316.674-.316 1.193s.105.917.316 1.193zm2.622.838c-.46.487-1.045.73-1.755.73s-1.295-.243-1.755-.73c-.46-.486-.69-1.163-.69-2.031 0-.854.237-1.528.71-2.021s1.052-.74 1.735-.74c.684 0 1.262.247 1.736.74.473.493.709 1.167.709 2.021 0 .868-.23 1.545-.69 2.031zm2.489.582-1.154-5.226h1.253l.69 3.491h.029l1.164-3.491h1.163l1.075 3.481h.02l.789-3.481h1.232l-1.252 5.226h-1.262l-1.193-3.757h-.02l-1.292 3.757zm10.538-1.804.897.788c-.532.776-1.252 1.164-2.159 1.164-.73 0-1.325-.25-1.785-.749-.46-.507-.69-1.177-.69-2.012s.227-1.502.68-2.001c.46-.507 1.039-.76 1.736-.76.696 0 1.268.253 1.715.76.454.499.681 1.166.681 2.001v.385h-3.511c.02.401.129.71.326.926.204.211.48.316.828.316.296 0 .539-.072.73-.217.197-.151.381-.352.552-.601zm-2.436-1.381h2.268c-.033-.335-.148-.595-.345-.779-.197-.19-.467-.286-.808-.286-.316 0-.576.102-.779.306-.198.204-.309.457-.336.759zm4.542 3.185v-5.226h1.213v.552h.02c.098-.197.243-.355.433-.473.198-.118.411-.177.641-.177.165 0 .322.033.474.098l-.198 1.243c-.144-.053-.279-.079-.404-.079-.598 0-.897.397-.897 1.193v2.869zm3.226-1.725 1.154-.296c.092.729.483 1.094 1.173 1.094.316 0 .565-.049.749-.148.191-.105.286-.25.286-.434 0-.151-.072-.262-.217-.335-.144-.079-.447-.184-.907-.315-.125-.033-.22-.059-.286-.079-.604-.171-1.048-.372-1.331-.602-.282-.236-.424-.549-.424-.936 0-.434.174-.809.523-1.124.355-.316.838-.474 1.449-.474 1.17 0 1.903.513 2.199 1.538l-1.065.326c-.092-.25-.223-.447-.394-.592-.165-.144-.408-.217-.73-.217-.25 0-.45.05-.601.148-.145.092-.217.204-.217.335 0 .145.085.26.256.346.178.078.615.217 1.311.414.612.164 1.026.374 1.243.631.223.25.335.572.335.966 0 .421-.184.799-.552 1.134-.362.329-.887.493-1.578.493-.723 0-1.281-.181-1.676-.542-.388-.369-.621-.812-.7-1.331zm4.847 1.843 3.55-7.493.798.365-3.549 7.473zm5.188-.118v-6.902h2.929c.611 0 1.101.181 1.469.542.374.355.562.792.562 1.312 0 .578-.25 1.015-.75 1.311v.01c.296.125.536.325.72.601.191.27.286.595.286.977 0 .657-.2 1.183-.601 1.577-.401.381-1.062.572-1.982.572zm1.331-1.232h1.608c.631 0 .946-.306.946-.917 0-.283-.085-.5-.256-.651-.165-.158-.391-.237-.681-.237h-1.617zm0-2.889h1.43c.27 0 .48-.063.631-.188.158-.131.237-.322.237-.572 0-.263-.076-.46-.227-.591-.151-.132-.365-.197-.641-.197h-1.43zm7.952 4.121v-.503h-.02c-.013.02-.03.046-.049.079-.02.026-.07.076-.148.148-.079.072-.168.138-.267.197-.098.059-.233.112-.404.158s-.355.069-.552.069c-.631 0-1.104-.148-1.42-.444-.309-.302-.463-.67-.463-1.104 0-.454.134-.799.404-1.035.269-.237.726-.434 1.371-.592.598-.145.972-.26 1.124-.345.151-.086.226-.207.226-.365s-.075-.289-.226-.394c-.145-.105-.365-.158-.661-.158-.348 0-.598.079-.749.237-.152.151-.27.358-.355.621l-1.065-.444c.125-.44.368-.799.729-1.075.362-.282.835-.424 1.42-.424.638 0 1.16.168 1.568.503.407.335.611.855.611 1.558v3.313zm-1.292-2.14c-.329.079-.546.175-.651.286-.098.106-.148.227-.148.365 0 .355.257.533.769.533.388 0 .677-.073.868-.217.197-.152.296-.336.296-.552v-.908h-.02c-.026.053-.056.096-.089.129-.026.026-.125.075-.295.147-.171.066-.415.139-.73.217zm3.914.276v-2.277h-.808v-1.085h.838v-1.282h1.213v1.282h1.321v1.085h-1.302v2.159c0 .276.047.47.139.582s.279.168.562.168h.424v1.232h-.543c-.703 0-1.186-.148-1.449-.444-.263-.295-.395-.769-.395-1.42zm3.547 1.864v-7.198h1.282v2.475h.02c.105-.171.279-.322.522-.453.244-.132.493-.198.75-.198.558 0 1.002.171 1.331.513.328.342.493.802.493 1.38v3.481h-1.282v-3.195c0-.289-.079-.525-.237-.71-.151-.19-.381-.285-.69-.285-.296 0-.522.085-.68.256-.151.164-.227.381-.227.651v3.283z" fill="#7986a3"/><path d="m565.831 422-.395-1.134h-2.632l-.395 1.134h-1.321l2.494-6.902h1.134l2.485 6.902zm-1.716-4.93-.937 2.692h1.883l-.926-2.692zm6.388 4.93v-6.902h1.331v5.67h2.85v1.232zm6.247-1.42c.21.276.499.414.867.414.369 0 .658-.138.868-.414.21-.282.316-.68.316-1.193s-.109-.907-.326-1.183c-.21-.283-.496-.424-.858-.424-.361 0-.65.138-.867.414-.211.276-.316.674-.316 1.193s.105.917.316 1.193zm2.622.838c-.46.487-1.045.73-1.755.73-.709 0-1.295-.243-1.755-.73-.46-.486-.69-1.163-.69-2.031 0-.854.237-1.528.71-2.021s1.052-.74 1.735-.74c.684 0 1.262.247 1.736.74.473.493.71 1.167.71 2.021 0 .868-.23 1.545-.691 2.031zm3.012-2.514v.956c0 .316.098.585.296.809.203.217.479.325.828.325.374 0 .664-.134.867-.404.211-.276.316-.677.316-1.203 0-.532-.105-.933-.316-1.203-.203-.269-.493-.404-.867-.404-.349 0-.625.108-.828.325-.198.217-.296.483-.296.799zm-1.282 3.096v-7.198h1.282v2.475h.019c.014-.02.03-.043.05-.069.02-.033.069-.085.148-.158.085-.072.174-.138.266-.197.099-.059.223-.112.375-.158.157-.046.322-.069.493-.069.644 0 1.176.257 1.597.769.427.507.641 1.17.641 1.992 0 .842-.207 1.512-.621 2.012-.408.499-.957.749-1.647.749-.283 0-.539-.053-.769-.158-.23-.112-.388-.22-.473-.325l-.138-.168h-.02v.503zm7.184-3.096v.956c0 .316.099.585.296.809.204.217.48.325.828.325.375 0 .664-.134.868-.404.21-.276.315-.677.315-1.203 0-.532-.105-.933-.315-1.203-.204-.269-.493-.404-.868-.404-.348 0-.624.108-.828.325-.197.217-.296.483-.296.799zm-1.282 3.096v-7.198h1.282v2.475h.02c.013-.02.03-.043.049-.069.02-.033.069-.085.148-.158.086-.072.174-.138.266-.197.099-.059.224-.112.375-.158.158-.046.322-.069.493-.069.644 0 1.177.257 1.597.769.428.507.641 1.17.641 1.992 0 .842-.207 1.512-.621 2.012-.407.499-.956.749-1.647.749-.282 0-.539-.053-.769-.158-.23-.112-.387-.22-.473-.325l-.138-.168h-.02v.503zm6.115 2.218 1.045-2.474-2.091-4.97h1.302l1.351 3.54h.019l1.351-3.54h1.302l-3.007 7.444z" fill="#7986a3"/><path d="m393.844 534.782 1.381.306c-.112.802-.404 1.433-.878 1.893-.473.46-1.091.69-1.853.69-.888 0-1.611-.306-2.169-.917-.553-.618-.829-1.548-.829-2.79 0-1.091.293-1.946.878-2.564.591-.618 1.295-.927 2.11-.927.71 0 1.311.224 1.804.671.5.44.789 1.035.868 1.785l-1.321.207c-.06-.421-.198-.763-.414-1.026-.217-.269-.526-.404-.927-.404-.454 0-.838.197-1.154.591-.315.395-.473.95-.473 1.667 0 .841.151 1.466.453 1.873.309.401.7.602 1.174.602.775 0 1.226-.552 1.35-1.657zm5.396 2.741v-.503h-.019c-.014.02-.03.046-.05.079-.019.027-.069.076-.148.148-.078.072-.167.138-.266.197-.098.06-.233.112-.404.158s-.355.069-.552.069c-.631 0-1.105-.148-1.42-.444-.309-.302-.463-.67-.463-1.104 0-.453.134-.799.404-1.035.269-.237.726-.434 1.37-.592.599-.144.973-.259 1.124-.345.152-.085.227-.207.227-.365 0-.157-.075-.289-.227-.394-.144-.105-.364-.158-.66-.158-.349 0-.598.079-.75.237-.151.151-.269.358-.355.621l-1.064-.444c.124-.44.368-.798.729-1.074.362-.283.835-.424 1.42-.424.638 0 1.16.167 1.568.502.407.336.611.855.611 1.558v3.313zm-1.291-2.139c-.329.079-.546.174-.651.286-.099.105-.148.226-.148.364 0 .355.256.533.769.533.388 0 .677-.072.868-.217.197-.151.296-.335.296-.552v-.907h-.02c-.026.052-.056.095-.089.128-.026.026-.125.075-.296.148-.171.065-.414.138-.729.217zm4.848 2.139-2.09-5.226h1.331l1.302 3.363h.019l1.302-3.363h1.311l-2.09 5.226zm7.16-1.804.898.789c-.533.775-1.253 1.163-2.16 1.163-.729 0-1.324-.25-1.784-.749-.461-.506-.691-1.177-.691-2.012 0-.834.227-1.502.681-2.001.46-.506 1.038-.759 1.735-.759s1.269.253 1.716.759c.453.499.68 1.167.68 2.001v.385h-3.51c.02.401.128.71.325.927.204.21.48.315.829.315.295 0 .539-.072.729-.217.197-.151.381-.351.552-.601zm-2.435-1.38h2.268c-.033-.336-.148-.595-.345-.779-.198-.191-.467-.286-.809-.286-.315 0-.575.102-.779.305-.197.204-.309.457-.335.76z" fill="#7986a3"/><path d="m409.328 343-.395-1.134h-2.632l-.395 1.134h-1.321l2.495-6.902h1.134l2.484 6.902zm-1.716-4.93-.937 2.692h1.884l-.927-2.692zm5.945 2.623 1.4-.306c.085.539.223.93.414 1.173.197.237.516.355.956.355.375 0 .674-.065.897-.197.224-.138.336-.338.336-.601 0-.276-.109-.487-.326-.631-.21-.151-.696-.345-1.459-.582-.716-.224-1.226-.493-1.528-.809-.296-.322-.444-.716-.444-1.183 0-.539.207-.999.621-1.38.421-.388.989-.582 1.706-.582.651 0 1.209.158 1.676.473.473.316.769.786.888 1.41l-1.292.326c-.204-.651-.628-.976-1.272-.976-.342 0-.598.065-.769.197-.164.131-.247.306-.247.522 0 .204.096.362.286.474.191.105.681.292 1.469.562.763.263 1.286.549 1.568.858.283.302.424.713.424 1.232 0 .611-.23 1.117-.69 1.518s-1.075.602-1.844.602c-.782 0-1.416-.204-1.903-.611-.48-.415-.769-1.029-.867-1.844zm6.237 2.307v-7.198h1.282v2.475h.02c.105-.171.279-.322.523-.453.243-.132.493-.198.749-.198.559 0 1.002.171 1.331.513s.493.802.493 1.38v3.481h-1.282v-3.195c0-.289-.079-.525-.236-.71-.152-.19-.382-.285-.691-.285-.295 0-.522.085-.68.256-.151.164-.227.381-.227.651v3.283zm6.962-1.42c.21.276.5.414.868.414s.657-.138.867-.414c.211-.282.316-.68.316-1.193s-.108-.907-.325-1.183c-.211-.283-.497-.424-.858-.424-.362 0-.651.138-.868.414-.21.276-.315.674-.315 1.193s.105.917.315 1.193zm2.623.838c-.46.487-1.045.73-1.755.73s-1.295-.243-1.755-.73c-.46-.486-.69-1.163-.69-2.031 0-.854.236-1.528.709-2.021.474-.493 1.052-.74 1.736-.74.683 0 1.262.247 1.735.74s.71 1.167.71 2.021c0 .868-.23 1.545-.69 2.031zm1.729.582v-5.226h1.213v.552h.02c.098-.197.243-.355.434-.473.197-.118.411-.177.641-.177.164 0 .322.033.473.098l-.197 1.243c-.145-.053-.28-.079-.405-.079-.598 0-.897.397-.897 1.193v2.869zm3.983-1.864v-2.277h-.808v-1.085h.838v-1.282h1.213v1.282h1.321v1.085h-1.302v2.159c0 .276.046.47.138.582s.28.168.562.168h.424v1.232h-.542c-.703 0-1.186-.148-1.449-.444-.263-.295-.395-.769-.395-1.42z" fill="#7986a3"/><path d="m385.411 315.652 1.38.306c-.112.802-.404 1.433-.877 1.893-.474.46-1.091.69-1.854.69-.887 0-1.61-.305-2.169-.917-.552-.617-.828-1.548-.828-2.79 0-1.091.292-1.946.877-2.564.592-.617 1.295-.926 2.11-.926.71 0 1.312.223 1.805.67.499.441.788 1.035.867 1.785l-1.321.207c-.059-.421-.197-.763-.414-1.026-.217-.269-.526-.404-.927-.404-.454 0-.838.197-1.154.592-.315.394-.473.95-.473 1.666 0 .841.151 1.466.454 1.873.309.401.7.602 1.173.602.776 0 1.226-.552 1.351-1.657zm2.369.888v-3.372h1.281v3.234c0 .328.063.562.188.7s.325.207.601.207c.309 0 .559-.079.75-.237.19-.164.286-.42.286-.769v-3.135h1.281v5.225h-1.222v-.502h-.02c-.322.433-.776.65-1.361.65-.604 0-1.055-.18-1.35-.542-.29-.361-.434-.848-.434-1.459zm7.05-1.243v.957c0 .315.099.585.296.808.204.217.48.326.828.326.375 0 .664-.135.868-.404.21-.277.316-.678.316-1.203 0-.533-.106-.934-.316-1.203-.204-.27-.493-.405-.868-.405-.348 0-.624.109-.828.326-.197.217-.296.483-.296.798zm-1.281 3.096v-7.197h1.281v2.475h.02c.013-.02.03-.043.049-.069.02-.033.069-.086.148-.158.086-.072.174-.138.266-.197.099-.06.224-.112.375-.158.158-.046.322-.069.493-.069.644 0 1.177.256 1.597.769.428.506.641 1.17.641 1.992 0 .841-.207 1.511-.621 2.011-.407.5-.956.749-1.646.749-.283 0-.539-.052-.77-.157-.23-.112-.387-.221-.473-.326l-.138-.167h-.02v.502zm7.184-3.096v.957c0 .315.098.585.296.808.203.217.479.326.828.326.374 0 .664-.135.867-.404.211-.277.316-.678.316-1.203 0-.533-.105-.934-.316-1.203-.203-.27-.493-.405-.867-.405-.349 0-.625.109-.828.326-.198.217-.296.483-.296.798zm-1.282 3.096v-7.197h1.282v2.475h.019c.014-.02.03-.043.05-.069.02-.033.069-.086.148-.158.085-.072.174-.138.266-.197.099-.06.223-.112.375-.158.157-.046.322-.069.493-.069.644 0 1.176.256 1.597.769.427.506.641 1.17.641 1.992 0 .841-.207 1.511-.621 2.011-.408.5-.957.749-1.647.749-.283 0-.539-.052-.769-.157-.23-.112-.388-.221-.473-.326l-.138-.167h-.02v.502zm6.114 2.219 1.045-2.475-2.09-4.969h1.301l1.351 3.539h.02l1.351-3.539h1.301l-3.007 7.444z" fill="#7986a3"/><path d="m274.396 427.463v-6.902h1.331v5.669h2.85v1.233zm5.015 0v-5.226h1.281v5.226zm0-5.985v-1.213h1.281v1.213zm2.657 5.985v-5.226h1.233v.503h.019c.145-.184.342-.339.592-.464s.513-.187.789-.187c.578 0 1.032.174 1.36.523.329.341.493.818.493 1.429v3.422h-1.281v-3.106c0-.362-.069-.631-.207-.809-.139-.184-.375-.276-.71-.276-.316 0-.562.092-.74.276-.177.178-.266.418-.266.72v3.195zm5.816 0v-7.198h1.282v4.131h.019l1.903-2.159h1.608l-1.884 2.12 2.051 3.106h-1.42l-1.597-2.387h-.02l-.66.75v1.637z" fill="#7986a3"/><path d="m102.752 289.787c-.888 0-1.611-.306-2.169-.917-.552-.618-.8286-1.548-.8286-2.791 0-1.091.2926-1.945.8776-2.563.592-.618 1.295-.927 2.11-.927.697 0 1.288.21 1.775.631.493.421.789.993.887 1.716l-1.331.217c-.164-.888-.605-1.331-1.321-1.331-.454 0-.838.197-1.154.591-.315.395-.473.95-.473 1.666 0 .842.151 1.466.454 1.874.308.401.7.601 1.173.601.427 0 .762-.121 1.006-.364.249-.244.374-.586.374-1.026h-1.282v-1.134h2.554v.917c0 .874-.246 1.568-.739 2.081-.493.506-1.131.759-1.913.759zm6.718-.148v-.503h-.02c-.013.02-.03.046-.049.079-.02.026-.069.076-.148.148s-.168.138-.267.197c-.098.059-.233.112-.404.158s-.355.069-.552.069c-.631 0-1.104-.148-1.42-.444-.309-.302-.463-.67-.463-1.104 0-.454.135-.799.404-1.035.27-.237.726-.434 1.371-.592.598-.145.972-.26 1.124-.345.151-.086.226-.207.226-.365s-.075-.289-.226-.394c-.145-.106-.365-.158-.661-.158-.348 0-.598.079-.749.236-.152.152-.27.359-.355.622l-1.065-.444c.125-.44.368-.799.729-1.075.362-.282.835-.424 1.42-.424.638 0 1.16.168 1.568.503s.611.855.611 1.558v3.313zm-1.292-2.14c-.329.079-.546.175-.651.286-.098.105-.148.227-.148.365 0 .355.257.533.769.533.388 0 .677-.073.868-.217.197-.152.296-.336.296-.553v-.907h-.02c-.026.053-.056.096-.089.128-.026.027-.125.076-.295.148-.171.066-.415.138-.73.217zm3.648 2.14v-5.226h1.213v.552h.02c.098-.197.243-.355.434-.473.197-.118.41-.177.641-.177.164 0 .322.032.473.098l-.197 1.243c-.145-.053-.28-.079-.405-.079-.598 0-.897.397-.897 1.193v2.869zm6.865-2.14v-.956c0-.316-.102-.582-.306-.799-.197-.217-.47-.325-.818-.325-.375 0-.668.135-.878.404-.204.27-.306.671-.306 1.203 0 .526.102.927.306 1.203.21.269.503.404.878.404.348 0 .621-.108.818-.325.204-.224.306-.493.306-.809zm.079 2.14v-.503h-.02c-.033.046-.082.105-.148.178-.059.072-.21.17-.454.295-.236.119-.496.178-.779.178-.69 0-1.242-.25-1.656-.75-.408-.499-.611-1.17-.611-2.011 0-.848.223-1.518.67-2.011.447-.5.973-.75 1.578-.75.276 0 .522.056.739.168.224.105.375.21.454.315l.128.168h.02v-2.475h1.281v7.198zm5.971-1.804.897.788c-.532.776-1.252 1.164-2.159 1.164-.73 0-1.325-.25-1.785-.75-.46-.506-.69-1.176-.69-2.011s.227-1.502.68-2.002c.461-.506 1.039-.759 1.736-.759s1.268.253 1.715.759c.454.5.681 1.167.681 2.002v.385h-3.51c.019.401.128.709.325.926.204.211.48.316.828.316.296 0 .539-.072.73-.217.197-.151.381-.352.552-.601zm-2.435-1.381h2.267c-.032-.335-.148-.595-.345-.779-.197-.19-.466-.286-.808-.286-.316 0-.575.102-.779.306-.197.204-.309.457-.335.759zm4.541 3.185v-5.226h1.233v.503h.019c.145-.184.342-.339.592-.463.25-.125.513-.188.789-.188.578 0 1.032.174 1.361.523.328.342.493.818.493 1.43v3.421h-1.282v-3.106c0-.361-.069-.631-.207-.808-.138-.185-.375-.277-.71-.277-.316 0-.562.092-.74.277-.177.177-.266.417-.266.719v3.195z" fill="#7986a3"/><path d="m221.612 348.14v-6.902h2.928c.612 0 1.101.18 1.47.542.374.355.562.792.562 1.311 0 .579-.25 1.016-.75 1.312v.01c.296.124.536.325.72.601.191.269.286.595.286.976 0 .657-.201 1.183-.602 1.578-.4.381-1.061.572-1.981.572zm1.331-1.233h1.607c.631 0 .947-.306.947-.917 0-.283-.086-.499-.257-.651-.164-.157-.391-.236-.68-.236h-1.617zm0-2.889h1.43c.269 0 .48-.062.631-.187.158-.132.236-.322.236-.572 0-.263-.075-.46-.226-.592-.151-.131-.365-.197-.641-.197h-1.43zm7.093 1.814 1.401-.305c.085.539.223.93.414 1.173.197.237.516.355.956.355.375 0 .674-.066.897-.197.224-.138.336-.339.336-.602 0-.276-.109-.486-.326-.631-.21-.151-.697-.345-1.459-.581-.717-.224-1.226-.493-1.528-.809-.296-.322-.444-.716-.444-1.183 0-.539.207-.999.621-1.381.421-.387.989-.581 1.706-.581.651 0 1.209.158 1.676.473.473.316.769.786.888 1.41l-1.292.325c-.204-.65-.628-.976-1.272-.976-.342 0-.598.066-.769.197-.164.132-.247.306-.247.523 0 .204.096.362.286.473.191.105.681.293 1.469.562.763.263 1.286.549 1.568.858.283.302.424.713.424 1.233 0 .611-.23 1.117-.69 1.518s-1.075.601-1.844.601c-.782 0-1.416-.203-1.903-.611-.48-.414-.769-1.029-.868-1.844zm6.238 2.308v-7.198h1.282v2.475h.02c.105-.171.279-.322.523-.454.243-.131.493-.197.749-.197.559 0 1.002.171 1.331.513.329.341.493.802.493 1.38v3.481h-1.282v-3.195c0-.289-.079-.526-.236-.71-.152-.191-.382-.286-.691-.286-.295 0-.522.086-.68.256-.151.165-.227.382-.227.651v3.284zm6.962-1.42c.21.276.5.414.868.414s.657-.138.867-.414c.211-.283.316-.681.316-1.193 0-.513-.109-.907-.325-1.183-.211-.283-.497-.424-.858-.424-.362 0-.651.138-.868.414-.21.276-.315.673-.315 1.193 0 .519.105.917.315 1.193zm2.623.838c-.46.486-1.045.729-1.755.729s-1.295-.243-1.755-.729c-.46-.487-.691-1.164-.691-2.031 0-.855.237-1.529.71-2.022.474-.493 1.052-.739 1.736-.739.683 0 1.262.246 1.735.739s.71 1.167.71 2.022c0 .867-.23 1.544-.69 2.031zm1.729.582v-5.226h1.213v.552h.02c.098-.197.243-.355.434-.473.197-.119.41-.178.641-.178.164 0 .322.033.473.099l-.197 1.242c-.145-.052-.28-.079-.405-.079-.598 0-.897.398-.897 1.193v2.87zm3.983-1.864v-2.278h-.808v-1.084h.838v-1.282h1.213v1.282h1.321v1.084h-1.302v2.16c0 .276.046.47.138.581.092.112.28.168.562.168h.424v1.233h-.542c-.703 0-1.186-.148-1.449-.444s-.395-.769-.395-1.42z" fill="#7986a3"/><path d="m481.874 113v-5.669h-2.022v-1.233h5.374v1.233h-2.021v5.669zm4.588-1.42c.21.276.499.414.868.414.368 0 .657-.138.867-.414.211-.282.316-.68.316-1.193s-.109-.907-.326-1.183c-.21-.283-.496-.424-.857-.424-.362 0-.651.138-.868.414-.21.276-.316.674-.316 1.193s.106.917.316 1.193zm2.623.838c-.46.487-1.046.73-1.755.73-.71 0-1.295-.243-1.755-.73-.461-.486-.691-1.163-.691-2.031 0-.854.237-1.528.71-2.021s1.052-.74 1.736-.74c.683 0 1.262.247 1.735.74s.71 1.167.71 2.021c0 .868-.23 1.545-.69 2.031zm2.488.582-1.153-5.226h1.252l.69 3.491h.03l1.163-3.491h1.164l1.074 3.481h.02l.789-3.481h1.232l-1.252 5.226h-1.262l-1.193-3.757h-.02l-1.291 3.757zm10.538-1.804.897.788c-.532.776-1.252 1.164-2.159 1.164-.73 0-1.324-.25-1.785-.749-.46-.507-.69-1.177-.69-2.012s.227-1.502.681-2.001c.46-.507 1.038-.76 1.735-.76s1.269.253 1.716.76c.453.499.68 1.166.68 2.001v.385h-3.51c.02.401.128.71.325.926.204.211.48.316.828.316.296 0 .539-.072.73-.217.197-.151.381-.352.552-.601zm-2.435-1.381h2.268c-.033-.335-.148-.595-.346-.779-.197-.19-.466-.286-.808-.286-.316 0-.575.102-.779.306-.197.204-.309.457-.335.759zm4.541 3.185v-5.226h1.213v.552h.02c.099-.197.243-.355.434-.473.197-.118.411-.177.641-.177.164 0 .322.033.473.098l-.197 1.243c-.145-.053-.28-.079-.405-.079-.598 0-.897.397-.897 1.193v2.869zm5.445.118 3.55-7.493.798.365-3.549 7.473zm7.653-.118v-6.902h1.331v2.781h2.366v-2.781h1.332v6.902h-1.332v-2.988h-2.366v2.988zm9.899-1.804.897.788c-.533.776-1.252 1.164-2.16 1.164-.729 0-1.324-.25-1.784-.749-.46-.507-.69-1.177-.69-2.012s.226-1.502.68-2.001c.46-.507 1.039-.76 1.735-.76.697 0 1.269.253 1.716.76.454.499.68 1.166.68 2.001v.385h-3.51c.02.401.128.71.326.926.203.211.479.316.828.316.296 0 .539-.072.729-.217.198-.151.382-.352.553-.601zm-2.436-1.381h2.268c-.033-.335-.148-.595-.345-.779-.197-.19-.467-.286-.809-.286-.315 0-.575.102-.779.306-.197.204-.309.457-.335.759zm7.519 3.185v-.503h-.019c-.013.02-.03.046-.05.079-.019.026-.069.076-.147.148-.079.072-.168.138-.267.197-.098.059-.233.112-.404.158s-.355.069-.552.069c-.631 0-1.104-.148-1.42-.444-.309-.302-.463-.67-.463-1.104 0-.454.134-.799.404-1.035.269-.237.726-.434 1.37-.592.599-.145.973-.26 1.125-.345.151-.086.226-.207.226-.365s-.075-.289-.226-.394c-.145-.105-.365-.158-.661-.158-.348 0-.598.079-.749.237-.152.151-.27.358-.355.621l-1.065-.444c.125-.44.368-.799.729-1.075.362-.282.835-.424 1.42-.424.638 0 1.16.168 1.568.503.407.335.611.855.611 1.558v3.313zm-1.291-2.14c-.329.079-.546.175-.651.286-.099.106-.148.227-.148.365 0 .355.257.533.769.533.388 0 .677-.073.868-.217.197-.152.296-.336.296-.552v-.908h-.02c-.026.053-.056.096-.089.129-.026.026-.125.075-.296.147-.17.066-.414.139-.729.217zm4.848 2.14-2.09-5.226h1.331l1.302 3.362h.019l1.302-3.362h1.311l-2.09 5.226zm7.16-1.804.898.788c-.533.776-1.253 1.164-2.16 1.164-.729 0-1.324-.25-1.784-.749-.46-.507-.69-1.177-.69-2.012s.226-1.502.68-2.001c.46-.507 1.038-.76 1.735-.76s1.269.253 1.716.76c.453.499.68 1.166.68 2.001v.385h-3.51c.02.401.128.71.325.926.204.211.48.316.829.316.295 0 .539-.072.729-.217.197-.151.382-.352.552-.601zm-2.435-1.381h2.268c-.033-.335-.148-.595-.345-.779-.197-.19-.467-.286-.809-.286-.315 0-.575.102-.779.306-.197.204-.309.457-.335.759zm4.542 3.185v-5.226h1.232v.503h.02c.145-.184.342-.338.592-.463.249-.125.512-.188.788-.188.579 0 1.032.175 1.361.523.329.342.493.818.493 1.43v3.421h-1.282v-3.106c0-.361-.069-.631-.207-.808-.138-.184-.375-.276-.71-.276-.315 0-.562.092-.739.276-.178.177-.267.417-.267.719v3.195z" fill="#7986a3"/><path d="m33.5431 295.588v-6.902h2.9284c.6113 0 1.101.181 1.4691.542.3747.355.562.793.562 1.312 0 .578-.2498 1.015-.7493 1.311v.01c.2958.125.5357.325.7198.602.1906.269.2859.594.2859.976 0 .657-.2005 1.183-.6015 1.577-.4009.381-1.0615.572-1.9818.572zm1.3311-1.232h1.6072c.631 0 .9465-.306.9465-.917 0-.283-.0855-.5-.2564-.651-.1643-.158-.3911-.237-.6803-.237h-1.617zm0-2.889h1.4297c.2695 0 .4798-.063.631-.188.1578-.131.2366-.322.2366-.572 0-.262-.0755-.46-.2267-.591-.1512-.132-.3649-.197-.6409-.197h-1.4297zm7.537 4.121v-6.902h2.8003c.7033 0 1.2752.201 1.7156.602.4404.394.6606.926.6606 1.597 0 .67-.2136 1.203-.6409 1.597-.4207.395-.9991.592-1.7353.592h-1.4692v2.514zm1.3311-3.747h1.4494c.2958 0 .539-.085.7297-.256.1906-.178.2859-.411.2859-.7 0-.335-.0986-.579-.2958-.73-.1906-.157-.4305-.236-.7198-.236h-1.4494zm5.8208 2.327c.2104.276.4996.414.8677.414s.6573-.138.8677-.414c.2103-.282.3155-.68.3155-1.193 0-.512-.1084-.907-.3254-1.183-.2103-.283-.4962-.424-.8578-.424-.3615 0-.6507.138-.8677.414-.2103.276-.3155.674-.3155 1.193 0 .52.1052.917.3155 1.193zm2.6228.838c-.4601.487-1.0452.73-1.7551.73s-1.2949-.243-1.755-.73c-.4602-.486-.6902-1.163-.6902-2.031 0-.854.2366-1.528.7099-2.021s1.0517-.74 1.7353-.74 1.2621.247 1.7354.74c.4732.493.7099 1.167.7099 2.021 0 .868-.2301 1.545-.6902 2.031zm1.7295.582v-5.226h1.2127v.553h.0198c.0986-.198.2432-.355.4338-.474.1972-.118.4108-.177.6409-.177.1643 0 .3221.033.4733.098l-.1972 1.243c-.1446-.053-.2794-.079-.4043-.079-.5981 0-.8972.398-.8972 1.193v2.869zm3.9829-1.863v-2.278h-.8085v-1.085h.8381v-1.281h1.2128v1.281h1.3212v1.085h-1.3015v2.159c0 .276.046.47.138.582.0921.112.2794.168.562.168h.424v1.232h-.5423c-.7033 0-1.1864-.148-1.4494-.444-.2629-.295-.3944-.769-.3944-1.419z" fill="#7986a3"/><path d="m649.628 411v-6.902h2.928c.611 0 1.101.181 1.469.542.375.355.562.792.562 1.312 0 .578-.25 1.015-.749 1.311v.01c.296.125.536.325.72.601.19.27.286.595.286.977 0 .657-.201 1.183-.602 1.577-.401.381-1.061.572-1.982.572zm1.331-1.232h1.607c.631 0 .946-.306.946-.917 0-.283-.085-.5-.256-.651-.164-.158-.391-.237-.68-.237h-1.617zm0-2.889h1.429c.27 0 .48-.063.632-.188.157-.131.236-.322.236-.572 0-.263-.075-.46-.227-.591-.151-.132-.364-.197-.641-.197h-1.429zm7.537 4.121v-6.902h2.8c.703 0 1.275.201 1.716.602.44.394.66.926.66 1.597 0 .67-.213 1.203-.641 1.597-.42.395-.999.592-1.735.592h-1.469v2.514zm1.331-3.747h1.449c.296 0 .539-.085.73-.256.191-.178.286-.411.286-.7 0-.335-.099-.579-.296-.73-.191-.158-.43-.236-.72-.236h-1.449zm5.821 2.327c.21.276.499.414.867.414.369 0 .658-.138.868-.414.21-.282.316-.68.316-1.193s-.109-.907-.326-1.183c-.21-.283-.496-.424-.858-.424-.361 0-.65.138-.867.414-.211.276-.316.674-.316 1.193s.105.917.316 1.193zm2.622.838c-.46.487-1.045.73-1.755.73-.709 0-1.295-.243-1.755-.73-.46-.486-.69-1.163-.69-2.031 0-.854.237-1.528.71-2.021s1.052-.74 1.735-.74c.684 0 1.262.247 1.736.74.473.493.71 1.167.71 2.021 0 .868-.23 1.545-.691 2.031zm1.73.582v-5.226h1.213v.552h.019c.099-.197.244-.355.434-.473.197-.118.411-.177.641-.177.165 0 .322.033.473.098l-.197 1.243c-.144-.053-.279-.079-.404-.079-.598 0-.897.397-.897 1.193v2.869zm3.983-1.864v-2.277h-.809v-1.085h.838v-1.282h1.213v1.282h1.321v1.085h-1.301v2.159c0 .276.046.47.138.582s.279.168.562.168h.424v1.232h-.542c-.704 0-1.187-.148-1.45-.444-.263-.295-.394-.769-.394-1.42zm-19.161 16.864v-6.902h4.368v1.233h-3.036v1.548h2.76v1.183h-2.76v1.706h3.036v1.232zm5.011 0 1.814-2.702-1.706-2.524h1.331l1.173 1.755h.02l1.173-1.755h1.332l-1.706 2.524 1.814 2.702h-1.371l-1.242-1.873h-.02l-1.242 1.873zm6.031 0v-5.226h1.282v5.226zm0-5.985v-1.213h1.282v1.213zm2.924 4.121v-2.277h-.808v-1.085h.838v-1.282h1.213v1.282h1.321v1.085h-1.302v2.159c0 .276.046.47.138.582s.28.168.562.168h.424v1.232h-.542c-.703 0-1.187-.148-1.449-.444-.263-.295-.395-.769-.395-1.42z" fill="#7986a3"/><path d="m413.727 274-.394-1.134h-2.633l-.394 1.134h-1.322l2.495-6.902h1.134l2.485 6.902zm-1.716-4.93-.936 2.692h1.883l-.927-2.692zm6.389 4.93v-6.902h2.8c.703 0 1.275.201 1.715.602.441.394.661.926.661 1.597 0 .67-.214 1.203-.641 1.597-.421.395-.999.592-1.735.592h-1.469v2.514zm1.331-3.747h1.449c.296 0 .539-.085.73-.256.19-.178.286-.411.286-.7 0-.335-.099-.579-.296-.73-.191-.158-.431-.236-.72-.236h-1.449zm5.82 2.327c.211.276.5.414.868.414s.657-.138.868-.414c.21-.282.315-.68.315-1.193s-.108-.907-.325-1.183c-.21-.283-.496-.424-.858-.424-.361 0-.651.138-.868.414-.21.276-.315.674-.315 1.193s.105.917.315 1.193zm2.623.838c-.46.487-1.045.73-1.755.73s-1.295-.243-1.755-.73c-.46-.486-.69-1.163-.69-2.031 0-.854.237-1.528.71-2.021s1.052-.74 1.735-.74c.684 0 1.262.247 1.735.74.474.493.71 1.167.71 2.021 0 .868-.23 1.545-.69 2.031zm1.73.582v-5.226h1.212v.552h.02c.099-.197.243-.355.434-.473.197-.118.411-.177.641-.177.164 0 .322.033.473.098l-.197 1.243c-.145-.053-.279-.079-.404-.079-.598 0-.898.397-.898 1.193v2.869zm3.983-1.864v-2.277h-.809v-1.085h.838v-1.282h1.213v1.282h1.321v1.085h-1.301v2.159c0 .276.046.47.138.582s.279.168.562.168h.424v1.232h-.543c-.703 0-1.186-.148-1.449-.444-.263-.295-.394-.769-.394-1.42z" fill="#7986a3"/><path d="m308.727 262-.394-1.134h-2.633l-.394 1.134h-1.322l2.495-6.902h1.134l2.485 6.902zm-1.716-4.93-.936 2.692h1.883l-.927-2.692zm6.389 4.93v-6.902h2.8c.703 0 1.275.201 1.715.602.441.394.661.926.661 1.597 0 .67-.214 1.203-.641 1.597-.421.395-.999.592-1.735.592h-1.469v2.514zm1.331-3.747h1.449c.296 0 .539-.085.73-.256.19-.178.286-.411.286-.7 0-.335-.099-.579-.296-.73-.191-.158-.431-.236-.72-.236h-1.449zm5.82 2.327c.211.276.5.414.868.414s.657-.138.868-.414c.21-.282.315-.68.315-1.193s-.108-.907-.325-1.183c-.21-.283-.496-.424-.858-.424-.361 0-.651.138-.868.414-.21.276-.315.674-.315 1.193s.105.917.315 1.193zm2.623.838c-.46.487-1.045.73-1.755.73s-1.295-.243-1.755-.73c-.46-.486-.69-1.163-.69-2.031 0-.854.237-1.528.71-2.021s1.052-.74 1.735-.74c.684 0 1.262.247 1.735.74.474.493.71 1.167.71 2.021 0 .868-.23 1.545-.69 2.031zm1.73.582v-5.226h1.212v.552h.02c.099-.197.243-.355.434-.473.197-.118.411-.177.641-.177.164 0 .322.033.473.098l-.197 1.243c-.145-.053-.279-.079-.404-.079-.598 0-.898.397-.898 1.193v2.869zm3.983-1.864v-2.277h-.809v-1.085h.838v-1.282h1.213v1.282h1.321v1.085h-1.301v2.159c0 .276.046.47.138.582s.279.168.562.168h.424v1.232h-.543c-.703 0-1.186-.148-1.449-.444-.263-.295-.394-.769-.394-1.42zm-19.065 16.864v-6.902h4.368v1.233h-3.036v1.548h2.76v1.183h-2.76v1.706h3.036v1.232zm5.011 0 1.814-2.702-1.706-2.524h1.331l1.173 1.755h.02l1.173-1.755h1.332l-1.706 2.524 1.814 2.702h-1.371l-1.242-1.873h-.02l-1.242 1.873zm6.031 0v-5.226h1.282v5.226zm0-5.985v-1.213h1.282v1.213zm2.924 4.121v-2.277h-.808v-1.085h.838v-1.282h1.213v1.282h1.321v1.085h-1.302v2.159c0 .276.046.47.138.582s.28.168.562.168h.424v1.232h-.542c-.703 0-1.187-.148-1.449-.444-.263-.295-.395-.769-.395-1.42z" fill="#7986a3"/><path d="m110.55 473.073v-6.902h2.928c.612 0 1.101.181 1.47.543.374.355.562.792.562 1.311 0 .579-.25 1.016-.75 1.311v.01c.296.125.536.326.72.602.191.269.286.595.286.976 0 .657-.201 1.183-.602 1.577-.401.382-1.061.572-1.981.572zm1.331-1.232h1.607c.631 0 .947-.306.947-.917 0-.283-.086-.5-.257-.651-.164-.158-.391-.236-.68-.236h-1.617zm0-2.889h1.43c.269 0 .48-.063.631-.187.158-.132.236-.323.236-.572 0-.263-.075-.46-.226-.592-.151-.131-.365-.197-.641-.197h-1.43zm7.537 4.121v-6.902h1.331v5.67h2.85v1.232zm6.247-1.419c.21.276.5.414.868.414s.657-.138.867-.414c.211-.283.316-.681.316-1.194 0-.512-.109-.907-.326-1.183-.21-.282-.496-.424-.857-.424-.362 0-.651.138-.868.414-.21.277-.316.674-.316 1.193 0 .52.106.917.316 1.194zm2.623.838c-.46.486-1.045.729-1.755.729s-1.295-.243-1.755-.729c-.461-.487-.691-1.164-.691-2.032 0-.854.237-1.528.71-2.021.474-.493 1.052-.739 1.736-.739.683 0 1.262.246 1.735.739s.71 1.167.71 2.021c0 .868-.23 1.545-.69 2.032zm3.011-2.515v.957c0 .315.099.585.296.808.204.217.48.326.828.326.375 0 .664-.135.868-.405.21-.276.315-.677.315-1.203 0-.532-.105-.933-.315-1.202-.204-.27-.493-.405-.868-.405-.348 0-.624.109-.828.326-.197.217-.296.483-.296.798zm-1.282 3.096v-7.197h1.282v2.474h.02c.013-.019.029-.042.049-.069.02-.032.069-.085.148-.157.085-.073.174-.138.266-.198.099-.059.224-.111.375-.157.158-.046.322-.069.493-.069.644 0 1.176.256 1.597.769.427.506.641 1.17.641 1.991 0 .842-.207 1.512-.621 2.012-.408.499-.957.749-1.647.749-.282 0-.539-.052-.769-.157-.23-.112-.388-.221-.473-.326l-.138-.167h-.02v.502zm7.184-3.096v.957c0 .315.099.585.296.808.204.217.48.326.828.326.375 0 .664-.135.868-.405.211-.276.316-.677.316-1.203 0-.532-.105-.933-.316-1.202-.204-.27-.493-.405-.868-.405-.348 0-.624.109-.828.326-.197.217-.296.483-.296.798zm-1.281 3.096v-7.197h1.281v2.474h.02c.013-.019.03-.042.049-.069.02-.032.069-.085.148-.157.086-.073.175-.138.267-.198.098-.059.223-.111.374-.157.158-.046.322-.069.493-.069.644 0 1.177.256 1.598.769.427.506.64 1.17.64 1.991 0 .842-.207 1.512-.621 2.012-.407.499-.956.749-1.646.749-.283 0-.539-.052-.769-.157-.23-.112-.388-.221-.474-.326l-.138-.167h-.019v.502zm6.114 2.219 1.045-2.475-2.09-4.969h1.301l1.351 3.539h.02l1.351-3.539h1.301l-3.007 7.444z" fill="#7986a3"/><path d="m58.6488 348.14v-6.902h2.9284c.6113 0 1.1011.18 1.4692.542.3746.355.562.792.562 1.311 0 .579-.2498 1.016-.7494 1.312v.01c.2958.124.5357.325.7198.601.1906.269.2859.595.2859.976 0 .657-.2005 1.183-.6014 1.578-.401.381-1.0616.572-1.9819.572zm1.3311-1.233h1.6072c.631 0 .9465-.306.9465-.917 0-.283-.0854-.499-.2563-.651-.1643-.157-.3911-.236-.6803-.236h-1.6171zm0-2.889h1.4297c.2695 0 .4799-.062.631-.187.1578-.132.2367-.322.2367-.572 0-.263-.0756-.46-.2268-.592-.1512-.131-.3648-.197-.6409-.197h-1.4297zm7.5371 4.122v-6.902h1.3311v5.669h2.8495v1.233zm6.2468-1.42c.2103.276.4996.414.8677.414s.6573-.138.8676-.414c.2104-.283.3155-.681.3155-1.193 0-.513-.1084-.907-.3253-1.183-.2104-.283-.4963-.424-.8578-.424-.3616 0-.6508.138-.8677.414-.2104.276-.3155.673-.3155 1.193 0 .519.1051.917.3155 1.193zm2.6227.838c-.4601.486-1.0451.729-1.755.729-.71 0-1.295-.243-1.7551-.729-.4601-.487-.6902-1.164-.6902-2.031 0-.855.2366-1.529.7099-2.022s1.0517-.739 1.7354-.739c.6836 0 1.262.246 1.7353.739s.7099 1.167.7099 2.022c0 .867-.23 1.544-.6902 2.031zm1.7295.582v-5.226h1.2325v.503h.0197c.1446-.184.3418-.339.5916-.464s.5127-.187.7888-.187c.5785 0 1.032.174 1.3607.523.3286.341.493.818.493 1.429v3.422h-1.2818v-3.106c0-.362-.069-.631-.2071-.809-.138-.184-.3746-.276-.7099-.276-.3155 0-.562.092-.7395.276-.1775.178-.2662.418-.2662.72v3.195zm9.1583-2.081v-1.075c0-.295-.1018-.545-.3056-.749-.2038-.21-.4766-.315-.8184-.315-.3812 0-.6902.138-.9268.414-.2367.276-.355.673-.355 1.193 0 .519.1183.917.355 1.193.2432.276.5521.414.9268.414.3418 0 .6146-.102.8184-.306.2038-.21.3056-.466.3056-.769zm-3.3129 3.145.9564-.66c.1512.296.3221.509.5127.641.1907.138.4372.207.7395.207.3353 0 .6015-.089.7987-.266.2038-.171.3056-.447.3056-.829v-.66h-.0197c-.0986.177-.2695.332-.5127.463-.2432.125-.5061.187-.7888.187-.6705 0-1.2325-.243-1.686-.729-.4536-.493-.6804-1.17-.6804-2.031 0-.848.2334-1.519.7001-2.012.4667-.499 1.0156-.749 1.6466-.749.5982 0 1.0583.217 1.3804.651h.0197v-.503h1.2226v5.226c0 .762-.2235 1.347-.6704 1.755-.4405.407-1.0123.611-1.7157.611-.5456 0-1.009-.118-1.3902-.355-.3747-.237-.6475-.552-.8184-.947z" fill="#7986a3"/><path d="m157.205 321v-6.902h1.331v2.781h2.367v-2.781h1.331v6.902h-1.331v-2.988h-2.367v2.988zm7.74-1.42c.21.276.499.414.867.414s.658-.138.868-.414c.21-.282.315-.68.315-1.193s-.108-.907-.325-1.183c-.21-.283-.496-.424-.858-.424-.361 0-.651.138-.867.414-.211.276-.316.674-.316 1.193s.105.917.316 1.193zm2.622.838c-.46.487-1.045.73-1.755.73s-1.295-.243-1.755-.73c-.46-.486-.69-1.163-.69-2.031 0-.854.237-1.528.71-2.021s1.052-.74 1.735-.74c.684 0 1.262.247 1.736.74.473.493.709 1.167.709 2.021 0 .868-.23 1.545-.69 2.031zm2.962-.838c.211.276.5.414.868.414s.657-.138.868-.414c.21-.282.315-.68.315-1.193s-.108-.907-.325-1.183c-.211-.283-.497-.424-.858-.424-.362 0-.651.138-.868.414-.21.276-.315.674-.315 1.193s.105.917.315 1.193zm2.623.838c-.46.487-1.045.73-1.755.73s-1.295-.243-1.755-.73c-.46-.486-.69-1.163-.69-2.031 0-.854.236-1.528.71-2.021.473-.493 1.051-.74 1.735-.74s1.262.247 1.735.74c.474.493.71 1.167.71 2.021 0 .868-.23 1.545-.69 2.031zm1.73.582v-7.198h1.281v4.132h.02l1.903-2.16h1.607l-1.883 2.12 2.051 3.106h-1.42l-1.597-2.386h-.02l-.661.749v1.637zm8.649 0v-.503h-.02c-.013.02-.03.046-.049.079-.02.026-.069.076-.148.148s-.168.138-.267.197c-.098.059-.233.112-.404.158s-.355.069-.552.069c-.631 0-1.104-.148-1.42-.444-.309-.302-.463-.67-.463-1.104 0-.454.135-.799.404-1.035.27-.237.726-.434 1.371-.592.598-.145.972-.26 1.124-.345.151-.086.226-.207.226-.365s-.075-.289-.226-.394c-.145-.105-.365-.158-.661-.158-.348 0-.598.079-.749.237-.152.151-.27.358-.355.621l-1.065-.444c.125-.44.368-.799.729-1.075.362-.282.835-.424 1.42-.424.638 0 1.16.168 1.568.503s.611.855.611 1.558v3.313zm-1.292-2.14c-.329.079-.546.175-.651.286-.098.106-.148.227-.148.365 0 .355.257.533.769.533.388 0 .677-.073.868-.217.197-.152.296-.336.296-.552v-.908h-.02c-.026.053-.056.096-.089.129-.026.026-.125.075-.295.147-.171.066-.415.139-.73.217zm3.648 2.14v-7.198h1.282v2.475h.02c.105-.171.279-.322.522-.453.244-.132.493-.198.75-.198.558 0 1.002.171 1.331.513.328.342.493.802.493 1.38v3.481h-1.282v-3.195c0-.289-.079-.525-.237-.71-.151-.19-.381-.285-.69-.285-.296 0-.522.085-.68.256-.151.164-.227.381-.227.651v3.283z" fill="#7986a3"/><path d="m156.854 255-1.34-6.902h1.35l.888 4.693h.029l1.588-4.693h.67l1.588 4.693h.029l.888-4.693h1.321l-1.341 6.902h-1.38l-1.42-4.289h-.059l-1.43 4.289zm7.999 0v-5.226h1.282v5.226zm0-5.985v-1.213h1.282v1.213zm2.658 5.985v-5.226h1.232v.503h.02c.144-.184.342-.338.591-.463.25-.125.513-.188.789-.188.579 0 1.032.175 1.361.523.329.342.493.818.493 1.43v3.421h-1.282v-3.106c0-.361-.069-.631-.207-.808-.138-.184-.375-.276-.71-.276-.315 0-.562.092-.739.276-.178.177-.267.417-.267.719v3.195zm9.059-2.14v-.956c0-.316-.102-.582-.305-.799-.197-.217-.47-.325-.819-.325-.374 0-.667.135-.877.404-.204.27-.306.671-.306 1.203 0 .526.102.927.306 1.203.21.27.503.404.877.404.349 0 .622-.108.819-.325.203-.224.305-.493.305-.809zm.079 2.14v-.503h-.019c-.033.046-.083.105-.148.178-.06.072-.211.171-.454.295-.237.119-.496.178-.779.178-.69 0-1.242-.25-1.656-.749-.408-.5-.612-1.17-.612-2.012 0-.848.224-1.518.671-2.011.447-.5.973-.75 1.577-.75.276 0 .523.056.74.168.223.105.375.21.453.315l.129.168h.019v-2.475h1.282v7.198zm3.812-1.42c.211.276.5.414.868.414s.657-.138.868-.414c.21-.282.315-.68.315-1.193s-.108-.907-.325-1.183c-.21-.283-.496-.424-.858-.424-.361 0-.651.138-.868.414-.21.276-.315.674-.315 1.193s.105.917.315 1.193zm2.623.838c-.46.487-1.045.73-1.755.73s-1.295-.243-1.755-.73c-.46-.486-.69-1.163-.69-2.031 0-.854.236-1.528.71-2.021.473-.493 1.051-.74 1.735-.74s1.262.247 1.735.74c.474.493.71 1.167.71 2.021 0 .868-.23 1.545-.69 2.031zm2.489.582-1.154-5.226h1.252l.691 3.491h.029l1.164-3.491h1.163l1.075 3.481h.02l.788-3.481h1.233l-1.252 5.226h-1.262l-1.193-3.757h-.02l-1.292 3.757z" fill="#7986a3"/><path d="m39.5405 205.358v-6.902h4.3679v1.233h-3.0369v1.548h2.7608v1.183h-2.7608v1.706h3.0369v1.232zm5.6016 0v-7.198h1.3311v7.198zm3.9971-3.096v.957c0 .315.0986.585.2958.808.2038.217.4799.326.8283.326.3746 0 .6639-.135.8676-.405.2104-.276.3156-.677.3156-1.203 0-.532-.1052-.933-.3156-1.203-.2037-.269-.493-.404-.8676-.404-.3484 0-.6245.109-.8283.326-.1972.216-.2958.483-.2958.798zm-1.2817 3.096v-7.198h1.2817v2.475h.0198c.0131-.019.0295-.042.0493-.069.0197-.033.069-.085.1479-.157.0854-.073.1742-.138.2662-.198.0986-.059.2235-.111.3747-.157.1577-.046.322-.069.493-.069.6441 0 1.1766.256 1.5973.769.4272.506.6409 1.17.6409 1.991 0 .842-.2071 1.512-.6212 2.012-.4076.499-.9564.749-1.6466.749-.2827 0-.539-.052-.7691-.158-.2301-.111-.3878-.22-.4733-.325l-.138-.168h-.0197v.503zm7.1349-1.42c.2104.276.4996.415.8677.415s.6573-.139.8677-.415c.2103-.282.3155-.68.3155-1.193 0-.512-.1085-.907-.3254-1.183-.2103-.282-.4963-.424-.8578-.424s-.6508.138-.8677.414c-.2103.276-.3155.674-.3155 1.193 0 .52.1052.917.3155 1.193zm2.6228.838c-.4602.487-1.0452.73-1.7551.73s-1.295-.243-1.7551-.73c-.4601-.486-.6902-1.163-.6902-2.031 0-.854.2367-1.528.7099-2.021.4733-.493 1.0518-.739 1.7354-.739s1.2621.246 1.7353.739c.4733.493.7099 1.167.7099 2.021 0 .868-.23 1.545-.6901 2.031zm2.4887.582-1.1537-5.226h1.2523l.6901 3.491h.0296l1.1635-3.491h1.1635l1.0747 3.481h.0197l.7888-3.481h1.2325l-1.2522 5.226h-1.2621l-1.193-3.756h-.0197l-1.2917 3.756z" fill="#7986a3"/><path d="m135.768 110.171v-6.902h2.928c.612 0 1.101.18 1.469.542.375.355.562.792.562 1.311 0 .579-.249 1.016-.749 1.312v.01c.296.125.536.325.72.601.19.27.286.595.286.976 0 .658-.201 1.183-.602 1.578-.401.381-1.061.572-1.982.572zm1.331-1.233h1.607c.631 0 .947-.305.947-.917 0-.282-.086-.499-.257-.651-.164-.157-.391-.236-.68-.236h-1.617zm0-2.889h1.43c.269 0 .479-.062.631-.187.157-.132.236-.322.236-.572 0-.263-.075-.46-.227-.592-.151-.131-.364-.197-.64-.197h-1.43zm4.678 1.381v-.986h3.243v.986zm4.428 2.741v-6.902h1.332v2.78h2.366v-2.78h1.331v6.902h-1.331v-2.988h-2.366v2.988zm9.485 0v-.503h-.02c-.013.02-.029.046-.049.079-.02.026-.069.075-.148.148-.079.072-.168.138-.266.197-.099.059-.234.112-.404.158-.171.046-.355.069-.553.069-.631 0-1.104-.148-1.419-.444-.309-.302-.464-.671-.464-1.104 0-.454.135-.799.404-1.036.27-.236.727-.434 1.371-.591.598-.145.973-.26 1.124-.345.151-.086.227-.207.227-.365s-.076-.289-.227-.395c-.145-.105-.365-.157-.661-.157-.348 0-.598.078-.749.236-.151.151-.27.358-.355.621l-1.065-.443c.125-.441.368-.799.73-1.075.361-.283.835-.424 1.42-.424.637 0 1.16.168 1.567.503.408.335.612.854.612 1.558v3.313zm-1.292-2.14c-.328.079-.545.174-.65.286-.099.105-.148.227-.148.365 0 .355.256.532.769.532.388 0 .677-.072.867-.217.198-.151.296-.335.296-.552v-.907h-.02c-.026.053-.055.095-.088.128-.027.027-.125.076-.296.148-.171.066-.414.138-.73.217zm3.649 2.14v-7.198h1.331v7.198zm2.715 0v-7.198h1.331v7.198z" fill="#7986a3"/><path d="m198.546 178.587v-6.902h2.928c.612 0 1.102.181 1.47.542.374.355.562.792.562 1.311 0 .579-.25 1.016-.75 1.312v.01c.296.125.536.325.72.601.191.27.286.595.286.976 0 .658-.2 1.183-.601 1.578-.401.381-1.062.572-1.982.572zm1.331-1.233h1.607c.631 0 .947-.305.947-.917 0-.282-.086-.499-.256-.65-.165-.158-.392-.237-.681-.237h-1.617zm0-2.889h1.43c.269 0 .48-.062.631-.187.158-.132.237-.322.237-.572 0-.263-.076-.46-.227-.592-.151-.131-.365-.197-.641-.197h-1.43zm11.491 1.381 1.38.305c-.111.802-.404 1.433-.877 1.893-.473.461-1.091.691-1.854.691-.887 0-1.61-.306-2.169-.917-.552-.618-.828-1.548-.828-2.791 0-1.091.292-1.945.877-2.563.592-.618 1.295-.927 2.11-.927.71 0 1.312.223 1.805.67.499.441.789 1.036.867 1.785l-1.321.207c-.059-.421-.197-.762-.414-1.025-.217-.27-.526-.405-.927-.405-.453 0-.838.198-1.153.592-.316.394-.474.95-.474 1.666 0 .842.152 1.466.454 1.874.309.401.7.601 1.173.601.776 0 1.226-.552 1.351-1.656zm2.369.887v-3.372h1.282v3.234c0 .329.062.562.187.7s.325.207.602.207c.308 0 .558-.079.749-.236.19-.165.286-.421.286-.77v-3.135h1.282v5.226h-1.223v-.503h-.02c-.322.434-.775.651-1.36.651-.605 0-1.055-.181-1.351-.543-.289-.361-.434-.848-.434-1.459zm7.051-1.242v.956c0 .316.098.585.295.809.204.217.48.325.829.325.374 0 .663-.135.867-.404.211-.276.316-.677.316-1.203 0-.533-.105-.934-.316-1.203-.204-.27-.493-.404-.867-.404-.349 0-.625.108-.829.325-.197.217-.295.483-.295.799zm-1.282 3.096v-7.198h1.282v2.475h.019c.013-.02.03-.043.05-.069.019-.033.069-.086.147-.158.086-.072.175-.138.267-.197.098-.059.223-.112.374-.158.158-.046.322-.069.493-.069.645 0 1.177.256 1.598.769.427.506.641 1.17.641 1.992 0 .841-.208 1.512-.622 2.011-.407.5-.956.75-1.646.75-.283 0-.539-.053-.769-.158-.23-.112-.388-.22-.474-.325l-.138-.168h-.019v.503zm7.184-3.096v.956c0 .316.099.585.296.809.204.217.48.325.828.325.375 0 .664-.135.868-.404.21-.276.315-.677.315-1.203 0-.533-.105-.934-.315-1.203-.204-.27-.493-.404-.868-.404-.348 0-.624.108-.828.325-.197.217-.296.483-.296.799zm-1.282 3.096v-7.198h1.282v2.475h.02c.013-.02.029-.043.049-.069.02-.033.069-.086.148-.158.085-.072.174-.138.266-.197.099-.059.224-.112.375-.158.158-.046.322-.069.493-.069.644 0 1.176.256 1.597.769.427.506.641 1.17.641 1.992 0 .841-.207 1.512-.621 2.011-.408.5-.957.75-1.647.75-.282 0-.539-.053-.769-.158-.23-.112-.388-.22-.473-.325l-.138-.168h-.02v.503zm6.114 2.218 1.046-2.475-2.091-4.969h1.302l1.351 3.54h.019l1.351-3.54h1.302l-3.008 7.444z" fill="#7986a3"/><path d="m388.712 208.068v-4.654h1.331v4.595c0 .374.106.673.316.897.217.217.532.325.947.325.414 0 .729-.108.946-.325s.325-.509.325-.878v-4.614h1.332v4.654c0 .776-.237 1.37-.71 1.785-.474.407-1.105.611-1.893.611-.789 0-1.42-.204-1.894-.611-.466-.415-.7-1.009-.7-1.785zm9.093 2.248v-6.902h1.332v2.78h2.366v-2.78h1.331v6.902h-1.331v-2.988h-2.366v2.988zm9.485 0v-.503h-.02c-.013.02-.029.046-.049.079-.02.026-.069.076-.148.148s-.168.138-.266.197c-.099.059-.234.112-.404.158-.171.046-.355.069-.553.069-.631 0-1.104-.148-1.419-.444-.309-.302-.464-.67-.464-1.104 0-.454.135-.799.404-1.035.27-.237.727-.434 1.371-.592.598-.145.973-.26 1.124-.345.151-.086.227-.207.227-.365s-.076-.289-.227-.394c-.145-.106-.365-.158-.661-.158-.348 0-.598.079-.749.236-.151.152-.27.359-.355.622l-1.065-.444c.125-.44.368-.799.73-1.075.361-.282.835-.424 1.42-.424.637 0 1.16.168 1.567.503.408.335.612.855.612 1.558v3.313zm-1.292-2.14c-.328.079-.545.175-.65.286-.099.105-.148.227-.148.365 0 .355.256.533.769.533.388 0 .677-.073.867-.217.198-.152.296-.336.296-.553v-.907h-.02c-.026.053-.055.096-.088.128-.027.027-.125.076-.296.148-.171.066-.414.138-.73.217zm3.649 2.14v-7.198h1.331v7.198zm2.715 0v-7.198h1.331v7.198z" fill="#7986a3"/><path d="m453.101 215.274v-5.67h-2.021v-1.232h5.374v1.232h-2.022v5.67zm3.655 0v-5.226h1.212v.552h.02c.099-.197.243-.355.434-.473.197-.119.411-.178.641-.178.164 0 .322.033.473.099l-.197 1.242c-.145-.052-.28-.079-.404-.079-.599 0-.898.398-.898 1.193v2.87zm3.571-1.854v-3.372h1.281v3.234c0 .329.063.562.188.7s.325.207.601.207c.309 0 .559-.079.75-.237.19-.164.286-.42.286-.769v-3.135h1.281v5.226h-1.222v-.503h-.02c-.322.434-.776.651-1.361.651-.604 0-1.055-.181-1.35-.543-.29-.361-.434-.848-.434-1.459zm8.904-.256 1.213.315c-.119.625-.375 1.104-.769 1.44-.395.335-.891.503-1.489.503-.71 0-1.295-.244-1.755-.73-.454-.487-.681-1.164-.681-2.031 0-.861.234-1.535.7-2.022.474-.493 1.055-.739 1.746-.739.585 0 1.074.171 1.469.513.394.341.637.798.729 1.37l-1.193.227c-.125-.638-.46-.956-1.005-.956-.362 0-.651.138-.868.414-.21.269-.316.667-.316 1.193s.106.927.316 1.203c.21.269.5.404.868.404.578 0 .923-.368 1.035-1.104zm2.199 2.11v-7.198h1.282v4.131h.019l1.903-2.159h1.608l-1.884 2.12 2.051 3.106h-1.42l-1.597-2.386h-.02l-.66.749v1.637z" fill="#7986a3"/><path d="m423.208 234.113v-6.902h2.8c.704 0 1.276.2 1.716.601.44.395.661.927.661 1.598 0 .67-.214 1.203-.641 1.597-.421.394-.999.592-1.736.592h-1.469v2.514zm1.331-3.747h1.45c.295 0 .539-.085.729-.256.191-.178.286-.411.286-.7 0-.336-.098-.579-.296-.73-.19-.158-.43-.237-.719-.237h-1.45zm4.589 3.747v-5.226h1.281v5.226zm0-5.985v-1.213h1.281v1.213zm2.657 5.985v-7.198h1.331v7.198zm2.715 0v-7.198h1.332v7.198zm5.693 0v-.503h-.019c-.013.02-.03.046-.05.079-.019.026-.069.075-.147.148-.079.072-.168.138-.267.197-.098.059-.233.112-.404.158s-.355.069-.552.069c-.631 0-1.104-.148-1.42-.444-.309-.302-.463-.67-.463-1.104 0-.454.134-.799.404-1.036.269-.236.726-.433 1.37-.591.599-.145.973-.26 1.124-.345.152-.086.227-.207.227-.365s-.075-.289-.227-.394c-.144-.106-.364-.158-.66-.158-.349 0-.598.079-.749.236-.152.152-.27.359-.355.622l-1.065-.444c.125-.441.368-.799.729-1.075.362-.283.835-.424 1.42-.424.638 0 1.16.168 1.568.503.407.335.611.855.611 1.558v3.313zm-1.291-2.14c-.329.079-.546.174-.651.286-.099.105-.148.227-.148.365 0 .355.257.532.769.532.388 0 .677-.072.868-.217.197-.151.296-.335.296-.552v-.907h-.02c-.026.053-.056.096-.089.128-.026.027-.125.076-.296.148-.17.066-.414.138-.729.217zm3.648 2.14v-5.226h1.213v.552h.02c.098-.197.243-.355.433-.473.198-.118.411-.178.641-.178.165 0 .322.033.474.099l-.198 1.242c-.144-.052-.279-.078-.404-.078-.598 0-.897.397-.897 1.193v2.869z" fill="#7986a3"/><path d="m561.188 263.859v-5.67h-2.021v-1.232h5.373v1.232h-2.021v5.67zm4.588-1.42c.211.276.5.414.868.414s.657-.138.868-.414c.21-.283.315-.68.315-1.193s-.108-.907-.325-1.183c-.21-.283-.496-.424-.858-.424-.361 0-.651.138-.868.414-.21.276-.315.674-.315 1.193s.105.917.315 1.193zm2.623.838c-.46.487-1.045.73-1.755.73s-1.295-.243-1.755-.73c-.46-.486-.69-1.163-.69-2.031 0-.854.236-1.528.71-2.021.473-.493 1.051-.74 1.735-.74s1.262.247 1.735.74c.474.493.71 1.167.71 2.021 0 .868-.23 1.545-.69 2.031zm2.489.582-1.154-5.226h1.252l.691 3.491h.029l1.164-3.491h1.163l1.075 3.481h.02l.788-3.481h1.233l-1.252 5.226h-1.262l-1.193-3.757h-.02l-1.292 3.757zm10.538-1.804.897.788c-.533.776-1.252 1.164-2.159 1.164-.73 0-1.325-.25-1.785-.75-.46-.506-.69-1.176-.69-2.011s.227-1.502.68-2.002c.46-.506 1.039-.759 1.735-.759.697 0 1.269.253 1.716.759.454.5.68 1.167.68 2.002v.385h-3.51c.02.401.128.709.326.926.203.211.479.316.828.316.296 0 .539-.072.73-.217.197-.151.381-.352.552-.601zm-2.436-1.381h2.268c-.033-.335-.148-.595-.345-.779-.197-.19-.467-.286-.809-.286-.315 0-.575.102-.778.306-.198.204-.309.457-.336.759zm4.542 3.185v-5.226h1.213v.552h.019c.099-.197.244-.355.434-.473.197-.118.411-.177.641-.177.164 0 .322.032.473.098l-.197 1.243c-.144-.053-.279-.079-.404-.079-.598 0-.897.397-.897 1.193v2.869z" fill="#7986a3"/><path d="m404.204 152.807-2.495-6.902h1.4l1.706 4.9h.03l1.656-4.9h1.381l-2.465 6.902zm7.364-1.805.897.789c-.533.776-1.252 1.164-2.16 1.164-.729 0-1.324-.25-1.784-.75-.46-.506-.69-1.176-.69-2.011s.226-1.502.68-2.002c.46-.506 1.039-.759 1.735-.759.697 0 1.269.253 1.716.759.453.5.68 1.167.68 2.002v.384h-3.51c.02.401.128.71.326.927.203.211.479.316.828.316.296 0 .539-.073.729-.217.198-.151.382-.352.553-.602zm-2.436-1.38h2.268c-.033-.335-.148-.595-.345-.779-.197-.191-.467-.286-.809-.286-.315 0-.575.102-.779.306-.197.204-.309.457-.335.759zm4.542 3.185v-5.226h1.232v.503h.02c.145-.184.342-.339.592-.464.249-.124.512-.187.788-.187.579 0 1.032.174 1.361.523.329.342.493.818.493 1.429v3.422h-1.282v-3.106c0-.362-.069-.631-.207-.809-.138-.184-.374-.276-.71-.276-.315 0-.562.092-.739.276-.178.178-.266.418-.266.72v3.195zm6.082-1.864v-2.277h-.809v-1.085h.838v-1.282h1.213v1.282h1.321v1.085h-1.301v2.159c0 .276.046.47.138.582.092.111.279.167.562.167h.424v1.233h-.542c-.704 0-1.187-.148-1.45-.444s-.394-.769-.394-1.42z" fill="#7986a3"/><path d="m510.061 213.358-.64-1.84h-4.272l-.64 1.84h-2.144l4.048-11.2h1.84l4.032 11.2zm-2.784-8-1.52 4.368h3.056l-1.504-4.368z" fill="#e5ebef"/><path d="m150.421 178.654v-11.2h4.752c.992 0 1.787.294 2.384.88.608.576.912 1.286.912 2.128 0 .939-.405 1.648-1.216 2.128v.016c.48.203.869.528 1.168.976.309.438.464.966.464 1.584 0 1.067-.325 1.92-.976 2.56-.651.619-1.723.928-3.216.928zm2.16-2h2.608c1.024 0 1.536-.496 1.536-1.488 0-.458-.139-.81-.416-1.056-.267-.256-.635-.384-1.104-.384h-2.624zm0-4.688h2.32c.437 0 .779-.101 1.024-.304.256-.213.384-.522.384-.928 0-.426-.123-.746-.368-.96-.245-.213-.592-.32-1.04-.32h-2.32z" fill="#e5ebef"/><path d="m376.262 675.511-.526-1.512h-3.51l-.526 1.512h-1.762l3.326-9.203h1.512l3.313 9.203zm-2.288-6.573-1.249 3.589h2.511l-1.236-3.589zm5.198 4.088v-3.037h-1.078v-1.446h1.117v-1.709h1.617v1.709h1.762v1.446h-1.736v2.879c0 .369.062.627.185.776.122.149.372.224.749.224h.565v1.643h-.723c-.938 0-1.582-.197-1.932-.592-.351-.394-.526-1.025-.526-1.893zm4.955 0v-3.037h-1.078v-1.446h1.118v-1.709h1.617v1.709h1.761v1.446h-1.735v2.879c0 .369.061.627.184.776s.373.224.75.224h.565v1.643h-.723c-.938 0-1.582-.197-1.933-.592-.35-.394-.526-1.025-.526-1.893zm8.571 2.485v-.671h-.026c-.018.027-.039.062-.066.106-.026.035-.092.1-.197.197-.105.096-.223.184-.355.263-.131.079-.311.149-.539.21s-.473.092-.736.092c-.841 0-1.473-.197-1.893-.592-.412-.403-.618-.893-.618-1.472 0-.605.18-1.065.539-1.38.359-.316.968-.579 1.827-.789.798-.193 1.297-.346 1.499-.46s.302-.276.302-.487c0-.21-.1-.385-.302-.526-.193-.14-.486-.21-.881-.21-.464 0-.797.105-.999.316-.202.201-.359.477-.473.828l-1.42-.592c.166-.587.491-1.065.973-1.433.482-.377 1.113-.565 1.893-.565.85 0 1.547.223 2.09.67.544.447.815 1.14.815 2.078v4.417zm-1.722-2.853c-.438.105-.727.232-.868.381-.131.141-.197.303-.197.487 0 .473.342.71 1.026.71.517 0 .902-.097 1.157-.29.262-.201.394-.447.394-.736v-1.209h-.026c-.035.07-.075.127-.119.171-.035.035-.166.1-.394.197-.228.087-.552.184-.973.289zm9.045.04 1.617.42c-.158.833-.499 1.473-1.025 1.92s-1.188.67-1.985.67c-.947 0-1.727-.324-2.34-.973-.605-.648-.908-1.551-.908-2.708 0-1.148.312-2.046.934-2.695.631-.657 1.406-.986 2.327-.986.78 0 1.433.228 1.959.684.525.455.85 1.064.972 1.827l-1.59.302c-.167-.85-.614-1.275-1.341-1.275-.482 0-.868.184-1.157.552-.281.36-.421.89-.421 1.591s.14 1.236.421 1.604c.28.359.666.539 1.157.539.771 0 1.231-.491 1.38-1.472zm2.932 2.813v-9.597h1.709v5.508h.026l2.538-2.879h2.143l-2.511 2.827 2.734 4.141h-1.893l-2.13-3.182h-.026l-.881 1v2.182zm11.828-2.406 1.196 1.052c-.71 1.034-1.67 1.551-2.879 1.551-.973 0-1.766-.333-2.38-.999-.613-.675-.92-1.569-.92-2.682s.302-2.003.907-2.669c.614-.675 1.385-1.012 2.314-1.012s1.691.337 2.287 1.012c.605.666.907 1.556.907 2.669v.513h-4.68c.027.534.171.946.434 1.236.272.28.64.42 1.104.42.395 0 .719-.096.973-.289.263-.202.509-.469.737-.802zm-3.248-1.84h3.024c-.044-.447-.197-.794-.46-1.039-.263-.254-.622-.381-1.078-.381-.421 0-.767.136-1.039.407-.263.272-.412.609-.447 1.013zm6.056 4.246v-6.968h1.617v.736h.026c.132-.263.324-.473.579-.631.263-.157.547-.236.854-.236.219 0 .43.044.631.131l-.263 1.657c-.193-.07-.372-.106-.539-.106-.797 0-1.196.531-1.196 1.591v3.826zm4.301-2.301 1.538-.394c.123.973.645 1.459 1.565 1.459.421 0 .754-.066.999-.197.254-.14.381-.333.381-.579 0-.201-.096-.35-.289-.447-.193-.105-.596-.245-1.21-.42-.166-.044-.293-.079-.381-.105-.806-.228-1.398-.496-1.775-.802-.376-.316-.565-.732-.565-1.249 0-.579.232-1.078.697-1.499.473-.421 1.117-.631 1.932-.631 1.561 0 2.538.684 2.932 2.051l-1.42.434c-.122-.333-.298-.596-.526-.789-.219-.193-.543-.289-.972-.289-.333 0-.601.065-.802.197-.193.123-.29.272-.29.447 0 .193.114.346.342.46.237.105.82.289 1.749.552.815.219 1.367.5 1.656.842.298.333.447.762.447 1.288 0 .561-.245 1.065-.736 1.512-.482.438-1.183.657-2.103.657-.965 0-1.71-.241-2.235-.723-.517-.491-.829-1.082-.934-1.775z" fill="#ff5859"/><path d="m311.43 46.0605h1.223c.315 0 .592-.0351.828-.1052.237-.0789.46-.2191.671-.4207.21-.2016.372-.5039.486-.9071.114-.4119.171-.9246.171-1.5381 0-1.0255-.193-1.7704-.578-2.2349-.377-.4733-.877-.71-1.499-.71h-1.302zm-1.774 1.6433v-9.2026h3.076c.526 0 1.021.092 1.485.2761.465.1841.886.4557 1.262.8151.377.3593.675.8414.894 1.4461.228.596.342 1.2796.342 2.0509 0 .8413-.114 1.5732-.342 2.1954-.227.6223-.539 1.1044-.933 1.4462-.394.333-.824.5784-1.288.7362-.456.1577-.956.2366-1.499.2366zm12.967-2.4058 1.196 1.0517c-.71 1.0342-1.67 1.5513-2.879 1.5513-.973 0-1.766-.333-2.38-.9991-.613-.6749-.92-1.5689-.92-2.6819 0-1.1131.302-2.0027.907-2.6688.614-.6748 1.385-1.0123 2.314-1.0123s1.691.3375 2.287 1.0123c.605.6661.908 1.5557.908 2.6688v.5127h-4.681c.027.5346.171.9465.434 1.2358.272.2804.64.4207 1.104.4207.395 0 .719-.0965.973-.2893.263-.2015.509-.4689.737-.8019zm-3.248-1.8405h3.024c-.044-.447-.197-.7932-.46-1.0386-.263-.2542-.622-.3813-1.078-.3813-.421 0-.767.1359-1.039.4076-.263.2717-.412.6091-.447 1.0123zm6.411 4.2463v-5.5215h-1.078v-1.4462h1.117v-.986c0-.5959.154-1.0166.46-1.262.316-.2542.772-.3813 1.368-.3813h1.367v1.5119h-1.012c-.211 0-.36.0438-.447.1314-.079.0789-.119.2192-.119.4207v.5653h1.762v1.4462h-1.709v5.5215zm8.866-2.4058 1.196 1.0517c-.709 1.0342-1.669 1.5513-2.879 1.5513-.972 0-1.766-.333-2.379-.9991-.614-.6749-.92-1.5689-.92-2.6819 0-1.1131.302-2.0027.907-2.6688.613-.6748 1.384-1.0123 2.314-1.0123.929 0 1.691.3375 2.287 1.0123.605.6661.907 1.5557.907 2.6688v.5127h-4.68c.026.5346.171.9465.434 1.2358.271.2804.64.4207 1.104.4207.394 0 .719-.0965.973-.2893.263-.2015.508-.4689.736-.8019zm-3.247-1.8405h3.024c-.044-.447-.198-.7932-.46-1.0386-.263-.2542-.623-.3813-1.078-.3813-.421 0-.767.1359-1.039.4076-.263.2717-.412.6091-.447 1.0123zm6.055 4.2463v-6.9677h1.644v.6705h.026c.193-.2454.456-.4514.789-.6179s.684-.2498 1.052-.2498c.771 0 1.376.2323 1.814.6968.438.4558.657 1.0912.657 1.9063v4.5618h-1.709v-4.1412c0-.482-.092-.8413-.276-1.078-.184-.2454-.5-.3681-.947-.3681-.42 0-.749.1227-.986.3681-.236.2367-.354.5566-.354.9597v4.2595zm12.08-2.8528v-1.2752c0-.4207-.136-.7757-.407-1.0649-.263-.2892-.627-.4338-1.092-.4338-.499 0-.889.1797-1.17.539-.271.3593-.407.894-.407 1.6039 0 .7011.136 1.2358.407 1.6039.281.3593.671.539 1.17.539.465 0 .829-.1446 1.092-.4339.271-.298.407-.6573.407-1.078zm.105 2.8528v-.6705h-.026c-.044.0614-.11.1403-.197.2367-.079.0964-.281.2278-.605.3944-.315.1577-.662.2366-1.039.2366-.92 0-1.656-.333-2.208-.9991-.544-.6661-.815-1.5601-.815-2.6819 0-1.1306.298-2.0246.894-2.6819.596-.6661 1.297-.9992 2.103-.9992.368 0 .697.0745.986.2235.298.1403.5.2805.605.4207l.171.2235h.026v-3.2998h1.709v9.597zm7.962-2.4058 1.197 1.0517c-.71 1.0342-1.67 1.5513-2.879 1.5513-.973 0-1.767-.333-2.38-.9991-.614-.6749-.92-1.5689-.92-2.6819 0-1.1131.302-2.0027.907-2.6688.613-.6748 1.385-1.0123 2.314-1.0123s1.691.3375 2.287 1.0123c.605.6661.907 1.5557.907 2.6688v.5127h-4.68c.026.5346.171.9465.434 1.2358.272.2804.64.4207 1.104.4207.395 0 .719-.0965.973-.2893.263-.2015.508-.4689.736-.8019zm-3.247-1.8405h3.024c-.044-.447-.197-.7932-.46-1.0386-.263-.2542-.623-.3813-1.078-.3813-.421 0-.767.1359-1.039.4076-.263.2717-.412.6091-.447 1.0123zm6.056 4.2463v-6.9677h1.617v.7362h.026c.131-.2629.324-.4732.578-.631.263-.1577.548-.2366.855-.2366.219 0 .429.0438.631.1314l-.263 1.6565c-.193-.0701-.372-.1052-.539-.1052-.798 0-1.196.5303-1.196 1.5908v3.8256zm4.301-2.3006 1.538-.3944c.123.9728.644 1.4592 1.565 1.4592.42 0 .753-.0657.999-.1972.254-.1402.381-.333.381-.5784 0-.2016-.096-.3506-.289-.447-.193-.1052-.596-.2454-1.21-.4207-.166-.0438-.293-.0789-.381-.1052-.806-.2278-1.398-.4951-1.775-.8019-.377-.3155-.565-.7318-.565-1.2489 0-.5785.232-1.078.697-1.4987.473-.4207 1.117-.6311 1.932-.6311 1.56 0 2.538.6837 2.932 2.0509l-1.42.4338c-.123-.333-.298-.5959-.526-.7888-.219-.1928-.543-.2892-.973-.2892-.333 0-.6.0658-.802.1972-.192.1227-.289.2717-.289.447 0 .1928.114.3462.342.4601.237.1052.819.2893 1.749.5522.815.2191 1.367.4996 1.656.8414.298.333.447.7625.447 1.2883 0 .5609-.245 1.0649-.736 1.5119-.482.4382-1.183.6573-2.104.6573-.964 0-1.709-.241-2.235-.7231-.517-.4908-.828-1.0824-.933-1.7747z" fill="#24e8cc"/></svg>