<svg fill="none" height="708" viewBox="0 0 708 708" width="708" xmlns="http://www.w3.org/2000/svg" xmlns:xlink="http://www.w3.org/1999/xlink"><linearGradient id="a" gradientUnits="userSpaceOnUse" x1="483.047" x2="542.63" y1="351.638" y2="351.638"><stop offset=".229167" stop-color="#182338"/><stop offset="1" stop-color="#182338" stop-opacity="0"/></linearGradient><linearGradient id="b"><stop offset="0" stop-color="#182338" stop-opacity="0"/><stop offset="1" stop-color="#182338"/></linearGradient><linearGradient id="c" gradientUnits="userSpaceOnUse" x1="483.047" x2="554.629" xlink:href="#b" y1="435.22" y2="435.22"/><linearGradient id="d" gradientUnits="userSpaceOnUse" x1="634.901" x2="634.901" xlink:href="#b" y1="324.329" y2="378.947"/><linearGradient id="e" gradientUnits="userSpaceOnUse" x1="444.565" x2="444.565" y1="362.396" y2="415.359"><stop offset=".255208" stop-color="#182338"/><stop offset="1" stop-color="#182338" stop-opacity="0"/></linearGradient><linearGradient id="f" gradientUnits="userSpaceOnUse" x1="341.536" x2="341.536" xlink:href="#b" y1="337.57" y2="417.014"/><linearGradient id="g" gradientUnits="userSpaceOnUse" x1="256.713" x2="256.713" xlink:href="#b" y1="388.877" y2="417.014"/><radialGradient id="h" cx="0" cy="0" gradientTransform="matrix(0 61.2384 -80.4799 0 292.711 520.457)" gradientUnits="userSpaceOnUse" r="1"><stop offset="0" stop-color="#182338"/><stop offset="1" stop-color="#182338" stop-opacity="0"/></radialGradient><linearGradient id="i" gradientUnits="userSpaceOnUse" x1="528.976" x2="598.076" y1="166.268" y2="166.268"><stop offset="0" stop-color="#273552" stop-opacity="0"/><stop offset="1" stop-color="#273552"/></linearGradient><linearGradient id="j" gradientUnits="userSpaceOnUse" x1="362.639" x2="362.639" y1="472.46" y2="522.94"><stop offset=".4601" stop-color="#273552"/><stop offset="1" stop-color="#273552" stop-opacity="0"/></linearGradient><linearGradient id="k" gradientUnits="userSpaceOnUse" x1="354.364" x2="354.364" y1="2" y2="369.527"><stop offset=".283288" stop-color="#24e8ad" stop-opacity="0"/><stop offset="1" stop-color="#24e8ad"/></linearGradient><linearGradient id="l" gradientUnits="userSpaceOnUse" x1="268.128" x2="268.128" y1="460.942" y2="641.052"><stop offset="0" stop-color="#ff5859"/><stop offset="1" stop-color="#ff5859" stop-opacity="0"/></linearGradient><mask id="m" height="104" maskUnits="userSpaceOnUse" width="618" x="54" y="210"><path d="m588.973 224.167c0-2.269 1.839-4.109 4.108-4.109h4.197c2.269 0 4.108-1.839 4.108-4.108v-1.714c0-2.269 1.839-4.108 4.108-4.108h39.781c2.269 0 4.109 1.839 4.109 4.108v7.507c0 2.269 1.839 4.108 4.108 4.108h14.127c2.269 0 4.108 1.839 4.108 4.108v51.367c0 2.269-1.839 4.108-4.108 4.108h-74.538c-2.269 0-4.108-1.839-4.108-4.108z" fill="#070e1d"/><path d="m319.193 242.373c0-2.269 1.839-4.109 4.108-4.109h75.366c2.269 0 4.108 1.84 4.108 4.109v67.09c0 2.269-1.839 4.108-4.108 4.108h-75.366c-2.269 0-4.108-1.839-4.108-4.108z" fill="#070e1d"/><path d="m54.3784 214.236c0-2.269 1.8393-4.108 4.1083-4.108h91.0893c2.268 0 4.108 1.839 4.108 4.108v70.4c0 2.269-1.84 4.108-4.108 4.108h-74.5384c-2.269 0-4.1083-1.839-4.1083-4.108v-28.195c0-2.269-1.8394-4.109-4.1083-4.109h-8.3343c-2.269 0-4.1083-1.839-4.1083-4.108z" fill="#070e1d"/></mask><g fill="#202b43"><path d="m587.318 178.681v41.377h-33.93v-9.103h-40.549v-21.516h42.204v-10.758z"/><path d="m474.772 429.427h8.275v20.689h-6.62v38.067h-22.344v4.965h-17.379v-5.793h-22.343v-67.031h26.481v-4.965h9.931v4.965h23.999z"/><path d="m608.007 370.671v-46.342h-43.86v46.342z"/><path d="m548.423 324.329v1.655h-43.032v-11.586h-20.689v14.896h-1.655v22.344h19.861l3.31-3.31h57.928v-23.999z"/><path d="m478.909 329.294h4.138v14.896h-4.138v18.206h-47.17v-3.31h-10.758v-44.688h57.928z"/><path d="m622.902 378.947h47.998v43.86h-52.136l-62.893 39.722h-23.171v16.551h-49.653v-49.653h.827v-28.136h25.654v16.551h42.205l69.514-40.55z"/><path d="m398.637 113.305v-83.5822l13.241-14.8958h7.448l15.31-12.827 14.068 5.37905h8.275l6.207 6.20655v5.7929l6.62 6.6203v26.0677l4.966 4.9653v22.3437h-29.792v33.9295z"/><path d="m444.98 79.3755h67.8587v86.0647h-67.8587z"/><path d="m512.839 136.476h109.236v35.585h-22.344v-6.621h-86.892z"/><path d="m599.731 172.061v46.342h62.893v-19.861h-13.24v-9.93h-9.931v-16.551z"/><path d="m553.388 220.058h47.998v-9.93h47.998v8.275 7.448h22.343v100.961h-23.171v-2.483h-100.133v-11.586h-22.344v-76.961h27.309z"/><path d="m621.247 324.329h27.309v54.618h-25.654l-1.655-1.655z"/><path d="m431.739 362.396h25.6539v52.9629h-25.6539z"/><path d="m479.737 165.44h33.101v116.684h-17.378v14.896h-19.034v-9.103h-49.652v-35.585h52.963z"/><path d="m398.637 113.305v-33.9295h-80.271v56.2735h-68.351v28.136h132.899v-50.48z"/><path d="m233.956 135.649h21.516v93.512h33.929v42.205h-73.651v-62.066h-62.066v-27.309h80.272z"/><path d="m222.37 277.159v-5.793h8.275v5.793h58.756v23.171h-73.651v-23.171z"/><path d="m153.684 209.3h31.447v79.444h-17.379v31.447l.828 19.034v18.206h-114.2015v-68.687h-17.3785v-78.616h116.684z"/><path d="m243.886 300.33h24.827v4.965h19.861v81.927h-23.171l-4.966 2.483h-6.62v-.827h-.828l-4.965 2.482h-1.655v-4.138h-21.516v-47.997l1.655-19.034v-15.723h17.378z"/><path d="m226.508 320.191h-58.756l.828 19.034h56.273z"/><path d="m289.401 260.608v-19.861h12.414v-5.793l19.447-19.033h13.654v-32.275h46.343v33.102h14.896l18.206 19.034v28.136h12.413v21.516h-12.413v43.86h-51.308v8.276h-21.516v-8.276h-39.722v-68.686z"/><path d="m301.815 337.57h76.961v42.618l2.483 3.724v17.379l-1.655 1.655v13.24l-56.273.828v-47.998h-21.516z"/><path d="m224.853 417.014h98.478l56.273-.828h28.136v51.308h-34.757v4.966h-43.032v-4.966h-105.098z"/><path d="m288.574 393.015v23.999h-63.721v-23.999h23.999l4.965-2.482v-.828h6.62v1.655h.828l4.965-2.483h1.655v4.138z"/><path d="m109.824 408.739h28.1365v38.8946h-28.1365z"/><path d="m82.515 357.431h28.964l-1.655 6.206v83.996h-1.655v13.241h-21.5162v-44.688h-4.1378z"/><path d="m59.3437 460.874h48.8253v19.034h41.377v15.309h7.448v-15.309h49.653v73.651h-51.308v-36.205h-5.793v22.137h-90.2023z"/><path d="m139.616 580.868v-27.309h67.031v-10.758h47.17v-22.344h73.652v22.344h45.515v-19.861h41.377v-15.724l15.723-14.068h46.343v82.755h-123.305v-5.793h-76.961v11.586h-22.344l-.827-.828z"/><path d="m276.16 581.696h-22.343v97.236l38.894 26.068h74.479l44.688-29.792v-23.171l-5.793-11.999 5.793-9.517v-6.621h-39.722v-47.997h-19.034v47.997h-76.962z"/><path d="m224.853 479.494v-12h68.686v11.586h9.103v5.793l2.483 2.896v32.688h-22.344v-8.275h-57.101v-29.792z"/><path d="m317.538 472.46h90.202v46.342h-5.793v4.138h-11.585v-4.138h-4.966v-23.171h-67.858z"/></g><g opacity=".75"><g opacity=".75"><path d="m548.423 324.329v1.655h-43.033v-11.586h-20.688v14.896h-1.655v22.344h19.861l3.31-3.31h57.928v-23.999z" fill="url(#a)"/><path d="m478.909 329.294h4.137v14.896h-4.137v18.206h-47.17v-3.31h-10.759v-44.688h57.929z" fill="#182338"/><path d="m622.902 378.947h47.998v43.86h-52.136l-62.893 39.722h-23.172v16.551h-49.652v-49.653h.827v-28.136h25.654v16.551h42.205l69.514-40.55z" fill="url(#c)" opacity=".8"/><path d="m621.247 324.329h27.309v54.618h-25.654l-1.655-1.655z" fill="url(#d)" opacity=".8"/><path d="m431.739 362.396h25.6539v52.9629h-25.6539z" fill="url(#e)"/><path d="m301.814 337.57h76.962v42.618l2.482 3.724v17.379l-1.655 1.655v13.24l-56.273.828v-47.998h-21.516z" fill="url(#f)"/><path d="m224.852 417.014h98.478l56.273-.828h28.137v51.308h-34.757v4.966h-43.033v-4.966h-105.098z" fill="#182338"/><path d="m288.573 393.015v23.999h-63.721v-23.999h23.999l4.965-2.482v-.828h6.621v1.655h.827l4.965-2.483h1.655v4.138z" fill="url(#g)"/><path d="m139.615 580.868v-27.309h67.031v-10.758h47.17v-22.344h73.652v22.344h45.515v-19.861h41.377v-15.724l15.723-14.068h46.343v82.755h-123.304v-5.793h-76.962v11.585h-22.344l-.827-.827z" fill="url(#h)"/><path d="m224.852 479.494v-12h68.686v11.586h9.103v5.793l2.483 2.896v32.688h-22.344v-8.275h-57.1v-29.792z" fill="#182338"/></g><path d="m512.839 136.476h109.236v35.585h-22.344v-6.621h-86.892z" fill="url(#i)"/><path d="m317.538 472.46h90.202v46.342h-5.793v4.138h-11.585v-4.138h-4.966v-23.171h-67.858z" fill="url(#j)"/><path d="m599.731 172.061v46.342h62.893v-19.861h-13.24v-9.93h-9.931v-16.551z" fill="#273552"/></g><path d="m648.557 224.196v-14.896h-46.343v14.896" stroke="#202b43" stroke-dasharray="1.64 1.64" stroke-width="1.64332"/><path d="m153.684 209.3h31.4467v.827546h-31.4467z" fill="#182338"/><path d="m243.887 300.33h24.8264v.827546h-24.8264z" fill="#182338"/><path d="m222.37 271.366h8.27545v.827546h-8.27545z" fill="#182338"/><path d="m255.472 135.649h.827546v28.1365h-.827546z" fill="#182338"/><path d="m289.402 240.747h.827546v19.8611h-.827546z" fill="#182338"/><path d="m82.5152 357.431h28.9641v.827546h-28.9641z" fill="#182338"/><path d="m206.647 556.869h.827546v23.9988h-.827546z" fill="#182338"/><path d="m282.781 519.63h22.3437v.827546h-22.3437z" fill="#182338"/><path d="m224.853 467.494h68.6863v.827546h-68.6863z" fill="#182338"/><path d="m329.951 471.632h43.0324v.827546h-43.0324z" fill="#182338"/><path d="m390.362 522.112h11.5856v.827546h-11.5856z" fill="#182338"/><path d="m436.705 492.321h17.3785v.827546h-17.3785z" fill="#182338"/><path d="m440.843 415.359h9.93054v.827546h-9.93054z" fill="#182338"/><path clip-rule="evenodd" d="m623.074 378.119-1.827-1.826v.999l-.11.061 1.594 1.594h25.826v-.828z" fill="#182338" fill-rule="evenodd"/><path d="m478.91 329.294h.827546v14.8958h-.827546z" fill="#182338"/><path d="m561.664 325.984h.827546v22.3437h-.827546z" fill="#182338"/><path d="m562.491 324.329h28.9641v.827546h-28.9641z" fill="#182338"/><path d="m553.389 219.231h33.9294v.827546h-33.9294z" fill="#182338"/><path d="m512.839 189.439h.827546v21.5162h-.827546z" fill="#182338"/><path d="m425.947 263.918h.827546v21.5162h-.827546z" fill="#182338"/><path d="m512.839 136.476h.827546v28.9641h-.827546z" fill="#182338"/><path d="m479.737 165.44h33.1018v.827546h-33.1018z" fill="#182338"/><path d="m599.731 165.44h22.3437v.827546h-22.3437z" fill="#182338"/><path d="m341.537 336.742h21.5162v.827546h-21.5162z" fill="#182338"/><path d="m621.248 324.329h28.136v2.483h-.827v-1.656h-27.309z" fill="#182338"/><path d="m482.22 429.427h.827v20.689h-.827z" fill="#182338"/><path d="m224.853 416.186h63.721v.827546h-63.721z" fill="#182338"/><path d="m323.331 415.359h56.273v.827h-56.273z" fill="#182338"/><path d="m253.817 389.705h6.62036v.827546h-6.62036z" fill="#182338"/><path d="m167.752 320.191h.828l.827 19.034h-.827z" fill="#182338"/><path d="m225.68 320.191h.828l-1.655 19.034h-.828z" fill="#182338"/><path d="m587.318 178.681v41.377h-33.93v-9.103h-40.55v-21.516h42.205v-10.758z" fill="url(#k)" fill-opacity=".15"/><path d="m608.007 370.671v-46.342h-43.86v46.342z" fill="url(#k)" fill-opacity=".15"/><path d="m398.637 113.305v-83.5822l13.241-14.8958h7.448l15.31-12.827 14.068 5.37905h8.275l6.207 6.20655v5.7929l6.62 6.6203v26.0677l4.966 4.9653v22.3437h-29.792v33.9295z" fill="url(#k)" fill-opacity=".15"/><path d="m444.98 79.3755h67.859v86.0645h-67.859z" fill="url(#k)" fill-opacity=".15"/><path d="m553.388 220.058h47.998v-9.93h47.998v15.723h22.343v100.961h-23.171v-2.483h-100.133v-11.586h-22.344v-76.961h27.309z" fill="url(#k)" fill-opacity=".15"/><path d="m479.737 165.44h33.102v116.684h-17.379v14.896h-19.033v-9.103h-49.653v-35.585h52.963z" fill="url(#k)" fill-opacity=".15"/><path d="m398.637 113.305v-33.9295h-80.271v56.2735h-62.894v28.136h127.442v-50.48z" fill="url(#k)" fill-opacity=".15"/><path d="m233.956 135.649h21.516v93.512h33.929v42.205h-73.651v-62.066h-62.066v-27.309h80.272z" fill="url(#k)" fill-opacity=".15"/><path d="m222.37 277.159v-5.793h8.275v5.793h58.756v23.171h-73.651v-23.171z" fill="url(#k)" fill-opacity=".15"/><path d="m153.684 209.3h31.447v79.445h-17.379v31.446l.828 19.034v18.206h-114.2015v-68.686h-17.3785v-78.617h116.684z" fill="url(#k)" fill-opacity=".15"/><path d="m243.886 300.33h24.827v4.965h19.861v42.666h-63.721v-8.736l1.655-19.034v-15.723h17.378z" fill="url(#k)" fill-opacity=".15"/><path d="m226.508 320.191h-58.756l.828 19.034h56.273z" fill="url(#k)" fill-opacity=".15"/><path d="m289.401 260.608v-19.861h12.414v-5.793l19.447-19.033h13.654v-32.275h46.343v33.102h14.896l18.206 19.034v28.136h12.413v21.516h-12.413v43.86h-51.308v3.559h-21.516v-3.559h-39.722v-68.686z" fill="url(#k)" fill-opacity=".15"/><path d="m548.423 324.329v1.655h-1.295v22.344h17.018l.001-23.999z" fill="url(#k)" fill-opacity=".15"/><path d="m621.247 324.329h27.309v34.71h-27.309z" fill="url(#k)" fill-opacity=".15"/><path d="m512.839 136.476h109.236v35.585h-22.344v-6.621h-86.892z" fill="url(#k)" fill-opacity=".15"/><path d="m599.731 172.061v46.342h62.893v-19.861h-13.24v-9.931h-9.931v-16.55z" fill="url(#k)" fill-opacity=".15"/><g fill="url(#l)" opacity=".15"><path d="m154.335 495.217h2.659v-15.309h49.653v73.651h-51.308v-36.205h-1.004z"/><path d="m276.16 581.696h-22.343v97.236l38.894 26.068h74.479l44.688-29.792v-23.171l-5.793-11.999 5.793-9.517v-6.62h-39.722v-47.998h-19.034v47.998h-76.962z"/><path d="m139.615 580.868v-27.309h67.032l-.001-10.758h47.17v-22.344h73.652v22.344h45.515v-19.861h41.377v-15.724h62.066v68.687h-123.304v-5.793h-76.962v11.586h-22.343l-.828-.828z"/><path d="m381.953 472.46h25.787v46.342h-5.793v4.138h-11.585v-4.138h-4.966v-23.171h-3.443z"/></g><g opacity=".25"><g fill="#343f57"><path d="m573.25 178.681h14.0683v11.5856h-14.0683z"/><path d="m576.56 263.695h59.4187v21.2287h-59.4187z" transform="matrix(.94997042 -.31233989 .31233989 .94997042 -53.517411 193.27524)"/><path d="m548.423 309.433h14.0683v16.5509h-14.0683z"/><path d="m591.456 324.329h16.5509v15.7234h-16.5509z"/><path d="m0 0h11.2169v10.656h-11.2169z" transform="matrix(.532479 .846443 -.846442 .532481 612.045 413.93)"/><path d="m476.427 281.297h19.0335v15.7234h-19.0335z"/><path d="m479.737 232.471h12.4132v19.0335h-12.4132z"/></g><path d="m479.737 223.368h7.44791v9.103h-7.44791z" fill="#273552" opacity=".5"/><path d="m344.847 212.61h26.4815v5.79282h-26.4815z" fill="#343f57"/><path d="m301.815 278.814h11.5856v50.4803h-11.5856z" fill="#273552"/><path d="m391.19 249.85h-60.411v46.342h9.93v9.931h36.412v-9.931h14.069z" fill="#273552"/><path d="m153.684 181.991h15.7234v12.4132h-15.7234z" fill="#343f57"/><path d="m75.895 210.128h19.8611v16.5509h-19.8611z" fill="#273552"/><path d="m42.793 247.367h-5.7928v41.378h33.9293v-36.412h-28.1365z" fill="#343f57"/><path d="m118.099 340.052h19.8611v17.3785h-19.8611z" fill="#343f57"/><path d="m87.3582 272.927h66.2036v26.4815h-66.2036z" fill="#343f57"/><path d="m128.735 299.408h19.8611v15.7234h-19.8611z" fill="#273552" opacity=".5"/><path d="m164.91 270.913h20.1433v18.1289h-20.1433z" fill="#273552" opacity=".5"/><path d="m268.713 342.535h19.8611v16.5509h-19.8611z" fill="#273552"/><path d="m109.824 408.739h28.1365v22.3437h-28.1365z" fill="#343f57"/><path d="m156.994 479.908h15.7234v14.0683h-15.7234z" fill="#343f57"/><path d="m224.853 431.91h19.8611v16.5509h-19.8611z" fill="#343f57"/><path d="m365.536 402.946h14.0683v12.4132h-14.0683z" fill="#273552"/><path d="m333.261 465.839h36.412v6.62036h-36.412z" fill="#343f57" opacity=".7"/><path d="m336.572 460.046h29.7916v5.79282h-29.7916z" fill="#273552" opacity=".35"/><path d="m414.361 443.495h20.6886v18.206h-20.6886z" fill="#343f57"/><path d="m459.876 472.46h16.5509v15.7234h-16.5509z" fill="#343f57"/><path d="m372.984 561.834h18.206v14.0683h-18.206z" fill="#343f57"/><path d="m206.647 542.801h18.206v14.0683h-18.206z" fill="#343f57"/><path d="m273.678 467.494h19.8611v16.5509h-19.8611z" fill="#273552" opacity=".5"/></g><path d="m593.081 220.058h4.197c2.268 0 4.108-1.839 4.108-4.108v-1.714c0-2.269 1.839-4.108 4.108-4.108h39.781c2.269 0 4.108 1.839 4.108 4.108v7.507c0 2.269 1.84 4.108 4.109 4.108h14.127c2.269 0 4.108 1.839 4.108 4.108v51.367c0 2.269-1.839 4.108-4.108 4.108h-74.538c-2.269 0-4.108-1.839-4.108-4.108v-57.16c0-2.268 1.839-4.108 4.108-4.108z" fill="#4d5f83" fill-opacity=".15" stroke="#4d5f83" stroke-miterlimit="16" stroke-width="1.64332"/><rect fill="#4d5f83" fill-opacity=".15" height="75.3066" rx="4.1083" stroke="#4d5f83" stroke-miterlimit="2.3662" stroke-width="1.64332" width="83.5821" x="319.193" y="238.264"/><path d="m58.4866 210.128h91.0884c2.269 0 4.109 1.839 4.109 4.108v70.4c0 2.269-1.84 4.109-4.109 4.109h-74.5375c-2.269 0-4.1083-1.84-4.1083-4.109v-28.195c0-2.269-1.8394-4.108-4.1083-4.108h-8.3343c-2.269 0-4.1083-1.84-4.1083-4.109v-33.988c0-2.269 1.8393-4.108 4.1083-4.108z" fill="#4d5f83" fill-opacity=".15" stroke="#4d5f83" stroke-miterlimit="16" stroke-width="1.64332"/><g fill="#4d5f83" mask="url(#m)" opacity=".15"><path d="m0 0h185.06v3.75757h-185.06z" transform="matrix(.703876 -.703334 .703876 .703334 93.6682 357.929)"/><path d="m0 0h185.06v3.75757h-185.06z" transform="matrix(.703876 -.703334 .703876 .703334 88.3794 352.643)"/><path d="m0 0h185.06v3.75757h-185.06z" transform="matrix(.703876 -.703334 .703876 .703334 83.0886 347.357)"/><path d="m0 0h185.06v3.75757h-185.06z" transform="matrix(.703876 -.703334 .703876 .703334 77.7993 342.072)"/><path d="m0 0h185.06v3.75757h-185.06z" transform="matrix(.703876 -.703334 .703876 .703334 72.5095 336.786)"/><path d="m0 0h185.06v3.75757h-185.06z" transform="matrix(.703876 -.703334 .703876 .703334 67.2197 331.5)"/><path d="m0 0h185.06v3.75757h-185.06z" transform="matrix(.703876 -.703334 .703876 .703334 61.9299 326.215)"/><path d="m0 0h185.06v3.75757h-185.06z" transform="matrix(.703876 -.703334 .703876 .703334 56.6407 320.929)"/><path d="m0 0h185.06v3.75757h-185.06z" transform="matrix(.703876 -.703334 .703876 .703334 51.3508 315.644)"/><path d="m0 0h185.06v3.75757h-185.06z" transform="matrix(.703876 -.703334 .703876 .703334 46.0611 310.358)"/><path d="m0 0h185.06v3.75757h-185.06z" transform="matrix(.703876 -.703334 .703876 .703334 40.7713 305.072)"/><path d="m0 0h185.06v3.75757h-185.06z" transform="matrix(.703876 -.703334 .703876 .703334 35.4809 299.787)"/><path d="m0 0h185.06v3.75757h-185.06z" transform="matrix(.703876 -.703334 .703876 .703334 30.1921 294.501)"/><path d="m0 0h185.06v3.75757h-185.06z" transform="matrix(.703876 -.703334 .703876 .703334 24.9019 289.215)"/><path d="m0 0h185.06v3.75757h-185.06z" transform="matrix(.703876 -.703334 .703876 .703334 19.6121 283.929)"/><path d="m0 0h185.06v3.75757h-185.06z" transform="matrix(.703876 -.703334 .703876 .703334 14.3222 278.644)"/><path d="m0 0h185.06v3.75757h-185.06z" transform="matrix(.703876 -.703334 .703876 .703334 9.03299 273.358)"/><path d="m0 0h185.06v3.75757h-185.06z" transform="matrix(.703876 -.703334 .703876 .703334 3.74323 268.073)"/><path d="m0 0h185.06v3.75757h-185.06z" transform="matrix(.703876 -.703334 .703876 .703334 -1.54608 262.787)"/><path d="m0 0h185.06v3.75757h-185.06z" transform="matrix(.703876 -.703334 .703876 .703334 -6.83588 257.501)"/><path d="m0 0h185.06v3.75757h-185.06z" transform="matrix(.703876 -.703334 .703876 .703334 -12.1262 252.215)"/><path d="m0 0h185.06v3.75757h-185.06z" transform="matrix(.703876 -.703334 .703876 .703334 340.825 390.958)"/><path d="m0 0h185.06v3.75757h-185.06z" transform="matrix(.703876 -.703334 .703876 .703334 335.536 385.672)"/><path d="m0 0h185.06v3.75757h-185.06z" transform="matrix(.703876 -.703334 .703876 .703334 330.246 380.386)"/><path d="m0 0h185.06v3.75757h-185.06z" transform="matrix(.703876 -.703334 .703876 .703334 324.956 375.101)"/><path d="m0 0h185.06v3.75757h-185.06z" transform="matrix(.703876 -.703334 .703876 .703334 319.666 369.815)"/><path d="m0 0h185.06v3.75757h-185.06z" transform="matrix(.703876 -.703334 .703876 .703334 314.377 364.529)"/><path d="m0 0h185.06v3.75757h-185.06z" transform="matrix(.703876 -.703334 .703876 .703334 309.086 359.244)"/><path d="m0 0h185.06v3.75757h-185.06z" transform="matrix(.703876 -.703334 .703876 .703334 303.797 353.958)"/><path d="m0 0h185.06v3.75757h-185.06z" transform="matrix(.703876 -.703334 .703876 .703334 298.507 348.673)"/><path d="m0 0h185.06v3.75757h-185.06z" transform="matrix(.703876 -.703334 .703876 .703334 293.218 343.387)"/><path d="m0 0h185.06v3.75757h-185.06z" transform="matrix(.703876 -.703334 .703876 .703334 287.928 338.101)"/><path d="m0 0h185.06v3.75757h-185.06z" transform="matrix(.703876 -.703334 .703876 .703334 282.638 332.816)"/><path d="m0 0h185.06v3.75757h-185.06z" transform="matrix(.703876 -.703334 .703876 .703334 277.348 327.53)"/><path d="m0 0h185.06v3.75757h-185.06z" transform="matrix(.703876 -.703334 .703876 .703334 272.058 322.244)"/><path d="m0 0h185.06v3.75757h-185.06z" transform="matrix(.703876 -.703334 .703876 .703334 266.769 316.958)"/><path d="m0 0h185.06v3.75757h-185.06z" transform="matrix(.703876 -.703334 .703876 .703334 261.479 311.673)"/><path d="m0 0h185.06v3.75757h-185.06z" transform="matrix(.703876 -.703334 .703876 .703334 256.19 306.387)"/><path d="m0 0h185.06v3.75757h-185.06z" transform="matrix(.703876 -.703334 .703876 .703334 250.899 301.102)"/><path d="m0 0h185.06v3.75757h-185.06z" transform="matrix(.703876 -.703334 .703876 .703334 245.61 295.816)"/><path d="m0 0h185.06v3.75757h-185.06z" transform="matrix(.703876 -.703334 .703876 .703334 240.321 290.53)"/><path d="m0 0h185.06v3.75757h-185.06z" transform="matrix(.703876 -.703334 .703876 .703334 235.03 285.245)"/><path d="m0 0h185.06v3.75757h-185.06z" transform="matrix(.703876 -.703334 .703876 .703334 592.612 377.13)"/><path d="m0 0h185.06v3.75757h-185.06z" transform="matrix(.703876 -.703334 .703876 .703334 587.324 371.844)"/><path d="m0 0h185.06v3.75757h-185.06z" transform="matrix(.703876 -.703334 .703876 .703334 582.033 366.558)"/><path d="m0 0h185.06v3.75757h-185.06z" transform="matrix(.703876 -.703334 .703876 .703334 576.744 361.273)"/><path d="m0 0h185.06v3.75757h-185.06z" transform="matrix(.703876 -.703334 .703876 .703334 571.453 355.987)"/><path d="m0 0h185.06v3.75757h-185.06z" transform="matrix(.703876 -.703334 .703876 .703334 566.164 350.701)"/><path d="m0 0h185.06v3.75757h-185.06z" transform="matrix(.703876 -.703334 .703876 .703334 560.874 345.416)"/><path d="m0 0h185.06v3.75757h-185.06z" transform="matrix(.703876 -.703334 .703876 .703334 555.584 340.13)"/><path d="m0 0h185.06v3.75757h-185.06z" transform="matrix(.703876 -.703334 .703876 .703334 550.295 334.845)"/><path d="m0 0h185.06v3.75757h-185.06z" transform="matrix(.703876 -.703334 .703876 .703334 545.005 329.559)"/><path d="m0 0h185.06v3.75757h-185.06z" transform="matrix(.703876 -.703334 .703876 .703334 539.716 324.273)"/><path d="m0 0h185.06v3.75757h-185.06z" transform="matrix(.703876 -.703334 .703876 .703334 534.425 318.988)"/><path d="m0 0h185.06v3.75757h-185.06z" transform="matrix(.703876 -.703334 .703876 .703334 529.136 313.702)"/><path d="m0 0h185.06v3.75757h-185.06z" transform="matrix(.703877 -.703334 .703877 .703334 523.846 308.416)"/><path d="m0 0h185.06v3.75757h-185.06z" transform="matrix(.703876 -.703334 .703876 .703334 518.556 303.13)"/><path d="m0 0h185.06v3.75757h-185.06z" transform="matrix(.703876 -.703334 .703876 .703334 513.266 297.845)"/><path d="m0 0h185.06v3.75757h-185.06z" transform="matrix(.703876 -.703334 .703876 .703334 507.977 292.559)"/><path d="m0 0h185.06v3.75757h-185.06z" transform="matrix(.703876 -.703334 .703876 .703334 502.687 287.274)"/><path d="m0 0h185.06v3.75757h-185.06z" transform="matrix(.703876 -.703334 .703876 .703334 497.398 281.988)"/><path d="m0 0h185.06v3.75757h-185.06z" transform="matrix(.703876 -.703334 .703876 .703334 492.108 276.702)"/><path d="m0 0h185.06v3.75757h-185.06z" transform="matrix(.703876 -.703334 .703876 .703334 486.819 271.416)"/></g><path d="m619.644 359.039h30.215" stroke="#24e8ad" stroke-linecap="round" stroke-width="3"/><path d="m340.66 332.853h23.164" stroke="#24e8ad" stroke-linecap="round" stroke-width="3"/><path d="m223.829 347.961h66.472" stroke="#24e8ad" stroke-linecap="round" stroke-width="3"/><path d="m80.8116 358.032h31.2224" stroke="#24e8ad" stroke-linecap="round" stroke-width="3"/><path d="m547.128 324.796v25.179" stroke="#24e8ad" stroke-linecap="round" stroke-width="3"/><path d="m413.175 507.092h64.459" stroke="#ff5859" stroke-linecap="round" stroke-width="3"/><path d="m381.992 470.834v26.187" stroke="#ff5859" stroke-linecap="round" stroke-width="3"/><path d="m153.327 493.999v24.172" stroke="#ff5859" stroke-linecap="round" stroke-width="3"/><path d="m281.237 519.178h25.179" stroke="#ff5859" stroke-linecap="round" stroke-width="3"/><path d="m227.146 234.259 1.38.306c-.111.802-.404 1.433-.877 1.893s-1.091.69-1.854.69c-.887 0-1.61-.306-2.169-.917-.552-.618-.828-1.548-.828-2.79 0-1.092.292-1.946.877-2.564.592-.618 1.295-.927 2.11-.927.71 0 1.312.224 1.805.671.499.44.789 1.035.867 1.784l-1.321.207c-.059-.42-.197-.762-.414-1.025-.217-.27-.526-.404-.927-.404-.453 0-.838.197-1.153.591-.316.395-.474.95-.474 1.667 0 .841.152 1.465.454 1.873.309.401.7.601 1.173.601.776 0 1.226-.552 1.351-1.656zm4.982 2.741v-6.902h1.331v5.67h2.849v1.232zm5.014 0v-5.226h1.282v5.226zm0-5.985v-1.213h1.282v1.213zm2.658 5.985v-5.226h1.232v.503h.02c.144-.184.342-.338.591-.463.25-.125.513-.188.789-.188.579 0 1.032.175 1.361.523.329.342.493.818.493 1.43v3.421h-1.282v-3.106c0-.361-.069-.631-.207-.808-.138-.184-.375-.276-.71-.276-.315 0-.562.092-.739.276-.178.177-.267.417-.267.719v3.195zm5.815 0v-7.198h1.282v4.132h.02l1.903-2.16h1.607l-1.883 2.12 2.051 3.106h-1.42l-1.597-2.386h-.02l-.661.749v1.637z" fill="#7986a3"/><path d="m342.483 202v-6.902h2.928c.612 0 1.101.181 1.47.542.374.355.562.792.562 1.312 0 .578-.25 1.015-.75 1.311v.01c.296.125.536.325.72.601.191.27.286.595.286.977 0 .657-.201 1.183-.601 1.577-.401.381-1.062.572-1.982.572zm1.331-1.232h1.607c.631 0 .947-.306.947-.917 0-.283-.086-.5-.256-.651-.165-.158-.392-.237-.681-.237h-1.617zm0-2.889h1.43c.269 0 .48-.063.631-.188.158-.131.237-.322.237-.572 0-.263-.076-.46-.227-.591-.151-.132-.365-.197-.641-.197h-1.43zm7.951 4.121v-.503h-.019c-.014.02-.03.046-.05.079-.019.026-.069.076-.148.148-.078.072-.167.138-.266.197-.098.059-.233.112-.404.158s-.355.069-.552.069c-.631 0-1.105-.148-1.42-.444-.309-.302-.463-.67-.463-1.104 0-.454.134-.799.404-1.035.269-.237.726-.434 1.37-.592.599-.145.973-.26 1.124-.345.152-.086.227-.207.227-.365s-.075-.289-.227-.394c-.144-.105-.364-.158-.66-.158-.349 0-.598.079-.75.237-.151.151-.269.358-.355.621l-1.064-.444c.124-.44.368-.799.729-1.075.362-.282.835-.424 1.42-.424.638 0 1.16.168 1.568.503.407.335.611.855.611 1.558v3.313zm-1.291-2.14c-.329.079-.546.175-.651.286-.099.106-.148.227-.148.365 0 .355.256.533.769.533.388 0 .677-.073.868-.217.197-.152.296-.336.296-.552v-.908h-.02c-.026.053-.056.096-.089.129-.026.026-.125.075-.296.147-.171.066-.414.139-.729.217zm6.783.03 1.213.315c-.118.625-.374 1.105-.769 1.44-.394.335-.891.503-1.489.503-.71 0-1.295-.243-1.755-.73-.453-.486-.68-1.163-.68-2.031 0-.861.233-1.535.7-2.021.473-.493 1.055-.74 1.745-.74.585 0 1.075.171 1.469.513.395.342.638.799.73 1.371l-1.193.226c-.125-.637-.46-.956-1.006-.956-.361 0-.651.138-.867.414-.211.27-.316.667-.316 1.193s.105.927.316 1.203c.21.27.499.404.867.404.579 0 .924-.368 1.035-1.104zm2.199 2.11v-7.198h1.282v4.132h.02l1.903-2.16h1.607l-1.883 2.12 2.051 3.106h-1.42l-1.597-2.386h-.02l-.661.749v1.637zm8.235 0v-6.902h2.929c.611 0 1.101.181 1.469.542.375.355.562.792.562 1.312 0 .578-.25 1.015-.749 1.311v.01c.295.125.535.325.719.601.191.27.286.595.286.977 0 .657-.2 1.183-.601 1.577-.401.381-1.062.572-1.982.572zm1.331-1.232h1.608c.631 0 .946-.306.946-.917 0-.283-.085-.5-.256-.651-.165-.158-.391-.237-.681-.237h-1.617zm0-2.889h1.43c.27 0 .48-.063.631-.188.158-.131.237-.322.237-.572 0-.263-.076-.46-.227-.591-.151-.132-.365-.197-.641-.197h-1.43z" fill="#7986a3"/><path d="m534.099 153.096v-6.901h1.331v2.78h2.366v-2.78h1.331v6.901h-1.331v-2.987h-2.366v2.987zm9.898-1.804.897.789c-.532.776-1.252 1.163-2.159 1.163-.73 0-1.324-.249-1.785-.749-.46-.506-.69-1.177-.69-2.011 0-.835.227-1.502.681-2.002.46-.506 1.038-.759 1.735-.759s1.269.253 1.716.759c.453.5.68 1.167.68 2.002v.384h-3.51c.019.401.128.71.325.927.204.21.48.316.828.316.296 0 .539-.073.73-.217.197-.152.381-.352.552-.602zm-2.435-1.38h2.267c-.032-.335-.147-.595-.345-.779-.197-.191-.466-.286-.808-.286-.316 0-.575.102-.779.306-.197.203-.309.456-.335.759zm7.519 3.184v-.502h-.02c-.013.019-.029.046-.049.079-.02.026-.069.075-.148.147-.079.073-.167.138-.266.198-.099.059-.233.111-.404.157s-.355.069-.552.069c-.632 0-1.105-.148-1.42-.443-.309-.303-.464-.671-.464-1.105 0-.453.135-.798.405-1.035.269-.237.726-.434 1.37-.591.598-.145.973-.26 1.124-.346.151-.085.227-.207.227-.364 0-.158-.076-.29-.227-.395-.145-.105-.365-.158-.661-.158-.348 0-.598.079-.749.237-.151.151-.269.358-.355.621l-1.065-.443c.125-.441.368-.799.73-1.075.361-.283.835-.424 1.42-.424.637 0 1.16.167 1.567.503.408.335.612.854.612 1.558v3.312zm-1.292-2.139c-.328.079-.545.174-.65.286-.099.105-.148.227-.148.365 0 .355.256.532.769.532.388 0 .677-.072.867-.217.198-.151.296-.335.296-.552v-.907h-.019c-.027.052-.056.095-.089.128-.026.026-.125.076-.296.148-.171.066-.414.138-.73.217zm4.849 2.139-2.09-5.225h1.331l1.301 3.362h.02l1.301-3.362h1.312l-2.09 5.225zm7.16-1.804.897.789c-.532.776-1.252 1.163-2.159 1.163-.73 0-1.325-.249-1.785-.749-.46-.506-.69-1.177-.69-2.011 0-.835.227-1.502.68-2.002.461-.506 1.039-.759 1.736-.759s1.268.253 1.715.759c.454.5.681 1.167.681 2.002v.384h-3.51c.019.401.128.71.325.927.204.21.48.316.828.316.296 0 .539-.073.73-.217.197-.152.381-.352.552-.602zm-2.435-1.38h2.267c-.032-.335-.148-.595-.345-.779-.197-.191-.466-.286-.808-.286-.316 0-.575.102-.779.306-.197.203-.309.456-.335.759zm4.541 3.184v-5.225h1.233v.503h.019c.145-.184.342-.339.592-.464s.513-.187.789-.187c.578 0 1.032.174 1.361.522.328.342.493.819.493 1.43v3.421h-1.282v-3.105c0-.362-.069-.631-.207-.809-.138-.184-.375-.276-.71-.276-.316 0-.562.092-.74.276-.177.178-.266.418-.266.72v3.194zm7.936-2.307 1.4-.305c.086.539.224.93.414 1.173.197.237.516.355.957.355.374 0 .673-.066.897-.197.223-.138.335-.339.335-.602 0-.276-.108-.486-.325-.631-.211-.151-.697-.345-1.46-.582-.716-.223-1.225-.493-1.528-.808-.296-.322-.444-.717-.444-1.183 0-.539.208-.999.622-1.381.42-.387.989-.581 1.705-.581.651 0 1.21.157 1.677.473.473.315.769.785.887 1.41l-1.292.325c-.203-.65-.627-.976-1.272-.976-.341 0-.598.066-.769.197-.164.132-.246.306-.246.523 0 .204.095.361.286.473.19.105.68.293 1.469.562.762.263 1.285.549 1.568.858.282.302.424.713.424 1.233 0 .611-.23 1.117-.691 1.518-.46.401-1.074.601-1.843.601-.783 0-1.417-.203-1.903-.611-.48-.414-.769-1.029-.868-1.844zm6.504.444v-2.278h-.808v-1.084h.838v-1.282h1.212v1.282h1.322v1.084h-1.302v2.16c0 .276.046.47.138.581.092.112.28.168.562.168h.424v1.232h-.542c-.703 0-1.187-.147-1.449-.443-.263-.296-.395-.769-.395-1.42zm6.428 1.863v-.502h-.019c-.014.019-.03.046-.05.079-.019.026-.069.075-.148.147-.078.073-.167.138-.266.198-.098.059-.233.111-.404.157s-.355.069-.552.069c-.631 0-1.105-.148-1.42-.443-.309-.303-.463-.671-.463-1.105 0-.453.134-.798.404-1.035.269-.237.726-.434 1.37-.591.598-.145.973-.26 1.124-.346.152-.085.227-.207.227-.364 0-.158-.075-.29-.227-.395-.144-.105-.364-.158-.66-.158-.349 0-.598.079-.75.237-.151.151-.269.358-.355.621l-1.064-.443c.124-.441.368-.799.729-1.075.362-.283.835-.424 1.42-.424.638 0 1.16.167 1.568.503.407.335.611.854.611 1.558v3.312zm-1.291-2.139c-.329.079-.546.174-.651.286-.099.105-.148.227-.148.365 0 .355.256.532.769.532.388 0 .677-.072.868-.217.197-.151.296-.335.296-.552v-.907h-.02c-.026.052-.056.095-.089.128-.026.026-.125.076-.296.148-.171.066-.414.138-.729.217zm3.648 2.139v-5.225h1.282v5.225zm0-5.984v-1.213h1.282v1.213zm2.658 5.984v-5.225h1.212v.552h.02c.099-.197.243-.355.434-.473.197-.119.411-.178.641-.178.164 0 .322.033.473.099l-.197 1.242c-.145-.052-.28-.079-.404-.079-.599 0-.898.398-.898 1.193v2.869zm3.226-1.725 1.153-.296c.092.73.483 1.095 1.174 1.095.315 0 .565-.05.749-.148.191-.105.286-.25.286-.434 0-.151-.072-.263-.217-.335-.145-.079-.447-.184-.907-.316-.125-.033-.22-.059-.286-.079-.605-.171-1.049-.371-1.331-.601-.283-.237-.424-.549-.424-.937 0-.434.174-.808.522-1.124.355-.315.838-.473 1.45-.473 1.17 0 1.903.513 2.199 1.538l-1.065.325c-.092-.249-.224-.447-.395-.591-.164-.145-.407-.217-.729-.217-.25 0-.451.049-.602.148-.144.092-.217.204-.217.335 0 .145.086.26.257.345.177.079.614.217 1.311.414.611.165 1.025.375 1.242.631.224.25.336.572.336.967 0 .42-.184.798-.553 1.133-.361.329-.887.493-1.577.493-.723 0-1.282-.18-1.676-.542-.388-.368-.622-.812-.7-1.331z" fill="#7986a3"/><path d="m608.594 199-.394-1.134h-2.633l-.394 1.134h-1.322l2.495-6.902h1.134l2.485 6.902zm-1.716-4.93-.936 2.692h1.883l-.927-2.692zm6.389 4.93v-6.902h1.331v2.781h2.366v-2.781h1.331v6.902h-1.331v-2.988h-2.366v2.988zm9.898-1.804.897.788c-.532.776-1.252 1.164-2.159 1.164-.73 0-1.324-.25-1.785-.749-.46-.507-.69-1.177-.69-2.012s.227-1.502.681-2.001c.46-.507 1.038-.76 1.735-.76s1.269.253 1.715.76c.454.499.681 1.166.681 2.001v.385h-3.51c.019.401.128.71.325.926.204.211.48.316.828.316.296 0 .539-.072.73-.217.197-.151.381-.352.552-.601zm-2.435-1.381h2.267c-.032-.335-.147-.595-.345-.779-.197-.19-.466-.286-.808-.286-.316 0-.575.102-.779.306-.197.204-.309.457-.335.759zm7.519 3.185v-.503h-.02c-.013.02-.029.046-.049.079-.02.026-.069.076-.148.148s-.168.138-.266.197c-.099.059-.233.112-.404.158s-.355.069-.553.069c-.631 0-1.104-.148-1.419-.444-.309-.302-.464-.67-.464-1.104 0-.454.135-.799.405-1.035.269-.237.726-.434 1.37-.592.598-.145.973-.26 1.124-.345.151-.086.227-.207.227-.365s-.076-.289-.227-.394c-.145-.105-.365-.158-.661-.158-.348 0-.598.079-.749.237-.151.151-.269.358-.355.621l-1.065-.444c.125-.44.368-.799.73-1.075.361-.282.835-.424 1.42-.424.637 0 1.16.168 1.567.503.408.335.612.855.612 1.558v3.313zm-1.292-2.14c-.328.079-.545.175-.65.286-.099.106-.148.227-.148.365 0 .355.256.533.769.533.388 0 .677-.073.867-.217.198-.152.296-.336.296-.552v-.908h-.019c-.027.053-.056.096-.089.129-.026.026-.125.075-.296.147-.171.066-.414.139-.73.217zm4.849 2.14-2.09-5.226h1.331l1.301 3.362h.02l1.301-3.362h1.312l-2.09 5.226zm7.16-1.804.897.788c-.532.776-1.252 1.164-2.159 1.164-.73 0-1.325-.25-1.785-.749-.46-.507-.69-1.177-.69-2.012s.227-1.502.68-2.001c.461-.507 1.039-.76 1.736-.76s1.268.253 1.715.76c.454.499.681 1.166.681 2.001v.385h-3.51c.019.401.128.71.325.926.204.211.48.316.828.316.296 0 .539-.072.73-.217.197-.151.381-.352.552-.601zm-2.435-1.381h2.267c-.032-.335-.148-.595-.345-.779-.197-.19-.466-.286-.808-.286-.316 0-.575.102-.779.306-.197.204-.309.457-.335.759zm4.541 3.185v-5.226h1.233v.503h.019c.145-.184.342-.338.592-.463s.513-.188.789-.188c.578 0 1.032.175 1.361.523.328.342.493.818.493 1.43v3.421h-1.282v-3.106c0-.361-.069-.631-.207-.808-.138-.184-.375-.276-.71-.276-.316 0-.562.092-.74.276-.177.177-.266.417-.266.719v3.195z" fill="#7986a3"/><path d="m437.086 340-.394-1.134h-2.633l-.394 1.134h-1.322l2.495-6.902h1.134l2.484 6.902zm-1.716-4.93-.936 2.692h1.883l-.927-2.692zm5.945 2.623 1.4-.306c.085.539.223.93.414 1.173.197.237.516.355.956.355.375 0 .674-.065.898-.197.223-.138.335-.338.335-.601 0-.276-.109-.487-.326-.631-.21-.151-.696-.345-1.459-.582-.716-.224-1.226-.493-1.528-.809-.296-.322-.444-.716-.444-1.183 0-.539.207-.999.621-1.38.421-.388.99-.582 1.706-.582.651 0 1.21.158 1.676.473.474.316.769.786.888 1.41l-1.292.326c-.204-.651-.628-.976-1.272-.976-.342 0-.598.065-.769.197-.164.131-.246.306-.246.522 0 .204.095.362.285.474.191.105.681.292 1.47.562.762.263 1.285.549 1.567.858.283.302.424.713.424 1.232 0 .611-.23 1.117-.69 1.518s-1.075.602-1.844.602c-.782 0-1.416-.204-1.903-.611-.48-.415-.769-1.029-.867-1.844zm6.238 2.307v-7.198h1.281v2.475h.02c.105-.171.279-.322.523-.453.243-.132.493-.198.749-.198.559 0 1.002.171 1.331.513s.493.802.493 1.38v3.481h-1.282v-3.195c0-.289-.079-.525-.236-.71-.151-.19-.382-.285-.691-.285-.295 0-.522.085-.68.256-.151.164-.227.381-.227.651v3.283zm6.961-1.42c.211.276.5.414.868.414s.657-.138.868-.414c.21-.282.315-.68.315-1.193s-.108-.907-.325-1.183c-.211-.283-.497-.424-.858-.424-.362 0-.651.138-.868.414-.21.276-.315.674-.315 1.193s.105.917.315 1.193zm2.623.838c-.46.487-1.045.73-1.755.73s-1.295-.243-1.755-.73c-.46-.486-.69-1.163-.69-2.031 0-.854.236-1.528.71-2.021.473-.493 1.051-.74 1.735-.74s1.262.247 1.735.74c.474.493.71 1.167.71 2.021 0 .868-.23 1.545-.69 2.031zm1.729.582v-5.226h1.213v.552h.02c.099-.197.243-.355.434-.473.197-.118.411-.177.641-.177.164 0 .322.033.473.098l-.197 1.243c-.145-.053-.28-.079-.404-.079-.599 0-.898.397-.898 1.193v2.869zm3.983-1.864v-2.277h-.808v-1.085h.838v-1.282h1.213v1.282h1.321v1.085h-1.302v2.159c0 .276.046.47.139.582.092.112.279.168.562.168h.424v1.232h-.543c-.703 0-1.186-.148-1.449-.444-.263-.295-.395-.769-.395-1.42z" fill="#7986a3"/><path d="m568.758 352.421v-5.669h-2.021v-1.233h5.374v1.233h-2.022v5.669zm4.589-1.42c.21.276.499.414.867.414s.658-.138.868-.414c.21-.282.316-.68.316-1.193 0-.512-.109-.907-.326-1.183-.21-.283-.496-.424-.858-.424-.361 0-.65.138-.867.414-.211.276-.316.674-.316 1.193 0 .52.105.917.316 1.193zm2.622.838c-.46.487-1.045.73-1.755.73s-1.295-.243-1.755-.73c-.46-.486-.69-1.163-.69-2.031 0-.854.237-1.528.71-2.021s1.052-.739 1.735-.739c.684 0 1.262.246 1.736.739.473.493.71 1.167.71 2.021 0 .868-.23 1.545-.691 2.031zm2.489.582-1.153-5.226h1.252l.69 3.491h.03l1.163-3.491h1.163l1.075 3.481h.02l.789-3.481h1.232l-1.252 5.226h-1.262l-1.193-3.756h-.02l-1.292 3.756zm10.538-1.804.897.789c-.532.775-1.252 1.163-2.159 1.163-.73 0-1.325-.25-1.785-.749-.46-.506-.69-1.177-.69-2.012 0-.834.227-1.502.68-2.001.461-.506 1.039-.759 1.736-.759s1.268.253 1.715.759c.454.499.681 1.167.681 2.001v.385h-3.51c.019.401.128.71.325.927.204.21.48.315.828.315.296 0 .539-.072.73-.217.197-.151.381-.351.552-.601zm-2.435-1.381h2.267c-.032-.335-.148-.594-.345-.778-.197-.191-.466-.286-.808-.286-.316 0-.575.101-.779.305-.197.204-.309.457-.335.759zm4.541 3.185v-5.226h1.213v.553h.02c.098-.198.243-.355.434-.474.197-.118.41-.177.64-.177.165 0 .323.033.474.098l-.197 1.243c-.145-.053-.28-.079-.405-.079-.598 0-.897.398-.897 1.193v2.869zm3.226-1.725 1.154-.296c.092.73.483 1.094 1.173 1.094.316 0 .566-.049.75-.148.19-.105.286-.249.286-.433 0-.152-.073-.263-.217-.336-.145-.078-.447-.184-.908-.315-.124-.033-.22-.059-.285-.079-.605-.171-1.049-.371-1.332-.601-.282-.237-.424-.549-.424-.937 0-.434.175-.809.523-1.124.355-.316.838-.473 1.449-.473 1.171 0 1.903.512 2.199 1.538l-1.065.325c-.092-.25-.223-.447-.394-.592-.164-.144-.408-.216-.73-.216-.249 0-.45.049-.601.147-.145.092-.217.204-.217.336 0 .144.085.259.256.345.178.079.615.217 1.312.414.611.164 1.025.375 1.242.631.224.25.335.572.335.966 0 .421-.184.799-.552 1.134-.361.329-.887.493-1.577.493-.724 0-1.282-.181-1.677-.542-.387-.368-.621-.812-.7-1.331z" fill="#7986a3"/><path d="m113.196 430.893 1.38.306c-.112.802-.404 1.433-.878 1.893-.473.46-1.091.69-1.853.69-.888 0-1.611-.305-2.169-.917-.553-.617-.829-1.548-.829-2.79 0-1.091.293-1.946.878-2.564.592-.617 1.295-.926 2.11-.926.71 0 1.311.223 1.804.67.5.441.789 1.035.868 1.785l-1.321.207c-.059-.421-.197-.763-.414-1.026-.217-.269-.526-.404-.927-.404-.454 0-.838.197-1.154.592-.315.394-.473.95-.473 1.666 0 .841.151 1.466.454 1.873.308.401.7.602 1.173.602.775 0 1.226-.552 1.351-1.657zm2.368.888v-3.372h1.282v3.234c0 .328.063.562.188.7s.325.207.601.207c.309 0 .559-.079.749-.237.191-.164.286-.42.286-.769v-3.135h1.282v5.225h-1.222v-.502h-.02c-.322.433-.776.65-1.361.65-.605 0-1.055-.18-1.351-.542-.289-.361-.434-.848-.434-1.459zm7.051-1.243v.957c0 .315.099.585.296.808.204.217.48.326.828.326.375 0 .664-.135.868-.404.21-.277.315-.678.315-1.203 0-.533-.105-.934-.315-1.203-.204-.27-.493-.405-.868-.405-.348 0-.624.109-.828.326-.197.217-.296.483-.296.798zm-1.282 3.096v-7.197h1.282v2.475h.02c.013-.02.029-.043.049-.069.02-.033.069-.086.148-.158.085-.072.174-.138.266-.197.099-.06.224-.112.375-.158.158-.046.322-.069.493-.069.644 0 1.177.256 1.597.769.427.506.641 1.17.641 1.992 0 .841-.207 1.511-.621 2.011-.408.5-.956.749-1.647.749-.282 0-.539-.052-.769-.157-.23-.112-.388-.221-.473-.326l-.138-.167h-.02v.502zm7.185-3.096v.957c0 .315.098.585.295.808.204.217.48.326.829.326.374 0 .663-.135.867-.404.211-.277.316-.678.316-1.203 0-.533-.105-.934-.316-1.203-.204-.27-.493-.405-.867-.405-.349 0-.625.109-.829.326-.197.217-.295.483-.295.798zm-1.282 3.096v-7.197h1.282v2.475h.019c.013-.02.03-.043.05-.069.019-.033.069-.086.147-.158.086-.072.175-.138.267-.197.098-.06.223-.112.374-.158.158-.046.322-.069.493-.069.645 0 1.177.256 1.598.769.427.506.641 1.17.641 1.992 0 .841-.207 1.511-.622 2.011-.407.5-.956.749-1.646.749-.283 0-.539-.052-.769-.157-.23-.112-.388-.221-.474-.326l-.138-.167h-.019v.502zm6.114 2.219 1.045-2.475-2.09-4.969h1.301l1.351 3.539h.02l1.351-3.539h1.301l-3.007 7.444z" fill="#7986a3"/><path d="m45.3994 274.746v-6.902h2.8002c.7034 0 1.2752.2 1.7156.601.4404.395.6607.927.6607 1.597 0 .671-.2137 1.203-.6409 1.598-.4207.394-.9992.591-1.7354.591h-1.4691v2.515zm1.3311-3.747h1.4494c.2958 0 .539-.086.7296-.256.1907-.178.286-.411.286-.701 0-.335-.0986-.578-.2958-.729-.1907-.158-.4306-.237-.7198-.237h-1.4494zm4.5883 3.747v-7.198h1.3311v7.198zm5.693 0v-.503h-.0197c-.0131.02-.0296.046-.0493.079-.0197.026-.069.075-.1479.148-.0789.072-.1676.138-.2662.197s-.2333.112-.4043.158c-.1709.046-.3549.069-.5521.069-.631 0-1.1043-.148-1.4198-.444-.309-.303-.4635-.671-.4635-1.104 0-.454.1348-.799.4043-1.036.2695-.236.7263-.434 1.3705-.591.5982-.145.9729-.26 1.1241-.345.1511-.086.2267-.207.2267-.365s-.0756-.289-.2267-.395c-.1447-.105-.3649-.157-.6607-.157-.3483 0-.5981.078-.7493.236-.1512.151-.2695.358-.355.621l-1.0648-.443c.1249-.441.3681-.799.7296-1.075.3615-.283.8348-.424 1.4198-.424.6376 0 1.1602.168 1.5678.503.4075.335.6113.854.6113 1.558v3.313zm-1.2916-2.14c-.3287.079-.5456.174-.6508.286-.0986.105-.1479.227-.1479.365 0 .355.2564.532.7691.532.3878 0 .6771-.072.8677-.217.1972-.151.2958-.335.2958-.552v-.907h-.0197c-.0263.053-.0559.095-.0888.128-.0263.027-.1249.076-.2958.148-.1709.066-.4141.138-.7296.217zm3.9145.276v-2.277h-.8085v-1.085h.8381v-1.282h1.2128v1.282h1.3212v1.085h-1.3015v2.159c0 .276.046.47.138.582.0921.111.2794.167.5621.167h.4239v1.233h-.5423c-.7033 0-1.1864-.148-1.4494-.444-.2629-.296-.3944-.769-.3944-1.42z" fill="#7986a3"/><path d="m164.867 281.92v-6.902h1.331v5.669h2.85v1.233zm6.247-1.42c.21.276.5.414.868.414s.657-.138.867-.414c.211-.283.316-.68.316-1.193s-.109-.907-.326-1.183c-.21-.283-.496-.424-.857-.424-.362 0-.651.138-.868.414-.21.276-.316.674-.316 1.193s.106.917.316 1.193zm2.623.838c-.46.486-1.045.73-1.755.73s-1.295-.244-1.755-.73c-.461-.486-.691-1.163-.691-2.031 0-.855.237-1.528.71-2.021.474-.493 1.052-.74 1.736-.74.683 0 1.262.247 1.735.74s.71 1.166.71 2.021c0 .868-.23 1.545-.69 2.031zm5.072-1.499v-1.074c0-.296-.102-.546-.306-.75-.204-.21-.477-.315-.818-.315-.382 0-.691.138-.927.414-.237.276-.355.674-.355 1.193s.118.917.355 1.193c.243.276.552.414.927.414.341 0 .614-.102.818-.306.204-.21.306-.466.306-.769zm-3.313 3.146.956-.661c.151.296.322.509.513.641.191.138.437.207.739.207.336 0 .602-.089.799-.266.204-.171.306-.447.306-.828v-.661h-.02c-.099.177-.27.332-.513.463-.243.125-.506.188-.789.188-.67 0-1.232-.244-1.686-.73-.453-.493-.68-1.17-.68-2.031 0-.848.233-1.519.7-2.012.467-.499 1.016-.749 1.647-.749.598 0 1.058.217 1.38.651h.02v-.503h1.222v5.226c0 .762-.223 1.347-.67 1.755-.44.407-1.012.611-1.716.611-.545 0-1.009-.118-1.39-.355-.375-.236-.647-.552-.818-.946zm5.526-2.791 1.154-.295c.092.729.483 1.094 1.173 1.094.316 0 .566-.049.75-.148.19-.105.286-.25.286-.434 0-.151-.073-.263-.217-.335-.145-.079-.447-.184-.907-.316-.125-.032-.221-.059-.286-.078-.605-.171-1.049-.372-1.331-.602-.283-.236-.424-.549-.424-.937 0-.433.174-.808.522-1.124.355-.315.838-.473 1.45-.473 1.17 0 1.903.513 2.198 1.538l-1.065.326c-.092-.25-.223-.447-.394-.592-.164-.145-.407-.217-.73-.217-.249 0-.45.049-.601.148-.145.092-.217.204-.217.335 0 .145.086.26.256.345.178.079.615.217 1.312.415.611.164 1.025.374 1.242.631.224.249.335.571.335.966 0 .421-.184.798-.552 1.134-.361.328-.887.493-1.577.493-.723 0-1.282-.181-1.677-.543-.387-.368-.621-.811-.7-1.331z" fill="#7986a3"/><path d="m348.35 292.124v-6.902h2.928c.612 0 1.101.181 1.469.542.375.355.562.793.562 1.312 0 .578-.249 1.015-.749 1.311v.01c.296.125.536.325.72.602.19.269.286.594.286.976 0 .657-.201 1.183-.602 1.577-.401.382-1.061.572-1.982.572zm1.331-1.232h1.607c.631 0 .947-.306.947-.917 0-.283-.086-.5-.257-.651-.164-.158-.391-.237-.68-.237h-1.617zm0-2.889h1.43c.269 0 .479-.063.631-.188.157-.131.236-.322.236-.572 0-.262-.075-.46-.227-.591-.151-.132-.364-.197-.64-.197h-1.43zm4.678 1.38v-.986h3.243v.986zm4.428 2.741v-6.902h2.929c.611 0 1.101.181 1.469.542.375.355.562.793.562 1.312 0 .578-.25 1.015-.749 1.311v.01c.295.125.535.325.719.602.191.269.286.594.286.976 0 .657-.2 1.183-.601 1.577-.401.382-1.062.572-1.982.572zm1.332-1.232h1.607c.631 0 .946-.306.946-.917 0-.283-.085-.5-.256-.651-.164-.158-.391-.237-.68-.237h-1.617zm0-2.889h1.429c.27 0 .48-.063.631-.188.158-.131.237-.322.237-.572 0-.262-.076-.46-.227-.591-.151-.132-.365-.197-.641-.197h-1.429zm6.205 2.701c.211.276.5.414.868.414s.657-.138.868-.414c.21-.282.315-.68.315-1.193 0-.512-.108-.907-.325-1.183-.21-.283-.496-.424-.858-.424-.361 0-.651.138-.868.414-.21.276-.315.674-.315 1.193 0 .52.105.917.315 1.193zm2.623.838c-.46.487-1.045.73-1.755.73s-1.295-.243-1.755-.73c-.46-.486-.69-1.163-.69-2.031 0-.854.237-1.528.71-2.021s1.052-.74 1.735-.74c.684 0 1.262.247 1.736.74.473.493.709 1.167.709 2.021 0 .868-.23 1.545-.69 2.031zm.946.582 1.814-2.701-1.706-2.525h1.331l1.173 1.755h.02l1.173-1.755h1.332l-1.706 2.525 1.814 2.701h-1.37l-1.243-1.873h-.02l-1.242 1.873z" fill="#7986a3"/><path d="m612.082 262.333-.394-1.134h-2.633l-.394 1.134h-1.322l2.495-6.902h1.134l2.485 6.902zm-1.716-4.93-.936 2.691h1.883l-.927-2.691zm3.134 2.188v-.986h3.244v.986zm4.429 2.742v-6.902h2.929c.611 0 1.101.18 1.469.542.374.355.562.792.562 1.311 0 .579-.25 1.016-.75 1.312v.009c.296.125.536.326.72.602.191.269.286.595.286.976 0 .657-.2 1.183-.601 1.578-.401.381-1.062.572-1.982.572zm1.331-1.233h1.607c.632 0 .947-.306.947-.917 0-.283-.085-.5-.256-.651-.165-.157-.391-.236-.681-.236h-1.617zm0-2.889h1.43c.27 0 .48-.062.631-.187.158-.132.237-.322.237-.572 0-.263-.076-.46-.227-.592-.151-.131-.365-.197-.641-.197h-1.43zm6.206 2.702c.211.276.5.414.868.414s.657-.138.868-.414c.21-.283.315-.681.315-1.193 0-.513-.108-.907-.325-1.184-.211-.282-.497-.424-.858-.424-.362 0-.651.139-.868.415-.21.276-.315.673-.315 1.193 0 .519.105.917.315 1.193zm2.623.838c-.46.486-1.045.729-1.755.729s-1.295-.243-1.755-.729c-.46-.487-.69-1.164-.69-2.031 0-.855.236-1.529.71-2.022.473-.493 1.051-.739 1.735-.739s1.262.246 1.735.739c.474.493.71 1.167.71 2.022 0 .867-.23 1.544-.69 2.031zm.945.582 1.815-2.702-1.706-2.524h1.331l1.173 1.755h.02l1.173-1.755h1.331l-1.705 2.524 1.814 2.702h-1.371l-1.242-1.874h-.02l-1.242 1.874z" fill="#7986a3"/><path d="m619.035 349.4-.395-1.134h-2.632l-.395 1.134h-1.321l2.495-6.902h1.134l2.484 6.902zm-1.716-4.93-.937 2.691h1.884l-.927-2.691zm5.994 2.189v-.986h3.244v.986zm6.894 2.741v-6.902h2.8c.71 0 1.282.2 1.716.601.44.395.66.927.66 1.597 0 .5-.131.924-.394 1.272-.257.349-.612.595-1.065.74l1.469 2.692h-1.44l-1.39-2.564h-1.025v2.564zm1.331-3.718h1.36c.756 0 1.134-.328 1.134-.986 0-.663-.378-.995-1.134-.995h-1.36zm7.816 3.718v-.503h-.02c-.013.02-.029.046-.049.079-.02.026-.069.075-.148.148-.079.072-.167.138-.266.197s-.233.112-.404.158-.355.069-.552.069c-.631 0-1.105-.148-1.42-.444-.309-.303-.464-.671-.464-1.104 0-.454.135-.799.405-1.036.269-.236.726-.434 1.37-.591.598-.145.973-.26 1.124-.345.151-.086.227-.207.227-.365s-.076-.289-.227-.395c-.144-.105-.365-.157-.66-.157-.349 0-.599.078-.75.236-.151.151-.269.358-.355.621l-1.065-.443c.125-.441.368-.799.73-1.075.362-.283.835-.424 1.42-.424.637 0 1.16.168 1.568.503.407.335.611.854.611 1.558v3.313zm-1.292-2.14c-.328.079-.545.174-.65.286-.099.105-.148.227-.148.365 0 .355.256.532.769.532.388 0 .677-.072.868-.217.197-.151.295-.335.295-.552v-.907h-.019c-.027.053-.056.095-.089.128-.026.027-.125.076-.296.148-.171.066-.414.138-.73.217zm3.649 2.14v-5.226h1.173v.503h.02c.118-.184.289-.339.513-.464.23-.125.479-.187.749-.187.276 0 .536.066.779.197.243.125.427.289.552.493h.02c.131-.204.319-.368.562-.493.243-.131.509-.197.798-.197.625 0 1.118.164 1.479.493.368.329.553.762.553 1.302v3.579h-1.174v-3.313c0-.257-.075-.467-.227-.631-.144-.165-.371-.247-.68-.247-.289 0-.513.076-.67.227-.152.151-.227.345-.227.582v3.382h-1.173v-3.313c0-.25-.079-.457-.237-.621-.158-.171-.381-.257-.671-.257-.295 0-.519.076-.67.227s-.227.345-.227.582v3.382zm9.813-3.156v1.075c0 .303.102.559.305.769.204.204.477.306.819.306.374 0 .68-.138.917-.414.243-.276.365-.674.365-1.193 0-.52-.119-.917-.355-1.193-.237-.276-.546-.414-.927-.414-.342 0-.615.105-.819.315-.203.204-.305.454-.305.749zm-1.282 5.374v-7.444h1.223v.503h.019c.013-.02.03-.043.05-.069.019-.033.069-.086.147-.158.086-.072.178-.138.277-.197.098-.059.23-.112.394-.158.171-.046.352-.069.542-.069.618 0 1.157.25 1.617.749.467.493.7 1.164.7 2.012 0 .854-.223 1.528-.67 2.021s-.989.74-1.627.74c-.191 0-.368-.023-.532-.069-.158-.046-.286-.099-.385-.158-.099-.066-.184-.128-.256-.188-.073-.065-.125-.121-.158-.167l-.04-.069h-.019v2.721z" fill="#7986a3"/><path d="m565.782 429.497-.394-1.134h-2.633l-.394 1.134h-1.321l2.494-6.902h1.134l2.485 6.902zm-1.715-4.93-.937 2.692h1.883l-.927-2.692zm6.388 4.93v-6.902h1.331v5.669h2.849v1.233zm6.246-1.42c.211.276.5.414.868.414s.657-.138.868-.414c.21-.283.315-.68.315-1.193s-.108-.907-.325-1.183c-.21-.283-.496-.424-.858-.424-.361 0-.651.138-.868.414-.21.276-.315.674-.315 1.193s.105.917.315 1.193zm2.623.838c-.46.486-1.045.73-1.755.73s-1.295-.244-1.755-.73-.69-1.164-.69-2.031c0-.855.236-1.528.71-2.021.473-.493 1.051-.74 1.735-.74s1.262.247 1.735.74c.474.493.71 1.166.71 2.021 0 .867-.23 1.545-.69 2.031zm1.73.582v-5.226h1.232v.503h.02c.144-.184.342-.339.591-.464.25-.125.513-.187.789-.187.579 0 1.032.174 1.361.523.329.341.493.818.493 1.429v3.422h-1.282v-3.106c0-.362-.069-.631-.207-.809-.138-.184-.375-.276-.71-.276-.315 0-.562.092-.739.276-.178.178-.267.418-.267.72v3.195zm9.158-2.081v-1.074c0-.296-.102-.546-.306-.75-.203-.21-.476-.315-.818-.315-.381 0-.69.138-.927.414s-.355.674-.355 1.193.118.917.355 1.193c.243.276.552.414.927.414.342 0 .615-.102.818-.306.204-.21.306-.466.306-.769zm-3.313 3.146.956-.661c.152.296.323.509.513.641.191.138.437.207.74.207.335 0 .601-.089.798-.266.204-.171.306-.447.306-.829v-.66h-.02c-.098.177-.269.332-.512.463-.244.125-.507.188-.789.188-.671 0-1.233-.244-1.686-.73-.454-.493-.681-1.17-.681-2.031 0-.848.234-1.519.7-2.012.467-.499 1.016-.749 1.647-.749.598 0 1.058.217 1.38.651h.02v-.503h1.223v5.226c0 .762-.224 1.347-.671 1.755-.44.407-1.012.611-1.715.611-.546 0-1.009-.118-1.391-.355-.374-.237-.647-.552-.818-.946z" fill="#7986a3"/><path d="m431.589 453-.395-1.134h-2.632l-.395 1.134h-1.321l2.495-6.902h1.133l2.485 6.902zm-1.716-4.93-.937 2.692h1.884l-.927-2.692zm6.388 4.93v-6.902h1.331v5.67h2.85v1.232zm6.247-1.42c.21.276.499.414.868.414.368 0 .657-.138.867-.414.211-.282.316-.68.316-1.193s-.109-.907-.326-1.183c-.21-.283-.496-.424-.857-.424-.362 0-.651.138-.868.414-.21.276-.316.674-.316 1.193s.106.917.316 1.193zm2.623.838c-.461.487-1.046.73-1.755.73-.71 0-1.295-.243-1.756-.73-.46-.486-.69-1.163-.69-2.031 0-.854.237-1.528.71-2.021s1.052-.74 1.736-.74c.683 0 1.262.247 1.735.74s.71 1.167.71 2.021c0 .868-.23 1.545-.69 2.031zm3.011-2.514v.956c0 .316.098.585.296.809.203.217.48.325.828.325.375 0 .664-.134.868-.404.21-.276.315-.677.315-1.203 0-.532-.105-.933-.315-1.203-.204-.269-.493-.404-.868-.404-.348 0-.625.108-.828.325-.198.217-.296.483-.296.799zm-1.282 3.096v-7.198h1.282v2.475h.02c.013-.02.029-.043.049-.069.02-.033.069-.085.148-.158.085-.072.174-.138.266-.197.099-.059.224-.112.375-.158.157-.046.322-.069.493-.069.644 0 1.176.257 1.597.769.427.507.641 1.17.641 1.992 0 .842-.207 1.512-.621 2.012-.408.499-.957.749-1.647.749-.283 0-.539-.053-.769-.158-.23-.112-.388-.22-.473-.325l-.138-.168h-.02v.503zm7.184-3.096v.956c0 .316.099.585.296.809.204.217.48.325.828.325.375 0 .664-.134.868-.404.21-.276.316-.677.316-1.203 0-.532-.106-.933-.316-1.203-.204-.269-.493-.404-.868-.404-.348 0-.624.108-.828.325-.197.217-.296.483-.296.799zm-1.281 3.096v-7.198h1.281v2.475h.02c.013-.02.03-.043.049-.069.02-.033.069-.085.148-.158.086-.072.174-.138.266-.197.099-.059.224-.112.375-.158.158-.046.322-.069.493-.069.644 0 1.177.257 1.597.769.428.507.641 1.17.641 1.992 0 .842-.207 1.512-.621 2.012-.407.499-.956.749-1.646.749-.283 0-.539-.053-.769-.158-.231-.112-.388-.22-.474-.325l-.138-.168h-.02v.503zm6.114 2.218 1.045-2.474-2.09-4.97h1.301l1.351 3.54h.02l1.35-3.54h1.302l-3.007 7.444z" fill="#7986a3"/><path d="m426.951 549.973c-.888 0-1.611-.306-2.17-.917-.552-.618-.828-1.548-.828-2.79 0-1.092.293-1.946.878-2.564.591-.618 1.295-.927 2.11-.927.697 0 1.288.211 1.775.631.493.421.788.993.887 1.716l-1.331.217c-.164-.888-.605-1.331-1.321-1.331-.454 0-.838.197-1.154.591-.315.395-.473.95-.473 1.667 0 .841.151 1.465.453 1.873.309.401.7.601 1.174.601.427 0 .762-.121 1.005-.364.25-.244.375-.585.375-1.026h-1.282v-1.134h2.554v.917c0 .875-.247 1.568-.74 2.081-.493.506-1.13.759-1.912.759zm6.717-.148v-.503h-.019c-.013.02-.03.046-.05.079-.019.026-.069.076-.148.148-.078.072-.167.138-.266.197-.098.059-.233.112-.404.158s-.355.069-.552.069c-.631 0-1.104-.148-1.42-.444-.309-.302-.463-.67-.463-1.104 0-.454.134-.799.404-1.035.269-.237.726-.434 1.37-.592.599-.145.973-.26 1.124-.345.152-.085.227-.207.227-.365s-.075-.289-.227-.394c-.144-.105-.364-.158-.66-.158-.349 0-.598.079-.75.237-.151.151-.269.358-.355.621l-1.064-.444c.125-.44.368-.799.729-1.075.362-.282.835-.424 1.42-.424.638 0 1.16.168 1.568.503.407.336.611.855.611 1.558v3.313zm-1.291-2.14c-.329.079-.546.175-.651.286-.099.106-.148.227-.148.365 0 .355.256.533.769.533.388 0 .677-.073.868-.217.197-.151.296-.335.296-.552v-.908h-.02c-.026.053-.056.096-.089.129-.026.026-.125.075-.296.148-.171.065-.414.138-.729.216zm3.648 2.14v-5.226h1.213v.552h.02c.098-.197.243-.354.433-.473.198-.118.411-.177.641-.177.165 0 .322.033.474.098l-.198 1.243c-.144-.053-.279-.079-.404-.079-.598 0-.897.397-.897 1.193v2.869zm6.864-2.14v-.956c0-.315-.101-.582-.305-.799-.197-.217-.47-.325-.819-.325-.374 0-.667.135-.877.404-.204.27-.306.671-.306 1.203 0 .526.102.927.306 1.203.21.27.503.404.877.404.349 0 .622-.108.819-.325.204-.224.305-.493.305-.809zm.079 2.14v-.503h-.019c-.033.046-.083.105-.148.178-.059.072-.211.171-.454.295-.237.119-.496.178-.779.178-.69 0-1.242-.25-1.656-.749-.408-.5-.612-1.17-.612-2.012 0-.848.224-1.518.671-2.011.447-.5.973-.75 1.577-.75.277 0 .523.056.74.168.223.105.375.21.454.316l.128.167h.019v-2.475h1.282v7.198zm5.972-1.804.897.789c-.532.775-1.252 1.163-2.159 1.163-.73 0-1.325-.25-1.785-.749-.46-.507-.69-1.177-.69-2.012s.227-1.502.68-2.001c.46-.507 1.039-.76 1.736-.76.696 0 1.268.253 1.715.76.454.499.681 1.166.681 2.001v.385h-3.511c.02.401.129.71.326.927.204.21.48.315.828.315.296 0 .539-.072.73-.217.197-.151.381-.352.552-.601zm-2.436-1.381h2.268c-.033-.335-.148-.595-.345-.779-.197-.19-.467-.286-.808-.286-.316 0-.576.102-.779.306-.198.204-.309.457-.336.759zm4.542 3.185v-5.226h1.233v.503h.019c.145-.184.342-.338.592-.463s.513-.188.789-.188c.578 0 1.032.175 1.36.523.329.342.493.818.493 1.43v3.421h-1.281v-3.106c0-.361-.07-.631-.208-.808-.138-.184-.374-.276-.709-.276-.316 0-.562.092-.74.276-.177.177-.266.417-.266.719v3.195z" fill="#7986a3"/><path d="m523.194 202.354-.395-1.134h-2.632l-.395 1.134h-1.321l2.495-6.902h1.134l2.484 6.902zm-1.716-4.93-.937 2.692h1.884l-.927-2.692zm7.719 4.93v-5.67h-2.021v-1.232h5.374v1.232h-2.022v5.67zm3.605-1.854v-3.372h1.282v3.234c0 .329.062.562.187.7s.326.207.602.207c.309 0 .559-.079.749-.236.191-.165.286-.421.286-.769v-3.136h1.282v5.226h-1.223v-.503h-.019c-.323.434-.776.651-1.361.651-.605 0-1.055-.181-1.351-.543-.289-.361-.434-.847-.434-1.459zm5.769 1.854v-5.226h1.233v.503h.019c.145-.184.342-.339.592-.463.25-.125.513-.188.789-.188.578 0 1.032.174 1.36.523.329.342.493.818.493 1.429v3.422h-1.281v-3.106c0-.362-.069-.631-.208-.809-.138-.184-.374-.276-.709-.276-.316 0-.562.092-.74.276-.177.178-.266.418-.266.72v3.195zm5.816 0v-5.226h1.232v.503h.02c.145-.184.342-.339.592-.463.249-.125.512-.188.788-.188.579 0 1.032.174 1.361.523.329.342.493.818.493 1.429v3.422h-1.282v-3.106c0-.362-.069-.631-.207-.809-.138-.184-.374-.276-.71-.276-.315 0-.562.092-.739.276-.178.178-.266.418-.266.72v3.195zm9.207-1.805.898.789c-.533.776-1.252 1.164-2.16 1.164-.729 0-1.324-.25-1.784-.75-.46-.506-.69-1.176-.69-2.011s.226-1.502.68-2.002c.46-.506 1.038-.759 1.735-.759s1.269.253 1.716.759c.453.5.68 1.167.68 2.002v.385h-3.51c.02.4.128.709.325.926.204.211.48.316.829.316.296 0 .539-.072.729-.217.198-.151.382-.352.552-.602zm-2.435-1.38h2.268c-.033-.335-.148-.595-.345-.779-.197-.19-.467-.286-.809-.286-.315 0-.575.102-.779.306-.197.204-.309.457-.335.759zm4.542 3.185v-7.198h1.331v7.198z" fill="#7986a3"/><path d="m474.502 270.827-.394-1.134h-2.633l-.394 1.134h-1.321l2.494-6.902h1.134l2.485 6.902zm-1.715-4.93-.937 2.691h1.883l-.927-2.691zm6.388 4.93v-6.902h1.331v5.669h2.849v1.233zm5.014 0v-5.226h1.282v5.226zm0-5.985v-1.213h1.282v1.213zm2.657 5.985v-5.226h1.233v.503h.02c.144-.184.341-.339.591-.464s.513-.187.789-.187c.579 0 1.032.174 1.361.523.328.341.493.818.493 1.429v3.422h-1.282v-3.106c0-.362-.069-.631-.207-.809-.138-.184-.375-.276-.71-.276-.316 0-.562.092-.74.276-.177.178-.266.418-.266.72v3.195zm5.816 0v-7.198h1.282v4.131h.02l1.903-2.159h1.607l-1.883 2.12 2.051 3.106h-1.42l-1.598-2.387h-.019l-.661.75v1.637z" fill="#7986a3"/><path d="m604.817 223.519v-6.902h2.929c.611 0 1.101.18 1.469.542.375.355.562.792.562 1.311 0 .579-.25 1.016-.749 1.312v.01c.295.124.535.325.719.601.191.269.286.595.286.976 0 .657-.2 1.183-.601 1.578-.401.381-1.062.572-1.982.572zm1.332-1.233h1.607c.631 0 .946-.306.946-.917 0-.283-.085-.499-.256-.651-.164-.157-.391-.236-.68-.236h-1.617zm0-2.889h1.429c.27 0 .48-.062.631-.187.158-.132.237-.322.237-.572 0-.263-.076-.46-.227-.592-.151-.131-.365-.197-.641-.197h-1.429zm6.206 2.702c.21.276.499.414.867.414s.658-.138.868-.414c.21-.283.315-.681.315-1.193 0-.513-.108-.907-.325-1.183-.21-.283-.496-.424-.858-.424-.361 0-.651.138-.867.414-.211.276-.316.673-.316 1.193 0 .519.105.917.316 1.193zm2.622.838c-.46.486-1.045.729-1.755.729s-1.295-.243-1.755-.729c-.46-.487-.69-1.164-.69-2.031 0-.855.237-1.529.71-2.022s1.052-.739 1.735-.739c.684 0 1.262.246 1.736.739.473.493.709 1.167.709 2.022 0 .867-.23 1.544-.69 2.031zm1.996-1.282v-2.278h-.809v-1.084h.839v-1.282h1.212v1.282h1.322v1.084h-1.302v2.16c0 .276.046.47.138.581.092.112.279.168.562.168h.424v1.233h-.542c-.704 0-1.187-.148-1.45-.444s-.394-.769-.394-1.42zm3.717 0v-2.278h-.809v-1.084h.838v-1.282h1.213v1.282h1.321v1.084h-1.301v2.16c0 .276.046.47.138.581.092.112.279.168.562.168h.424v1.233h-.543c-.703 0-1.186-.148-1.449-.444s-.394-.769-.394-1.42zm4.779.444c.21.276.5.414.868.414s.657-.138.867-.414c.211-.283.316-.681.316-1.193 0-.513-.109-.907-.326-1.183-.21-.283-.496-.424-.857-.424-.362 0-.651.138-.868.414-.21.276-.316.673-.316 1.193 0 .519.106.917.316 1.193zm2.623.838c-.46.486-1.045.729-1.755.729s-1.295-.243-1.755-.729c-.461-.487-.691-1.164-.691-2.031 0-.855.237-1.529.71-2.022.474-.493 1.052-.739 1.736-.739.683 0 1.262.246 1.735.739s.71 1.167.71 2.022c0 .867-.23 1.544-.69 2.031zm1.729.582v-5.226h1.174v.503h.019c.119-.184.289-.339.513-.464.23-.125.48-.187.749-.187.276 0 .536.066.779.197.243.125.428.289.552.493h.02c.132-.204.319-.368.562-.493.243-.131.51-.197.799-.197.624 0 1.117.164 1.479.493.368.329.552.762.552 1.301v3.58h-1.173v-3.313c0-.257-.076-.467-.227-.631-.145-.165-.372-.247-.681-.247-.289 0-.512.076-.67.227-.151.151-.227.345-.227.582v3.382h-1.173v-3.313c0-.25-.079-.457-.237-.622-.157-.17-.381-.256-.67-.256-.296 0-.519.076-.671.227-.151.151-.226.345-.226.582v3.382zm15.098 0-.394-1.134h-2.633l-.394 1.134h-1.322l2.495-6.902h1.134l2.485 6.902zm-1.716-4.93-.936 2.691h1.883l-.927-2.691zm-29.891 15.105-.534.443c-.093-.087-.214-.235-.362-.443-.148-.209-.326-.493-.534-.855-.208-.361-.383-.802-.526-1.323-.142-.52-.213-1.046-.213-1.577 0-.422.049-.836.147-1.241.105-.411.222-.753.354-1.027.131-.274.285-.54.46-.797.181-.258.318-.436.411-.534.093-.104.181-.197.263-.28l.534.444c-.444.542-.773 1.063-.986 1.561-.214.493-.321 1.118-.321 1.874 0 .728.121 1.418.362 2.07.246.647.561 1.208.945 1.685zm1.972-3.755v.797c0 .263.082.487.246.673.17.181.4.271.691.271.312 0 .553-.112.723-.336.175-.23.263-.565.263-1.003 0-.444-.088-.778-.263-1.002-.17-.225-.411-.337-.723-.337-.291 0-.521.09-.691.271-.164.181-.246.403-.246.666zm-1.068 2.58v-5.999h1.068v2.063h.016c.011-.017.025-.036.041-.058.017-.027.058-.071.124-.131.071-.06.145-.115.222-.164.082-.05.186-.094.312-.132.131-.038.268-.057.411-.057.536 0 .98.213 1.331.64.356.422.534.975.534 1.66 0 .701-.173 1.26-.518 1.676-.339.417-.797.625-1.372.625-.236 0-.449-.044-.641-.132-.192-.093-.323-.183-.394-.271l-.115-.139h-.017v.419zm7.745-1.504.748.657c-.444.647-1.044.97-1.8.97-.608 0-1.103-.208-1.487-.625-.383-.421-.575-.98-.575-1.676 0-.695.189-1.251.567-1.668.383-.422.865-.632 1.446-.632s1.057.21 1.43.632c.378.417.567.973.567 1.668v.321h-2.925c.016.334.106.591.271.772.169.175.4.263.69.263.246 0 .449-.06.608-.181.164-.126.318-.293.46-.501zm-2.029-1.15h1.889c-.027-.28-.123-.496-.287-.649-.165-.159-.389-.239-.674-.239-.263 0-.479.085-.649.255-.164.17-.258.381-.279.633zm3.784 2.654v-5.999h1.109v5.999zm3.29-1.184c.175.23.416.345.723.345s.548-.115.723-.345c.175-.235.263-.567.263-.994s-.09-.756-.271-.986c-.175-.235-.414-.353-.715-.353s-.542.115-.723.345c-.175.23-.263.561-.263.994s.088.764.263.994zm2.186.699c-.384.405-.871.608-1.463.608-.591 0-1.079-.203-1.462-.608-.384-.406-.576-.97-.576-1.693 0-.712.198-1.273.592-1.684s.876-.616 1.446-.616 1.052.205 1.446.616c.395.411.592.972.592 1.684 0 .723-.192 1.287-.575 1.693zm2.074.485-.962-4.355h1.044l.575 2.908h.025l.969-2.908h.97l.895 2.9h.017l.657-2.9h1.027l-1.043 4.355h-1.052l-.994-3.131h-.017l-1.076 3.131zm6.322 1.618-.534-.443c.384-.477.696-1.038.937-1.685.247-.652.37-1.342.37-2.07 0-.756-.107-1.381-.321-1.874-.213-.498-.542-1.019-.986-1.561l.534-.444c.083.083.17.176.263.28.094.098.228.276.403.534.181.257.337.523.468.797.132.274.247.616.345 1.027.105.405.157.819.157 1.241 0 .531-.072 1.057-.214 1.577-.142.521-.318.962-.526 1.323-.208.362-.386.646-.534.855-.148.208-.268.356-.362.443z" fill="#7986a3"/><path d="m232.293 289.259 1.38.306c-.111.802-.404 1.433-.877 1.893s-1.091.69-1.854.69c-.887 0-1.61-.306-2.169-.917-.552-.618-.828-1.548-.828-2.79 0-1.092.292-1.946.877-2.564.592-.618 1.295-.927 2.11-.927.71 0 1.312.224 1.805.671.499.44.789 1.035.867 1.784l-1.321.207c-.059-.42-.197-.762-.414-1.025-.217-.27-.526-.404-.927-.404-.453 0-.838.197-1.153.591-.316.395-.474.95-.474 1.667 0 .841.152 1.465.454 1.873.309.401.7.601 1.173.601.776 0 1.226-.552 1.351-1.656zm5.642 2.741-1.153-5.226h1.252l.69 3.491h.03l1.163-3.491h1.164l1.074 3.481h.02l.789-3.481h1.232l-1.252 5.226h-1.262l-1.193-3.757h-.02l-1.291 3.757zm7.243 0v-5.226h1.281v5.226zm0-5.985v-1.213h1.281v1.213zm2.657 5.985v-5.226h1.233v.503h.019c.145-.184.342-.338.592-.463s.513-.188.789-.188c.578 0 1.032.175 1.361.523.328.342.493.818.493 1.43v3.421h-1.282v-3.106c0-.361-.069-.631-.207-.808-.138-.184-.375-.276-.71-.276-.316 0-.562.092-.74.276-.177.177-.266.417-.266.719v3.195zm9.06-2.14v-.956c0-.316-.102-.582-.306-.799-.197-.217-.47-.325-.818-.325-.375 0-.667.135-.878.404-.203.27-.305.671-.305 1.203 0 .526.102.927.305 1.203.211.27.503.404.878.404.348 0 .621-.108.818-.325.204-.224.306-.493.306-.809zm.079 2.14v-.503h-.02c-.033.046-.082.105-.148.178-.059.072-.21.171-.453.295-.237.119-.497.178-.779.178-.69 0-1.243-.25-1.657-.749-.407-.5-.611-1.17-.611-2.012 0-.848.223-1.518.67-2.011.447-.5.973-.75 1.578-.75.276 0 .523.056.74.168.223.105.374.21.453.315l.128.168h.02v-2.475h1.282v7.198zm3.812-1.42c.21.276.5.414.868.414s.657-.138.867-.414c.211-.282.316-.68.316-1.193s-.109-.907-.325-1.183c-.211-.283-.497-.424-.858-.424-.362 0-.651.138-.868.414-.21.276-.315.674-.315 1.193s.105.917.315 1.193zm2.623.838c-.46.487-1.045.73-1.755.73s-1.295-.243-1.755-.73c-.461-.486-.691-1.163-.691-2.031 0-.854.237-1.528.71-2.021.474-.493 1.052-.74 1.736-.74.683 0 1.262.247 1.735.74s.71 1.167.71 2.021c0 .868-.23 1.545-.69 2.031zm2.488.582-1.153-5.226h1.252l.69 3.491h.03l1.163-3.491h1.164l1.075 3.481h.019l.789-3.481h1.233l-1.253 5.226h-1.262l-1.193-3.757h-.02l-1.291 3.757z" fill="#7986a3"/><path d="m242.918 337.469c-.888 0-1.611-.306-2.17-.917-.552-.618-.828-1.548-.828-2.791 0-1.091.293-1.945.878-2.563.591-.618 1.295-.927 2.11-.927.696 0 1.288.21 1.774.631.493.421.789.993.888 1.716l-1.331.217c-.165-.888-.605-1.332-1.321-1.332-.454 0-.839.198-1.154.592-.316.394-.473.95-.473 1.666 0 .842.151 1.466.453 1.874.309.401.7.601 1.174.601.427 0 .762-.121 1.005-.365.25-.243.375-.585.375-1.025h-1.282v-1.134h2.554v.917c0 .874-.247 1.568-.74 2.08-.493.507-1.13.76-1.912.76zm6.717-.148v-.503h-.019c-.014.02-.03.046-.05.079-.019.026-.069.075-.148.148-.078.072-.167.138-.266.197-.098.059-.233.112-.404.158s-.355.069-.552.069c-.631 0-1.105-.148-1.42-.444-.309-.302-.463-.67-.463-1.104 0-.454.134-.799.404-1.036.269-.236.726-.433 1.37-.591.598-.145.973-.26 1.124-.345.152-.086.227-.207.227-.365s-.075-.289-.227-.395c-.144-.105-.364-.157-.66-.157-.349 0-.598.079-.75.236-.151.152-.269.359-.355.622l-1.064-.444c.124-.441.368-.799.729-1.075.362-.283.835-.424 1.42-.424.638 0 1.16.168 1.568.503.407.335.611.855.611 1.558v3.313zm-1.291-2.14c-.329.079-.546.174-.651.286-.099.105-.148.227-.148.365 0 .355.256.532.769.532.388 0 .677-.072.868-.217.197-.151.296-.335.296-.552v-.907h-.02c-.026.053-.056.096-.089.128-.026.027-.125.076-.296.148-.171.066-.414.138-.729.217zm3.648 2.14v-5.226h1.213v.552h.019c.099-.197.244-.355.434-.473.198-.118.411-.178.641-.178.165 0 .322.033.473.099l-.197 1.242c-.144-.052-.279-.078-.404-.078-.598 0-.897.397-.897 1.193v2.869zm6.598 0v-.503h-.02c-.013.02-.029.046-.049.079-.02.026-.069.075-.148.148-.079.072-.167.138-.266.197s-.233.112-.404.158-.355.069-.552.069c-.631 0-1.105-.148-1.42-.444-.309-.302-.464-.67-.464-1.104 0-.454.135-.799.405-1.036.269-.236.726-.433 1.37-.591.598-.145.973-.26 1.124-.345.151-.086.227-.207.227-.365s-.076-.289-.227-.395c-.144-.105-.365-.157-.66-.157-.349 0-.599.079-.75.236-.151.152-.269.359-.355.622l-1.065-.444c.125-.441.368-.799.73-1.075.362-.283.835-.424 1.42-.424.637 0 1.16.168 1.568.503.407.335.611.855.611 1.558v3.313zm-1.292-2.14c-.328.079-.545.174-.65.286-.099.105-.148.227-.148.365 0 .355.256.532.769.532.388 0 .677-.072.868-.217.197-.151.295-.335.295-.552v-.907h-.019c-.027.053-.056.096-.089.128-.026.027-.125.076-.296.148-.171.066-.414.138-.73.217zm6.991.059v-1.074c0-.296-.102-.546-.305-.75-.204-.21-.477-.315-.819-.315-.381 0-.69.138-.927.414-.236.276-.355.674-.355 1.193s.119.917.355 1.193c.244.276.553.414.927.414.342 0 .615-.102.819-.306.203-.21.305-.466.305-.769zm-3.313 3.146.957-.661c.151.296.322.509.512.641.191.138.438.207.74.207.335 0 .601-.089.799-.266.203-.171.305-.447.305-.828v-.661h-.019c-.099.177-.27.332-.513.463-.243.125-.506.188-.789.188-.67 0-1.232-.244-1.686-.73-.454-.493-.68-1.17-.68-2.031 0-.848.233-1.519.7-2.012.466-.499 1.015-.749 1.646-.749.599 0 1.059.217 1.381.651h.019v-.503h1.223v5.226c0 .762-.223 1.347-.67 1.755-.441.407-1.013.611-1.716.611-.546 0-1.009-.118-1.39-.355-.375-.236-.648-.552-.819-.946zm9.313-2.87.897.789c-.532.776-1.252 1.164-2.159 1.164-.729 0-1.324-.25-1.784-.75-.461-.506-.691-1.176-.691-2.011s.227-1.502.681-2.002c.46-.506 1.038-.759 1.735-.759s1.269.253 1.716.759c.453.5.68 1.167.68 2.002v.384h-3.51c.02.401.128.71.325.927.204.211.48.316.828.316.296 0 .539-.072.73-.217.197-.151.381-.352.552-.602zm-2.435-1.38h2.268c-.033-.335-.148-.595-.345-.779-.198-.191-.467-.286-.809-.286-.316 0-.575.102-.779.306-.197.204-.309.457-.335.759z" fill="#7986a3"/><path d="m177.69 330.76 1.381.306c-.112.802-.405 1.433-.878 1.893s-1.091.69-1.854.69c-.887 0-1.61-.305-2.169-.917-.552-.617-.828-1.548-.828-2.79 0-1.091.293-1.946.878-2.564.591-.617 1.295-.926 2.11-.926.71 0 1.311.223 1.804.67.5.441.789 1.035.868 1.785l-1.322.207c-.059-.421-.197-.763-.414-1.026-.217-.269-.526-.404-.927-.404-.453 0-.838.197-1.153.592-.316.394-.473.95-.473 1.666 0 .841.151 1.466.453 1.873.309.401.7.602 1.173.602.776 0 1.226-.552 1.351-1.657zm3.651 1.322c.21.276.499.414.868.414.368 0 .657-.138.867-.414.211-.283.316-.681.316-1.193 0-.513-.109-.908-.326-1.184-.21-.282-.496-.424-.857-.424-.362 0-.651.138-.868.415-.21.276-.316.673-.316 1.193 0 .519.106.917.316 1.193zm2.623.838c-.46.486-1.046.729-1.755.729-.71 0-1.295-.243-1.755-.729-.461-.487-.691-1.164-.691-2.031 0-.855.237-1.529.71-2.022.474-.493 1.052-.739 1.736-.739.683 0 1.262.246 1.735.739s.71 1.167.71 2.022c0 .867-.23 1.544-.69 2.031zm1.729.581v-5.225h1.233v.503h.019c.145-.184.342-.339.592-.464s.513-.187.789-.187c.578 0 1.032.174 1.36.522.329.342.493.819.493 1.43v3.421h-1.281v-3.105c0-.362-.069-.631-.207-.809-.138-.184-.375-.276-.71-.276-.316 0-.562.092-.74.276-.177.178-.266.417-.266.72v3.194zm5.816 0v-5.225h1.232v.503h.02c.145-.184.342-.339.592-.464s.512-.187.789-.187c.578 0 1.032.174 1.36.522.329.342.493.819.493 1.43v3.421h-1.282v-3.105c0-.362-.069-.631-.207-.809-.138-.184-.374-.276-.71-.276-.315 0-.562.092-.739.276-.178.178-.266.417-.266.72v3.194zm9.208-1.804.897.789c-.533.776-1.252 1.163-2.159 1.163-.73 0-1.325-.249-1.785-.749-.46-.506-.69-1.177-.69-2.011 0-.835.226-1.502.68-2.002.46-.506 1.039-.759 1.735-.759.697 0 1.269.253 1.716.759.454.5.68 1.167.68 2.002v.384h-3.51c.02.401.128.71.326.927.203.21.479.315.828.315.296 0 .539-.072.729-.216.198-.152.382-.352.553-.602zm-2.436-1.38h2.268c-.033-.336-.148-.595-.345-.779-.197-.191-.467-.286-.809-.286-.315 0-.575.102-.779.305-.197.204-.309.457-.335.76zm7.677 1.074 1.213.316c-.118.624-.375 1.104-.769 1.44-.394.335-.891.502-1.489.502-.71 0-1.295-.243-1.755-.729-.454-.487-.68-1.164-.68-2.031 0-.862.233-1.535.7-2.022.473-.493 1.055-.739 1.745-.739.585 0 1.075.171 1.469.513.395.341.638.798.73 1.37l-1.193.227c-.125-.638-.46-.957-1.006-.957-.362 0-.651.138-.868.415-.21.269-.315.667-.315 1.193 0 .525.105.926.315 1.202.211.27.5.405.868.405.578 0 .924-.368 1.035-1.105zm2.465.247v-2.278h-.808v-1.084h.838v-1.282h1.213v1.282h1.321v1.084h-1.302v2.16c0 .276.046.47.139.581.092.112.279.168.562.168h.424v1.232h-.543c-.703 0-1.186-.147-1.449-.443s-.395-.769-.395-1.42zm4.78.444c.21.276.499.414.867.414s.658-.138.868-.414c.21-.283.316-.681.316-1.193 0-.513-.109-.908-.326-1.184-.21-.282-.496-.424-.858-.424-.361 0-.65.138-.867.415-.211.276-.316.673-.316 1.193 0 .519.105.917.316 1.193zm2.622.838c-.46.486-1.045.729-1.755.729s-1.295-.243-1.755-.729c-.46-.487-.69-1.164-.69-2.031 0-.855.237-1.529.71-2.022s1.052-.739 1.735-.739c.684 0 1.262.246 1.736.739.473.493.71 1.167.71 2.022 0 .867-.23 1.544-.691 2.031zm1.73.581v-5.225h1.213v.552h.019c.099-.197.244-.355.434-.473.197-.119.411-.178.641-.178.164 0 .322.033.473.099l-.197 1.242c-.144-.053-.279-.079-.404-.079-.598 0-.897.398-.897 1.193v2.869z" fill="#7986a3"/><path d="m82.527 391.981 1.3804.306c-.1118.802-.4043 1.433-.8776 1.893-.4732.46-1.0911.69-1.8536.69-.8874 0-1.6105-.306-2.1692-.917-.5522-.618-.8283-1.548-.8283-2.79 0-1.092.2926-1.946.8776-2.564.5916-.618 1.2949-.927 2.11-.927.7099 0 1.3114.224 1.8044.671.4995.44.7888 1.035.8676 1.784l-1.3212.207c-.0591-.42-.1972-.762-.4141-1.025-.2169-.27-.5259-.404-.9268-.404-.4536 0-.8381.197-1.1536.591-.3156.395-.4733.95-.4733 1.667 0 .841.1512 1.465.4535 1.873.309.401.7001.601 1.1734.601.7756 0 1.2259-.552 1.3508-1.656zm4.5873 0v-.986h3.2439v.986zm6.8939 2.741v-6.902h1.331v5.67h2.8496v1.232zm6.2468-1.42c.21.276.5.414.868.414s.657-.138.867-.414c.211-.282.316-.68.316-1.193s-.109-.907-.326-1.183c-.21-.283-.496-.424-.857-.424-.362 0-.651.138-.868.414-.21.276-.3156.674-.3156 1.193s.1056.917.3156 1.193zm2.623.838c-.46.487-1.045.73-1.755.73s-1.2953-.243-1.7554-.73c-.4602-.486-.6902-1.163-.6902-2.031 0-.854.2366-1.528.7099-2.021s1.0517-.74 1.7357-.74c.683 0 1.262.247 1.735.74s.71 1.167.71 2.021c0 .868-.23 1.545-.69 2.031zm1.729.582v-5.226h1.233v.503h.019c.145-.184.342-.338.592-.463s.513-.188.789-.188c.578 0 1.032.175 1.36.523.329.342.493.818.493 1.43v3.421h-1.281v-3.106c0-.361-.069-.631-.207-.808-.138-.184-.375-.276-.71-.276-.316 0-.562.092-.74.276-.177.177-.266.417-.266.719v3.195zm9.159-2.08v-1.075c0-.296-.102-.546-.306-.749-.204-.211-.477-.316-.819-.316-.381 0-.69.138-.926.414-.237.276-.355.674-.355 1.193s.118.917.355 1.193c.243.276.552.414.926.414.342 0 .615-.102.819-.305.204-.211.306-.467.306-.769zm-3.313 3.145.956-.661c.151.296.322.51.513.641.19.138.437.207.739.207.335 0 .602-.088.799-.266.204-.171.306-.447.306-.828v-.661h-.02c-.099.178-.27.332-.513.464-.243.124-.506.187-.789.187-.67 0-1.232-.243-1.686-.73-.453-.493-.68-1.17-.68-2.031 0-.848.233-1.518.7-2.011.467-.5 1.016-.75 1.647-.75.598 0 1.058.217 1.38.651h.02v-.503h1.222v5.226c0 .763-.223 1.348-.67 1.755-.441.408-1.012.611-1.716.611-.545 0-1.009-.118-1.39-.355-.375-.236-.648-.552-.818-.946z" fill="#7986a3"/><path d="m166.857 508.259 1.38.306c-.112.802-.404 1.433-.877 1.893-.474.46-1.092.69-1.854.69-.888 0-1.611-.306-2.169-.917-.552-.618-.829-1.548-.829-2.79 0-1.092.293-1.946.878-2.564.592-.618 1.295-.927 2.11-.927.71 0 1.311.224 1.804.671.5.44.789 1.035.868 1.784l-1.321.207c-.059-.42-.197-.762-.414-1.025-.217-.27-.526-.404-.927-.404-.454 0-.838.197-1.154.591-.315.395-.473.95-.473 1.667 0 .841.151 1.465.454 1.873.308.401.7.601 1.173.601.775 0 1.226-.552 1.351-1.656zm4.981 2.741v-6.902h1.331v5.67h2.85v1.232zm6.247-1.42c.211.276.5.414.868.414s.657-.138.868-.414c.21-.282.315-.68.315-1.193s-.108-.907-.325-1.183c-.211-.283-.497-.424-.858-.424-.362 0-.651.138-.868.414-.21.276-.315.674-.315 1.193s.105.917.315 1.193zm2.623.838c-.46.487-1.045.73-1.755.73s-1.295-.243-1.755-.73c-.46-.486-.69-1.163-.69-2.031 0-.854.236-1.528.71-2.021.473-.493 1.051-.74 1.735-.74.683 0 1.262.247 1.735.74s.71 1.167.71 2.021c0 .868-.23 1.545-.69 2.031zm3.011-2.514v.956c0 .316.099.585.296.809.204.217.48.325.828.325.375 0 .664-.134.868-.404.21-.276.315-.677.315-1.203 0-.532-.105-.933-.315-1.203-.204-.269-.493-.404-.868-.404-.348 0-.624.108-.828.325-.197.217-.296.483-.296.799zm-1.282 3.096v-7.198h1.282v2.475h.02c.013-.02.029-.043.049-.069.02-.033.069-.085.148-.158.086-.072.174-.138.266-.197.099-.059.224-.112.375-.158.158-.046.322-.069.493-.069.644 0 1.177.257 1.597.769.428.507.641 1.17.641 1.992 0 .842-.207 1.512-.621 2.012-.408.499-.956.749-1.647.749-.282 0-.539-.053-.769-.158-.23-.112-.387-.22-.473-.325l-.138-.168h-.02v.503zm7.185-3.096v.956c0 .316.098.585.295.809.204.217.48.325.829.325.374 0 .664-.134.867-.404.211-.276.316-.677.316-1.203 0-.532-.105-.933-.316-1.203-.203-.269-.493-.404-.867-.404-.349 0-.625.108-.829.325-.197.217-.295.483-.295.799zm-1.282 3.096v-7.198h1.282v2.475h.019c.014-.02.03-.043.05-.069.019-.033.069-.085.148-.158.085-.072.174-.138.266-.197.098-.059.223-.112.374-.158.158-.046.323-.069.493-.069.645 0 1.177.257 1.598.769.427.507.641 1.17.641 1.992 0 .842-.207 1.512-.621 2.012-.408.499-.957.749-1.647.749-.283 0-.539-.053-.769-.158-.23-.112-.388-.22-.473-.325l-.138-.168h-.02v.503zm6.114 2.218 1.045-2.474-2.09-4.97h1.301l1.351 3.54h.02l1.351-3.54h1.301l-3.007 7.444z" fill="#7986a3"/><path d="m234.512 405.801v-6.902h1.371l2.002 4.476h.019l2.002-4.476h1.38v6.902h-1.301v-4.24h-.02l-1.962 4.24h-.217l-1.962-4.24h-.02v4.24zm8.25 0v-5.226h1.282v5.226zm0-5.985v-1.213h1.282v1.213zm5.902 3.845v-.956c0-.316-.102-.582-.306-.799-.197-.217-.47-.325-.819-.325-.374 0-.667.135-.877.404-.204.27-.306.671-.306 1.203 0 .526.102.927.306 1.203.21.269.503.404.877.404.349 0 .622-.108.819-.325.204-.224.306-.493.306-.809zm.078 2.14v-.503h-.019c-.033.046-.082.105-.148.177-.059.073-.211.171-.454.296-.236.119-.496.178-.779.178-.69 0-1.242-.25-1.656-.75-.408-.499-.611-1.17-.611-2.011 0-.848.223-1.518.67-2.011.447-.5.973-.75 1.578-.75.276 0 .522.056.739.168.224.105.375.21.454.315l.128.168h.02v-2.475h1.281v7.198zm6.475-1.233h.917c.236 0 .443-.026.621-.078.177-.06.345-.165.503-.316s.279-.378.365-.68c.085-.309.128-.694.128-1.154 0-.769-.145-1.328-.434-1.676-.283-.355-.657-.533-1.124-.533h-.976zm-1.331 1.233v-6.902h2.307c.394 0 .766.069 1.114.207s.664.342.947.611c.282.27.506.631.67 1.085.171.447.256.96.256 1.538 0 .631-.085 1.18-.256 1.647-.171.466-.404.828-.7 1.084-.296.25-.618.434-.966.552-.342.119-.717.178-1.124.178zm7.566-1.42c.21.276.499.414.867.414s.658-.138.868-.414c.21-.283.315-.68.315-1.193s-.108-.907-.325-1.183c-.21-.283-.496-.424-.858-.424-.361 0-.65.138-.867.414-.211.276-.316.674-.316 1.193s.105.917.316 1.193zm2.622.838c-.46.487-1.045.73-1.755.73s-1.295-.243-1.755-.73c-.46-.486-.69-1.163-.69-2.031 0-.855.237-1.528.71-2.021s1.052-.74 1.735-.74c.684 0 1.262.247 1.736.74.473.493.71 1.166.71 2.021 0 .868-.231 1.545-.691 2.031zm2.962-.838c.211.276.5.414.868.414s.657-.138.868-.414c.21-.283.315-.68.315-1.193s-.108-.907-.325-1.183c-.211-.283-.496-.424-.858-.424s-.651.138-.868.414c-.21.276-.315.674-.315 1.193s.105.917.315 1.193zm2.623.838c-.46.487-1.045.73-1.755.73s-1.295-.243-1.755-.73c-.46-.486-.69-1.163-.69-2.031 0-.855.236-1.528.71-2.021.473-.493 1.051-.74 1.735-.74s1.262.247 1.735.74c.474.493.71 1.166.71 2.021 0 .868-.23 1.545-.69 2.031zm1.73.582v-5.226h1.212v.552h.02c.099-.197.243-.355.434-.473.197-.118.411-.177.641-.177.164 0 .322.032.473.098l-.197 1.242c-.145-.052-.28-.078-.404-.078-.599 0-.898.397-.898 1.193v2.869zm3.226-1.726 1.153-.295c.092.729.483 1.094 1.174 1.094.315 0 .565-.049.749-.148.191-.105.286-.25.286-.434 0-.151-.072-.263-.217-.335-.145-.079-.447-.184-.907-.315-.125-.033-.22-.06-.286-.079-.605-.171-1.049-.372-1.331-.602-.283-.236-.424-.549-.424-.936 0-.434.174-.809.522-1.125.355-.315.838-.473 1.45-.473 1.17 0 1.903.513 2.199 1.538l-1.065.326c-.092-.25-.224-.447-.395-.592-.164-.144-.407-.217-.729-.217-.25 0-.451.05-.602.148-.144.092-.217.204-.217.335 0 .145.086.26.257.345.177.079.614.217 1.311.415.611.164 1.025.374 1.242.631.224.249.336.571.336.966 0 .421-.184.799-.553 1.134-.361.328-.887.493-1.577.493-.723 0-1.282-.181-1.676-.543-.388-.368-.622-.811-.7-1.331z" fill="#7986a3"/><path d="m342.335 419v-6.902h1.37l2.002 4.476h.019l2.002-4.476h1.38v6.902h-1.301v-4.24h-.02l-1.962 4.24h-.217l-1.962-4.24h-.02v4.24zm8.249 0v-5.226h1.282v5.226zm0-5.985v-1.213h1.282v1.213zm5.902 3.845v-.956c0-.316-.102-.582-.306-.799-.197-.217-.47-.325-.818-.325-.375 0-.667.135-.878.404-.204.27-.305.671-.305 1.203 0 .526.101.927.305 1.203.211.27.503.404.878.404.348 0 .621-.108.818-.325.204-.224.306-.493.306-.809zm.079 2.14v-.503h-.02c-.033.046-.082.105-.148.178-.059.072-.21.171-.454.295-.236.119-.496.178-.778.178-.691 0-1.243-.25-1.657-.749-.407-.5-.611-1.17-.611-2.012 0-.848.223-1.518.67-2.011.447-.5.973-.75 1.578-.75.276 0 .522.056.739.168.224.105.375.21.454.315l.128.168h.02v-2.475h1.282v7.198zm-24.566 12.259 1.381.306c-.112.802-.405 1.433-.878 1.893s-1.091.69-1.853.69c-.888 0-1.611-.306-2.17-.917-.552-.618-.828-1.548-.828-2.79 0-1.092.293-1.946.878-2.564.591-.618 1.295-.927 2.11-.927.71 0 1.311.224 1.804.671.5.44.789 1.035.868 1.784l-1.322.207c-.059-.42-.197-.762-.414-1.025-.217-.27-.526-.404-.926-.404-.454 0-.839.197-1.154.591-.316.395-.473.95-.473 1.667 0 .841.151 1.465.453 1.873.309.401.7.601 1.174.601.775 0 1.225-.552 1.35-1.656zm3.651 1.321c.21.276.5.414.868.414s.657-.138.867-.414c.211-.282.316-.68.316-1.193s-.109-.907-.326-1.183c-.21-.283-.496-.424-.857-.424-.362 0-.651.138-.868.414-.21.276-.316.674-.316 1.193s.106.917.316 1.193zm2.623.838c-.46.487-1.045.73-1.755.73s-1.295-.243-1.755-.73c-.461-.486-.691-1.163-.691-2.031 0-.854.237-1.528.71-2.021.474-.493 1.052-.74 1.736-.74.683 0 1.262.247 1.735.74s.71 1.167.71 2.021c0 .868-.23 1.545-.69 2.031zm1.68-1.272v-3.372h1.282v3.234c0 .329.062.562.187.7s.325.207.601.207c.309 0 .559-.078.75-.236.19-.165.286-.421.286-.769v-3.136h1.282v5.226h-1.223v-.503h-.02c-.322.434-.775.651-1.36.651-.605 0-1.055-.181-1.351-.542-.289-.362-.434-.848-.434-1.46zm5.769 1.854v-5.226h1.212v.552h.02c.099-.197.243-.355.434-.473.197-.118.411-.177.641-.177.164 0 .322.033.473.098l-.197 1.243c-.145-.053-.279-.079-.404-.079-.598 0-.897.397-.897 1.193v2.869zm3.983-1.864v-2.277h-.809v-1.085h.838v-1.282h1.213v1.282h1.321v1.085h-1.301v2.159c0 .276.046.47.138.582s.279.168.562.168h.424v1.232h-.543c-.703 0-1.186-.148-1.449-.444-.263-.295-.394-.769-.394-1.42zm3.951 4.082 1.045-2.474-2.09-4.97h1.301l1.351 3.54h.02l1.35-3.54h1.302l-3.007 7.444zm7.898-2.218v-.503h-.02c-.013.02-.029.046-.049.079-.02.026-.069.076-.148.148s-.168.138-.266.197c-.099.059-.234.112-.404.158-.171.046-.355.069-.553.069-.631 0-1.104-.148-1.419-.444-.309-.302-.464-.67-.464-1.104 0-.454.135-.799.404-1.035.27-.237.727-.434 1.371-.592.598-.145.973-.26 1.124-.345.151-.086.227-.207.227-.365s-.076-.289-.227-.394c-.145-.105-.365-.158-.661-.158-.348 0-.598.079-.749.237-.151.151-.27.358-.355.621l-1.065-.444c.125-.44.368-.799.73-1.075.361-.282.835-.424 1.42-.424.637 0 1.16.168 1.567.503.408.335.612.855.612 1.558v3.313zm-1.292-2.14c-.328.079-.545.175-.651.286-.098.106-.147.227-.147.365 0 .355.256.533.769.533.387 0 .677-.073.867-.217.198-.152.296-.336.296-.552v-.908h-.02c-.026.053-.055.096-.088.129-.027.026-.125.075-.296.147-.171.066-.414.139-.73.217zm3.649 2.14v-5.226h1.212v.552h.02c.099-.197.243-.355.434-.473.197-.118.411-.177.641-.177.164 0 .322.033.473.098l-.197 1.243c-.145-.053-.279-.079-.404-.079-.599 0-.898.397-.898 1.193v2.869zm6.864-2.14v-.956c0-.316-.102-.582-.306-.799-.197-.217-.47-.325-.818-.325-.375 0-.667.135-.878.404-.203.27-.305.671-.305 1.203 0 .526.102.927.305 1.203.211.27.503.404.878.404.348 0 .621-.108.818-.325.204-.224.306-.493.306-.809zm.079 2.14v-.503h-.02c-.033.046-.082.105-.148.178-.059.072-.21.171-.453.295-.237.119-.497.178-.779.178-.69 0-1.243-.25-1.657-.749-.407-.5-.611-1.17-.611-2.012 0-.848.223-1.518.67-2.011.447-.5.973-.75 1.578-.75.276 0 .523.056.739.168.224.105.375.21.454.315l.128.168h.02v-2.475h1.282v7.198z" fill="#7986a3"/><path d="m334.455 349v-6.902h2.928c.612 0 1.101.181 1.47.542.374.355.562.792.562 1.312 0 .578-.25 1.015-.75 1.311v.01c.296.125.536.325.72.601.191.27.286.595.286.977 0 .657-.201 1.183-.601 1.577-.401.381-1.062.572-1.982.572zm1.331-1.232h1.607c.631 0 .947-.306.947-.917 0-.283-.086-.5-.256-.651-.165-.158-.392-.237-.681-.237h-1.617zm0-2.889h1.43c.269 0 .48-.063.631-.188.158-.131.237-.322.237-.572 0-.263-.076-.46-.227-.591-.151-.132-.365-.197-.641-.197h-1.43zm8.868 2.889h.917c.237 0 .444-.027.621-.079.178-.06.346-.165.503-.316.158-.151.28-.378.365-.68.086-.309.128-.694.128-1.154 0-.769-.144-1.328-.434-1.676-.282-.355-.657-.532-1.124-.532h-.976zm-1.331 1.232v-6.902h2.307c.395 0 .766.069 1.115.207.348.138.664.342.946.611.283.27.506.631.671 1.085.171.447.256.96.256 1.538 0 .631-.085 1.18-.256 1.647-.171.466-.405.828-.7 1.084-.296.25-.618.434-.967.553-.342.118-.716.177-1.124.177zm7.566-1.42c.211.276.5.414.868.414s.657-.138.868-.414c.21-.282.315-.68.315-1.193s-.108-.907-.325-1.183c-.211-.283-.497-.424-.858-.424-.362 0-.651.138-.868.414-.21.276-.315.674-.315 1.193s.105.917.315 1.193zm2.623.838c-.46.487-1.045.73-1.755.73s-1.295-.243-1.755-.73c-.46-.486-.69-1.163-.69-2.031 0-.854.236-1.528.709-2.021.474-.493 1.052-.74 1.736-.74.683 0 1.262.247 1.735.74s.71 1.167.71 2.021c0 .868-.23 1.545-.69 2.031zm2.962-.838c.21.276.499.414.868.414.368 0 .657-.138.867-.414.211-.282.316-.68.316-1.193s-.109-.907-.326-1.183c-.21-.283-.496-.424-.857-.424-.362 0-.651.138-.868.414-.21.276-.316.674-.316 1.193s.106.917.316 1.193zm2.623.838c-.461.487-1.046.73-1.755.73-.71 0-1.295-.243-1.756-.73-.46-.486-.69-1.163-.69-2.031 0-.854.237-1.528.71-2.021s1.052-.74 1.736-.74c.683 0 1.262.247 1.735.74s.71 1.167.71 2.021c0 .868-.23 1.545-.69 2.031zm1.729.582v-5.226h1.213v.552h.02c.098-.197.243-.355.433-.473.198-.118.411-.177.641-.177.165 0 .322.033.474.098l-.198 1.243c-.144-.053-.279-.079-.404-.079-.598 0-.897.397-.897 1.193v2.869z" fill="#7986a3"/><path d="m322.649 487v-6.902h1.37l2.002 4.476h.019l2.002-4.476h1.38v6.902h-1.301v-4.24h-.02l-1.962 4.24h-.217l-1.962-4.24h-.02v4.24zm8.249 0v-5.226h1.282v5.226zm0-5.985v-1.213h1.282v1.213zm5.902 3.845v-.956c0-.316-.102-.582-.306-.799-.197-.217-.47-.325-.818-.325-.375 0-.668.135-.878.404-.204.27-.306.671-.306 1.203 0 .526.102.927.306 1.203.21.27.503.404.878.404.348 0 .621-.108.818-.325.204-.224.306-.493.306-.809zm.078 2.14v-.503h-.019c-.033.046-.082.105-.148.178-.059.072-.21.171-.454.295-.236.119-.496.178-.779.178-.69 0-1.242-.25-1.656-.749-.408-.5-.611-1.17-.611-2.012 0-.848.223-1.518.67-2.011.447-.5.973-.75 1.578-.75.276 0 .522.056.739.168.224.105.375.21.454.315l.128.168h.02v-2.475h1.281v7.198zm5.992 0-1.341-6.902h1.351l.887 4.693h.03l1.587-4.693h.67l1.588 4.693h.029l.888-4.693h1.321l-1.341 6.902h-1.38l-1.42-4.289h-.059l-1.43 4.289zm7.998 0v-5.226h1.282v5.226zm0-5.985v-1.213h1.282v1.213zm2.658 5.985v-5.226h1.232v.503h.02c.145-.184.342-.338.592-.463.249-.125.512-.188.788-.188.579 0 1.032.175 1.361.523.329.342.493.818.493 1.43v3.421h-1.282v-3.106c0-.361-.069-.631-.207-.808-.138-.184-.374-.276-.71-.276-.315 0-.562.092-.739.276-.178.177-.266.417-.266.719v3.195zm9.06-2.14v-.956c0-.316-.102-.582-.306-.799-.197-.217-.47-.325-.818-.325-.375 0-.668.135-.878.404-.204.27-.306.671-.306 1.203 0 .526.102.927.306 1.203.21.27.503.404.878.404.348 0 .621-.108.818-.325.204-.224.306-.493.306-.809zm.078 2.14v-.503h-.019c-.033.046-.082.105-.148.178-.059.072-.21.171-.454.295-.236.119-.496.178-.779.178-.69 0-1.242-.25-1.656-.749-.408-.5-.611-1.17-.611-2.012 0-.848.223-1.518.67-2.011.447-.5.973-.75 1.578-.75.276 0 .522.056.739.168.224.105.375.21.454.315l.128.168h.02v-2.475h1.281v7.198zm3.813-1.42c.21.276.499.414.867.414s.658-.138.868-.414c.21-.282.316-.68.316-1.193s-.109-.907-.326-1.183c-.21-.283-.496-.424-.858-.424-.361 0-.65.138-.867.414-.211.276-.316.674-.316 1.193s.105.917.316 1.193zm2.622.838c-.46.487-1.045.73-1.755.73s-1.295-.243-1.755-.73c-.46-.486-.69-1.163-.69-2.031 0-.854.237-1.528.71-2.021s1.052-.74 1.735-.74c.684 0 1.262.247 1.736.74.473.493.71 1.167.71 2.021 0 .868-.23 1.545-.691 2.031zm2.489.582-1.154-5.226h1.253l.69 3.491h.029l1.164-3.491h1.163l1.075 3.481h.02l.789-3.481h1.232l-1.252 5.226h-1.262l-1.193-3.757h-.02l-1.292 3.757z" fill="#7986a3"/><path d="m234.577 501.481v-6.902h2.929c.611 0 1.101.181 1.469.543.375.355.562.792.562 1.311 0 .578-.25 1.016-.749 1.311v.01c.295.125.535.326.719.602.191.269.286.595.286.976 0 .657-.2 1.183-.601 1.577-.401.382-1.062.572-1.982.572zm1.332-1.232h1.607c.631 0 .946-.306.946-.917 0-.283-.085-.5-.256-.651-.164-.158-.391-.237-.68-.237h-1.617zm0-2.889h1.429c.27 0 .48-.063.631-.187.158-.132.237-.323.237-.572 0-.263-.076-.46-.227-.592-.151-.131-.365-.197-.641-.197h-1.429zm6.206 2.701c.21.277.499.415.867.415s.658-.138.868-.415c.21-.282.315-.68.315-1.193 0-.512-.108-.907-.325-1.183-.21-.282-.496-.424-.858-.424-.361 0-.651.138-.867.414-.211.276-.316.674-.316 1.193 0 .52.105.917.316 1.193zm2.622.839c-.46.486-1.045.729-1.755.729s-1.295-.243-1.755-.729c-.46-.487-.69-1.164-.69-2.032 0-.854.237-1.528.71-2.021s1.052-.739 1.735-.739c.684 0 1.262.246 1.736.739.473.493.709 1.167.709 2.021 0 .868-.23 1.545-.69 2.032zm1.996-1.282v-2.278h-.809v-1.084h.839v-1.282h1.212v1.282h1.322v1.084h-1.302v2.159c0 .277.046.47.138.582s.279.168.562.168h.424v1.232h-.542c-.704 0-1.187-.148-1.45-.443-.263-.296-.394-.769-.394-1.42zm3.717 0v-2.278h-.809v-1.084h.838v-1.282h1.213v1.282h1.321v1.084h-1.301v2.159c0 .277.046.47.138.582s.279.168.562.168h.424v1.232h-.542c-.704 0-1.187-.148-1.45-.443-.263-.296-.394-.769-.394-1.42zm4.779.443c.21.277.5.415.868.415s.657-.138.867-.415c.211-.282.316-.68.316-1.193 0-.512-.109-.907-.326-1.183-.21-.282-.496-.424-.857-.424-.362 0-.651.138-.868.414-.21.276-.316.674-.316 1.193 0 .52.106.917.316 1.193zm2.623.839c-.46.486-1.045.729-1.755.729s-1.295-.243-1.755-.729c-.461-.487-.691-1.164-.691-2.032 0-.854.237-1.528.71-2.021.474-.493 1.052-.739 1.736-.739.683 0 1.262.246 1.735.739s.71 1.167.71 2.021c0 .868-.23 1.545-.69 2.032zm1.729.581v-5.225h1.174v.502h.019c.119-.184.289-.338.513-.463.23-.125.48-.187.749-.187.276 0 .536.065.779.197.243.125.428.289.552.493h.02c.132-.204.319-.368.562-.493.243-.132.51-.197.799-.197.624 0 1.117.164 1.479.493.368.328.552.762.552 1.301v3.579h-1.173v-3.313c0-.256-.076-.466-.227-.631-.145-.164-.372-.246-.68-.246-.29 0-.513.075-.671.227-.151.151-.227.345-.227.581v3.382h-1.173v-3.313c0-.249-.079-.456-.237-.621-.157-.171-.381-.256-.67-.256-.296 0-.519.075-.671.227-.151.151-.226.345-.226.581v3.382zm11.095 0v-6.902h1.37l2.002 4.477h.02l2.001-4.477h1.381v6.902h-1.302v-4.239h-.02l-1.962 4.239h-.217l-1.962-4.239h-.019v4.239zm8.25 0v-5.225h1.281v5.225zm0-5.985v-1.212h1.281v1.212zm5.901 3.846v-.957c0-.315-.102-.581-.306-.798-.197-.217-.47-.326-.818-.326-.375 0-.667.135-.878.405-.203.269-.305.67-.305 1.202 0 .526.102.927.305 1.203.211.27.503.405.878.405.348 0 .621-.109.818-.326.204-.223.306-.493.306-.808zm.079 2.139v-.503h-.02c-.033.046-.082.106-.148.178-.059.072-.21.171-.453.296-.237.118-.497.177-.779.177-.69 0-1.243-.25-1.657-.749-.407-.5-.611-1.17-.611-2.012 0-.848.223-1.518.67-2.011.447-.5.973-.749 1.578-.749.276 0 .523.056.74.167.223.105.374.211.453.316l.128.167h.02v-2.474h1.282v7.197z" fill="#7986a3"/><path d="m109.854 247.558 2.3.51c-.186 1.336-.673 2.388-1.462 3.155s-1.819 1.15-3.09 1.15c-1.479 0-2.684-.509-3.615-1.528-.92-1.03-1.38-2.58-1.38-4.651 0-1.818.487-3.243 1.462-4.272.986-1.03 2.158-1.545 3.517-1.545 1.183 0 2.186.372 3.007 1.117.833.734 1.315 1.726 1.446 2.975l-2.202.345c-.098-.701-.328-1.271-.69-1.709-.361-.449-.876-.674-1.545-.674-.756 0-1.396.329-1.922.986s-.789 1.583-.789 2.777c0 1.402.252 2.443.756 3.122.515.669 1.167 1.003 1.955 1.003 1.293 0 2.044-.92 2.252-2.761z" fill="#e5ebef"/><path d="m356.963 280.263v-11.503h4.88c1.019 0 1.835.301 2.449.904.624.591.937 1.32.937 2.185 0 .964-.417 1.693-1.249 2.186v.016c.493.208.892.543 1.199 1.003.318.449.477.991.477 1.627 0 1.095-.334 1.972-1.003 2.629-.668.635-1.769.953-3.303.953zm2.218-2.054h2.679c1.051 0 1.577-.51 1.577-1.528 0-.472-.142-.833-.427-1.085-.274-.263-.652-.394-1.134-.394h-2.695zm0-4.815h2.383c.449 0 .8-.104 1.052-.312.263-.219.394-.537.394-.953 0-.439-.126-.767-.378-.986-.252-.22-.608-.329-1.068-.329h-2.383z" fill="#e5ebef"/><path d="m633.575 257.092-.657-1.89h-4.388l-.657 1.89h-2.203l4.158-11.503h1.89l4.141 11.503zm-2.86-8.217-1.561 4.486h3.139l-1.545-4.486z" fill="#e5ebef"/><path d="m406.004 44.6002h1.223c.315 0 .591-.035.828-.1051.236-.0789.46-.2192.67-.4207.211-.2016.373-.504.487-.9071.114-.412.171-.9247.171-1.5382 0-1.0254-.193-1.7704-.579-2.2349-.377-.4733-.876-.7099-1.499-.7099h-1.301zm-1.775 1.6433v-9.2025h3.076c.526 0 1.021.092 1.486.276.465.1841.885.4558 1.262.8151.377.3594.675.8414.894 1.4461.228.596.342 1.2796.342 2.0509 0 .8414-.114 1.5732-.342 2.1955-.228.6222-.539 1.1043-.933 1.4461-.395.333-.824.5784-1.289.7362-.455.1578-.955.2366-1.498.2366zm12.967-2.4058 1.197 1.0518c-.71 1.0341-1.67 1.5512-2.88 1.5512-.972 0-1.766-.333-2.379-.9991-.614-.6749-.92-1.5688-.92-2.6819s.302-2.0027.907-2.6687c.613-.6749 1.385-1.0123 2.314-1.0123s1.691.3374 2.287 1.0123c.605.666.907 1.5556.907 2.6687v.5127h-4.68c.026.5347.171.9466.434 1.2358.272.2805.64.4207 1.104.4207.395 0 .719-.0964.973-.2892.263-.2016.508-.4689.736-.802zm-3.247-1.8405h3.024c-.044-.447-.198-.7932-.46-1.0386-.263-.2541-.623-.3812-1.078-.3812-.421 0-.767.1358-1.039.4075-.263.2717-.412.6091-.447 1.0123zm6.41 4.2463v-5.5215h-1.078v-1.4461h1.118v-.986c0-.596.153-1.0167.46-1.2621.316-.2542.771-.3812 1.367-.3812h1.368v1.5118h-1.013c-.21 0-.359.0438-.447.1315-.079.0789-.118.2191-.118.4207v.5653h1.762v1.4461h-1.709v5.5215zm8.867-2.4058 1.196 1.0518c-.71 1.0341-1.669 1.5512-2.879 1.5512-.973 0-1.766-.333-2.379-.9991-.614-.6749-.921-1.5688-.921-2.6819s.303-2.0027.907-2.6687c.614-.6749 1.385-1.0123 2.314-1.0123s1.692.3374 2.288 1.0123c.604.666.907 1.5556.907 2.6687v.5127h-4.68c.026.5347.17.9466.433 1.2358.272.2805.64.4207 1.105.4207.394 0 .718-.0964.973-.2892.263-.2016.508-.4689.736-.802zm-3.247-1.8405h3.023c-.044-.447-.197-.7932-.46-1.0386-.263-.2541-.622-.3812-1.078-.3812-.421 0-.767.1358-1.038.4075-.263.2717-.412.6091-.447 1.0123zm6.055 4.2463v-6.9676h1.643v.6704h.027c.193-.2454.455-.4513.789-.6178.333-.1666.683-.2498 1.051-.2498.772 0 1.376.2322 1.814.6967.439.4558.658 1.0912.658 1.9063v4.5618h-1.709v-4.1411c0-.4821-.092-.8414-.276-1.078-.184-.2454-.5-.3681-.947-.3681-.421 0-.749.1227-.986.3681-.237.2366-.355.5565-.355.9597v4.2594zm12.08-2.8528v-1.2752c0-.4207-.136-.7756-.408-1.0648-.263-.2893-.626-.4339-1.091-.4339-.5 0-.89.1797-1.17.539-.272.3594-.408.894-.408 1.6039 0 .7012.136 1.2358.408 1.6039.28.3593.67.539 1.17.539.465 0 .828-.1446 1.091-.4338.272-.298.408-.6574.408-1.0781zm.105 2.8528v-.6704h-.026c-.044.0613-.11.1402-.198.2366-.078.0964-.28.2279-.604.3944-.316.1578-.662.2366-1.039.2366-.92 0-1.656-.333-2.209-.9991-.543-.6661-.815-1.5601-.815-2.6819 0-1.1306.298-2.0246.894-2.6819.596-.6661 1.298-.9991 2.104-.9991.368 0 .697.0745.986.2235.298.1402.499.2804.605.4207l.17.2234h.027v-3.2997h1.709v9.5969zm7.962-2.4058 1.196 1.0518c-.71 1.0341-1.669 1.5512-2.879 1.5512-.973 0-1.766-.333-2.379-.9991-.614-.6749-.921-1.5688-.921-2.6819s.303-2.0027.907-2.6687c.614-.6749 1.385-1.0123 2.314-1.0123s1.692.3374 2.288 1.0123c.605.666.907 1.5556.907 2.6687v.5127h-4.68c.026.5347.171.9466.434 1.2358.271.2805.639.4207 1.104.4207.394 0 .719-.0964.973-.2892.263-.2016.508-.4689.736-.802zm-3.247-1.8405h3.023c-.043-.447-.197-.7932-.46-1.0386-.263-.2541-.622-.3812-1.078-.3812-.42 0-.767.1358-1.038.4075-.263.2717-.412.6091-.447 1.0123zm6.055 4.2463v-6.9676h1.617v.7362h.027c.131-.263.324-.4733.578-.6311.263-.1577.548-.2366.855-.2366.219 0 .429.0438.631.1315l-.263 1.6564c-.193-.0701-.373-.1051-.539-.1051-.798 0-1.197.5302-1.197 1.5907v3.8256zm4.302-2.3006 1.538-.3944c.122.9728.644 1.4593 1.564 1.4593.421 0 .754-.0658.999-.1972.255-.1403.382-.3331.382-.5785 0-.2016-.097-.3506-.29-.447-.192-.1051-.596-.2454-1.209-.4207-.167-.0438-.294-.0788-.381-.1051-.807-.2279-1.398-.4952-1.775-.802-.377-.3155-.565-.7318-.565-1.2489 0-.5784.232-1.078.696-1.4987.474-.4207 1.118-.631 1.933-.631 1.56 0 2.537.6836 2.932 2.0508l-1.42.4339c-.123-.3331-.298-.596-.526-.7888-.219-.1928-.544-.2892-.973-.2892-.333 0-.6.0657-.802.1972-.193.1227-.289.2716-.289.4469 0 .1929.114.3462.342.4602.236.1051.819.2892 1.748.5521.815.2191 1.367.4996 1.657.8414.298.333.447.7625.447 1.2884 0 .5609-.246 1.0648-.737 1.5118-.482.4382-1.183.6573-2.103.6573-.964 0-1.709-.241-2.235-.723-.517-.4908-.828-1.0824-.933-1.7748z" fill="#24e8ad"/><path d="m309.615 667.83-.525-1.512h-3.511l-.525 1.512h-1.762l3.326-9.203h1.512l3.313 9.203zm-2.287-6.573-1.249 3.589h2.511l-1.236-3.589zm5.197 4.088v-3.037h-1.078v-1.446h1.118v-1.709h1.617v1.709h1.762v1.446h-1.736v2.879c0 .368.062.627.184.776.123.149.373.224.75.224h.565v1.643h-.723c-.938 0-1.582-.197-1.933-.592-.35-.394-.526-1.025-.526-1.893zm4.956 0v-3.037h-1.078v-1.446h1.117v-1.709h1.618v1.709h1.761v1.446h-1.735v2.879c0 .368.061.627.184.776s.372.224.749.224h.566v1.643h-.724c-.937 0-1.582-.197-1.932-.592-.351-.394-.526-1.025-.526-1.893zm8.571 2.485v-.671h-.026c-.018.027-.04.062-.066.106-.026.035-.092.1-.197.197-.105.096-.224.184-.355.263-.132.079-.311.149-.539.21s-.473.092-.736.092c-.842 0-1.473-.197-1.894-.592-.411-.403-.617-.894-.617-1.472 0-.605.179-1.065.539-1.38.359-.316.968-.579 1.827-.789.798-.193 1.297-.346 1.499-.46.201-.114.302-.276.302-.487 0-.21-.101-.385-.302-.526-.193-.14-.487-.21-.881-.21-.465 0-.798.105-.999.316-.202.201-.36.477-.474.828l-1.419-.592c.166-.587.49-1.065.972-1.433.482-.377 1.114-.565 1.894-.565.85 0 1.546.223 2.09.67.543.447.815 1.14.815 2.078v4.417zm-1.722-2.853c-.438.105-.728.232-.868.381-.131.141-.197.303-.197.487 0 .473.342.71 1.025.71.517 0 .903-.097 1.157-.29.263-.201.395-.447.395-.736v-1.209h-.027c-.035.07-.074.127-.118.171-.035.035-.167.1-.394.197-.228.087-.553.184-.973.289zm9.045.039 1.617.421c-.158.833-.5 1.473-1.026 1.92-.525.447-1.187.67-1.985.67-.946 0-1.726-.324-2.34-.973-.605-.648-.907-1.551-.907-2.708 0-1.148.311-2.046.933-2.695.632-.657 1.407-.986 2.327-.986.78 0 1.433.228 1.959.684.526.455.85 1.064.973 1.827l-1.591.302c-.166-.85-.613-1.275-1.341-1.275-.482 0-.867.184-1.156.552-.281.36-.421.89-.421 1.591s.14 1.236.421 1.604c.28.359.666.539 1.156.539.772 0 1.232-.491 1.381-1.473zm2.932 2.814v-9.597h1.709v5.508h.026l2.537-2.879h2.143l-2.511 2.827 2.735 4.141h-1.893l-2.13-3.182h-.026l-.881 1v2.182zm11.827-2.406 1.197 1.052c-.71 1.034-1.67 1.551-2.88 1.551-.972 0-1.766-.333-2.379-.999-.614-.675-.92-1.569-.92-2.682s.302-2.003.907-2.669c.613-.675 1.385-1.012 2.314-1.012s1.691.337 2.287 1.012c.605.666.907 1.556.907 2.669v.513h-4.68c.026.534.171.946.434 1.235.272.281.64.421 1.104.421.395 0 .719-.096.973-.289.263-.202.508-.469.736-.802zm-3.247-1.841h3.024c-.044-.446-.198-.793-.46-1.038-.263-.254-.623-.381-1.078-.381-.421 0-.767.136-1.039.407-.263.272-.412.609-.447 1.012zm6.056 4.247v-6.968h1.617v.736h.026c.131-.263.324-.473.578-.631.263-.157.548-.236.855-.236.219 0 .429.044.631.131l-.263 1.657c-.193-.07-.373-.106-.539-.106-.798 0-1.196.531-1.196 1.591v3.826zm4.301-2.301 1.538-.394c.123.973.644 1.459 1.564 1.459.421 0 .754-.066 1-.197.254-.14.381-.333.381-.579 0-.201-.097-.35-.289-.447-.193-.105-.596-.245-1.21-.42-.166-.044-.293-.079-.381-.105-.806-.228-1.398-.496-1.775-.802-.377-.316-.565-.732-.565-1.249 0-.579.232-1.078.697-1.499.473-.421 1.117-.631 1.932-.631 1.56 0 2.537.684 2.932 2.051l-1.42.434c-.123-.333-.298-.596-.526-.789-.219-.193-.543-.289-.973-.289-.333 0-.6.065-.802.197-.192.123-.289.272-.289.447 0 .193.114.346.342.46.237.105.819.289 1.748.552.816.219 1.368.5 1.657.841.298.334.447.763.447 1.289 0 .561-.246 1.065-.736 1.512-.482.438-1.184.657-2.104.657-.964 0-1.709-.241-2.235-.723-.517-.491-.828-1.082-.933-1.775z" fill="#ff5859"/></svg>