<svg fill="none" height="1000" viewBox="0 0 1024 1000" width="1024" xmlns="http://www.w3.org/2000/svg" xmlns:xlink="http://www.w3.org/1999/xlink"><clipPath id="a"><path d="m0 0h1024v1000h-1024z"/></clipPath><clipPath id="b"><path d="m0 0h799v931h-799z" transform="translate(98 26)"/></clipPath><g clip-path="url(#a)"><g clip-path="url(#b)"><path d="m896.8 421.5v-177.3h-111.8v-9.9h3.4v-92l-20.9 3.5h-6.4l-13.1-.4-49.4-20.9-7.9-11.3-20.6 7.3s-10.3 10.5-11.5 10.1c-1.1-.4-5.9-2.3-5.9-2.3l-10.4-7.8h-34.3l.1-27.8 13-20.6v-46h-121.1v39.8l18.3 29.1v23.5l-25.2.1-6.6 18.3.1 15.6-22.5 11.7-25.6 17.6-.9 24.3h-51.6l-15.1 8.9h-7.4l-13.4-10.4h-56.1l-7.1-6.4-14.5 7.6-29-38.2-20.7 12.2-.6 32.7-86.4.3-15.7 30v69.4h7.9l36.8 28.9v34.4l-36.8 29.9h-29.2v216.1h83.6v-8.3h56.3v22.7h33.4v-15.4h70.5v16.4h37.2v82.6h67v73.5h133.2v8.3h-130.3v37.2h99.4v118.8h95.6v-122.1h38.4v-33.9h-62.8v-8.3l253.5-1.7v-26.7h2.7v-99.5h-4.4v-16h24.1v-217.6h-55.3v-10zm-247.8-187h105.1v10.5h-96.1v61.4h-9zm109.2 331.4v50.5h-68.4v-50.5zm-344.9-284.8 46.2.3-46.2 35.3zm24.8 117.2v25.2l-106.9.4v-25.5h106.9zm-219.7-117.2h169.9l.3 45.3 10.8.1-.1 5.7h-157.6l.3 24.2h-23.6zm325.1 401.2h-66.7v-94.4h-30.8v-50l-208-.5v-72.5h136.3v25h99.5l1.1 85.2h29.7v31.1h38.9zm157.9-24h-51v-101h-84.9v-27.7h-23.6v-78.8h23v2.8h85v-95h67.9v49.4h22.8v47.8h-83.9l.6 193h44.3v9.5zm127.3 4.7h-81.3v-14.4l81.3-1.1z" fill="#28204a"/><g stroke="#60558f" stroke-miterlimit="10"><path d="m251.021 463.985v-12.9h-13v12.9zm93.293-65.729v-12.9h-13v12.9zm91.14-29.868v-12.9h-13v12.9zm-318.825 252.753v-14.4h-18v14.4zm-11.328-14.924v-6.6h-6.7v6.6zm233.865-51.921v-14.4h-18v14.4zm-37.339 48.72v-14.4h-15.6v14.4z" stroke-width="2"/><path d="m307.317 594.085v-5.5h-5.5v5.5zm297.919-195.808v-68.8h-24.8v68.8zm112.56 77.065v-18h-12.4v18zm-39.526 5.341v-6.8h-5.1v6.8zm5.969.03v-6.8h-5.1v6.8zm211.856 168.091v-13.7h-11.8v13.7zm-.073-13.98v-6.8h-5.9v6.8zm-67.704-69.293v-13.6h-12.4v13.6zm-178.851 76.176v-13.3h-12.4v13.3zm-12.402-6.736v-6.6h-9.2v6.6zm57.432 30.298v-7.6h-11.8v7.6zm-45.079-16.193v-6.6h-6.2v6.6zm-149.321 39.813v-6.6h-6.2v6.6zm34.345 89.091v-13.3h-19.6v13.3zm27.41 14.677v-27.9h-27.1v27.9zm122.585-.097v-18.6h-24.7v18.6z" stroke-width="2"/><path d="m659.842 792.555v-18.6h-15.3v18.6zm-125.431-.306v-13.3h-19.6v13.3zm43.608-14.245v-13.3h-15.2v13.3zm81.662-4.658v-13.3h-15.2v13.3zm20.381-.027v-9.6h-20.2v9.6z" stroke-width="2"/><path d="m684.397 773.283v-9.6h-5v9.6zm-39.917 19.363v-24.9h-24.1v24.9zm-66.393-.373v-13.3h-15.2v13.3zm-11.169-115.935v-69.7h-22.4v69.7z" stroke-width="2"/><path d="m135.7 212.7-15.7 30.1v69.4h7.9l36.8 28.9v34.4l-36.8 29.9h-29.2v216.1h83.6v-8.3h56.3v22.7h33.4v-15.4h70.5v16.4h37.2v82.6h67v73.5h133.2v8.3h-130.3v37.2h99.4v118.8h95.6v-122.1h38.4v-33.9h-62.8v-8.3l253.5-1.7v-26.7h2.7v-99.5h-4.4v-16h24.1v-217.6h-55.3v-10h56.1v-177.3h-111.9v-9.9h3.4v-92l-20.9 3.5h-6.4l-13.1-.4-49.4-20.9-7.9-11.3-20.6 7.3s-10.3 10.5-11.5 10.1c-1.1-.4-5.9-2.3-5.9-2.3l-10.4-7.8h-34.3l.1-27.8 13-20.6v-46h-121.1v39.8l18.3 29.1v23.5l-25.2.1-6.6 18.3.1 15.6-22.5 11.7-25.6 17.6-.9 24.3h-51.6l-15.1 8.9h-7.4l-13.4-10.4h-56.1l-7.1-6.4-14.5 7.6-29-38.2-20.7 12.2-.6 32.7zm278 4v-10.7" stroke-width="2"/><path d="m241.9 356.4-.2-24.2h157.6l.1-5.7-10.8-.1v-45.3h-170.2v75.3h32.8v40.2h-46.6v29.7h84.2v-29.7h-19.9v-45.5h164.4v4.4h-164.4m204.9 134.4h-99.5v-25h-136.3v71.5l208.1.5v51h30.8v94.4h66.6v-76.1h-38.8v-31.1h-29.8zm182.8-34.2h83.9v-47.8h-22.8v-49.4h-67.8v95h-85v-2.8h-23v78.9h23.6v27.7h84.9v101h51v-9.6h-44.3z" stroke-width="2"/><path d="m758.1 565.9h-68.4v50.5h68.4zm-10.7 82.6v14.5h81.3v-15.6z" stroke-width="2"/><path d="m896.1 591.2h-123v25.2h-15.7 93.4m44-74.5h-67.5v24h-78.4m124-24v-84.8h-32.5v-35.6m-191.4-187v71.9h9v-61.4h96.2v-10.5zm139.4-25.6h-112.4" stroke-width="2"/><path d="m896.8 263.7h-239.3"/><path d="m407.6 619h39v79.7h-5.6v-71.7h-33.4zm-12.9 2.2h-15.1v29.7m0 13.4h14.2v56.1m92.9-463.5h-47.5m-50.6-50.9v75.1m24.1-7.9h-24.6m62.3-40.7h-11.2v-50.8m168.9-60v58.1m-89.8-59.7v56.6m169.2 136h28.7v42.8m-13.2 0v-43.7m193.8 36.4h-55.7v34.5h-89.7v-36.3m81.4-63.6h-90.8v37.8h90.8z" stroke-width="2"/><path d="m763.3 382.7v-23.2h66.6v23.2m66.9-50.6h-25.8v15.1m-39.8 140.3h-81.3v25.2h81.3zm-205.6 71.2v68.8h24.8m-318.2-423v42h-57.8v-40.8m-52.3 6.7v31.2m-63.6-30.9v30.9m172.7 195.8v-41.1h106.9v25.2l-106.9.4" stroke-width="2"/><path d="m320.3 281.1v51.1m-35.5-25.5h35.5m0 25.5-34.1-11.3h32.3l-33.7 11.3v-51.1" stroke-dasharray="3 3"/><path d="m290.8 281.1 28.4 9.8h-34.4l25.8-9.8m-25.8 25.6 35.5-15.8m0 15.8-35.5-15.8m0 31.5 35.5-15.7m0 15.7-35.5-15.7" stroke-dasharray="3 3"/><path d="m737.5 408.2h56.8v47.3h-52.8" stroke-width="2"/><path d="m741.5 415.5h41.4v7.4h11.4m-52.8 23.9h41.4v-7.4h11.4m-137.7 41.5h15.8v-25.2m11.8 18.2v-18.2m192.7-42.804h8.1v-6.8h-8.1zm15.847-7.706h4.1v-6.8h-4.1z" stroke-width="2"/><path d="m884.984 421.498h11.8v-15.4h-11.8zm-31.271-127.344h15v-15h-15zm-55.35 39.14h20.5v-12.4h-20.5zm-23.114-124.642h13.1v-14h-13.1zm8.905-14.014h4.2v-7h-4.2z" stroke-width="2"/><path d="m876.9 420.847h8.1v-6.8h-8.1zm-538.9-182.147h-5.6m-57.9 0h-5.6m144.3-27.3h-25.1m-50.1 0h-5.6m127.9 132h-6.9v6.8h6.9zm-116.7-11.2h-6.9v6.8h6.9zm106.8-78.7h-11.2v3.4h11.2zm142.5 61h-14.8v14.6h14.8zm57.3 125h-14.8v14.6h14.8zm-14.8 0h-14.8v14.6h14.8zm-72.7-152.5h-25.7v41.4h25.7zm15.4 27.5h-15.4m-38.5 14.7h56.3m-56.3 25.3h56.3m-43.5-40h-12.8m13.4-6.8h-12.8m-29.7 141.7h-18.2m142.8 249.3v103.3m-39.7-102.4v102.4m-443.6-290.5 18.3-18.1 49.9 51.8-19.2 16.3z" stroke-width="2"/><path d="m377.9 537.9v50m68.2-22.4h-205.4v22.5h216.5"/><path d="m534.5 788.3h28.4m321.3-146.4-10.2 7.3m-250.5-527.3h-13.3v12.2h13.3zm-105.1-1.7h-17.2v10.3h17.2z" stroke-width="2"/><path d="m489.6 130.6h11.6v-10.4l-8.6-.1zm147.1-2.6h-13.3v6.1h13.3zm-5-6.2v6.2m5-6.2v6.2" stroke-width="2"/></g><path d="m223.5 191c3.4.8 6.6-2.2 8.1-5.1.8-1.5 1.2-3.2.6-4.9-.3-.8-.7-1.4-1.2-2s-1-1.1-1.2-1.8c-.4-1.2-2.3-.7-1.9.5.4 1.3 1.4 2.1 2.1 3.2s.6 2.4.1 3.6-1.4 2.4-2.4 3.3-2.3 1.6-3.6 1.3-1.9 1.6-.6 1.9zm11.8-17.9c.4 1.6 1.3 3 2.6 3.9.7.5 1.5.8 2.3 1.1.9.3 1.7.6 2.6.7 1.7.2 3.4 0 4.6-1.3 1-1.1 1.6-2.7 1-4.2-.2-.5-.7-.8-1.2-.7s-.9.7-.7 1.2c.4.9 0 1.8-.7 2.4-.9.8-2.2.7-3.3.5-1.2-.3-2.6-.7-3.6-1.4-.9-.7-1.5-1.7-1.7-2.8s-2.1-.6-1.9.6z" fill="#60558f"/><path d="m234.6 173.8c-.2.8-.4 1.6-.7 2.3-.1.2-.1.4-.2.6 0 0-.1.3 0 .1 0 .1-.1.2-.1.3-.2.3-.3.6-.5 1 0 .1-.1.1-.1.2l-.1.1c-.1.1-.2.3-.4.4l-.2.2c.2-.1 0 0-.1 0s-.1.1-.2.1c-.1.1-.2.1 0 0-.1 0-.3.1-.4.1h-.1.1l-.2-.1h.1s-.1 0-.1-.1l-.1-.1c.1 0 .1 0 0 0-.1-.1-.2-.1-.3-.2-.4-.3-1-.1-1.3.3s-.2.9.1 1.3c.6.7 1.7.9 2.6.7s1.7-.9 2.2-1.6c1.1-1.5 1.6-3.4 2.1-5.1.1-.5-.2-1.1-.7-1.2-.7-.1-1.2.1-1.4.7z" fill="#60558f"/><path d="m236.3 176.6c-4.4 7.2-8.3 14.6-11.7 22.3-1 2.2-1.9 4.4-2.8 6.6-.2.5.2 1.1.7 1.2.6.2 1-.2 1.2-.7 3.1-7.7 6.7-15.1 10.7-22.4 1.1-2 2.3-4.1 3.5-6.1.7-.9-1-1.9-1.6-.9zm-114.6 64.3c1.5 1.3 2.2 3.2 2.1 5.1-.1.8-.4 1.9-.9 2.5-.3.3-.8.2-1.2.2-.7 0-1.5 0-1.9.6-.6.7 0 1.9.9 1.6.3-.1.5-.2.9-.2h.9c.8-.1 1.4-.4 1.9-.9.9-1 1.3-2.3 1.4-3.6.3-2.5-.7-5.1-2.6-6.6-.4-.3-1-.4-1.4 0-.4.2-.5.9-.1 1.3zm540-111.1c1.2 1.9 2.7 3.7 4.6 4.9s4.4 1.7 6.6 1c2-.6 3.6-2.4 4-4.4.4-2.3-.9-4.1-2.2-5.8-.6-.8-1.2-1.6-1.4-2.6-.2-.7-.2-1.7.5-2.1 1.1-.7.1-2.4-1-1.7-1.5 1-1.8 2.9-1.3 4.6.5 1.9 2 3.1 3 4.7.5.7.8 1.6.6 2.4-.1.9-.7 1.6-1.3 2.2-1.5 1.3-3.6 1.2-5.3.5-2.2-.9-3.7-2.8-5-4.8-.8-1-2.5 0-1.8 1.1z" fill="#60558f"/><path d="m673.8 128.1c1.4.8 3.1 1.6 4.8 1.4 1.6-.2 2.9-1.2 3.5-2.7.5-1.3.5-2.8.3-4.1-.1-.9-.2-1.8-.4-2.7-.1-.9-.2-2-.4-2.8-.3-1-1.8-.8-1.9.3 0 .8.2 1.7.3 2.5l.3 2.4c.1 1 .2 2.2 0 3.2s-.8 1.8-1.9 2c-1.3.1-2.6-.6-3.7-1.2s-2.1 1.1-.9 1.7z" fill="#60558f"/><path d="m679.1 127.3c1.4 3.3 4.4 5.6 7.9 6.2 3.7.7 7.4-.6 10.3-2.9 1.7-1.3 3.1-3 4.1-4.9.6-1.1-1.1-2.1-1.7-1-1.6 2.8-4 5.2-7 6.3-2.8 1.1-5.9.8-8.5-.7-1.4-.8-2.5-2.1-3.1-3.5-.2-.5-.7-.8-1.2-.7-.6.1-1 .7-.8 1.2z" fill="#60558f"/><path d="m701.1 127.9c4.8 2 9.2 4.9 13 8.4 1.9 1.7 3.4 3.7 5.3 5.4 1.7 1.6 4.3 3.5 6.7 2.6 2.3-.9 3.1-3.5 3.5-5.7.1-.5-.1-1.1-.7-1.2-.5-.1-1.1.2-1.2.7-.2 1.5-.6 3.8-2.2 4.4-1.1.4-2.2-.2-3.1-.8s-1.8-1.4-2.5-2.3c-1.6-1.8-3.2-3.5-5.1-5.1-1.8-1.6-3.8-3.1-5.9-4.4-2.3-1.5-4.8-2.7-7.3-3.8-.5-.2-1.1.2-1.2.7s.2.9.7 1.1z" fill="#60558f"/><path d="m726.2 143.1c0 3.7.9 8.3 4.7 9.9 1.5.7 3.3.9 4.9.2.8-.3 1.5-.8 2-1.5.7-.8.9-1.9 1.4-2.8 1-2.1 3-3.5 4.8-4.8.4-.3.6-.9.4-1.4-.2-.4-.9-.7-1.4-.4-1.5 1.1-3.1 2.2-4.2 3.7-.6.7-1.1 1.5-1.5 2.4-.3.8-.5 1.6-1.1 2.2-.9.9-2.3 1.1-3.5.8-1.5-.4-2.6-1.4-3.3-2.7-.9-1.7-1.1-3.8-1.1-5.7-.2-1.1-2.1-1.1-2.1.1zm19.7 4c2.3.9 4.1 2.8 5.6 4.7 1.6 1.9 3.1 4 5.1 5.6 2.2 1.7 4.8 2.8 7.6 2.5 3-.3 5.8-1.9 7.4-4.6 1.7-2.9 1.8-6.6.3-9.7-.6-1.1-2.3-.1-1.7 1 1.2 2.3 1.1 5.2-.2 7.5s-3.8 3.7-6.3 3.8c-5.1.3-8.1-4.4-11-7.9-1.7-2.1-3.7-3.9-6.2-4.9-.5-.2-1.1.2-1.2.7-.2.6.1 1.1.6 1.3z" fill="#60558f"/><path d="m770.4 153.9c-.4 2.2.5 4.1 1.8 5.7.6.8 1.3 1.5 2.1 2.2s1.6 1.5 2.6 2c4.2 2.4 8.4-.8 11.4-3.6.9-.9-.5-2.3-1.4-1.4-2.3 2.1-5.7 5.1-9 3.3-1.5-.8-2.8-2.2-3.9-3.5-1-1.2-2-2.7-1.7-4.3.1-.5-.1-1.1-.7-1.2-.5 0-1.1.3-1.2.8zm-149.6 603.4h4.7c.4 0 .9-.1 1.2.1.5.2.6 1.1.8 1.6.3.8.7 1.4 1.2 2.1.9 1.1 2.4 2 3.8 2.2.2 0 .4.1.6.1.4 0 .1.1.1-.1-.1.4 0 .8 0 1.2v3.2c0 1.3 2 1.3 2 0v-3.4c0-1 .1-2-.9-2.6-.7-.4-1.6-.2-2.4-.5-.7-.3-1.4-.8-1.8-1.4-1-1.3-.8-3.4-2.6-4.1-1-.4-2.2-.2-3.2-.2-1.1 0-2.3 0-3.4-.1-1.4-.1-1.4 1.8-.1 1.9z" fill="#60558f"/><path d="m414.3 229.1v20m-1 12.7v55.4l43.5-33.9h61.6v67.2h-24.2l1 118.6h-15.1l-1-118h-28l-.2 4.4h25.2l.4 11.6 1.5 185.5h22l-1-197.1h25.2v-74.4h-110.9" stroke="#60558f" stroke-miterlimit="10" stroke-width="2"/><path d="m872 531.4c-2.1-.5-4.4-.1-6.2 1.3-.9.7-1.7 1.5-2.1 2.5-.3.7-.4 1.5.1 2.1.4.4.9.6 1.3.9.5.4.9.8 1.1 1.4.2.5.2.8 0 1.3s.2 1.1.7 1.2c.6.2 1-.2 1.2-.7.6-1.4 0-2.9-1-4-.4-.5-1-.9-1.5-1.3-.1 0-.3-.3-.4-.2.4 0-.1.7.1.3.1-.2.3-.5.4-.7 1.2-1.8 3.6-2.7 5.7-2.1 1.3.2 1.9-1.7.6-2zm-46.6 14.3c-.2.3-.4.5-.6.8 0 .1-.1.1-.1.2 0 0-.1.2-.1.1-.1.1-.2.3-.3.4-.4.5-.8 1-1.3 1.4s-.9.9-1.4 1.3c-.2.2-.5.4-.8.6 0 0-.1.1 0 0-.1.1-.1.1-.2.1s-.1.1-.2.1l-.2.2c-.1.1-.1.1 0 0-.4.3-.7.9-.4 1.3s.9.7 1.3.4c2.3-1.6 4.3-3.7 5.9-6 .3-.4.1-1.1-.4-1.3-.3-.2-.9-.1-1.2.4zm-9.5 6.6c-1-1.3-3-1-4.1.1-.6.7-.9 1.7-.9 2.6 0 .5.1.9.2 1.4 0 .1 0 .4.1.4 0 0 .5-.2 0-.2-1.7 0-2.8 1.1-3.3 2.7-.3.8-.3 1.7-.4 2.5-.1 1.1-.1 2.2-.1 3.3 0 1.3 2 1.3 2 0 0-1.6 0-3.4.3-4.9.1-.5.3-1 .6-1.3.4-.4.9-.2 1.4-.3.8-.1 1.3-.7 1.4-1.5.1-.7-.2-1.4-.2-2.1 0-.5.1-1.1.6-1.4.4-.2.7-.2 1 .1.3.4 1.1.3 1.4 0 .4-.4.4-.9 0-1.4z" fill="#60558f"/><path d="m717.4 249.438v4.738h1v9.476h-1v4.738h1v9.477h-1v4.738h1v9.476h-1v4.738h1v9.476h-1v4.738h1v9.477h-1v4.738h1v9.476h-1v4.738h1v3.738h3.984v1h4.983v-1h9.967v1h4.983v-1h9.967v1h4.983v-1h9.967v1h4.983v-1h9.967v1h4.983v-1h9.967v1h4.983v-1h9.967v1h4.983v-1h9.967v1h4.983v-1h9.967v1h4.983v-1h9.967v1h4.983v-1h9.967v1h4.983v-1h9.967v1h4.983v-1h3.983v-3.738h1v-4.738h-1v-9.476h1v-4.738h-1v-9.477h1v-4.738h-1v-9.476h1v-4.738h-1v-9.476h1v-4.738h-1v-9.477h1v-4.738h-1v-9.476h1v-4.738h-1v-3.738h-3.983v-1h-4.983v1h-9.967v-1h-4.983v1h-9.967v-1h-4.983v1h-9.967v-1h-4.983v1h-9.967v-1h-4.983v1h-9.967v-1h-4.983v1h-9.967v-1h-4.983v1h-9.967v-1h-4.983v1h-9.967v-1h-4.983v1h-9.967v-1h-4.983v1h-9.967v-1h-4.983v1h-9.967v-1h-4.983v1h-3.984v3.738zm114.8 72.062h1v-5.2h-1v-4.2h1v-8.4h-1v-4.2h1v-8.4h-1v-4.2h1v-5.2h-6.1v1h-5.1v-1h-10.2v1h-5.1v-1h-10.2v1h-5.1v-1h-10.2v1h-5.1v-1h-10.2v1h-5.1v-1h-10.2v1h-5.1v-1h-6.1v5.2h1v4.2h-1v8.4h1v4.2h-1v8.4h1v4.2h-1v5.2h6.1v-1h5.1v1h10.2v-1h5.1v1h10.2v-1h5.1v1h10.2v-1h5.1v1h10.2v-1h5.1v1h10.2v-1h5.1v1zm-540.968 138.147v-5.195h-1v-10.39h1v-5.196h-1v-10.39h1v-5.195h-1v-10.391h1v-5.195h-1v-10.39h1v-5.196h-1v-10.39h1v-5.195h-1v-10.391h1v-5.195h-1v-4.195h-3.877v-1h-4.878v1h-9.756v-1h-4.877v1h-9.756v-1h-4.878v1h-9.755v-1h-4.878v1h-9.756v-1h-4.877v1h-9.756v-1h-4.878v1h-3.878v4.195h-1v5.195h1v10.391h-1v5.195h1v10.39h-1v5.196h1v10.39h-1v5.195h1v10.391h-1v5.195h1v10.39h-1v5.196h1v10.39h-1v5.195h1v4.196h3.878v1h4.878v-1h9.756v1h4.877v-1h9.756v1h4.878v-1h9.755v1h4.878v-1h9.756v1h4.877v-1h9.756v1h4.878v-1h3.877v-4.196z" fill="#535895" opacity=".6" stroke="#fff" stroke-dasharray="10 5" stroke-width="2"/><path d="m884.535 309.243h-10.799l-2.26 6.491h-5.036l10.532-27.879h4.346l10.55 27.879h-5.055zm-9.44-3.906h8.08l-4.04-11.565zm-612.323 151.735v-27.879h9.555c3.153 0 5.553.632 7.199 1.896 1.647 1.263 2.471 3.146 2.471 5.648 0 1.277-.345 2.426-1.034 3.447-.69 1.021-1.698 1.812-3.026 2.374 1.507.409 2.668 1.181 3.485 2.317.83 1.123 1.245 2.476 1.245 4.059 0 2.617-.843 4.628-2.528 6.032-1.672 1.404-4.072 2.106-7.199 2.106zm4.845-12.58v8.712h5.38c1.519 0 2.706-.376 3.562-1.13.855-.753 1.282-1.799 1.282-3.14 0-2.897-1.48-4.378-4.442-4.442zm0-3.561h4.748c1.507 0 2.681-.339 3.523-1.015.856-.69 1.283-1.66 1.283-2.911 0-1.378-.395-2.374-1.187-2.987-.778-.612-1.998-.919-3.657-.919h-4.71z" fill="#fff"/></g></g></svg>