<svg fill="none" height="708" viewBox="0 0 708 708" width="708" xmlns="http://www.w3.org/2000/svg" xmlns:xlink="http://www.w3.org/1999/xlink"><linearGradient id="a" gradientUnits="userSpaceOnUse" x1="356" x2="356" y1="118.812" y2="369.615"><stop offset=".283288" stop-color="#24e8ad" stop-opacity="0"/><stop offset="1" stop-color="#24e8ad"/></linearGradient><linearGradient id="b" gradientUnits="userSpaceOnUse" x1="305.901" x2="305.901" y1="346.888" y2="594.932"><stop offset="0" stop-color="#ff5859"/><stop offset="1" stop-color="#ff5859" stop-opacity="0"/></linearGradient><clipPath id="c"><path d="m0 0h708v708h-708z"/></clipPath><mask id="d" height="136" maskUnits="userSpaceOnUse" width="88" x="613" y="175"><path d="m613 212.108c0-2.269 1.839-4.108 4.108-4.108h20.784c2.269 0 4.108-1.839 4.108-4.108v-24.784c0-2.269 1.839-4.108 4.108-4.108h50.784c2.269 0 4.108 1.839 4.108 4.108v19.392c0 .828-.672 1.5-1.5 1.5s-1.5.672-1.5 1.5v85c0 .828.672 1.5 1.5 1.5s1.5.672 1.5 1.5v17.392c0 2.269-1.839 4.108-4.108 4.108h-20.263c-1.046 0-2.053-.399-2.815-1.117l-31.628-29.766c-.762-.718-1.769-1.117-2.815-1.117h-22.263c-2.269 0-4.108-1.839-4.108-4.108z" fill="#c4c4c4"/></mask><mask id="e" height="50" maskUnits="userSpaceOnUse" width="86" x="82" y="208"><rect fill="#c4c4c4" height="50" rx="4.1083" width="86" x="82" y="208"/></mask><g clip-path="url(#c)"><g fill="#202b43"><path d="m512 351h30v24h-30z"/><path d="m313 34h58v122l-18 18v39h-40v-57z"/><path d="m186 174h127v29h-127z"/><path d="m268 203h21v52h-21z"/><path d="m227 240h41v15h-41z"/><path d="m262 316h40v48h-40z"/><path d="m302 340h6v24h-6z"/><path d="m250 340h12v24h-12z"/><path d="m206 275h44v115h-44z"/><path d="m227 255h23v20h-23z"/><path d="m203 275h3v40h-3z"/><path clip-rule="evenodd" d="m11 165h45v43h122v67h25v66h-46v-15h-146zm115 93h-58v28h58z" fill-rule="evenodd"/><path d="m101 136h62v35h-62z"/><path d="m125 171h20v37h-20z"/><path d="m163 136h23v23h-23z"/><path d="m186 118h31v56h-31z"/><path d="m530 92h88v41h-88z"/><path d="m524 92h6v25h-6z"/><path d="m478 92h46v64h-46z"/><path d="m428 156h18v13h-18z"/><path d="m371 132h107v24h-107z"/><path d="m519 211h3v18h-3z"/><path d="m612 389h28v35h-28z"/><path d="m607 332h33v57h-33z"/><path d="m542 331h47v25h18v33h-7l-24 24h-34z"/><path d="m448 281h57v22l-9 17v31h16v48h-46l-18-18z"/><path d="m479 278h14v3h-14z"/><path d="m429 258h64v20h-64z"/><path d="m428 169h91v73h-26v16h-39v-41h-26z"/><path clip-rule="evenodd" d="m542 203h-20v26l9 19v54h34v29h24v-52h52l34 32h26v-23h-3v-88h3v-25h-43v-25h-116zm100-35h-50v40h50z" fill-rule="evenodd"/><path d="m568 133h19v6h-19z"/><path d="m563 139h28v11h-28z"/><path d="m45 326h23v45h-23z"/><path d="m308 375h33v26h-33z"/><path d="m308 322h58v53h-58z"/><path d="m343 319h15v3h-15z"/><path d="m326 278h64v41h-64z"/><path d="m390 300h12v19h-12z"/><path d="m402 258h27v61h-27z"/><path d="m128 424h23v13h-23z"/><path d="m35 371h120v53h-120z"/><path d="m35 424h52v24h-52z"/><path d="m180 497h12v21h-12z"/><path d="m192 439h35v79h-35z"/><path d="m227 459h22v24h-22z"/><path d="m249 435h40v73h-40z"/><path d="m289 459h5v24h-5z"/><path d="m597 441h3v14h-3z"/><path d="m551 436h46v24h-46z"/><path d="m551 460h23v10h-23z"/><path d="m425 470h149v24h-149z"/><path d="m425 413h18v57h-18z"/><path d="m363 436h62v23h-62z"/><path d="m293 401h70v100h-70z"/><path d="m501 505h140v37h-140z"/><path d="m641 464h-41v7h-11v34h52z"/><path d="m600 424h75v40h-75z"/><path d="m273 570h13v25h-13z"/><path d="m286 570h91v113h-30v-1h-19v-2h-29v-1h-16v-74h3z"/><path d="m362 550h15v20h-15z"/><path d="m222 570h51v31h-51z"/><path d="m110 536h107v29l5 5v31h-51v-19h-61z"/><path d="m110 436h70v100h-70z"/><path d="m377 567h69v31h-69z"/><path d="m446 505h55v93h-55z"/></g><path d="m460 505h24v13h-24z" fill="#273552"/><path d="m629 464h12v20h-12z" fill="#273552"/><path d="m635 495h6v28h-6z" fill="#273552"/><path d="m629 534h12v8h-12z" fill="#273552"/><path d="m656 232h12v24h-12z" fill="#273552"/><path d="m630 208h12v12h-12z" fill="#273552"/><path d="m542 244h12v12h-12z" fill="#273552"/><path d="m541 203h1v99h-1z" fill="#182338"/><path d="m454 217h12v12h-12z" fill="#273552"/><path d="m454 229h11v6h-11z" fill="#273552"/><path d="m448 313h7v6h-7z" fill="#273552"/><path d="m448 319h15v12h-15z" fill="#273552"/><path d="m429 258h1v21h-1z" fill="#182338"/><path d="m421 300h8v6h-8z" fill="#273552"/><path d="m420 306h9v13h-9z" fill="#273552"/><path d="m401 300h1v19h-1z" fill="#182338"/><path d="m341 425h22v11h-22z" fill="#273552"/><path d="m304 489h-9v2h-1v8h1v2h9v-2h1v-8h-1z" fill="#273552"/><path d="m310 494h-4v1h-1v5h1v1h4v-1h1v-5h-1z" fill="#273552"/><path d="m276 435h13v13h-13z" fill="#273552"/><path d="m192 439h6v58h-6z" fill="#273552"/><path d="m110 436h19v42h-19z" fill="#273552"/><path d="m129 470h5v8h-5z" fill="#273552"/><path d="m35 436h12v12h-12z" fill="#273552"/><path d="m47 445h16v3h-16z" fill="#273552"/><path d="m35 432h4v4h-4z" fill="#273552"/><path d="m110 371h13v13h-13z" fill="#273552"/><path d="m128 371h-4v1h-1v5h1v1h4v-1h1v-5h-1z" fill="#273552"/><path d="m11 314h24v12h-24z" fill="#273552"/><path d="m11 237h31v13h-31z" fill="#273552"/><path d="m45 165h12v12h-12z" fill="#273552"/><path d="m50 177h7v6h-7z" fill="#273552"/><path d="m93 246h11v12h-11z" fill="#273552"/><path d="m157 233h11v10h-11z" fill="#273552"/><path d="m186 191h12v11h-12z" fill="#273552"/><path d="m239 306h11v13h-11z" fill="#273552"/><path d="m574 436h1v23h-1z" fill="#182338"/><path clip-rule="evenodd" d="m168 208h1v88h10v-9h1 23 1v1 27h-1v-27h-23v8 1h-1-1v29h-1-21v-1h21v-28h-8-1z" fill="#182338" fill-rule="evenodd"/><path d="m562 331h-1v17h-19v1h20z" fill="#182338"/><path d="m495 376h17v1h-17z" fill="#182338"/><path d="m110 570h22v1h5v1h6v1h6v1h6v-3h16v3 8h-61z" fill="#273552"/><path clip-rule="evenodd" d="m371 34h-58v122 18h-96v-56h-31v18h-23-62v35h24v37h-69v-43h-45v161h34v7h23v-7h89v15h46v-26h3v75h44v-26h12 40 6v11h58v-53h-8v-3h32 12 27v-41h50v3h-31v39h48l9-17v-22h-12v-3-20-16h26v-13h3l9 19v54h34v29h24v-52h52l34 32h26v-23h-3v-88h3v-25h-43v-25h-67v-11h-4v-6h31v-41h-88-6-46v40h-107zm31 266v-42h27 25v-41h-26v-48-13h-57l-18 18v39h-40v-10h-24v52h-21-18v20 65h12v-24h40v24h6v-18h35v-3h-17v-41h64v22zm166-167h-38v-16h-6v39h-46-32v13h73v42h3v-8h20v-53h21v-11h5zm-382 26v15 29h82v37h-41v15 20h-21-3-25v-67h-33v-37h18v-12zm-60 99h-58v28h58z" fill="url(#a)" fill-rule="evenodd" opacity=".15"/><path clip-rule="evenodd" d="m443 413h-18v57 24h149v-24-10h23v-5h3v9 7h-11v34h-88-55v62h-69v-17h-15v20h-76-13-51l-5-5v-29h-37v-18h12 35v-35h12v-24h-12v-20h-35v58h-12v-18h-70v57 46h61v19h51 51v-6h13v10h-3v74h16v1h29v2h19v1h30v-85h69 55v-56h140v-37-41h2l-32-40h-11v17h-3v-5h-46v24 10h-108z" fill="url(#b)" fill-rule="evenodd" opacity=".15"/><path d="m613 212.108c0-2.269 1.839-4.108 4.108-4.108h20.784c2.269 0 4.108-1.839 4.108-4.108v-24.784c0-2.269 1.839-4.108 4.108-4.108h50.784c2.269 0 4.108 1.839 4.108 4.108v19.392c0 .828-.672 1.5-1.5 1.5s-1.5.672-1.5 1.5v85c0 .828.672 1.5 1.5 1.5s1.5.672 1.5 1.5v17.392c0 2.269-1.839 4.108-4.108 4.108h-20.263c-1.046 0-2.053-.399-2.815-1.117l-31.628-29.766c-.762-.718-1.769-1.117-2.815-1.117h-22.263c-2.269 0-4.108-1.839-4.108-4.108z" style="opacity:.5;fill:#4d5f83;fill-opacity:.15;stroke:#4d5f83;stroke-width:1.64332;stroke-miterlimit:16"/><g fill="#4d5f83" mask="url(#d)" opacity=".15"><path d="m0 0h182.241v3.70032h-182.241z" transform="matrix(.703677 -.703134 .703677 .703134 647.301 358.814)"/><path d="m0 0h182.241v3.70032h-182.241z" transform="matrix(.703676 -.703134 .703676 .703134 642.094 353.611)"/><path d="m0 0h182.241v3.70032h-182.241z" transform="matrix(.703676 -.703134 .703676 .703134 636.886 348.406)"/><path d="m0 0h182.241v3.70032h-182.241z" transform="matrix(.703676 -.703134 .703676 .703134 631.678 343.203)"/><path d="m0 0h182.241v3.70032h-182.241z" transform="matrix(.703676 -.703134 .703676 .703134 626.471 337.999)"/><path d="m0 0h182.241v3.70032h-182.241z" transform="matrix(.703676 -.703134 .703676 .703134 621.263 332.796)"/><path d="m0 0h182.241v3.70032h-182.241z" transform="matrix(.703676 -.703134 .703676 .703134 616.055 327.592)"/><path d="m0 0h182.241v3.70032h-182.241z" transform="matrix(.703676 -.703134 .703676 .703134 610.848 322.389)"/><path d="m0 0h182.241v3.70032h-182.241z" transform="matrix(.703676 -.703134 .703676 .703134 605.64 317.186)"/><path d="m0 0h182.241v3.70032h-182.241z" transform="matrix(.703676 -.703134 .703676 .703134 600.433 311.982)"/><path d="m0 0h182.241v3.70032h-182.241z" transform="matrix(.703676 -.703134 .703676 .703134 595.225 306.778)"/><path d="m0 0h182.241v3.70032h-182.241z" transform="matrix(.703676 -.703134 .703676 .703134 590.017 301.575)"/><path d="m0 0h182.241v3.70032h-182.241z" transform="matrix(.703676 -.703134 .703676 .703134 584.809 296.371)"/><path d="m0 0h182.241v3.70032h-182.241z" transform="matrix(.703677 -.703134 .703677 .703134 579.602 291.167)"/><path d="m0 0h182.241v3.70032h-182.241z" transform="matrix(.703677 -.703134 .703677 .703134 574.395 285.963)"/><path d="m0 0h182.241v3.70032h-182.241z" transform="matrix(.703676 -.703134 .703676 .703134 569.186 280.759)"/><path d="m0 0h182.241v3.70032h-182.241z" transform="matrix(.703676 -.703134 .703676 .703134 563.979 275.556)"/><path d="m0 0h182.241v3.70032h-182.241z" transform="matrix(.703676 -.703134 .703676 .703134 558.771 270.353)"/><path d="m0 0h182.241v3.70032h-182.241z" transform="matrix(.703676 -.703134 .703676 .703134 553.564 265.149)"/><path d="m0 0h182.241v3.70032h-182.241z" transform="matrix(.703676 -.703134 .703676 .703134 548.356 259.945)"/><path d="m0 0h182.241v3.70032h-182.241z" transform="matrix(.703676 -.703134 .703676 .703134 543.147 254.742)"/></g><path d="m660.311 248-.657-1.89h-4.388l-.657 1.89h-2.202l4.157-11.503h1.89l4.141 11.503zm-2.859-8.217-1.561 4.487h3.138l-1.544-4.487z" fill="#e5ebef"/><rect height="50" rx="4.1083" style="opacity:.5;fill:#4d5f83;fill-opacity:.15;stroke:#4d5f83;stroke-width:1.64332;stroke-miterlimit:16" width="86" x="82" y="208"/><g fill="#4d5f83" mask="url(#e)" opacity=".15"><path d="m0 0h182.241v3.70032h-182.241z" transform="matrix(.703677 -.703134 .703677 .703134 114.28 367.967)"/><path d="m0 0h182.241v3.70032h-182.241z" transform="matrix(.703676 -.703134 .703676 .703134 109.073 362.763)"/><path d="m0 0h182.241v3.70032h-182.241z" transform="matrix(.703676 -.703134 .703676 .703134 103.865 357.559)"/><path d="m0 0h182.241v3.70032h-182.241z" transform="matrix(.703676 -.703134 .703676 .703134 98.6575 352.356)"/><path d="m0 0h182.241v3.70032h-182.241z" transform="matrix(.703676 -.703134 .703676 .703134 93.45 347.152)"/><path d="m0 0h182.241v3.70032h-182.241z" transform="matrix(.703676 -.703134 .703676 .703134 88.2424 341.948)"/><path d="m0 0h182.241v3.70032h-182.241z" transform="matrix(.703676 -.703134 .703676 .703134 83.0344 336.745)"/><path d="m0 0h182.241v3.70032h-182.241z" transform="matrix(.703676 -.703134 .703676 .703134 77.8271 331.541)"/><path d="m0 0h182.241v3.70032h-182.241z" transform="matrix(.703676 -.703134 .703676 .703134 72.6194 326.338)"/><path d="m0 0h182.241v3.70032h-182.241z" transform="matrix(.703676 -.703134 .703676 .703134 67.4119 321.134)"/><path d="m0 0h182.241v3.70032h-182.241z" transform="matrix(.703676 -.703134 .703676 .703134 62.2039 315.93)"/><path d="m0 0h182.241v3.70032h-182.241z" transform="matrix(.703676 -.703134 .703676 .703134 56.9963 310.727)"/><path d="m0 0h182.241v3.70032h-182.241z" transform="matrix(.703676 -.703134 .703676 .703134 51.7883 305.523)"/><path d="m0 0h182.241v3.70032h-182.241z" transform="matrix(.703676 -.703134 .703676 .703134 46.5808 300.319)"/><path d="m0 0h182.241v3.70032h-182.241z" transform="matrix(.703676 -.703134 .703676 .703134 41.3735 295.115)"/><path d="m0 0h182.241v3.70032h-182.241z" transform="matrix(.703676 -.703134 .703676 .703134 36.1653 289.912)"/><path d="m0 0h182.241v3.70032h-182.241z" transform="matrix(.703676 -.703134 .703676 .703134 30.9583 284.708)"/><path d="m0 0h182.241v3.70032h-182.241z" transform="matrix(.703676 -.703134 .703676 .703134 25.7498 279.505)"/><path d="m0 0h182.241v3.70032h-182.241z" transform="matrix(.703676 -.703134 .703676 .703134 20.5432 274.301)"/><path d="m0 0h182.241v3.70032h-182.241z" transform="matrix(.703676 -.703134 .703676 .703134 15.3354 269.097)"/><path d="m0 0h182.241v3.70032h-182.241z" transform="matrix(.703676 -.703134 .703676 .703134 10.127 263.894)"/></g><path d="m121.479 238v-11.503h4.88c1.019 0 1.835.301 2.449.904.624.591.937 1.32.937 2.185 0 .964-.417 1.693-1.249 2.186v.016c.493.208.893.543 1.199 1.003.318.449.477.991.477 1.627 0 1.095-.334 1.972-1.003 2.629-.668.635-1.769.953-3.303.953zm2.218-2.054h2.679c1.051 0 1.577-.51 1.577-1.528 0-.472-.142-.833-.427-1.085-.274-.263-.652-.394-1.134-.394h-2.695zm0-4.815h2.383c.449 0 .8-.104 1.052-.312.263-.219.394-.537.394-.953 0-.439-.126-.767-.378-.986-.252-.22-.608-.329-1.068-.329h-2.383z" fill="#e5ebef"/><path d="m308.436 637-.52-1.495h-3.471l-.52 1.495h-1.742l3.289-9.1h1.495l3.276 9.1zm-2.262-6.5-1.235 3.549h2.483l-1.222-3.549zm5.14 4.043v-3.003h-1.066v-1.43h1.105v-1.69h1.599v1.69h1.742v1.43h-1.716v2.847c0 .364.06.62.182.767.121.147.368.221.741.221h.559v1.625h-.715c-.928 0-1.565-.195-1.911-.585-.347-.39-.52-1.014-.52-1.872zm4.9 0v-3.003h-1.066v-1.43h1.105v-1.69h1.599v1.69h1.742v1.43h-1.716v2.847c0 .364.061.62.182.767s.368.221.741.221h.559v1.625h-.715c-.927 0-1.564-.195-1.911-.585s-.52-1.014-.52-1.872zm8.476 2.457v-.663h-.026c-.018.026-.039.061-.065.104-.026.035-.091.1-.195.195s-.221.182-.351.26-.308.147-.533.208c-.226.061-.468.091-.728.091-.832 0-1.456-.195-1.872-.585-.408-.399-.611-.884-.611-1.456 0-.598.177-1.053.533-1.365.355-.312.957-.572 1.807-.78.788-.191 1.282-.342 1.482-.455.199-.113.299-.273.299-.481s-.1-.381-.299-.52c-.191-.139-.481-.208-.871-.208-.46 0-.789.104-.988.312-.2.199-.356.472-.468.819l-1.404-.585c.164-.581.485-1.053.962-1.417.476-.373 1.1-.559 1.872-.559.84 0 1.529.221 2.067.663.537.442.806 1.127.806 2.054v4.368zm-1.703-2.821c-.434.104-.72.23-.858.377-.13.139-.195.299-.195.481 0 .468.338.702 1.014.702.511 0 .892-.095 1.144-.286.26-.199.39-.442.39-.728v-1.196h-.026c-.035.069-.074.126-.117.169-.035.035-.165.1-.39.195-.226.087-.546.182-.962.286zm8.944.039 1.599.416c-.156.823-.494 1.456-1.014 1.898s-1.175.663-1.963.663c-.936 0-1.708-.321-2.314-.962-.598-.641-.897-1.534-.897-2.678 0-1.135.307-2.024.923-2.665.624-.65 1.391-.975 2.301-.975.771 0 1.417.225 1.937.676s.84 1.053.962 1.807l-1.573.299c-.165-.841-.607-1.261-1.326-1.261-.477 0-.858.182-1.144.546-.278.355-.416.88-.416 1.573s.138 1.222.416 1.586c.277.355.658.533 1.144.533.762 0 1.217-.485 1.365-1.456zm2.899 2.782v-9.49h1.69v5.447h.026l2.509-2.847h2.119l-2.483 2.795 2.704 4.095h-1.872l-2.106-3.146h-.026l-.871.988v2.158zm11.696-2.379 1.183 1.04c-.702 1.023-1.651 1.534-2.847 1.534-.962 0-1.747-.329-2.353-.988-.607-.667-.91-1.551-.91-2.652s.299-1.98.897-2.639c.606-.667 1.369-1.001 2.288-1.001.918 0 1.672.334 2.262 1.001.598.659.897 1.538.897 2.639v.507h-4.628c.026.529.169.936.429 1.222.268.277.632.416 1.092.416.39 0 .71-.095.962-.286.26-.199.502-.464.728-.793zm-3.211-1.82h2.99c-.044-.442-.195-.784-.455-1.027-.26-.251-.616-.377-1.066-.377-.416 0-.759.134-1.027.403-.26.269-.408.602-.442 1.001zm5.988 4.199v-6.89h1.599v.728h.026c.13-.26.32-.468.572-.624.26-.156.541-.234.845-.234.216 0 .424.043.624.13l-.26 1.638c-.191-.069-.369-.104-.533-.104-.789 0-1.183.524-1.183 1.573v3.783zm4.253-2.275 1.521-.39c.121.962.637 1.443 1.547 1.443.416 0 .745-.065.988-.195.251-.139.377-.329.377-.572 0-.199-.095-.347-.286-.442-.191-.104-.589-.243-1.196-.416-.165-.043-.29-.078-.377-.104-.797-.225-1.382-.49-1.755-.793-.373-.312-.559-.724-.559-1.235 0-.572.23-1.066.689-1.482.468-.416 1.105-.624 1.911-.624 1.543 0 2.509.676 2.899 2.028l-1.404.429c-.121-.329-.295-.589-.52-.78-.217-.191-.537-.286-.962-.286-.329 0-.594.065-.793.195-.191.121-.286.269-.286.442 0 .191.113.342.338.455.234.104.81.286 1.729.546.806.217 1.352.494 1.638.832.295.329.442.754.442 1.274 0 .555-.243 1.053-.728 1.495-.477.433-1.17.65-2.08.65-.953 0-1.69-.238-2.21-.715-.511-.485-.819-1.07-.923-1.755z" fill="#ff5859"/><path d="m124.489 528v-6.902h2.929c.611 0 1.101.181 1.469.542.374.355.562.792.562 1.312 0 .578-.25 1.015-.75 1.311v.01c.296.125.536.325.72.601.191.27.286.595.286.977 0 .657-.2 1.183-.601 1.577-.401.381-1.062.572-1.982.572zm1.331-1.232h1.607c.632 0 .947-.306.947-.917 0-.283-.085-.5-.256-.651-.165-.158-.391-.237-.681-.237h-1.617zm0-2.889h1.43c.269 0 .48-.063.631-.188.158-.131.237-.322.237-.572 0-.263-.076-.46-.227-.591-.151-.132-.365-.197-.641-.197h-1.43zm7.537 4.121v-6.902h1.331v5.67h2.85v1.232zm6.247-1.42c.211.276.5.414.868.414s.657-.138.868-.414c.21-.282.315-.68.315-1.193s-.108-.907-.325-1.183c-.211-.283-.497-.424-.858-.424-.362 0-.651.138-.868.414-.21.276-.315.674-.315 1.193s.105.917.315 1.193zm2.623.838c-.46.487-1.045.73-1.755.73s-1.295-.243-1.755-.73c-.46-.486-.69-1.163-.69-2.031 0-.854.236-1.528.709-2.021.474-.493 1.052-.74 1.736-.74.683 0 1.262.247 1.735.74s.71 1.167.71 2.021c0 .868-.23 1.545-.69 2.031zm3.011-2.514v.956c0 .316.099.585.296.809.204.217.48.325.828.325.375 0 .664-.134.868-.404.21-.276.315-.677.315-1.203 0-.532-.105-.933-.315-1.203-.204-.269-.493-.404-.868-.404-.348 0-.624.108-.828.325-.197.217-.296.483-.296.799zm-1.282 3.096v-7.198h1.282v2.475h.02c.013-.02.029-.043.049-.069.02-.033.069-.085.148-.158.086-.072.174-.138.266-.197.099-.059.224-.112.375-.158.158-.046.322-.069.493-.069.644 0 1.177.257 1.597.769.428.507.641 1.17.641 1.992 0 .842-.207 1.512-.621 2.012-.408.499-.956.749-1.647.749-.282 0-.539-.053-.769-.158-.23-.112-.387-.22-.473-.325l-.138-.168h-.02v.503zm7.185-3.096v.956c0 .316.098.585.295.809.204.217.48.325.829.325.374 0 .664-.134.867-.404.211-.276.316-.677.316-1.203 0-.532-.105-.933-.316-1.203-.203-.269-.493-.404-.867-.404-.349 0-.625.108-.829.325-.197.217-.295.483-.295.799zm-1.282 3.096v-7.198h1.282v2.475h.019c.014-.02.03-.043.05-.069.019-.033.069-.085.148-.158.085-.072.174-.138.266-.197.098-.059.223-.112.374-.158.158-.046.323-.069.493-.069.645 0 1.177.257 1.598.769.427.507.641 1.17.641 1.992 0 .842-.207 1.512-.622 2.012-.407.499-.956.749-1.646.749-.283 0-.539-.053-.769-.158-.23-.112-.388-.22-.473-.325l-.139-.168h-.019v.503zm6.114 2.218 1.045-2.474-2.09-4.97h1.301l1.351 3.54h.02l1.351-3.54h1.301l-3.007 7.444z" fill="#7986a3"/><path d="m202.726 473v-6.902h2.928c.612 0 1.101.181 1.469.542.375.355.562.792.562 1.312 0 .578-.249 1.015-.749 1.311v.01c.296.125.536.325.72.601.19.27.286.595.286.977 0 .657-.201 1.183-.602 1.577-.401.381-1.061.572-1.982.572zm1.331-1.232h1.607c.631 0 .947-.306.947-.917 0-.283-.086-.5-.257-.651-.164-.158-.391-.237-.68-.237h-1.617zm0-2.889h1.43c.269 0 .48-.063.631-.188.157-.131.236-.322.236-.572 0-.263-.075-.46-.226-.591-.152-.132-.365-.197-.641-.197h-1.43zm7.537 4.121v-6.902h1.331v5.67h2.85v1.232zm5.014 0v-5.226h1.282v5.226zm0-5.985v-1.213h1.282v1.213zm2.658 5.985v-5.226h1.232v.503h.02c.145-.184.342-.338.592-.463.249-.125.512-.188.789-.188.578 0 1.032.175 1.36.523.329.342.493.818.493 1.43v3.421h-1.282v-3.106c0-.361-.069-.631-.207-.808-.138-.184-.374-.276-.71-.276-.315 0-.562.092-.739.276-.178.177-.266.417-.266.719v3.195zm5.816 0v-7.198h1.282v4.132h.019l1.903-2.16h1.607l-1.883 2.12 2.051 3.106h-1.42l-1.597-2.386h-.02l-.66.749v1.637z" fill="#7986a3"/><path d="m303.285 473v-6.902h2.929c.611 0 1.101.181 1.469.542.375.355.562.792.562 1.312 0 .578-.25 1.015-.749 1.311v.01c.295.125.535.325.719.601.191.27.286.595.286.977 0 .657-.2 1.183-.601 1.577-.401.381-1.062.572-1.982.572zm1.332-1.232h1.607c.631 0 .946-.306.946-.917 0-.283-.085-.5-.256-.651-.164-.158-.391-.237-.68-.237h-1.617zm0-2.889h1.429c.27 0 .48-.063.631-.188.158-.131.237-.322.237-.572 0-.263-.076-.46-.227-.591-.151-.132-.365-.197-.641-.197h-1.429zm6.206 2.701c.21.276.499.414.867.414s.658-.138.868-.414c.21-.282.315-.68.315-1.193s-.108-.907-.325-1.183c-.21-.283-.496-.424-.858-.424-.361 0-.651.138-.867.414-.211.276-.316.674-.316 1.193s.105.917.316 1.193zm2.622.838c-.46.487-1.045.73-1.755.73s-1.295-.243-1.755-.73c-.46-.486-.69-1.163-.69-2.031 0-.854.237-1.528.71-2.021s1.052-.74 1.735-.74c.684 0 1.262.247 1.736.74.473.493.709 1.167.709 2.021 0 .868-.23 1.545-.69 2.031zm1.996-1.282v-2.277h-.809v-1.085h.839v-1.282h1.212v1.282h1.322v1.085h-1.302v2.159c0 .276.046.47.138.582s.279.168.562.168h.424v1.232h-.542c-.704 0-1.187-.148-1.45-.444-.263-.295-.394-.769-.394-1.42zm3.717 0v-2.277h-.809v-1.085h.838v-1.282h1.213v1.282h1.321v1.085h-1.301v2.159c0 .276.046.47.138.582s.279.168.562.168h.424v1.232h-.543c-.703 0-1.186-.148-1.449-.444-.263-.295-.394-.769-.394-1.42zm4.779.444c.21.276.5.414.868.414s.657-.138.867-.414c.211-.282.316-.68.316-1.193s-.109-.907-.326-1.183c-.21-.283-.496-.424-.857-.424-.362 0-.651.138-.868.414-.21.276-.316.674-.316 1.193s.106.917.316 1.193zm2.623.838c-.46.487-1.045.73-1.755.73s-1.295-.243-1.755-.73c-.461-.486-.691-1.163-.691-2.031 0-.854.237-1.528.71-2.021.474-.493 1.052-.74 1.736-.74.683 0 1.262.247 1.735.74s.71 1.167.71 2.021c0 .868-.23 1.545-.69 2.031zm1.729.582v-5.226h1.174v.503h.019c.119-.184.289-.338.513-.463.23-.125.48-.188.749-.188.276 0 .536.066.779.198.243.124.428.289.552.493h.02c.132-.204.319-.369.562-.493.243-.132.51-.198.799-.198.624 0 1.117.165 1.479.493.368.329.552.763.552 1.302v3.579h-1.173v-3.313c0-.256-.076-.467-.227-.631-.145-.164-.372-.246-.681-.246-.289 0-.512.075-.67.226-.151.151-.227.345-.227.582v3.382h-1.173v-3.313c0-.25-.079-.457-.237-.621-.157-.171-.381-.256-.67-.256-.296 0-.519.075-.671.226-.151.151-.226.345-.226.582v3.382zm11.095 0v-6.902h1.37l2.002 4.476h.02l2.001-4.476h1.381v6.902h-1.302v-4.24h-.02l-1.962 4.24h-.217l-1.962-4.24h-.019v4.24zm8.25 0v-5.226h1.281v5.226zm0-5.985v-1.213h1.281v1.213zm5.901 3.845v-.956c0-.316-.102-.582-.306-.799-.197-.217-.47-.325-.818-.325-.375 0-.667.135-.878.404-.203.27-.305.671-.305 1.203 0 .526.102.927.305 1.203.211.27.503.404.878.404.348 0 .621-.108.818-.325.204-.224.306-.493.306-.809zm.079 2.14v-.503h-.02c-.033.046-.082.105-.148.178-.059.072-.21.171-.453.295-.237.119-.497.178-.779.178-.69 0-1.243-.25-1.657-.749-.407-.5-.611-1.17-.611-2.012 0-.848.223-1.518.67-2.011.447-.5.973-.75 1.578-.75.276 0 .523.056.74.168.223.105.374.21.453.315l.128.168h.02v-2.475h1.282v7.198z" fill="#7986a3"/><path d="m483.247 487-.395-1.134h-2.632l-.395 1.134h-1.321l2.495-6.902h1.134l2.484 6.902zm-1.716-4.93-.937 2.692h1.884l-.927-2.692zm5.945 2.623 1.4-.306c.085.539.223.93.414 1.173.197.237.516.355.956.355.375 0 .674-.065.897-.197.224-.138.336-.338.336-.601 0-.276-.109-.487-.326-.631-.21-.151-.696-.345-1.459-.582-.716-.224-1.226-.493-1.528-.809-.296-.322-.444-.716-.444-1.183 0-.539.207-.999.621-1.38.421-.388.99-.582 1.706-.582.651 0 1.209.158 1.676.473.473.316.769.786.888 1.41l-1.292.326c-.204-.651-.628-.976-1.272-.976-.342 0-.598.065-.769.197-.164.131-.247.306-.247.522 0 .204.096.362.286.474.191.105.681.292 1.469.562.763.263 1.286.549 1.568.858.283.302.424.713.424 1.232 0 .611-.23 1.117-.69 1.518s-1.075.602-1.844.602c-.782 0-1.416-.204-1.903-.611-.48-.415-.769-1.029-.867-1.844zm9.629.503.898.788c-.533.776-1.253 1.164-2.16 1.164-.729 0-1.324-.25-1.784-.749-.461-.507-.691-1.177-.691-2.012s.227-1.502.681-2.001c.46-.507 1.038-.76 1.735-.76s1.269.253 1.716.76c.453.499.68 1.166.68 2.001v.385h-3.51c.02.401.128.71.325.926.204.211.48.316.829.316.295 0 .539-.072.729-.217.197-.151.381-.352.552-.601zm-2.435-1.381h2.268c-.033-.335-.148-.595-.345-.779-.198-.19-.467-.286-.809-.286-.315 0-.575.102-.779.306-.197.204-.309.457-.335.759zm5.301 3.185-1.154-5.226h1.252l.691 3.491h.029l1.164-3.491h1.163l1.075 3.481h.02l.788-3.481h1.233l-1.252 5.226h-1.262l-1.194-3.757h-.019l-1.292 3.757zm10.538-1.804.897.788c-.533.776-1.252 1.164-2.159 1.164-.73 0-1.325-.25-1.785-.749-.46-.507-.69-1.177-.69-2.012s.226-1.502.68-2.001c.46-.507 1.039-.76 1.735-.76.697 0 1.269.253 1.716.76.454.499.68 1.166.68 2.001v.385h-3.51c.02.401.128.71.326.926.203.211.479.316.828.316.296 0 .539-.072.729-.217.198-.151.382-.352.553-.601zm-2.436-1.381h2.268c-.033-.335-.148-.595-.345-.779-.197-.19-.467-.286-.809-.286-.315 0-.575.102-.779.306-.197.204-.308.457-.335.759zm4.542 3.185v-5.226h1.213v.552h.019c.099-.197.244-.355.434-.473.197-.118.411-.177.641-.177.164 0 .322.033.473.098l-.197 1.243c-.144-.053-.279-.079-.404-.079-.598 0-.897.397-.897 1.193v2.869z" fill="#7986a3"/><path d="m602.589 494-.395-1.134h-2.632l-.395 1.134h-1.321l2.495-6.902h1.133l2.485 6.902zm-1.716-4.93-.937 2.692h1.884l-.927-2.692zm6.388 4.93v-6.902h1.331v5.67h2.85v1.232zm6.247-1.42c.21.276.499.414.868.414.368 0 .657-.138.867-.414.211-.282.316-.68.316-1.193s-.109-.907-.326-1.183c-.21-.283-.496-.424-.857-.424-.362 0-.651.138-.868.414-.21.276-.316.674-.316 1.193s.106.917.316 1.193zm2.623.838c-.461.487-1.046.73-1.755.73-.71 0-1.295-.243-1.756-.73-.46-.486-.69-1.163-.69-2.031 0-.854.237-1.528.71-2.021s1.052-.74 1.736-.74c.683 0 1.262.247 1.735.74s.71 1.167.71 2.021c0 .868-.23 1.545-.69 2.031zm3.011-2.514v.956c0 .316.098.585.296.809.203.217.48.325.828.325.375 0 .664-.134.868-.404.21-.276.315-.677.315-1.203 0-.532-.105-.933-.315-1.203-.204-.269-.493-.404-.868-.404-.348 0-.625.108-.828.325-.198.217-.296.483-.296.799zm-1.282 3.096v-7.198h1.282v2.475h.02c.013-.02.029-.043.049-.069.02-.033.069-.085.148-.158.085-.072.174-.138.266-.197.099-.059.224-.112.375-.158.157-.046.322-.069.493-.069.644 0 1.176.257 1.597.769.427.507.641 1.17.641 1.992 0 .842-.207 1.512-.621 2.012-.408.499-.957.749-1.647.749-.283 0-.539-.053-.769-.158-.23-.112-.388-.22-.473-.325l-.138-.168h-.02v.503zm7.184-3.096v.956c0 .316.099.585.296.809.204.217.48.325.828.325.375 0 .664-.134.868-.404.21-.276.316-.677.316-1.203 0-.532-.106-.933-.316-1.203-.204-.269-.493-.404-.868-.404-.348 0-.624.108-.828.325-.197.217-.296.483-.296.799zm-1.281 3.096v-7.198h1.281v2.475h.02c.013-.02.03-.043.049-.069.02-.033.069-.085.148-.158.086-.072.174-.138.266-.197.099-.059.224-.112.375-.158.158-.046.322-.069.493-.069.644 0 1.177.257 1.597.769.428.507.641 1.17.641 1.992 0 .842-.207 1.512-.621 2.012-.407.499-.956.749-1.646.749-.283 0-.539-.053-.769-.158-.231-.112-.388-.22-.474-.325l-.138-.168h-.02v.503zm6.114 2.218 1.045-2.474-2.09-4.97h1.301l1.351 3.54h.02l1.35-3.54h1.302l-3.007 7.444z" fill="#7986a3"/><path d="m553.376 371-.394-1.134h-2.633l-.394 1.134h-1.321l2.494-6.902h1.134l2.485 6.902zm-1.715-4.93-.937 2.692h1.883l-.927-2.692zm6.388 4.93v-6.902h1.37l2.002 4.476h.019l2.002-4.476h1.38v6.902h-1.301v-4.24h-.02l-1.962 4.24h-.217l-1.962-4.24h-.02v4.24zm11.227 0v-.503h-.02c-.013.02-.029.046-.049.079-.02.026-.069.076-.148.148s-.168.138-.266.197c-.099.059-.234.112-.404.158-.171.046-.355.069-.553.069-.631 0-1.104-.148-1.419-.444-.309-.302-.464-.67-.464-1.104 0-.454.135-.799.404-1.035.27-.237.727-.434 1.371-.592.598-.145.973-.26 1.124-.345.151-.086.227-.207.227-.365s-.076-.289-.227-.394c-.145-.105-.365-.158-.661-.158-.348 0-.598.079-.749.237-.151.151-.27.358-.355.621l-1.065-.444c.125-.44.368-.799.73-1.075.361-.282.835-.424 1.42-.424.637 0 1.16.168 1.567.503.408.335.612.855.612 1.558v3.313zm-1.292-2.14c-.328.079-.545.175-.651.286-.098.106-.147.227-.147.365 0 .355.256.533.769.533.387 0 .677-.073.867-.217.198-.152.296-.336.296-.552v-.908h-.02c-.026.053-.055.096-.088.129-.027.026-.125.075-.296.147-.171.066-.414.139-.73.217zm3.649 2.14v-5.226h1.281v5.226zm0-5.985v-1.213h1.281v1.213zm2.657 5.985v-5.226h1.233v.503h.019c.145-.184.342-.338.592-.463s.513-.188.789-.188c.578 0 1.032.175 1.36.523.329.342.493.818.493 1.43v3.421h-1.281v-3.106c0-.361-.069-.631-.207-.808-.138-.184-.375-.276-.71-.276-.316 0-.562.092-.74.276-.177.177-.266.417-.266.719v3.195z" fill="#7986a3"/><path d="m466.383 368-.394-1.134h-2.633l-.394 1.134h-1.322l2.495-6.902h1.134l2.485 6.902zm-1.716-4.93-.936 2.692h1.883l-.927-2.692zm6.388 4.93v-6.902h2.801c.71 0 1.281.201 1.715.602.441.394.661.926.661 1.597 0 .499-.132.923-.394 1.272-.257.348-.612.595-1.065.739l1.469 2.692h-1.44l-1.39-2.564h-1.025v2.564zm1.332-3.717h1.36c.756 0 1.134-.329 1.134-.986 0-.664-.378-.996-1.134-.996h-1.36zm7.816 3.717v-.503h-.02c-.013.02-.029.046-.049.079-.02.026-.069.076-.148.148s-.168.138-.266.197c-.099.059-.234.112-.404.158-.171.046-.355.069-.553.069-.631 0-1.104-.148-1.419-.444-.309-.302-.464-.67-.464-1.104 0-.454.135-.799.404-1.035.27-.237.727-.434 1.371-.592.598-.145.973-.26 1.124-.345.151-.086.227-.207.227-.365s-.076-.289-.227-.394c-.145-.105-.365-.158-.661-.158-.348 0-.598.079-.749.237-.151.151-.27.358-.355.621l-1.065-.444c.125-.44.368-.799.73-1.075.361-.282.835-.424 1.42-.424.637 0 1.16.168 1.567.503.408.335.612.855.612 1.558v3.313zm-1.292-2.14c-.328.079-.545.175-.65.286-.099.106-.148.227-.148.365 0 .355.256.533.769.533.388 0 .677-.073.867-.217.198-.152.296-.336.296-.552v-.908h-.02c-.026.053-.055.096-.088.129-.027.026-.125.075-.296.147-.171.066-.414.139-.73.217zm3.649 2.14v-5.226h1.173v.503h.02c.118-.184.289-.338.512-.463.23-.125.48-.188.75-.188.276 0 .535.066.779.198.243.124.427.289.552.493h.02c.131-.204.318-.369.562-.493.243-.132.509-.198.798-.198.625 0 1.118.165 1.479.493.368.329.552.763.552 1.302v3.579h-1.173v-3.313c0-.256-.076-.467-.227-.631-.144-.164-.371-.246-.68-.246-.289 0-.513.075-.671.226-.151.151-.226.345-.226.582v3.382h-1.174v-3.313c0-.25-.079-.457-.236-.621-.158-.171-.382-.256-.671-.256-.296 0-.519.075-.67.226s-.227.345-.227.582v3.382zm9.813-3.155v1.075c0 .302.101.558.305.769.204.203.477.305.819.305.374 0 .68-.138.917-.414.243-.276.364-.674.364-1.193s-.118-.917-.355-1.193c-.236-.276-.545-.414-.926-.414-.342 0-.615.105-.819.315-.204.204-.305.454-.305.75zm-1.282 5.373v-7.444h1.222v.503h.02c.013-.02.03-.043.049-.069.02-.033.069-.085.148-.158.086-.072.178-.138.276-.197.099-.059.23-.112.395-.158.171-.046.351-.069.542-.069.618 0 1.157.25 1.617.75.467.493.7 1.163.7 2.011 0 .855-.223 1.528-.67 2.021s-.99.74-1.627.74c-.191 0-.368-.023-.533-.069-.157-.046-.286-.099-.384-.158-.099-.066-.184-.128-.257-.187-.072-.066-.124-.122-.157-.168l-.04-.069h-.019v2.721z" fill="#7986a3"/><path d="m517.878 276-.394-1.134h-2.633l-.394 1.134h-1.322l2.495-6.902h1.134l2.485 6.902zm-1.716-4.93-.936 2.692h1.883l-.927-2.692zm6.389 4.93v-6.902h2.8c.71 0 1.282.201 1.715.602.441.394.661.926.661 1.597 0 .499-.131.923-.394 1.272-.257.348-.612.595-1.065.739l1.469 2.692h-1.44l-1.39-2.564h-1.025v2.564zm1.331-3.717h1.36c.756 0 1.134-.329 1.134-.986 0-.664-.378-.996-1.134-.996h-1.36zm7.816 3.717v-.503h-.02c-.013.02-.029.046-.049.079-.02.026-.069.076-.148.148s-.168.138-.266.197c-.099.059-.233.112-.404.158s-.355.069-.553.069c-.631 0-1.104-.148-1.419-.444-.309-.302-.464-.67-.464-1.104 0-.454.135-.799.404-1.035.27-.237.727-.434 1.371-.592.598-.145.973-.26 1.124-.345.151-.086.227-.207.227-.365s-.076-.289-.227-.394c-.145-.105-.365-.158-.661-.158-.348 0-.598.079-.749.237-.151.151-.269.358-.355.621l-1.065-.444c.125-.44.368-.799.73-1.075.361-.282.835-.424 1.42-.424.637 0 1.16.168 1.567.503.408.335.612.855.612 1.558v3.313zm-1.292-2.14c-.328.079-.545.175-.65.286-.099.106-.148.227-.148.365 0 .355.256.533.769.533.388 0 .677-.073.867-.217.198-.152.296-.336.296-.552v-.908h-.019c-.027.053-.056.096-.089.129-.026.026-.125.075-.296.147-.171.066-.414.139-.73.217zm3.915 2.14v-4.141h-.809v-1.085h.838v-.739c0-.447.116-.763.346-.947.236-.19.578-.286 1.025-.286h1.025v1.134h-.759c-.158 0-.269.033-.335.099-.059.059-.089.164-.089.315v.424h1.321v1.085h-1.281v4.141zm3.524-1.864v-2.277h-.808v-1.085h.838v-1.282h1.212v1.282h1.322v1.085h-1.302v2.159c0 .276.046.47.138.582s.28.168.562.168h.424v1.232h-.542c-.703 0-1.187-.148-1.45-.444-.262-.295-.394-.769-.394-1.42zm6.939.06.897.788c-.533.776-1.252 1.164-2.159 1.164-.73 0-1.325-.25-1.785-.749-.46-.507-.69-1.177-.69-2.012s.227-1.502.68-2.001c.46-.507 1.039-.76 1.735-.76.697 0 1.269.253 1.716.76.454.499.68 1.166.68 2.001v.385h-3.51c.02.401.128.71.326.926.203.211.479.316.828.316.296 0 .539-.072.73-.217.197-.151.381-.352.552-.601zm-2.436-1.381h2.268c-.033-.335-.148-.595-.345-.779-.197-.19-.467-.286-.809-.286-.315 0-.575.102-.778.306-.198.204-.309.457-.336.759zm4.542 3.185v-5.226h1.213v.552h.019c.099-.197.244-.355.434-.473.197-.118.411-.177.641-.177.164 0 .322.033.473.098l-.197 1.243c-.144-.053-.279-.079-.404-.079-.598 0-.897.397-.897 1.193v2.869zm3.226-1.725 1.154-.296c.092.729.483 1.094 1.173 1.094.315 0 .565-.049.749-.148.191-.105.286-.25.286-.434 0-.151-.072-.262-.217-.335-.144-.079-.447-.184-.907-.315-.125-.033-.22-.059-.286-.079-.605-.171-1.048-.372-1.331-.602-.283-.236-.424-.549-.424-.936 0-.434.174-.809.523-1.124.355-.316.838-.474 1.449-.474 1.17 0 1.903.513 2.199 1.538l-1.065.326c-.092-.25-.223-.447-.394-.592-.165-.144-.408-.217-.73-.217-.25 0-.45.05-.601.148-.145.092-.217.204-.217.335 0 .145.085.26.256.346.177.078.615.217 1.311.414.612.164 1.026.374 1.243.631.223.25.335.572.335.966 0 .421-.184.799-.552 1.134-.362.329-.888.493-1.578.493-.723 0-1.282-.181-1.676-.542-.388-.369-.621-.812-.7-1.331z" fill="#7986a3"/><path d="m460.757 198-.394-1.134h-2.633l-.394 1.134h-1.321l2.494-6.902h1.134l2.485 6.902zm-1.715-4.93-.937 2.692h1.883l-.927-2.692zm7.719 4.93v-5.669h-2.022v-1.233h5.374v1.233h-2.021v5.669zm4.588-1.42c.21.276.5.414.868.414s.657-.138.867-.414c.211-.282.316-.68.316-1.193s-.109-.907-.326-1.183c-.21-.283-.496-.424-.857-.424-.362 0-.651.138-.868.414-.21.276-.316.674-.316 1.193s.106.917.316 1.193zm2.623.838c-.46.487-1.045.73-1.755.73s-1.295-.243-1.755-.73c-.461-.486-.691-1.163-.691-2.031 0-.854.237-1.528.71-2.021.474-.493 1.052-.74 1.736-.74.683 0 1.262.247 1.735.74s.71 1.167.71 2.021c0 .868-.23 1.545-.69 2.031zm2.488.582-1.153-5.226h1.252l.69 3.491h.03l1.163-3.491h1.164l1.074 3.481h.02l.789-3.481h1.232l-1.252 5.226h-1.262l-1.193-3.757h-.02l-1.291 3.757zm10.538-1.804.898.788c-.533.776-1.253 1.164-2.16 1.164-.729 0-1.324-.25-1.784-.749-.461-.507-.691-1.177-.691-2.012s.227-1.502.681-2.001c.46-.507 1.038-.76 1.735-.76s1.269.253 1.716.76c.453.499.68 1.166.68 2.001v.385h-3.51c.02.401.128.71.325.926.204.211.48.316.829.316.295 0 .539-.072.729-.217.197-.151.381-.352.552-.601zm-2.435-1.381h2.268c-.033-.335-.148-.595-.345-.779-.198-.19-.467-.286-.809-.286-.315 0-.575.102-.779.306-.197.204-.309.457-.335.759zm4.542 3.185v-5.226h1.212v.552h.02c.099-.197.243-.355.434-.473.197-.118.411-.177.641-.177.164 0 .322.033.473.098l-.197 1.243c-.145-.053-.28-.079-.404-.079-.599 0-.898.397-.898 1.193v2.869z" fill="#7986a3"/><path d="m605.079 162v-6.902h2.929c.611 0 1.101.181 1.469.542.375.355.562.792.562 1.312 0 .578-.25 1.015-.749 1.311v.01c.295.125.535.325.719.601.191.27.286.595.286.977 0 .657-.2 1.183-.601 1.577-.401.381-1.062.572-1.982.572zm1.331-1.232h1.608c.631 0 .946-.306.946-.917 0-.283-.085-.5-.256-.651-.165-.158-.391-.237-.681-.237h-1.617zm0-2.889h1.43c.27 0 .48-.063.631-.188.158-.131.237-.322.237-.572 0-.263-.076-.46-.227-.591-.151-.132-.365-.197-.641-.197h-1.43zm7.952 4.121v-.503h-.02c-.013.02-.03.046-.049.079-.02.026-.069.076-.148.148s-.168.138-.267.197c-.098.059-.233.112-.404.158s-.355.069-.552.069c-.631 0-1.104-.148-1.42-.444-.309-.302-.463-.67-.463-1.104 0-.454.135-.799.404-1.035.27-.237.726-.434 1.371-.592.598-.145.972-.26 1.124-.345.151-.086.226-.207.226-.365s-.075-.289-.226-.394c-.145-.105-.365-.158-.661-.158-.348 0-.598.079-.749.237-.152.151-.27.358-.355.621l-1.065-.444c.125-.44.368-.799.729-1.075.362-.282.835-.424 1.42-.424.638 0 1.161.168 1.568.503.408.335.611.855.611 1.558v3.313zm-1.292-2.14c-.329.079-.546.175-.651.286-.098.106-.148.227-.148.365 0 .355.257.533.769.533.388 0 .677-.073.868-.217.197-.152.296-.336.296-.552v-.908h-.02c-.026.053-.056.096-.089.129-.026.026-.124.075-.295.147-.171.066-.415.139-.73.217zm6.784.03 1.213.315c-.119.625-.375 1.105-.77 1.44-.394.335-.89.503-1.488.503-.71 0-1.295-.243-1.755-.73-.454-.486-.681-1.163-.681-2.031 0-.861.234-1.535.7-2.021.474-.493 1.055-.74 1.745-.74.585 0 1.075.171 1.47.513.394.342.637.799.729 1.371l-1.193.226c-.125-.637-.46-.956-1.006-.956-.361 0-.65.138-.867.414-.211.27-.316.667-.316 1.193s.105.927.316 1.203c.21.27.499.404.867.404.579 0 .924-.368 1.036-1.104zm2.199 2.11v-7.198h1.281v4.132h.02l1.903-2.16h1.607l-1.883 2.12 2.051 3.106h-1.42l-1.597-2.386h-.02l-.661.749v1.637zm12.238 0-.395-1.134h-2.632l-.395 1.134h-1.321l2.495-6.902h1.134l2.484 6.902zm-1.716-4.93-.937 2.692h1.884l-.927-2.692z" fill="#7986a3"/><path d="m555.968 113.693 1.401-.306c.085.539.223.93.414 1.173.197.237.516.355.956.355.375 0 .674-.065.897-.197.224-.138.336-.338.336-.601 0-.276-.109-.487-.326-.631-.21-.151-.697-.345-1.459-.582-.717-.224-1.226-.493-1.528-.809-.296-.322-.444-.716-.444-1.183 0-.539.207-.999.621-1.38.421-.388.989-.582 1.706-.582.651 0 1.209.158 1.676.473.473.316.769.786.888 1.41l-1.292.326c-.204-.651-.628-.976-1.272-.976-.342 0-.598.065-.769.197-.164.131-.247.306-.247.522 0 .204.096.362.286.474.191.105.681.292 1.469.562.763.263 1.285.549 1.568.858.283.302.424.713.424 1.232 0 .611-.23 1.117-.69 1.518s-1.075.602-1.844.602c-.782 0-1.416-.204-1.903-.611-.48-.415-.769-1.029-.868-1.844zm9.374.197 1.213.315c-.119.625-.375 1.105-.769 1.44-.395.335-.891.503-1.489.503-.71 0-1.295-.243-1.755-.73-.454-.486-.681-1.163-.681-2.031 0-.861.234-1.535.7-2.021.474-.493 1.055-.74 1.746-.74.585 0 1.074.171 1.469.513.394.342.637.799.729 1.371l-1.193.226c-.125-.637-.46-.956-1.005-.956-.362 0-.651.138-.868.414-.21.27-.316.667-.316 1.193s.106.927.316 1.203c.21.27.499.404.868.404.578 0 .923-.368 1.035-1.104zm2.199 2.11v-5.226h1.213v.552h.019c.099-.197.243-.355.434-.473.197-.118.411-.177.641-.177.164 0 .322.033.473.098l-.197 1.243c-.145-.053-.279-.079-.404-.079-.598 0-.897.397-.897 1.193v2.869zm7.012-1.804.897.788c-.532.776-1.252 1.164-2.159 1.164-.73 0-1.325-.25-1.785-.749-.46-.507-.69-1.177-.69-2.012s.227-1.502.68-2.001c.461-.507 1.039-.76 1.736-.76s1.268.253 1.715.76c.454.499.681 1.166.681 2.001v.385h-3.51c.019.401.128.71.325.926.204.211.48.316.828.316.296 0 .539-.072.73-.217.197-.151.381-.352.552-.601zm-2.435-1.381h2.267c-.032-.335-.147-.595-.345-.779-.197-.19-.466-.286-.808-.286-.316 0-.575.102-.779.306-.197.204-.309.457-.335.759zm7.933 1.381.897.788c-.532.776-1.252 1.164-2.159 1.164-.73 0-1.324-.25-1.785-.749-.46-.507-.69-1.177-.69-2.012s.227-1.502.681-2.001c.46-.507 1.038-.76 1.735-.76s1.269.253 1.715.76c.454.499.681 1.166.681 2.001v.385h-3.51c.019.401.128.71.325.926.204.211.48.316.828.316.296 0 .539-.072.73-.217.197-.151.381-.352.552-.601zm-2.435-1.381h2.267c-.032-.335-.147-.595-.345-.779-.197-.19-.466-.286-.808-.286-.316 0-.575.102-.779.306-.197.204-.309.457-.335.759zm4.541 3.185v-5.226h1.233v.503h.02c.144-.184.341-.338.591-.463s.513-.188.789-.188c.578 0 1.032.175 1.361.523.328.342.493.818.493 1.43v3.421h-1.282v-3.106c0-.361-.069-.631-.207-.808-.138-.184-.375-.276-.71-.276-.316 0-.562.092-.74.276-.177.177-.266.417-.266.719v3.195zm5.422-1.725 1.153-.296c.092.729.484 1.094 1.174 1.094.315 0 .565-.049.749-.148.191-.105.286-.25.286-.434 0-.151-.072-.262-.217-.335-.145-.079-.447-.184-.907-.315-.125-.033-.22-.059-.286-.079-.605-.171-1.048-.372-1.331-.602-.283-.236-.424-.549-.424-.936 0-.434.174-.809.523-1.124.354-.316.838-.474 1.449-.474 1.17 0 1.903.513 2.199 1.538l-1.065.326c-.092-.25-.224-.447-.395-.592-.164-.144-.407-.217-.729-.217-.25 0-.45.05-.602.148-.144.092-.217.204-.217.335 0 .145.086.26.257.346.177.078.614.217 1.311.414.611.164 1.026.374 1.243.631.223.25.335.572.335.966 0 .421-.184.799-.552 1.134-.362.329-.888.493-1.578.493-.723 0-1.282-.181-1.676-.542-.388-.369-.621-.812-.7-1.331z" fill="#7986a3"/><path d="m372.626 313v-6.902h1.371l2.001 4.476h.02l2.001-4.476h1.381v6.902h-1.302v-4.24h-.019l-1.963 4.24h-.216l-1.963-4.24h-.019v4.24zm8.25 0v-5.226h1.281v5.226zm0-5.985v-1.213h1.281v1.213zm5.901 3.845v-.956c0-.316-.102-.582-.306-.799-.197-.217-.47-.325-.818-.325-.375 0-.667.135-.877.404-.204.27-.306.671-.306 1.203 0 .526.102.927.306 1.203.21.27.502.404.877.404.348 0 .621-.108.818-.325.204-.224.306-.493.306-.809zm.079 2.14v-.503h-.02c-.033.046-.082.105-.148.178-.059.072-.21.171-.453.295-.237.119-.496.178-.779.178-.69 0-1.242-.25-1.657-.749-.407-.5-.611-1.17-.611-2.012 0-.848.224-1.518.671-2.011.447-.5.972-.75 1.577-.75.276 0 .523.056.74.168.223.105.374.21.453.315l.128.168h.02v-2.475h1.282v7.198zm6.898 0-2.494-6.902h1.4l1.706 4.9h.029l1.657-4.9h1.38l-2.465 6.902zm7.364-1.804.897.788c-.532.776-1.252 1.164-2.159 1.164-.73 0-1.325-.25-1.785-.749-.46-.507-.69-1.177-.69-2.012s.227-1.502.68-2.001c.46-.507 1.039-.76 1.736-.76.696 0 1.268.253 1.715.76.454.499.681 1.166.681 2.001v.385h-3.511c.02.401.129.71.326.926.204.211.48.316.828.316.296 0 .539-.072.73-.217.197-.151.381-.352.552-.601zm-2.436-1.381h2.268c-.033-.335-.148-.595-.345-.779-.197-.19-.467-.286-.808-.286-.316 0-.576.102-.779.306-.197.204-.309.457-.336.759zm4.542 3.185v-5.226h1.233v.503h.019c.145-.184.342-.338.592-.463s.513-.188.789-.188c.578 0 1.032.175 1.36.523.329.342.493.818.493 1.43v3.421h-1.281v-3.106c0-.361-.069-.631-.207-.808-.138-.184-.375-.276-.71-.276-.316 0-.562.092-.74.276-.177.177-.266.417-.266.719v3.195zm6.082-1.864v-2.277h-.808v-1.085h.838v-1.282h1.213v1.282h1.321v1.085h-1.302v2.159c0 .276.046.47.138.582s.28.168.562.168h.424v1.232h-.542c-.703 0-1.187-.148-1.449-.444-.263-.295-.395-.769-.395-1.42z" fill="#7986a3"/><path d="m319.244 355v-5.669h-2.021v-1.233h5.373v1.233h-2.021v5.669zm4.588-1.42c.211.276.5.414.868.414s.657-.138.868-.414c.21-.282.315-.68.315-1.193s-.108-.907-.325-1.183c-.211-.283-.497-.424-.858-.424-.362 0-.651.138-.868.414-.21.276-.315.674-.315 1.193s.105.917.315 1.193zm2.623.838c-.46.487-1.045.73-1.755.73s-1.295-.243-1.755-.73c-.46-.486-.69-1.163-.69-2.031 0-.854.236-1.528.71-2.021.473-.493 1.051-.74 1.735-.74s1.262.247 1.735.74c.474.493.71 1.167.71 2.021 0 .868-.23 1.545-.69 2.031zm3.011-2.573v1.075c0 .302.102.558.306.769.204.203.477.305.818.305.375 0 .681-.138.917-.414.244-.276.365-.674.365-1.193s-.118-.917-.355-1.193c-.236-.276-.545-.414-.927-.414-.341 0-.614.105-.818.315-.204.204-.306.454-.306.75zm-1.281 5.373v-7.444h1.222v.503h.02c.013-.02.029-.043.049-.069.02-.033.069-.085.148-.158.086-.072.178-.138.276-.197.099-.059.23-.112.395-.158.17-.046.351-.069.542-.069.618 0 1.157.25 1.617.75.467.493.7 1.163.7 2.011 0 .855-.224 1.528-.671 2.021s-.989.74-1.626.74c-.191 0-.369-.023-.533-.069-.158-.046-.286-.099-.384-.158-.099-.066-.184-.128-.257-.187-.072-.066-.125-.122-.158-.168l-.039-.069h-.02v2.721zm8.571-2.218v-6.902h1.371l2.002 4.476h.019l2.002-4.476h1.38v6.902h-1.301v-4.24h-.02l-1.962 4.24h-.217l-1.962-4.24h-.02v4.24zm8.25 0v-5.226h1.282v5.226zm0-5.985v-1.213h1.282v1.213zm5.902 3.845v-.956c0-.316-.102-.582-.306-.799-.197-.217-.47-.325-.818-.325-.375 0-.668.135-.878.404-.204.27-.306.671-.306 1.203 0 .526.102.927.306 1.203.21.27.503.404.878.404.348 0 .621-.108.818-.325.204-.224.306-.493.306-.809zm.078 2.14v-.503h-.019c-.033.046-.082.105-.148.178-.059.072-.211.171-.454.295-.236.119-.496.178-.779.178-.69 0-1.242-.25-1.656-.749-.408-.5-.611-1.17-.611-2.012 0-.848.223-1.518.67-2.011.447-.5.973-.75 1.578-.75.276 0 .522.056.739.168.224.105.375.21.454.315l.128.168h.02v-2.475h1.281v7.198z" fill="#7986a3"/><path d="m242.574 355v-6.902h1.371l2.002 4.476h.019l2.002-4.476h1.38v6.902h-1.301v-4.24h-.02l-1.962 4.24h-.217l-1.962-4.24h-.02v4.24zm8.25 0v-5.226h1.282v5.226zm0-5.985v-1.213h1.282v1.213zm5.902 3.845v-.956c0-.316-.102-.582-.306-.799-.197-.217-.47-.325-.818-.325-.375 0-.668.135-.878.404-.204.27-.306.671-.306 1.203 0 .526.102.927.306 1.203.21.27.503.404.878.404.348 0 .621-.108.818-.325.204-.224.306-.493.306-.809zm.078 2.14v-.503h-.019c-.033.046-.082.105-.148.178-.059.072-.211.171-.454.295-.236.119-.496.178-.779.178-.69 0-1.242-.25-1.656-.749-.408-.5-.611-1.17-.611-2.012 0-.848.223-1.518.67-2.011.447-.5.973-.75 1.578-.75.276 0 .522.056.739.168.224.105.375.21.454.315l.128.168h.02v-2.475h1.281v7.198zm5.144 0v-6.902h1.37l2.002 4.476h.019l2.002-4.476h1.38v6.902h-1.301v-4.24h-.02l-1.962 4.24h-.217l-1.962-4.24h-.02v4.24zm11.227 0v-.503h-.02c-.013.02-.029.046-.049.079-.02.026-.069.076-.148.148s-.168.138-.266.197c-.099.059-.234.112-.404.158-.171.046-.355.069-.553.069-.631 0-1.104-.148-1.419-.444-.309-.302-.464-.67-.464-1.104 0-.454.135-.799.404-1.035.27-.237.727-.434 1.371-.592.598-.145.973-.26 1.124-.345.151-.086.227-.207.227-.365s-.076-.289-.227-.394c-.145-.105-.365-.158-.661-.158-.348 0-.598.079-.749.237-.151.151-.269.358-.355.621l-1.065-.444c.125-.44.368-.799.73-1.075.361-.282.835-.424 1.42-.424.637 0 1.16.168 1.567.503.408.335.612.855.612 1.558v3.313zm-1.292-2.14c-.328.079-.545.175-.65.286-.099.106-.148.227-.148.365 0 .355.256.533.769.533.388 0 .677-.073.867-.217.198-.152.296-.336.296-.552v-.908h-.02c-.026.053-.055.096-.088.129-.027.026-.125.075-.296.147-.171.066-.414.139-.73.217zm3.649 2.14v-5.226h1.281v5.226zm0-5.985v-1.213h1.281v1.213zm2.657 5.985v-7.198h1.331v7.198z" fill="#7986a3"/><path d="m208.658 301v-6.902h2.928c.611 0 1.101.181 1.469.542.375.355.562.792.562 1.312 0 .578-.25 1.015-.749 1.311v.01c.296.125.536.325.72.601.19.27.286.595.286.977 0 .657-.201 1.183-.602 1.577-.401.381-1.061.572-1.982.572zm1.331-1.232h1.607c.631 0 .947-.306.947-.917 0-.283-.086-.5-.257-.651-.164-.158-.391-.237-.68-.237h-1.617zm0-2.889h1.429c.27 0 .48-.063.632-.188.157-.131.236-.322.236-.572 0-.263-.075-.46-.227-.591-.151-.132-.364-.197-.641-.197h-1.429zm8.868 4.121v-5.669h-2.021v-1.233h5.373v1.233h-2.021v5.669zm4.588-1.42c.211.276.5.414.868.414s.657-.138.868-.414c.21-.282.315-.68.315-1.193s-.108-.907-.325-1.183c-.211-.283-.497-.424-.858-.424-.362 0-.651.138-.868.414-.21.276-.315.674-.315 1.193s.105.917.315 1.193zm2.623.838c-.46.487-1.045.73-1.755.73s-1.295-.243-1.755-.73c-.46-.486-.69-1.163-.69-2.031 0-.854.236-1.528.71-2.021.473-.493 1.051-.74 1.735-.74s1.262.247 1.735.74c.474.493.71 1.167.71 2.021 0 .868-.23 1.545-.69 2.031zm2.489.582-1.154-5.226h1.252l.691 3.491h.029l1.164-3.491h1.163l1.075 3.481h.019l.789-3.481h1.233l-1.252 5.226h-1.263l-1.193-3.757h-.019l-1.292 3.757zm10.538-1.804.897.788c-.533.776-1.252 1.164-2.159 1.164-.73 0-1.325-.25-1.785-.749-.46-.507-.69-1.177-.69-2.012s.226-1.502.68-2.001c.46-.507 1.039-.76 1.735-.76.697 0 1.269.253 1.716.76.454.499.68 1.166.68 2.001v.385h-3.51c.02.401.128.71.326.926.203.211.479.316.828.316.296 0 .539-.072.729-.217.198-.151.382-.352.553-.601zm-2.436-1.381h2.268c-.033-.335-.148-.595-.345-.779-.197-.19-.467-.286-.809-.286-.315 0-.575.102-.779.306-.197.204-.309.457-.335.759zm4.542 3.185v-5.226h1.213v.552h.019c.099-.197.244-.355.434-.473.197-.118.411-.177.641-.177.164 0 .322.033.473.098l-.197 1.243c-.144-.053-.279-.079-.404-.079-.598 0-.897.397-.897 1.193v2.869z" fill="#7986a3"/><path d="m259.197 229v-6.902h2.928c.612 0 1.101.181 1.469.542.375.355.562.792.562 1.312 0 .578-.249 1.015-.749 1.311v.01c.296.125.536.325.72.601.191.27.286.595.286.977 0 .657-.201 1.183-.602 1.577-.401.381-1.061.572-1.981.572zm1.331-1.232h1.607c.631 0 .947-.306.947-.917 0-.283-.086-.5-.257-.651-.164-.158-.391-.237-.68-.237h-1.617zm0-2.889h1.43c.269 0 .48-.063.631-.188.157-.131.236-.322.236-.572 0-.263-.075-.46-.226-.591-.152-.132-.365-.197-.641-.197h-1.43zm7.093 1.814 1.4-.306c.086.539.224.93.415 1.173.197.237.516.355.956.355.375 0 .674-.065.897-.197.224-.138.336-.338.336-.601 0-.276-.109-.487-.326-.631-.21-.151-.697-.345-1.459-.582-.717-.224-1.226-.493-1.528-.809-.296-.322-.444-.716-.444-1.183 0-.539.207-.999.621-1.38.421-.388.989-.582 1.706-.582.651 0 1.209.158 1.676.473.473.316.769.786.887 1.41l-1.291.326c-.204-.651-.628-.976-1.272-.976-.342 0-.598.065-.769.197-.165.131-.247.306-.247.522 0 .204.096.362.286.474.191.105.681.292 1.469.562.763.263 1.285.549 1.568.858.283.302.424.713.424 1.232 0 .611-.23 1.117-.69 1.518s-1.075.602-1.844.602c-.782 0-1.417-.204-1.903-.611-.48-.415-.769-1.029-.868-1.844zm6.505.443v-2.277h-.809v-1.085h.838v-1.282h1.213v1.282h1.321v1.085h-1.301v2.159c0 .276.046.47.138.582s.279.168.562.168h.424v1.232h-.543c-.703 0-1.186-.148-1.449-.444-.263-.295-.394-.769-.394-1.42zm6.428 1.864v-.503h-.02c-.013.02-.03.046-.049.079-.02.026-.069.076-.148.148s-.168.138-.266.197c-.099.059-.234.112-.405.158s-.355.069-.552.069c-.631 0-1.104-.148-1.42-.444-.309-.302-.463-.67-.463-1.104 0-.454.135-.799.404-1.035.27-.237.727-.434 1.371-.592.598-.145.973-.26 1.124-.345.151-.086.227-.207.227-.365s-.076-.289-.227-.394c-.145-.105-.365-.158-.661-.158-.348 0-.598.079-.749.237-.151.151-.27.358-.355.621l-1.065-.444c.125-.44.368-.799.73-1.075.361-.282.834-.424 1.419-.424.638 0 1.161.168 1.568.503.408.335.611.855.611 1.558v3.313zm-1.292-2.14c-.329.079-.545.175-.651.286-.098.106-.148.227-.148.365 0 .355.257.533.77.533.387 0 .677-.073.867-.217.197-.152.296-.336.296-.552v-.908h-.02c-.026.053-.056.096-.088.129-.027.026-.125.075-.296.147-.171.066-.414.139-.73.217zm3.648 2.14v-5.226h1.282v5.226zm0-5.985v-1.213h1.282v1.213zm2.658 5.985v-5.226h1.213v.552h.019c.099-.197.244-.355.434-.473.197-.118.411-.177.641-.177.165 0 .322.033.473.098l-.197 1.243c-.144-.053-.279-.079-.404-.079-.598 0-.897.397-.897 1.193v2.869zm3.226-1.725 1.154-.296c.092.729.483 1.094 1.173 1.094.315 0 .565-.049.749-.148.191-.105.286-.25.286-.434 0-.151-.072-.262-.217-.335-.144-.079-.447-.184-.907-.315-.125-.033-.22-.059-.286-.079-.604-.171-1.048-.372-1.331-.602-.282-.236-.424-.549-.424-.936 0-.434.174-.809.523-1.124.355-.316.838-.474 1.449-.474 1.17 0 1.903.513 2.199 1.538l-1.065.326c-.092-.25-.223-.447-.394-.592-.165-.144-.408-.217-.73-.217-.25 0-.45.05-.601.148-.145.092-.217.204-.217.335 0 .145.085.26.256.346.178.078.615.217 1.311.414.612.164 1.026.374 1.243.631.223.25.335.572.335.966 0 .421-.184.799-.552 1.134-.362.329-.888.493-1.578.493-.723 0-1.282-.181-1.676-.542-.388-.369-.621-.812-.7-1.331z" fill="#7986a3"/><path d="m120.171 156v-6.902h2.928c.612 0 1.101.181 1.469.542.375.355.562.792.562 1.312 0 .578-.249 1.015-.749 1.311v.01c.296.125.536.325.72.601.19.27.286.595.286.977 0 .657-.201 1.183-.602 1.577-.401.381-1.061.572-1.982.572zm1.331-1.232h1.607c.631 0 .947-.306.947-.917 0-.283-.086-.5-.257-.651-.164-.158-.391-.237-.68-.237h-1.617zm0-2.889h1.43c.269 0 .479-.063.631-.188.157-.131.236-.322.236-.572 0-.263-.075-.46-.226-.591-.152-.132-.365-.197-.641-.197h-1.43zm11.54 4.121-.394-1.134h-2.633l-.394 1.134h-1.322l2.495-6.902h1.134l2.485 6.902zm-1.716-4.93-.936 2.692h1.883l-.927-2.692zm3.825 4.93v-7.198h1.331v7.198zm2.715 0v-7.198h1.331v7.198zm6.107-1.804.898.788c-.533.776-1.253 1.164-2.16 1.164-.729 0-1.324-.25-1.784-.749-.46-.507-.69-1.177-.69-2.012s.226-1.502.68-2.001c.46-.507 1.038-.76 1.735-.76s1.269.253 1.716.76c.453.499.68 1.166.68 2.001v.385h-3.51c.02.401.128.71.325.926.204.211.48.316.829.316.295 0 .539-.072.729-.217.197-.151.382-.352.552-.601zm-2.435-1.381h2.268c-.033-.335-.148-.595-.345-.779-.197-.19-.467-.286-.809-.286-.315 0-.575.102-.779.306-.197.204-.309.457-.335.759zm4.753 5.403 1.046-2.474-2.091-4.97h1.302l1.351 3.54h.019l1.351-3.54h1.302l-3.008 7.444z" fill="#7986a3"/><path d="m17.9831 192v-6.902h2.9284c.6113 0 1.101.181 1.4691.542.3747.355.562.792.562 1.312 0 .578-.2498 1.015-.7493 1.311v.01c.2958.125.5357.325.7197.601.1907.27.286.595.286.977 0 .657-.2005 1.183-.6015 1.577-.401.381-1.0616.572-1.9818.572zm1.3311-1.232h1.6071c.6311 0 .9466-.306.9466-.917 0-.283-.0855-.5-.2564-.651-.1643-.158-.3911-.237-.6803-.237h-1.617zm0-2.889h1.4297c.2695 0 .4798-.063.631-.188.1577-.131.2366-.322.2366-.572 0-.263-.0756-.46-.2268-.591-.1511-.132-.3648-.197-.6408-.197h-1.4297zm7.9511 4.121v-.503h-.0197c-.0131.02-.0296.046-.0493.079-.0197.026-.069.076-.1479.148s-.1676.138-.2662.197-.2333.112-.4043.158c-.1709.046-.3549.069-.5521.069-.631 0-1.1043-.148-1.4198-.444-.309-.302-.4635-.67-.4635-1.104 0-.454.1348-.799.4043-1.035.2695-.237.7264-.434 1.3705-.592.5982-.145.9729-.26 1.1241-.345.1512-.086.2267-.207.2267-.365s-.0755-.289-.2267-.394c-.1446-.105-.3649-.158-.6606-.158-.3484 0-.5982.079-.7494.237-.1512.151-.2695.358-.355.621l-1.0648-.444c.1249-.44.3681-.799.7296-1.075.3615-.282.8348-.424 1.4198-.424.6376 0 1.1602.168 1.5678.503.4075.335.6113.855.6113 1.558v3.313zm-1.2916-2.14c-.3287.079-.5456.175-.6508.286-.0986.106-.1479.227-.1479.365 0 .355.2564.533.7691.533.3878 0 .6771-.073.8677-.217.1972-.152.2958-.336.2958-.552v-.908h-.0197c-.0263.053-.0559.096-.0888.129-.0263.026-.1249.075-.2958.147-.1709.066-.4141.139-.7296.217zm6.7838.03 1.2127.315c-.1183.625-.3746 1.105-.769 1.44s-.8907.503-1.4889.503c-.7099 0-1.2949-.243-1.755-.73-.4536-.486-.6804-1.163-.6804-2.031 0-.861.2334-1.535.7001-2.021.4733-.493 1.055-.74 1.7452-.74.585 0 1.0747.171 1.4691.513s.6376.799.7296 1.371l-1.193.226c-.1249-.637-.4601-.956-1.0057-.956-.3615 0-.6508.138-.8677.414-.2103.27-.3155.667-.3155 1.193s.1052.927.3155 1.203c.2104.27.4996.404.8677.404.5784 0 .9235-.368 1.0353-1.104zm2.1989 2.11v-7.198h1.2818v4.132h.0197l1.903-2.16h1.6071l-1.8832 2.12 2.0508 3.106h-1.4198l-1.5973-2.386h-.0197l-.6606.749v1.637zm8.2349 0v-6.902h2.9284c.6114 0 1.1011.181 1.4692.542.3746.355.562.792.562 1.312 0 .578-.2498 1.015-.7494 1.311v.01c.2958.125.5358.325.7198.601.1906.27.2859.595.2859.977 0 .657-.2004 1.183-.6014 1.577-.401.381-1.0616.572-1.9819.572zm1.3311-1.232h1.6072c.631 0 .9466-.306.9466-.917 0-.283-.0855-.5-.2564-.651-.1643-.158-.3911-.237-.6803-.237h-1.6171zm0-2.889h1.4297c.2695 0 .4799-.063.6311-.188.1577-.131.2366-.322.2366-.572 0-.263-.0756-.46-.2268-.591-.1512-.132-.3648-.197-.6409-.197h-1.4297z" fill="#7986a3"/><path d="m152.779 257v-6.902h2.928c.611 0 1.101.181 1.469.542.375.355.562.792.562 1.312 0 .578-.25 1.015-.749 1.311v.01c.296.125.536.325.72.601.19.27.286.595.286.977 0 .657-.201 1.183-.602 1.577-.401.381-1.061.572-1.982.572zm1.331-1.232h1.607c.631 0 .947-.306.947-.917 0-.283-.086-.5-.257-.651-.164-.158-.391-.237-.68-.237h-1.617zm0-2.889h1.429c.27 0 .48-.063.632-.188.157-.131.236-.322.236-.572 0-.263-.075-.46-.227-.591-.151-.132-.364-.197-.641-.197h-1.429zm7.537 4.121v-6.902h2.8c.71 0 1.282.201 1.716.602.44.394.66.926.66 1.597 0 .499-.131.923-.394 1.272-.256.348-.611.595-1.065.739l1.469 2.692h-1.439l-1.391-2.564h-1.025v2.564zm1.331-3.717h1.361c.756 0 1.133-.329 1.133-.986 0-.664-.377-.996-1.133-.996h-1.361zm7.816 3.717v-.503h-.019c-.014.02-.03.046-.05.079-.019.026-.069.076-.148.148-.078.072-.167.138-.266.197-.098.059-.233.112-.404.158s-.355.069-.552.069c-.631 0-1.105-.148-1.42-.444-.309-.302-.463-.67-.463-1.104 0-.454.134-.799.404-1.035.269-.237.726-.434 1.37-.592.598-.145.973-.26 1.124-.345.152-.086.227-.207.227-.365s-.075-.289-.227-.394c-.144-.105-.364-.158-.66-.158-.349 0-.598.079-.75.237-.151.151-.269.358-.355.621l-1.064-.444c.124-.44.368-.799.729-1.075.362-.282.835-.424 1.42-.424.638 0 1.16.168 1.568.503.407.335.611.855.611 1.558v3.313zm-1.291-2.14c-.329.079-.546.175-.651.286-.099.106-.148.227-.148.365 0 .355.256.533.769.533.388 0 .677-.073.868-.217.197-.152.296-.336.296-.552v-.908h-.02c-.026.053-.056.096-.089.129-.026.026-.125.075-.296.147-.171.066-.414.139-.729.217zm3.914 2.14v-4.141h-.808v-1.085h.838v-.739c0-.447.115-.763.345-.947.237-.19.578-.286 1.025-.286h1.026v1.134h-.759c-.158 0-.27.033-.336.099-.059.059-.088.164-.088.315v.424h1.321v1.085h-1.282v4.141zm3.524-1.864v-2.277h-.808v-1.085h.838v-1.282h1.213v1.282h1.321v1.085h-1.302v2.159c0 .276.046.47.138.582s.28.168.562.168h.424v1.232h-.542c-.703 0-1.186-.148-1.449-.444-.263-.295-.395-.769-.395-1.42zm6.939.06.897.788c-.532.776-1.252 1.164-2.159 1.164-.73 0-1.325-.25-1.785-.749-.46-.507-.69-1.177-.69-2.012s.227-1.502.68-2.001c.461-.507 1.039-.76 1.736-.76.696 0 1.268.253 1.715.76.454.499.681 1.166.681 2.001v.385h-3.51c.019.401.128.71.325.926.204.211.48.316.828.316.296 0 .539-.072.73-.217.197-.151.381-.352.552-.601zm-2.435-1.381h2.267c-.033-.335-.148-.595-.345-.779-.197-.19-.466-.286-.808-.286-.316 0-.575.102-.779.306-.197.204-.309.457-.335.759zm4.541 3.185v-5.226h1.213v.552h.02c.098-.197.243-.355.434-.473.197-.118.41-.177.64-.177.165 0 .323.033.474.098l-.197 1.243c-.145-.053-.28-.079-.405-.079-.598 0-.897.397-.897 1.193v2.869zm3.226-1.725 1.154-.296c.092.729.483 1.094 1.173 1.094.316 0 .565-.049.75-.148.19-.105.285-.25.285-.434 0-.151-.072-.262-.216-.335-.145-.079-.447-.184-.908-.315-.124-.033-.22-.059-.285-.079-.605-.171-1.049-.372-1.332-.602-.282-.236-.424-.549-.424-.936 0-.434.175-.809.523-1.124.355-.316.838-.474 1.449-.474 1.17 0 1.903.513 2.199 1.538l-1.065.326c-.092-.25-.223-.447-.394-.592-.164-.144-.408-.217-.73-.217-.249 0-.45.05-.601.148-.145.092-.217.204-.217.335 0 .145.085.26.256.346.178.078.615.217 1.312.414.611.164 1.025.374 1.242.631.223.25.335.572.335.966 0 .421-.184.799-.552 1.134-.361.329-.887.493-1.578.493-.723 0-1.281-.181-1.676-.542-.388-.369-.621-.812-.7-1.331z" fill="#7986a3"/><path d="m61.2768 406v-6.902h2.9283c.6114 0 1.1011.181 1.4692.542.3747.355.562.792.562 1.312 0 .578-.2498 1.015-.7494 1.311v.01c.2958.125.5358.325.7198.601.1906.27.286.595.286.977 0 .657-.2005 1.183-.6015 1.577-.401.381-1.0616.572-1.9818.572zm1.331-1.232h1.6072c.631 0 .9466-.306.9466-.917 0-.283-.0855-.5-.2564-.651-.1643-.158-.3911-.237-.6803-.237h-1.6171zm0-2.889h1.4297c.2695 0 .4799-.063.6311-.188.1577-.131.2366-.322.2366-.572 0-.263-.0756-.46-.2268-.591-.1512-.132-.3648-.197-.6409-.197h-1.4297zm7.5371 4.121v-6.902h1.3705l2.0016 4.476h.0197l2.0016-4.476h1.3804v6.902h-1.3015v-4.24h-.0198l-1.9621 4.24h-.2169l-1.9621-4.24h-.0197v4.24zm11.2273 0v-.503h-.0197c-.0132.02-.0296.046-.0493.079-.0197.026-.069.076-.1479.148s-.1676.138-.2662.197-.2334.112-.4043.158-.355.069-.5522.069c-.631 0-1.1043-.148-1.4198-.444-.3089-.302-.4634-.67-.4634-1.104 0-.454.1347-.799.4043-1.035.2695-.237.7263-.434 1.3705-.592.5982-.145.9728-.26 1.124-.345.1512-.086.2268-.207.2268-.365s-.0756-.289-.2268-.394c-.1446-.105-.3648-.158-.6606-.158-.3484 0-.5982.079-.7494.237-.1511.151-.2695.358-.3549.621l-1.0649-.444c.1249-.44.3681-.799.7297-1.075.3615-.282.8348-.424 1.4198-.424.6376 0 1.1602.168 1.5677.503s.6113.855.6113 1.558v3.313zm-1.2917-2.14c-.3286.079-.5455.175-.6507.286-.0986.106-.1479.227-.1479.365 0 .355.2563.533.7691.533.3878 0 .677-.073.8676-.217.1972-.152.2958-.336.2958-.552v-.908h-.0197c-.0263.053-.0559.096-.0887.129-.0263.026-.1249.075-.2958.147-.1709.066-.4141.139-.7297.217zm3.6484 2.14v-5.226h1.2818v5.226zm0-5.985v-1.213h1.2818v1.213zm2.6575 5.985v-5.226h1.2325v.503h.0197c.1446-.184.3418-.338.5916-.463s.5127-.188.7888-.188c.5785 0 1.032.175 1.3607.523.3287.342.493.818.493 1.43v3.421h-1.2818v-3.106c0-.361-.069-.631-.2071-.808-.138-.184-.3746-.276-.7099-.276-.3155 0-.562.092-.7395.276-.1774.177-.2662.417-.2662.719v3.195z" fill="#7986a3"/><path d="m314.888 89.375h1.209c.312 0 .585-.0347.819-.104.234-.078.455-.2167.663-.416s.369-.4983.481-.897c.113-.4073.169-.9143.169-1.521 0-1.014-.19-1.7507-.572-2.21-.372-.468-.866-.702-1.482-.702h-1.287zm-1.755 1.625v-9.1h3.042c.52 0 1.01.091 1.469.273.46.182.876.4507 1.248.806.373.3553.668.832.884 1.43.226.5893.338 1.2653.338 2.028 0 .832-.112 1.5557-.338 2.171-.225.6153-.533 1.092-.923 1.43-.39.3293-.814.572-1.274.728-.45.156-.944.234-1.482.234zm12.823-2.379 1.183 1.04c-.702 1.0227-1.651 1.534-2.847 1.534-.962 0-1.747-.3293-2.353-.988-.607-.6673-.91-1.5513-.91-2.652s.299-1.9803.897-2.639c.606-.6673 1.369-1.001 2.288-1.001.918 0 1.672.3337 2.262 1.001.598.6587.897 1.5383.897 2.639v.507h-4.628c.026.5287.169.936.429 1.222.268.2773.632.416 1.092.416.39 0 .71-.0953.962-.286.26-.1993.502-.4637.728-.793zm-3.211-1.82h2.99c-.044-.442-.195-.7843-.455-1.027-.26-.2513-.616-.377-1.066-.377-.416 0-.759.1343-1.027.403-.26.2687-.408.6023-.442 1.001zm6.339 4.199v-5.46h-1.066v-1.43h1.105v-.975c0-.5893.151-1.0053.455-1.248.312-.2513.762-.377 1.352-.377h1.352v1.495h-1.001c-.208 0-.356.0433-.442.13-.078.078-.117.2167-.117.416v.559h1.742v1.43h-1.69v5.46zm8.767-2.379 1.183 1.04c-.702 1.0227-1.651 1.534-2.847 1.534-.962 0-1.746-.3293-2.353-.988-.606-.6673-.91-1.5513-.91-2.652s.299-1.9803.897-2.639c.607-.6673 1.37-1.001 2.288-1.001.919 0 1.673.3337 2.262 1.001.598.6587.897 1.5383.897 2.639v.507h-4.628c.026.5287.169.936.429 1.222.269.2773.633.416 1.092.416.39 0 .711-.0953.962-.286.26-.1993.503-.4637.728-.793zm-3.211-1.82h2.99c-.043-.442-.195-.7843-.455-1.027-.26-.2513-.615-.377-1.066-.377-.416 0-.758.1343-1.027.403-.26.2687-.407.6023-.442 1.001zm5.988 4.199v-6.89h1.625v.663h.026c.191-.2427.451-.4463.78-.611.33-.1647.676-.247 1.04-.247.763 0 1.361.2297 1.794.689.434.4507.65 1.079.65 1.885v4.511h-1.69v-4.095c0-.4767-.091-.832-.273-1.066-.182-.2427-.494-.364-.936-.364-.416 0-.741.1213-.975.364-.234.234-.351.5503-.351.949v4.212zm11.945-2.821v-1.261c0-.416-.134-.767-.403-1.053-.26-.286-.619-.429-1.079-.429-.494 0-.879.1777-1.157.533-.268.3553-.403.884-.403 1.586 0 .6933.135 1.222.403 1.586.278.3553.663.533 1.157.533.46 0 .819-.143 1.079-.429.269-.2947.403-.65.403-1.066zm.104 2.821v-.663h-.026c-.043.0607-.108.1387-.195.234-.078.0953-.277.2253-.598.39-.312.156-.654.234-1.027.234-.91 0-1.638-.3293-2.184-.988-.537-.6587-.806-1.5427-.806-2.652 0-1.118.295-2.002.884-2.652.59-.6587 1.283-.988 2.08-.988.364 0 .689.0737.975.221.295.1387.494.2773.598.416l.169.221h.026v-3.263h1.69v9.49zm7.873-2.379 1.183 1.04c-.702 1.0227-1.651 1.534-2.847 1.534-.962 0-1.746-.3293-2.353-.988-.606-.6673-.91-1.5513-.91-2.652s.299-1.9803.897-2.639c.607-.6673 1.37-1.001 2.288-1.001.919 0 1.673.3337 2.262 1.001.598.6587.897 1.5383.897 2.639v.507h-4.628c.026.5287.169.936.429 1.222.269.2773.633.416 1.092.416.39 0 .711-.0953.962-.286.26-.1993.503-.4637.728-.793zm-3.211-1.82h2.99c-.043-.442-.195-.7843-.455-1.027-.26-.2513-.615-.377-1.066-.377-.416 0-.758.1343-1.027.403-.26.2687-.407.6023-.442 1.001zm5.988 4.199v-6.89h1.599v.728h.026c.13-.26.321-.468.572-.624.26-.156.542-.234.845-.234.217 0 .425.0433.624.13l-.26 1.638c-.19-.0693-.368-.104-.533-.104-.788 0-1.183.5243-1.183 1.573v3.783zm4.254-2.275 1.521-.39c.121.962.637 1.443 1.547 1.443.416 0 .745-.065.988-.195.251-.1387.377-.3293.377-.572 0-.1993-.095-.3467-.286-.442-.191-.104-.589-.2427-1.196-.416-.165-.0433-.29-.078-.377-.104-.797-.2253-1.382-.4897-1.755-.793-.373-.312-.559-.7237-.559-1.235 0-.572.23-1.066.689-1.482.468-.416 1.105-.624 1.911-.624 1.543 0 2.509.676 2.899 2.028l-1.404.429c-.121-.3293-.295-.5893-.52-.78-.217-.1907-.537-.286-.962-.286-.329 0-.594.065-.793.195-.191.1213-.286.2687-.286.442 0 .1907.113.3423.338.455.234.104.81.286 1.729.546.806.2167 1.352.494 1.638.832.295.3293.442.754.442 1.274 0 .5547-.243 1.053-.728 1.495-.477.4333-1.17.65-2.08.65-.953 0-1.69-.2383-2.21-.715-.511-.4853-.819-1.0703-.923-1.755z" fill="#24e8cc"/><path d="m44 333h25" stroke="#24e8ad" stroke-linecap="round" stroke-width="3"/><path d="m307 377h35" stroke="#24e8ad" stroke-linecap="round" stroke-width="3"/><path d="m447 319h51" stroke="#24e8ad" stroke-linecap="round" stroke-width="3"/><path d="m564 304h26" stroke="#24e8ad" stroke-linecap="round" stroke-width="3"/><path d="m239 458v26" stroke="#ff5859" stroke-linecap="round" stroke-width="3"/><path d="m423 435v25" stroke="#ff5859" stroke-linecap="round" stroke-width="3"/><path d="m610 422.5 34.5 43" stroke="#ff5859" stroke-linecap="round" stroke-width="3"/><path d="m109 479h72" stroke="#ff5859" stroke-linecap="round" stroke-width="3"/></g></svg>